M48
;GenerationSoftware,Autodesk,EAGLE,9.5.2*%
;CreationDate,2020-03-16T13:55:46Z*%
FMAT,2
ICI,OFF
METRIC,TZ,000.000
T6C0.350
T5C0.650
T4C0.813
T3C0.950
T2C1.016
T1C1.500
%
G90
M71
T1
X34300Y29500
X34300Y22500
T2
X34640Y3860
X34640Y6360
X34640Y8860
X9540Y29170
X9540Y26670
X2760Y28000
X2760Y25460
X2760Y22920
T3
X52910Y27550
X46110Y27550
T4
X20527Y8200
X25353Y8200
T5
X52000Y10000
X50000Y12000
X50000Y10000
X52000Y12000
T6
X18000Y5000
X19400Y12300
X16600Y30000
X19900Y29500
X25700Y29800
X28300Y22500
X23900Y14469
X61000Y23659
X59100Y16300
X56000Y16000
X54831Y12100
X42200Y16300
X16000Y25000
X12000Y29000
X50000Y19000
X15000Y22000
X15400Y19900
X26000Y14000
X23000Y17985
X13000Y6000
X14230Y25230
X20101Y27070
X22000Y27000
X24000Y27930
X41300Y22800
X55000Y25000
X59000Y15000
X36000Y27100
X21500Y23000
X29700Y23700
X46000Y30000
X30200Y24600
X23700Y26700
X19900Y22100
X45768Y9368
X29000Y21000
X47300Y6769
X28900Y19800
X56000Y6000
X30000Y19000
X48300Y5100
X45000Y6000
X19000Y20000
X43600Y6100
X22000Y19000
X43200Y5000
X25000Y18300
X45000Y19000
X41000Y20800
X47000Y18000
X48748Y17748
X47400Y14499
X42981Y14000
X43800Y18000
X65000Y28000
X39100Y6000
X56300Y22700
X61052Y28452
X48000Y19000
X55000Y4000
X37400Y3900
X53700Y4200
X37400Y4900
X26500Y11600
X7160Y5970
X10000Y2000
X35000Y26000
X8000Y10000
X3000Y2000
X29000Y4000
X57000Y8000
X34000Y12000
X33000Y13000
X45650Y14650
X47269Y9900
X63500Y28100
X50974Y30190
X17000Y16000
X43900Y22090
M30