G04 EAGLE Gerber RS-274X export*
G04 #@! %TF.Part,Single*
G04 #@! %TF.FileFunction,Copper,L1,Top,Mixed*
G04 #@! %TF.FilePolarity,Positive*
G04 #@! %TF.GenerationSoftware,Autodesk,EAGLE,9.5.2*
G04 #@! %TF.CreationDate,2020-03-16T13:55:46Z*
G75*
%MOMM*%
%FSLAX34Y34*%
%LPD*%
%INTop Copper*%
%IPPOS*%
%AMOC8*
5,1,8,0,0,1.08239X$1,22.5*%
G01*
%ADD10R,1.100000X1.000000*%
%ADD11R,1.000000X1.100000*%
%ADD12R,1.300000X1.500000*%
%ADD13R,1.500000X1.300000*%
%ADD14R,1.524000X1.524000*%
%ADD15C,1.524000*%
%ADD16R,2.400000X1.650000*%
%ADD17C,0.140000*%
%ADD18R,2.768600X3.987800*%
%ADD19R,0.762000X1.524000*%
%ADD20C,1.879600*%
%ADD21R,0.900000X1.500000*%
%ADD22R,1.500000X0.900000*%
%ADD23R,6.000000X6.000000*%
%ADD24R,1.500000X0.300000*%
%ADD25R,0.300000X1.500000*%
%ADD26C,1.800000*%
%ADD27R,2.000000X1.500000*%
%ADD28C,0.254000*%
%ADD29C,0.304800*%
%ADD30C,1.016000*%
%ADD31C,0.812800*%
%ADD32C,0.756400*%
%ADD33C,0.609600*%
%ADD34R,1.056400X1.056400*%
%ADD35C,0.152400*%
%ADD36C,0.508000*%

G36*
X36074Y160619D02*
X36074Y160619D01*
X36198Y160619D01*
X36392Y160643D01*
X36587Y160658D01*
X36708Y160682D01*
X36830Y160697D01*
X37020Y160746D01*
X37211Y160785D01*
X37325Y160823D01*
X37447Y160855D01*
X37646Y160933D01*
X37832Y160996D01*
X40902Y162268D01*
X59338Y162268D01*
X59411Y162272D01*
X59484Y162270D01*
X59729Y162292D01*
X59974Y162308D01*
X60046Y162321D01*
X60119Y162328D01*
X60359Y162381D01*
X60600Y162427D01*
X60670Y162450D01*
X60741Y162465D01*
X60972Y162548D01*
X61206Y162624D01*
X61272Y162655D01*
X61341Y162679D01*
X61560Y162790D01*
X61783Y162895D01*
X61845Y162934D01*
X61910Y162967D01*
X62113Y163104D01*
X62321Y163236D01*
X62377Y163282D01*
X62438Y163323D01*
X62611Y163476D01*
X62812Y163641D01*
X62870Y163702D01*
X62930Y163755D01*
X65931Y166756D01*
X69198Y168110D01*
X92859Y168110D01*
X92866Y168107D01*
X92945Y168088D01*
X93023Y168061D01*
X93255Y168013D01*
X93485Y167958D01*
X93566Y167949D01*
X93647Y167932D01*
X93883Y167913D01*
X94118Y167887D01*
X94200Y167888D01*
X94282Y167882D01*
X94518Y167893D01*
X94755Y167896D01*
X94836Y167908D01*
X94918Y167911D01*
X95152Y167952D01*
X95386Y167985D01*
X95465Y168006D01*
X95546Y168021D01*
X95772Y168090D01*
X96001Y168152D01*
X96077Y168183D01*
X96155Y168207D01*
X96371Y168305D01*
X96590Y168395D01*
X96661Y168435D01*
X96736Y168469D01*
X96938Y168593D01*
X97144Y168710D01*
X97210Y168759D01*
X97280Y168801D01*
X97465Y168949D01*
X97654Y169091D01*
X97713Y169148D01*
X97777Y169199D01*
X97943Y169369D01*
X98113Y169533D01*
X98164Y169597D01*
X98221Y169656D01*
X98364Y169845D01*
X98512Y170030D01*
X98555Y170100D01*
X98605Y170165D01*
X98722Y170371D01*
X98847Y170572D01*
X98880Y170647D01*
X98921Y170718D01*
X99012Y170937D01*
X99110Y171152D01*
X99135Y171230D01*
X99166Y171306D01*
X99229Y171535D01*
X99299Y171761D01*
X99314Y171841D01*
X99335Y171920D01*
X99369Y172155D01*
X99411Y172388D01*
X99415Y172470D01*
X99427Y172551D01*
X99431Y172788D01*
X99443Y173024D01*
X99437Y173106D01*
X99438Y173188D01*
X99413Y173423D01*
X99395Y173660D01*
X99378Y173740D01*
X99370Y173821D01*
X99315Y174052D01*
X99268Y174284D01*
X99242Y174360D01*
X99222Y174441D01*
X99131Y174685D01*
X99056Y174904D01*
X96791Y180373D01*
X96791Y207180D01*
X96782Y207335D01*
X96782Y207490D01*
X96762Y207652D01*
X96751Y207816D01*
X96722Y207968D01*
X96703Y208122D01*
X96663Y208281D01*
X96632Y208442D01*
X96584Y208589D01*
X96546Y208739D01*
X96486Y208892D01*
X96435Y209048D01*
X96370Y209188D01*
X96313Y209332D01*
X96234Y209476D01*
X96164Y209624D01*
X96082Y209755D01*
X96007Y209891D01*
X95911Y210024D01*
X95823Y210163D01*
X95725Y210282D01*
X95634Y210408D01*
X95522Y210527D01*
X95418Y210654D01*
X95305Y210760D01*
X95199Y210873D01*
X95073Y210978D01*
X94954Y211090D01*
X94828Y211182D01*
X94709Y211281D01*
X94571Y211369D01*
X94439Y211465D01*
X94303Y211540D01*
X94172Y211624D01*
X94024Y211694D01*
X93881Y211773D01*
X93737Y211830D01*
X93597Y211897D01*
X93441Y211948D01*
X93288Y212008D01*
X93138Y212047D01*
X92991Y212096D01*
X92830Y212127D01*
X92672Y212168D01*
X92518Y212187D01*
X92366Y212217D01*
X92207Y212227D01*
X92040Y212249D01*
X91871Y212249D01*
X91712Y212259D01*
X85750Y212259D01*
X85259Y212357D01*
X84797Y212548D01*
X84380Y212827D01*
X84027Y213180D01*
X83748Y213597D01*
X83557Y214059D01*
X83459Y214550D01*
X83459Y217221D01*
X91712Y217221D01*
X91867Y217230D01*
X92022Y217230D01*
X92184Y217250D01*
X92348Y217261D01*
X92500Y217289D01*
X92654Y217309D01*
X92813Y217349D01*
X92974Y217380D01*
X93121Y217428D01*
X93271Y217466D01*
X93424Y217526D01*
X93580Y217576D01*
X93720Y217642D01*
X93864Y217699D01*
X94008Y217778D01*
X94156Y217847D01*
X94287Y217930D01*
X94423Y218005D01*
X94556Y218101D01*
X94695Y218188D01*
X94814Y218287D01*
X94940Y218378D01*
X95059Y218490D01*
X95186Y218594D01*
X95292Y218707D01*
X95405Y218813D01*
X95510Y218939D01*
X95622Y219058D01*
X95714Y219184D01*
X95813Y219303D01*
X95901Y219441D01*
X95997Y219573D01*
X96072Y219709D01*
X96156Y219840D01*
X96226Y219988D01*
X96305Y220131D01*
X96362Y220275D01*
X96429Y220415D01*
X96480Y220571D01*
X96540Y220723D01*
X96579Y220873D01*
X96628Y221021D01*
X96659Y221181D01*
X96700Y221340D01*
X96719Y221494D01*
X96749Y221646D01*
X96759Y221805D01*
X96781Y221972D01*
X96781Y222141D01*
X96791Y222300D01*
X96782Y222455D01*
X96782Y222609D01*
X96782Y222610D01*
X96762Y222773D01*
X96751Y222936D01*
X96722Y223088D01*
X96703Y223242D01*
X96663Y223401D01*
X96632Y223562D01*
X96584Y223709D01*
X96546Y223859D01*
X96486Y224012D01*
X96435Y224168D01*
X96370Y224308D01*
X96313Y224452D01*
X96234Y224596D01*
X96164Y224745D01*
X96082Y224875D01*
X96007Y225011D01*
X95911Y225144D01*
X95823Y225283D01*
X95725Y225402D01*
X95634Y225528D01*
X95522Y225647D01*
X95418Y225774D01*
X95305Y225880D01*
X95199Y225993D01*
X95073Y226098D01*
X94954Y226211D01*
X94828Y226302D01*
X94709Y226401D01*
X94571Y226489D01*
X94439Y226586D01*
X94303Y226660D01*
X94172Y226744D01*
X94024Y226814D01*
X93881Y226893D01*
X93737Y226950D01*
X93597Y227017D01*
X93441Y227068D01*
X93288Y227129D01*
X93138Y227167D01*
X92991Y227216D01*
X92830Y227247D01*
X92672Y227288D01*
X92518Y227308D01*
X92366Y227337D01*
X92207Y227347D01*
X92040Y227369D01*
X91871Y227369D01*
X91712Y227379D01*
X83459Y227379D01*
X83459Y230050D01*
X83557Y230541D01*
X83748Y231003D01*
X84027Y231420D01*
X84380Y231773D01*
X84797Y232052D01*
X85259Y232243D01*
X85750Y232341D01*
X87752Y232341D01*
X87769Y232287D01*
X87773Y232278D01*
X87776Y232268D01*
X87909Y231986D01*
X88038Y231709D01*
X88043Y231701D01*
X88047Y231692D01*
X88213Y231431D01*
X88377Y231170D01*
X88383Y231162D01*
X88388Y231153D01*
X88585Y230916D01*
X88781Y230677D01*
X88788Y230670D01*
X88794Y230662D01*
X89018Y230452D01*
X89243Y230238D01*
X89251Y230232D01*
X89258Y230226D01*
X89507Y230045D01*
X89756Y229861D01*
X89765Y229856D01*
X89773Y229851D01*
X90044Y229701D01*
X90313Y229552D01*
X90322Y229548D01*
X90331Y229543D01*
X90618Y229429D01*
X90904Y229314D01*
X90914Y229311D01*
X90923Y229308D01*
X91220Y229231D01*
X91521Y229152D01*
X91531Y229151D01*
X91540Y229148D01*
X91846Y229109D01*
X92152Y229069D01*
X92162Y229069D01*
X92172Y229067D01*
X92482Y229067D01*
X92789Y229065D01*
X92799Y229066D01*
X92809Y229066D01*
X93117Y229104D01*
X93422Y229141D01*
X93432Y229144D01*
X93442Y229145D01*
X93741Y229221D01*
X94040Y229296D01*
X94049Y229300D01*
X94059Y229302D01*
X94347Y229415D01*
X94634Y229527D01*
X94642Y229531D01*
X94652Y229535D01*
X94926Y229685D01*
X95194Y229830D01*
X95202Y229836D01*
X95211Y229841D01*
X95461Y230022D01*
X95712Y230201D01*
X95719Y230208D01*
X95727Y230214D01*
X95953Y230424D01*
X96179Y230634D01*
X96186Y230642D01*
X96193Y230649D01*
X96390Y230886D01*
X96589Y231123D01*
X96594Y231131D01*
X96600Y231139D01*
X96765Y231396D01*
X96934Y231658D01*
X96938Y231667D01*
X96943Y231676D01*
X97195Y232207D01*
X97216Y232250D01*
X97216Y232251D01*
X97217Y232251D01*
X97217Y232252D01*
X97305Y232521D01*
X97415Y232856D01*
X97415Y232857D01*
X97416Y232858D01*
X97472Y233146D01*
X97537Y233481D01*
X97537Y233482D01*
X97537Y233483D01*
X97541Y233539D01*
X97562Y233858D01*
X100395Y236691D01*
X103383Y237929D01*
X111712Y237929D01*
X111867Y237938D01*
X112022Y237938D01*
X112184Y237958D01*
X112348Y237969D01*
X112500Y237998D01*
X112654Y238017D01*
X112813Y238057D01*
X112974Y238088D01*
X113121Y238136D01*
X113271Y238174D01*
X113424Y238234D01*
X113580Y238285D01*
X113720Y238350D01*
X113864Y238407D01*
X114008Y238486D01*
X114156Y238556D01*
X114287Y238638D01*
X114423Y238713D01*
X114556Y238809D01*
X114695Y238897D01*
X114814Y238995D01*
X114940Y239086D01*
X115059Y239198D01*
X115186Y239302D01*
X115292Y239415D01*
X115405Y239521D01*
X115510Y239647D01*
X115622Y239766D01*
X115714Y239892D01*
X115813Y240011D01*
X115901Y240149D01*
X115997Y240281D01*
X116072Y240417D01*
X116156Y240548D01*
X116226Y240696D01*
X116305Y240839D01*
X116362Y240983D01*
X116429Y241123D01*
X116480Y241279D01*
X116540Y241432D01*
X116579Y241582D01*
X116628Y241729D01*
X116659Y241890D01*
X116700Y242048D01*
X116719Y242202D01*
X116749Y242354D01*
X116759Y242513D01*
X116766Y242567D01*
X118802Y247482D01*
X134818Y263498D01*
X139673Y265509D01*
X144927Y265509D01*
X149782Y263498D01*
X153498Y259782D01*
X155509Y254927D01*
X155509Y249673D01*
X153212Y244127D01*
X153122Y243865D01*
X153027Y243603D01*
X153018Y243563D01*
X153005Y243524D01*
X152949Y243252D01*
X152888Y242981D01*
X152884Y242940D01*
X152876Y242900D01*
X152854Y242623D01*
X152828Y242347D01*
X152829Y242306D01*
X152826Y242265D01*
X152839Y241987D01*
X152847Y241710D01*
X152853Y241670D01*
X152855Y241629D01*
X152903Y241355D01*
X152946Y241081D01*
X152957Y241041D01*
X152964Y241001D01*
X153046Y240735D01*
X153123Y240469D01*
X153139Y240431D01*
X153151Y240392D01*
X153266Y240138D01*
X153375Y239884D01*
X153396Y239848D01*
X153413Y239811D01*
X153558Y239574D01*
X153699Y239335D01*
X153724Y239302D01*
X153745Y239267D01*
X153919Y239050D01*
X154088Y238831D01*
X154117Y238802D01*
X154143Y238770D01*
X154342Y238576D01*
X154538Y238379D01*
X154571Y238354D01*
X154600Y238326D01*
X154822Y238158D01*
X155041Y237988D01*
X155076Y237967D01*
X155109Y237942D01*
X155350Y237804D01*
X155589Y237662D01*
X155626Y237646D01*
X155662Y237626D01*
X155919Y237519D01*
X156173Y237408D01*
X156212Y237397D01*
X156250Y237381D01*
X156519Y237307D01*
X156784Y237229D01*
X156825Y237222D01*
X156864Y237211D01*
X157140Y237172D01*
X157413Y237128D01*
X157454Y237126D01*
X157495Y237120D01*
X157773Y237115D01*
X158050Y237106D01*
X158091Y237110D01*
X158132Y237109D01*
X158408Y237139D01*
X158684Y237164D01*
X158725Y237173D01*
X158765Y237177D01*
X159035Y237241D01*
X159307Y237301D01*
X159345Y237315D01*
X159385Y237325D01*
X159645Y237422D01*
X159907Y237515D01*
X159943Y237534D01*
X159982Y237548D01*
X160228Y237678D01*
X160475Y237803D01*
X160509Y237826D01*
X160546Y237845D01*
X160773Y238004D01*
X161004Y238159D01*
X161034Y238186D01*
X161068Y238210D01*
X161307Y238426D01*
X161496Y238592D01*
X162795Y239891D01*
X165783Y241129D01*
X177192Y241129D01*
X177347Y241138D01*
X177502Y241138D01*
X177664Y241158D01*
X177828Y241169D01*
X177980Y241198D01*
X178134Y241217D01*
X178293Y241257D01*
X178454Y241288D01*
X178601Y241336D01*
X178751Y241374D01*
X178904Y241434D01*
X179060Y241485D01*
X179200Y241550D01*
X179344Y241607D01*
X179488Y241686D01*
X179636Y241756D01*
X179767Y241838D01*
X179903Y241913D01*
X180036Y242009D01*
X180175Y242097D01*
X180294Y242195D01*
X180420Y242286D01*
X180539Y242398D01*
X180666Y242502D01*
X180772Y242615D01*
X180885Y242721D01*
X180990Y242847D01*
X181102Y242966D01*
X181194Y243092D01*
X181293Y243211D01*
X181381Y243349D01*
X181477Y243481D01*
X181552Y243617D01*
X181636Y243748D01*
X181706Y243896D01*
X181785Y244039D01*
X181842Y244183D01*
X181909Y244323D01*
X181960Y244479D01*
X182020Y244632D01*
X182059Y244782D01*
X182108Y244929D01*
X182139Y245090D01*
X182180Y245248D01*
X182199Y245402D01*
X182229Y245554D01*
X182239Y245713D01*
X182261Y245880D01*
X182261Y246049D01*
X182271Y246208D01*
X182271Y257617D01*
X183439Y260436D01*
X183463Y260505D01*
X183493Y260571D01*
X183566Y260806D01*
X183645Y261039D01*
X183660Y261110D01*
X183682Y261180D01*
X183725Y261422D01*
X183775Y261662D01*
X183780Y261735D01*
X183793Y261807D01*
X183805Y262052D01*
X183825Y262298D01*
X183821Y262371D01*
X183825Y262443D01*
X183807Y262688D01*
X183795Y262934D01*
X183783Y263006D01*
X183777Y263079D01*
X183728Y263319D01*
X183686Y263562D01*
X183665Y263632D01*
X183650Y263703D01*
X183575Y263922D01*
X183499Y264171D01*
X183465Y264247D01*
X183439Y264323D01*
X182499Y266592D01*
X182499Y299811D01*
X183744Y302816D01*
X183807Y303002D01*
X183880Y303184D01*
X183911Y303303D01*
X183950Y303419D01*
X183990Y303611D01*
X184039Y303800D01*
X184055Y303922D01*
X184080Y304043D01*
X184095Y304238D01*
X184120Y304432D01*
X184120Y304556D01*
X184130Y304678D01*
X184121Y304874D01*
X184121Y305070D01*
X184106Y305192D01*
X184100Y305314D01*
X184067Y305507D01*
X184043Y305702D01*
X184012Y305821D01*
X183991Y305942D01*
X183934Y306129D01*
X183885Y306319D01*
X183840Y306434D01*
X183804Y306551D01*
X183724Y306730D01*
X183652Y306912D01*
X183593Y307020D01*
X183543Y307132D01*
X183441Y307299D01*
X183347Y307471D01*
X183274Y307571D01*
X183210Y307676D01*
X183088Y307829D01*
X182973Y307988D01*
X182889Y308078D01*
X182813Y308174D01*
X182672Y308310D01*
X182538Y308453D01*
X182444Y308532D01*
X182356Y308618D01*
X182199Y308736D01*
X182049Y308861D01*
X181945Y308927D01*
X181847Y309001D01*
X181677Y309098D01*
X181512Y309204D01*
X181400Y309256D01*
X181294Y309317D01*
X181113Y309393D01*
X180936Y309477D01*
X180819Y309515D01*
X180706Y309562D01*
X180517Y309614D01*
X180331Y309676D01*
X180210Y309699D01*
X180091Y309732D01*
X179898Y309760D01*
X179705Y309797D01*
X179585Y309805D01*
X179461Y309823D01*
X179248Y309827D01*
X179051Y309839D01*
X115063Y309839D01*
X114868Y309827D01*
X114672Y309824D01*
X114550Y309807D01*
X114427Y309799D01*
X114235Y309763D01*
X114041Y309735D01*
X113922Y309703D01*
X113801Y309680D01*
X113615Y309620D01*
X113426Y309568D01*
X113312Y309521D01*
X113195Y309483D01*
X113018Y309400D01*
X112837Y309325D01*
X112730Y309265D01*
X112618Y309212D01*
X112453Y309108D01*
X112283Y309011D01*
X112184Y308937D01*
X112080Y308871D01*
X111929Y308747D01*
X111772Y308629D01*
X111684Y308544D01*
X111589Y308466D01*
X111455Y308323D01*
X111314Y308187D01*
X111237Y308091D01*
X111152Y308002D01*
X111037Y307843D01*
X110914Y307691D01*
X110850Y307586D01*
X110777Y307487D01*
X110683Y307315D01*
X110580Y307148D01*
X110529Y307036D01*
X110470Y306929D01*
X110397Y306747D01*
X110316Y306568D01*
X110280Y306451D01*
X110234Y306336D01*
X110185Y306147D01*
X110127Y305960D01*
X110106Y305839D01*
X110075Y305720D01*
X110050Y305525D01*
X110016Y305333D01*
X110010Y305210D01*
X109994Y305088D01*
X109994Y304891D01*
X109984Y304696D01*
X109993Y304574D01*
X109993Y304450D01*
X110017Y304256D01*
X110032Y304061D01*
X110057Y303940D01*
X110072Y303818D01*
X110120Y303628D01*
X110159Y303437D01*
X110198Y303323D01*
X110229Y303201D01*
X110307Y303003D01*
X110370Y302816D01*
X111149Y300937D01*
X111149Y282463D01*
X109911Y279475D01*
X107625Y277189D01*
X107601Y277179D01*
X107355Y277058D01*
X107106Y276942D01*
X107068Y276918D01*
X107028Y276899D01*
X106800Y276749D01*
X106567Y276602D01*
X106533Y276573D01*
X106496Y276549D01*
X106287Y276371D01*
X106076Y276197D01*
X106045Y276164D01*
X106011Y276135D01*
X105826Y275933D01*
X105638Y275733D01*
X105612Y275697D01*
X105582Y275664D01*
X105424Y275440D01*
X105263Y275219D01*
X105241Y275180D01*
X105215Y275143D01*
X105087Y274901D01*
X104954Y274661D01*
X104938Y274620D01*
X104917Y274580D01*
X104819Y274323D01*
X104718Y274070D01*
X104707Y274027D01*
X104691Y273985D01*
X104627Y273717D01*
X104558Y273453D01*
X104552Y273409D01*
X104542Y273365D01*
X104511Y273093D01*
X104476Y272821D01*
X104476Y272776D01*
X104471Y272732D01*
X104475Y272459D01*
X104474Y272184D01*
X104479Y272139D01*
X104480Y272095D01*
X104518Y271824D01*
X104524Y271779D01*
X95400Y271779D01*
X86276Y271779D01*
X86279Y271804D01*
X86319Y272077D01*
X86319Y272122D01*
X86325Y272166D01*
X86325Y272440D01*
X86330Y272714D01*
X86325Y272758D01*
X86325Y272803D01*
X86291Y273076D01*
X86261Y273347D01*
X86251Y273391D01*
X86246Y273435D01*
X86178Y273701D01*
X86114Y273967D01*
X86099Y274009D01*
X86088Y274052D01*
X85987Y274307D01*
X85891Y274564D01*
X85870Y274603D01*
X85854Y274645D01*
X85722Y274885D01*
X85594Y275128D01*
X85569Y275164D01*
X85547Y275203D01*
X85386Y275425D01*
X85229Y275650D01*
X85199Y275683D01*
X85173Y275719D01*
X84986Y275919D01*
X84802Y276123D01*
X84768Y276152D01*
X84738Y276184D01*
X84527Y276359D01*
X84319Y276538D01*
X84281Y276563D01*
X84247Y276591D01*
X84016Y276739D01*
X83787Y276890D01*
X83748Y276909D01*
X83710Y276933D01*
X83424Y277068D01*
X83199Y277179D01*
X83136Y277205D01*
X83067Y277263D01*
X82883Y277425D01*
X82822Y277466D01*
X82766Y277513D01*
X82559Y277645D01*
X82356Y277783D01*
X82291Y277816D01*
X82229Y277856D01*
X82007Y277961D01*
X81788Y278073D01*
X81720Y278097D01*
X81654Y278129D01*
X81420Y278205D01*
X81189Y278289D01*
X81118Y278305D01*
X81048Y278328D01*
X80807Y278374D01*
X80567Y278428D01*
X80495Y278435D01*
X80423Y278449D01*
X80192Y278464D01*
X79933Y278489D01*
X79849Y278486D01*
X79769Y278491D01*
X49340Y278491D01*
X49226Y278484D01*
X49112Y278486D01*
X48908Y278464D01*
X48704Y278451D01*
X48592Y278430D01*
X48479Y278418D01*
X48279Y278370D01*
X48078Y278332D01*
X47970Y278297D01*
X47859Y278271D01*
X47667Y278199D01*
X47472Y278135D01*
X47369Y278087D01*
X47262Y278047D01*
X47081Y277951D01*
X46895Y277864D01*
X46799Y277803D01*
X46698Y277750D01*
X46530Y277633D01*
X46357Y277523D01*
X46269Y277451D01*
X46176Y277386D01*
X46024Y277248D01*
X45866Y277118D01*
X45788Y277035D01*
X45703Y276958D01*
X45570Y276803D01*
X45429Y276654D01*
X45362Y276561D01*
X45288Y276475D01*
X45175Y276304D01*
X45054Y276139D01*
X44999Y276039D01*
X44936Y275944D01*
X44849Y275767D01*
X44747Y275581D01*
X44700Y275464D01*
X44647Y275356D01*
X42115Y269244D01*
X42092Y269175D01*
X42062Y269108D01*
X41989Y268874D01*
X41909Y268641D01*
X41894Y268569D01*
X41873Y268500D01*
X41830Y268258D01*
X41780Y268017D01*
X41774Y267944D01*
X41761Y267873D01*
X41749Y267627D01*
X41729Y267382D01*
X41733Y267309D01*
X41729Y267236D01*
X41748Y266991D01*
X41759Y266746D01*
X41772Y266674D01*
X41777Y266601D01*
X41826Y266360D01*
X41868Y266118D01*
X41890Y266048D01*
X41904Y265977D01*
X41979Y265758D01*
X42055Y265509D01*
X42089Y265432D01*
X42115Y265356D01*
X45127Y258086D01*
X45127Y251114D01*
X42115Y243844D01*
X42092Y243775D01*
X42062Y243708D01*
X41989Y243474D01*
X41909Y243241D01*
X41894Y243169D01*
X41873Y243100D01*
X41830Y242858D01*
X41780Y242617D01*
X41774Y242544D01*
X41761Y242473D01*
X41749Y242227D01*
X41729Y241982D01*
X41733Y241909D01*
X41729Y241836D01*
X41748Y241591D01*
X41759Y241346D01*
X41772Y241274D01*
X41777Y241201D01*
X41826Y240960D01*
X41868Y240718D01*
X41890Y240648D01*
X41904Y240577D01*
X41979Y240358D01*
X42055Y240109D01*
X42089Y240032D01*
X42115Y239956D01*
X45127Y232686D01*
X45127Y225714D01*
X42458Y219272D01*
X37528Y214342D01*
X33944Y212857D01*
X33842Y212807D01*
X33736Y212765D01*
X33556Y212667D01*
X33372Y212577D01*
X33277Y212514D01*
X33177Y212460D01*
X33010Y212339D01*
X32839Y212227D01*
X32753Y212153D01*
X32660Y212086D01*
X32511Y211947D01*
X32355Y211814D01*
X32278Y211729D01*
X32195Y211651D01*
X32064Y211494D01*
X31926Y211342D01*
X31860Y211249D01*
X31787Y211162D01*
X31677Y210989D01*
X31559Y210821D01*
X31506Y210721D01*
X31444Y210625D01*
X31357Y210440D01*
X31261Y210259D01*
X31220Y210152D01*
X31171Y210049D01*
X31107Y209854D01*
X31035Y209663D01*
X31008Y209552D01*
X30972Y209444D01*
X30933Y209243D01*
X30885Y209043D01*
X30873Y208930D01*
X30851Y208818D01*
X30838Y208622D01*
X30815Y208410D01*
X30816Y208284D01*
X30809Y208164D01*
X30809Y165689D01*
X30821Y165493D01*
X30824Y165297D01*
X30841Y165175D01*
X30849Y165053D01*
X30885Y164860D01*
X30913Y164666D01*
X30945Y164548D01*
X30968Y164427D01*
X31028Y164241D01*
X31080Y164052D01*
X31127Y163938D01*
X31165Y163821D01*
X31248Y163644D01*
X31323Y163462D01*
X31383Y163355D01*
X31436Y163244D01*
X31541Y163079D01*
X31637Y162908D01*
X31711Y162810D01*
X31777Y162706D01*
X31901Y162555D01*
X32019Y162398D01*
X32104Y162310D01*
X32182Y162215D01*
X32325Y162080D01*
X32461Y161940D01*
X32557Y161863D01*
X32646Y161778D01*
X32805Y161663D01*
X32957Y161540D01*
X33062Y161476D01*
X33161Y161403D01*
X33333Y161309D01*
X33500Y161206D01*
X33612Y161155D01*
X33719Y161095D01*
X33901Y161023D01*
X34080Y160942D01*
X34197Y160906D01*
X34312Y160860D01*
X34501Y160811D01*
X34688Y160753D01*
X34809Y160732D01*
X34928Y160701D01*
X35123Y160676D01*
X35316Y160642D01*
X35438Y160636D01*
X35560Y160620D01*
X35757Y160620D01*
X35952Y160610D01*
X36074Y160619D01*
G37*
G36*
X520260Y40636D02*
X520260Y40636D01*
X520374Y40634D01*
X520578Y40656D01*
X520782Y40669D01*
X520894Y40690D01*
X521007Y40702D01*
X521207Y40750D01*
X521408Y40788D01*
X521516Y40823D01*
X521627Y40849D01*
X521819Y40921D01*
X522014Y40985D01*
X522117Y41033D01*
X522224Y41073D01*
X522405Y41168D01*
X522590Y41256D01*
X522687Y41317D01*
X522788Y41370D01*
X522955Y41487D01*
X523129Y41597D01*
X523217Y41669D01*
X523310Y41734D01*
X523462Y41872D01*
X523620Y42002D01*
X523698Y42085D01*
X523783Y42162D01*
X523916Y42317D01*
X524056Y42466D01*
X524124Y42559D01*
X524198Y42645D01*
X524311Y42816D01*
X524432Y42981D01*
X524487Y43081D01*
X524549Y43176D01*
X524636Y43353D01*
X524739Y43539D01*
X524742Y43546D01*
X524742Y43547D01*
X524786Y43658D01*
X524839Y43764D01*
X526903Y48747D01*
X530253Y52097D01*
X534631Y53911D01*
X539369Y53911D01*
X541066Y53208D01*
X541252Y53144D01*
X541434Y53072D01*
X541553Y53041D01*
X541669Y53001D01*
X541861Y52962D01*
X542050Y52913D01*
X542172Y52897D01*
X542293Y52872D01*
X542488Y52857D01*
X542682Y52832D01*
X542806Y52831D01*
X542928Y52822D01*
X543124Y52831D01*
X543320Y52831D01*
X543442Y52846D01*
X543564Y52851D01*
X543757Y52885D01*
X543952Y52909D01*
X544071Y52940D01*
X544192Y52961D01*
X544379Y53018D01*
X544569Y53066D01*
X544684Y53111D01*
X544801Y53147D01*
X544980Y53228D01*
X545162Y53300D01*
X545270Y53359D01*
X545382Y53409D01*
X545549Y53511D01*
X545721Y53605D01*
X545821Y53677D01*
X545926Y53741D01*
X546079Y53864D01*
X546238Y53978D01*
X546327Y54062D01*
X546424Y54139D01*
X546560Y54280D01*
X546703Y54413D01*
X546782Y54508D01*
X546868Y54596D01*
X546985Y54752D01*
X547111Y54903D01*
X547177Y55007D01*
X547251Y55105D01*
X547348Y55275D01*
X547454Y55440D01*
X547506Y55551D01*
X547567Y55658D01*
X547643Y55839D01*
X547727Y56016D01*
X547765Y56133D01*
X547812Y56246D01*
X547864Y56435D01*
X547926Y56621D01*
X547949Y56742D01*
X547982Y56860D01*
X548010Y57054D01*
X548047Y57247D01*
X548055Y57367D01*
X548073Y57491D01*
X548077Y57704D01*
X548089Y57900D01*
X548089Y62369D01*
X549903Y66747D01*
X553253Y70097D01*
X557631Y71911D01*
X562369Y71911D01*
X566747Y70097D01*
X570097Y66747D01*
X571969Y62229D01*
X571983Y62200D01*
X571994Y62170D01*
X572123Y61914D01*
X572249Y61657D01*
X572267Y61630D01*
X572281Y61602D01*
X572441Y61364D01*
X572599Y61124D01*
X572619Y61100D01*
X572637Y61073D01*
X572803Y60884D01*
X573012Y60640D01*
X573043Y60612D01*
X573070Y60581D01*
X580053Y53598D01*
X582465Y51186D01*
X582643Y51029D01*
X582815Y50867D01*
X582882Y50819D01*
X582943Y50764D01*
X583139Y50631D01*
X583331Y50492D01*
X583402Y50452D01*
X583470Y50406D01*
X583681Y50299D01*
X583888Y50184D01*
X583965Y50154D01*
X584038Y50117D01*
X584261Y50036D01*
X584481Y49949D01*
X584560Y49928D01*
X584637Y49900D01*
X584868Y49849D01*
X585097Y49789D01*
X585179Y49779D01*
X585259Y49761D01*
X585494Y49739D01*
X585729Y49708D01*
X585812Y49708D01*
X585893Y49701D01*
X586129Y49708D01*
X586367Y49707D01*
X586448Y49717D01*
X586530Y49720D01*
X586763Y49757D01*
X586999Y49786D01*
X587078Y49806D01*
X587159Y49819D01*
X587387Y49885D01*
X587616Y49943D01*
X587693Y49973D01*
X587771Y49996D01*
X587989Y50090D01*
X588209Y50176D01*
X588281Y50216D01*
X588356Y50248D01*
X588560Y50368D01*
X588768Y50482D01*
X588835Y50530D01*
X588905Y50572D01*
X589093Y50716D01*
X589285Y50855D01*
X589344Y50911D01*
X589409Y50961D01*
X589577Y51129D01*
X589750Y51290D01*
X589803Y51353D01*
X589861Y51411D01*
X590006Y51598D01*
X590158Y51780D01*
X590202Y51849D01*
X590252Y51914D01*
X590373Y52117D01*
X590501Y52317D01*
X590536Y52391D01*
X590578Y52461D01*
X590672Y52679D01*
X590774Y52893D01*
X590799Y52970D01*
X590832Y53046D01*
X590899Y53273D01*
X590973Y53498D01*
X590988Y53578D01*
X591011Y53657D01*
X591049Y53891D01*
X591094Y54123D01*
X591099Y54204D01*
X591112Y54286D01*
X591121Y54546D01*
X591136Y54777D01*
X591136Y133243D01*
X591129Y133357D01*
X591131Y133471D01*
X591109Y133675D01*
X591096Y133879D01*
X591075Y133991D01*
X591063Y134105D01*
X591015Y134304D01*
X590977Y134505D01*
X590942Y134614D01*
X590916Y134724D01*
X590844Y134916D01*
X590780Y135111D01*
X590732Y135215D01*
X590692Y135321D01*
X590597Y135502D01*
X590509Y135688D01*
X590448Y135784D01*
X590395Y135885D01*
X590278Y136053D01*
X590168Y136226D01*
X590096Y136314D01*
X590031Y136407D01*
X589893Y136559D01*
X589763Y136717D01*
X589680Y136795D01*
X589603Y136880D01*
X589448Y137013D01*
X589299Y137154D01*
X589206Y137221D01*
X589120Y137295D01*
X588949Y137408D01*
X588784Y137529D01*
X588684Y137584D01*
X588589Y137647D01*
X588412Y137734D01*
X588226Y137836D01*
X588109Y137883D01*
X588001Y137936D01*
X583253Y139903D01*
X579903Y143253D01*
X579047Y145318D01*
X579033Y145347D01*
X579022Y145377D01*
X578894Y145632D01*
X578767Y145890D01*
X578749Y145917D01*
X578735Y145946D01*
X578575Y146182D01*
X578417Y146423D01*
X578396Y146447D01*
X578379Y146474D01*
X578214Y146661D01*
X578004Y146908D01*
X577973Y146936D01*
X577946Y146966D01*
X566256Y158657D01*
X564631Y162578D01*
X564631Y184292D01*
X564622Y184447D01*
X564622Y184602D01*
X564602Y184764D01*
X564591Y184928D01*
X564562Y185080D01*
X564543Y185234D01*
X564503Y185393D01*
X564472Y185554D01*
X564424Y185701D01*
X564386Y185851D01*
X564326Y186004D01*
X564275Y186160D01*
X564210Y186300D01*
X564153Y186444D01*
X564074Y186588D01*
X564004Y186736D01*
X563922Y186867D01*
X563847Y187003D01*
X563751Y187136D01*
X563663Y187275D01*
X563565Y187394D01*
X563474Y187520D01*
X563362Y187639D01*
X563258Y187766D01*
X563145Y187872D01*
X563039Y187985D01*
X562913Y188090D01*
X562794Y188202D01*
X562668Y188294D01*
X562549Y188393D01*
X562411Y188481D01*
X562279Y188577D01*
X562143Y188652D01*
X562012Y188736D01*
X561864Y188806D01*
X561721Y188885D01*
X561577Y188942D01*
X561437Y189009D01*
X561281Y189060D01*
X561128Y189120D01*
X560978Y189159D01*
X560831Y189208D01*
X560670Y189239D01*
X560512Y189280D01*
X560358Y189299D01*
X560206Y189329D01*
X560047Y189339D01*
X559880Y189361D01*
X559711Y189361D01*
X559552Y189371D01*
X516025Y189371D01*
X515912Y189364D01*
X515798Y189366D01*
X515594Y189344D01*
X515390Y189331D01*
X515278Y189310D01*
X515164Y189298D01*
X514965Y189250D01*
X514764Y189212D01*
X514655Y189177D01*
X514544Y189151D01*
X514353Y189079D01*
X514158Y189015D01*
X514054Y188967D01*
X513948Y188927D01*
X513767Y188832D01*
X513581Y188744D01*
X513485Y188683D01*
X513384Y188630D01*
X513216Y188513D01*
X513043Y188403D01*
X512955Y188331D01*
X512862Y188265D01*
X512710Y188128D01*
X512552Y187998D01*
X512473Y187915D01*
X512389Y187838D01*
X512256Y187683D01*
X512115Y187534D01*
X512048Y187441D01*
X511974Y187355D01*
X511861Y187184D01*
X511740Y187019D01*
X511685Y186919D01*
X511622Y186824D01*
X511535Y186647D01*
X511432Y186461D01*
X511386Y186344D01*
X511333Y186236D01*
X510097Y183253D01*
X506747Y179903D01*
X502204Y178021D01*
X502138Y177989D01*
X502070Y177963D01*
X501852Y177849D01*
X501632Y177740D01*
X501571Y177700D01*
X501506Y177666D01*
X501305Y177526D01*
X501099Y177391D01*
X501044Y177343D01*
X500984Y177302D01*
X500801Y177137D01*
X500614Y176977D01*
X500565Y176923D01*
X500511Y176874D01*
X500351Y176688D01*
X500185Y176506D01*
X500143Y176447D01*
X500096Y176391D01*
X499960Y176186D01*
X499819Y175985D01*
X499784Y175921D01*
X499744Y175860D01*
X499642Y175652D01*
X499520Y175422D01*
X499491Y175344D01*
X499455Y175272D01*
X497573Y170729D01*
X494223Y167378D01*
X489705Y165507D01*
X489676Y165493D01*
X489646Y165482D01*
X489391Y165353D01*
X489133Y165227D01*
X489106Y165209D01*
X489077Y165195D01*
X488840Y165035D01*
X488600Y164877D01*
X488576Y164856D01*
X488549Y164838D01*
X488360Y164673D01*
X488115Y164463D01*
X488087Y164433D01*
X488057Y164406D01*
X485451Y161800D01*
X485294Y161622D01*
X485132Y161450D01*
X485083Y161383D01*
X485029Y161322D01*
X484896Y161126D01*
X484757Y160934D01*
X484717Y160863D01*
X484671Y160795D01*
X484563Y160584D01*
X484449Y160377D01*
X484419Y160300D01*
X484381Y160227D01*
X484301Y160004D01*
X484214Y159784D01*
X484193Y159705D01*
X484165Y159628D01*
X484114Y159397D01*
X484054Y159168D01*
X484044Y159086D01*
X484026Y159006D01*
X484004Y158771D01*
X483973Y158536D01*
X483973Y158453D01*
X483966Y158372D01*
X483973Y158136D01*
X483972Y157898D01*
X483982Y157817D01*
X483985Y157735D01*
X484022Y157501D01*
X484051Y157266D01*
X484071Y157187D01*
X484084Y157106D01*
X484150Y156878D01*
X484208Y156649D01*
X484238Y156573D01*
X484261Y156494D01*
X484355Y156276D01*
X484441Y156056D01*
X484481Y155984D01*
X484513Y155909D01*
X484633Y155705D01*
X484747Y155497D01*
X484795Y155430D01*
X484837Y155360D01*
X484982Y155172D01*
X485120Y154980D01*
X485176Y154921D01*
X485226Y154856D01*
X485393Y154688D01*
X485555Y154515D01*
X485618Y154462D01*
X485676Y154404D01*
X485863Y154259D01*
X486045Y154107D01*
X486114Y154063D01*
X486179Y154013D01*
X486382Y153892D01*
X486582Y153764D01*
X486656Y153729D01*
X486727Y153687D01*
X486943Y153593D01*
X487158Y153491D01*
X487236Y153466D01*
X487311Y153433D01*
X487538Y153366D01*
X487763Y153292D01*
X487843Y153277D01*
X487922Y153254D01*
X488156Y153216D01*
X488388Y153171D01*
X488469Y153166D01*
X488551Y153153D01*
X488811Y153144D01*
X489042Y153129D01*
X542617Y153129D01*
X545605Y151891D01*
X547891Y149605D01*
X549129Y146617D01*
X549129Y83383D01*
X547891Y80395D01*
X545605Y78109D01*
X542617Y76871D01*
X494701Y76871D01*
X494465Y76856D01*
X494228Y76849D01*
X494147Y76836D01*
X494065Y76831D01*
X493833Y76787D01*
X493599Y76750D01*
X493520Y76727D01*
X493440Y76712D01*
X493215Y76639D01*
X492987Y76573D01*
X492911Y76541D01*
X492833Y76515D01*
X492619Y76415D01*
X492402Y76321D01*
X492331Y76279D01*
X492257Y76244D01*
X492057Y76118D01*
X491853Y75997D01*
X491788Y75947D01*
X491719Y75903D01*
X491536Y75753D01*
X491349Y75608D01*
X491291Y75550D01*
X491227Y75498D01*
X491065Y75325D01*
X490897Y75158D01*
X490847Y75093D01*
X490791Y75034D01*
X490652Y74842D01*
X490506Y74655D01*
X490464Y74585D01*
X490416Y74519D01*
X490301Y74311D01*
X490181Y74108D01*
X490148Y74033D01*
X490108Y73961D01*
X490021Y73740D01*
X489926Y73523D01*
X489903Y73445D01*
X489873Y73368D01*
X489814Y73139D01*
X489747Y72912D01*
X489734Y72831D01*
X489713Y72752D01*
X489683Y72517D01*
X489646Y72283D01*
X489643Y72201D01*
X489633Y72120D01*
X489632Y71883D01*
X489624Y71646D01*
X489632Y71565D01*
X489631Y71482D01*
X489661Y71247D01*
X489682Y71012D01*
X489700Y70932D01*
X489710Y70850D01*
X489769Y70620D01*
X489819Y70390D01*
X489847Y70312D01*
X489867Y70233D01*
X489954Y70012D01*
X490033Y69789D01*
X490070Y69716D01*
X490100Y69640D01*
X490214Y69431D01*
X490321Y69221D01*
X490367Y69153D01*
X490406Y69081D01*
X490545Y68889D01*
X490677Y68693D01*
X490730Y68632D01*
X490779Y68564D01*
X490957Y68374D01*
X491110Y68200D01*
X507283Y52027D01*
X508753Y48479D01*
X508753Y45708D01*
X508762Y45554D01*
X508762Y45406D01*
X508762Y45398D01*
X508782Y45236D01*
X508793Y45072D01*
X508822Y44920D01*
X508841Y44766D01*
X508881Y44607D01*
X508912Y44446D01*
X508960Y44299D01*
X508998Y44149D01*
X509058Y43996D01*
X509109Y43840D01*
X509174Y43700D01*
X509231Y43556D01*
X509310Y43412D01*
X509380Y43264D01*
X509462Y43133D01*
X509537Y42997D01*
X509633Y42864D01*
X509721Y42725D01*
X509819Y42606D01*
X509910Y42480D01*
X510022Y42361D01*
X510126Y42234D01*
X510239Y42128D01*
X510345Y42015D01*
X510471Y41910D01*
X510590Y41798D01*
X510716Y41706D01*
X510835Y41607D01*
X510973Y41519D01*
X511105Y41423D01*
X511241Y41348D01*
X511372Y41264D01*
X511520Y41194D01*
X511663Y41115D01*
X511807Y41058D01*
X511947Y40991D01*
X512103Y40940D01*
X512256Y40880D01*
X512406Y40841D01*
X512553Y40792D01*
X512714Y40761D01*
X512872Y40720D01*
X513026Y40701D01*
X513178Y40671D01*
X513337Y40661D01*
X513504Y40639D01*
X513673Y40639D01*
X513832Y40629D01*
X520146Y40629D01*
X520260Y40636D01*
G37*
G36*
X449942Y309831D02*
X449942Y309831D01*
X449884Y309833D01*
X449802Y309811D01*
X449718Y309799D01*
X449665Y309776D01*
X449609Y309761D01*
X449536Y309718D01*
X449459Y309683D01*
X449414Y309645D01*
X449364Y309616D01*
X449306Y309554D01*
X449242Y309500D01*
X449210Y309451D01*
X449170Y309408D01*
X449131Y309333D01*
X449084Y309263D01*
X449067Y309207D01*
X449040Y309155D01*
X449029Y309087D01*
X448999Y308992D01*
X448996Y308892D01*
X448985Y308824D01*
X448985Y286923D01*
X448989Y286894D01*
X448986Y286864D01*
X449009Y286753D01*
X449025Y286641D01*
X449037Y286615D01*
X449042Y286586D01*
X449094Y286485D01*
X449141Y286382D01*
X449160Y286359D01*
X449173Y286333D01*
X449251Y286251D01*
X449324Y286165D01*
X449349Y286149D01*
X449369Y286127D01*
X449467Y286070D01*
X449561Y286007D01*
X449589Y285998D01*
X449614Y285984D01*
X449724Y285956D01*
X449832Y285921D01*
X449862Y285921D01*
X449890Y285913D01*
X450003Y285917D01*
X450116Y285914D01*
X450145Y285922D01*
X450174Y285923D01*
X450282Y285957D01*
X450391Y285986D01*
X450417Y286001D01*
X450445Y286010D01*
X450508Y286055D01*
X450636Y286131D01*
X450679Y286177D01*
X450718Y286205D01*
X452654Y288141D01*
X458134Y290411D01*
X464066Y290411D01*
X469546Y288141D01*
X473741Y283946D01*
X476011Y278466D01*
X476011Y272534D01*
X474369Y268569D01*
X473741Y267054D01*
X471179Y264492D01*
X471178Y264491D01*
X469546Y262859D01*
X465233Y261072D01*
X465232Y261072D01*
X464066Y260589D01*
X458134Y260589D01*
X452654Y262859D01*
X450718Y264795D01*
X450694Y264813D01*
X450676Y264835D01*
X450581Y264898D01*
X450491Y264966D01*
X450463Y264976D01*
X450439Y264993D01*
X450331Y265027D01*
X450225Y265067D01*
X450196Y265070D01*
X450168Y265079D01*
X450054Y265081D01*
X449942Y265091D01*
X449913Y265085D01*
X449884Y265086D01*
X449774Y265057D01*
X449663Y265035D01*
X449637Y265021D01*
X449609Y265014D01*
X449511Y264956D01*
X449411Y264904D01*
X449389Y264884D01*
X449364Y264869D01*
X449287Y264786D01*
X449205Y264708D01*
X449190Y264683D01*
X449170Y264661D01*
X449118Y264561D01*
X449061Y264463D01*
X449054Y264434D01*
X449040Y264408D01*
X449027Y264331D01*
X448991Y264187D01*
X448993Y264125D01*
X448985Y264077D01*
X448985Y230000D01*
X448993Y229942D01*
X448991Y229884D01*
X449013Y229802D01*
X449025Y229719D01*
X449049Y229665D01*
X449063Y229609D01*
X449106Y229536D01*
X449141Y229459D01*
X449179Y229414D01*
X449209Y229364D01*
X449270Y229306D01*
X449325Y229242D01*
X449373Y229210D01*
X449416Y229170D01*
X449491Y229131D01*
X449561Y229085D01*
X449617Y229067D01*
X449669Y229040D01*
X449737Y229029D01*
X449832Y228999D01*
X449932Y228996D01*
X450000Y228985D01*
X530000Y228985D01*
X530058Y228993D01*
X530116Y228991D01*
X530198Y229013D01*
X530282Y229025D01*
X530335Y229049D01*
X530391Y229063D01*
X530464Y229106D01*
X530541Y229141D01*
X530586Y229179D01*
X530636Y229209D01*
X530694Y229270D01*
X530758Y229325D01*
X530790Y229373D01*
X530830Y229416D01*
X530869Y229491D01*
X530916Y229561D01*
X530933Y229617D01*
X530960Y229669D01*
X530971Y229737D01*
X531001Y229832D01*
X531004Y229932D01*
X531015Y230000D01*
X531015Y259574D01*
X531007Y259632D01*
X531009Y259690D01*
X530987Y259772D01*
X530975Y259856D01*
X530952Y259909D01*
X530937Y259965D01*
X530894Y260038D01*
X530859Y260115D01*
X530821Y260160D01*
X530792Y260210D01*
X530730Y260268D01*
X530676Y260332D01*
X530627Y260364D01*
X530584Y260404D01*
X530509Y260443D01*
X530439Y260490D01*
X530383Y260507D01*
X530331Y260534D01*
X530263Y260545D01*
X530168Y260575D01*
X530068Y260578D01*
X530000Y260589D01*
X526134Y260589D01*
X520654Y262859D01*
X516459Y267054D01*
X514189Y272534D01*
X514189Y278466D01*
X516459Y283946D01*
X520654Y288141D01*
X526134Y290411D01*
X530000Y290411D01*
X530058Y290419D01*
X530116Y290417D01*
X530198Y290439D01*
X530282Y290451D01*
X530335Y290474D01*
X530391Y290489D01*
X530464Y290532D01*
X530541Y290567D01*
X530586Y290605D01*
X530636Y290634D01*
X530694Y290696D01*
X530758Y290750D01*
X530790Y290799D01*
X530830Y290842D01*
X530869Y290917D01*
X530916Y290987D01*
X530933Y291043D01*
X530960Y291095D01*
X530971Y291163D01*
X531001Y291258D01*
X531004Y291358D01*
X531015Y291426D01*
X531015Y300000D01*
X531003Y300087D01*
X531000Y300174D01*
X530983Y300227D01*
X530975Y300282D01*
X530940Y300361D01*
X530913Y300445D01*
X530885Y300484D01*
X530859Y300541D01*
X530763Y300654D01*
X530740Y300687D01*
X530739Y300688D01*
X530718Y300718D01*
X524709Y306727D01*
X524690Y306768D01*
X524633Y306912D01*
X524554Y307056D01*
X524484Y307204D01*
X524402Y307335D01*
X524327Y307471D01*
X524231Y307604D01*
X524143Y307743D01*
X524045Y307862D01*
X523954Y307988D01*
X523842Y308107D01*
X523738Y308234D01*
X523625Y308340D01*
X523519Y308453D01*
X523393Y308558D01*
X523274Y308670D01*
X523148Y308762D01*
X523029Y308861D01*
X522891Y308949D01*
X522759Y309045D01*
X522623Y309120D01*
X522492Y309204D01*
X522344Y309274D01*
X522201Y309353D01*
X522057Y309410D01*
X521997Y309438D01*
X521894Y309542D01*
X521824Y309594D01*
X521760Y309654D01*
X521711Y309680D01*
X521667Y309713D01*
X521585Y309744D01*
X521507Y309784D01*
X521459Y309792D01*
X521401Y309814D01*
X521253Y309826D01*
X521176Y309839D01*
X450000Y309839D01*
X449942Y309831D01*
G37*
G36*
X367414Y59515D02*
X367414Y59515D01*
X367538Y59515D01*
X367732Y59539D01*
X367927Y59554D01*
X368048Y59578D01*
X368170Y59594D01*
X368360Y59642D01*
X368551Y59681D01*
X368665Y59720D01*
X368787Y59751D01*
X368985Y59829D01*
X369172Y59892D01*
X371631Y60911D01*
X375091Y60911D01*
X375205Y60918D01*
X375319Y60916D01*
X375523Y60938D01*
X375727Y60951D01*
X375839Y60972D01*
X375952Y60984D01*
X376152Y61032D01*
X376353Y61070D01*
X376461Y61105D01*
X376572Y61131D01*
X376764Y61203D01*
X376959Y61267D01*
X377062Y61315D01*
X377169Y61355D01*
X377350Y61451D01*
X377536Y61538D01*
X377632Y61599D01*
X377733Y61652D01*
X377901Y61769D01*
X378074Y61879D01*
X378162Y61951D01*
X378255Y62016D01*
X378407Y62154D01*
X378565Y62284D01*
X378643Y62367D01*
X378728Y62444D01*
X378861Y62599D01*
X379002Y62748D01*
X379069Y62840D01*
X379143Y62927D01*
X379256Y63098D01*
X379377Y63263D01*
X379432Y63363D01*
X379495Y63458D01*
X379582Y63635D01*
X379684Y63821D01*
X379699Y63859D01*
X379702Y63864D01*
X379735Y63946D01*
X379784Y64046D01*
X380903Y66747D01*
X384253Y70097D01*
X389236Y72161D01*
X389338Y72211D01*
X389444Y72253D01*
X389624Y72352D01*
X389808Y72442D01*
X389903Y72504D01*
X390003Y72559D01*
X390169Y72679D01*
X390341Y72791D01*
X390427Y72865D01*
X390520Y72932D01*
X390669Y73072D01*
X390825Y73205D01*
X390902Y73289D01*
X390985Y73367D01*
X391116Y73524D01*
X391254Y73676D01*
X391320Y73769D01*
X391393Y73857D01*
X391503Y74029D01*
X391621Y74197D01*
X391674Y74298D01*
X391736Y74394D01*
X391824Y74579D01*
X391919Y74760D01*
X391960Y74866D01*
X392009Y74969D01*
X392073Y75164D01*
X392145Y75356D01*
X392172Y75466D01*
X392208Y75575D01*
X392247Y75775D01*
X392295Y75975D01*
X392307Y76088D01*
X392329Y76200D01*
X392342Y76397D01*
X392365Y76608D01*
X392364Y76734D01*
X392371Y76854D01*
X392371Y132792D01*
X392362Y132947D01*
X392362Y133102D01*
X392342Y133264D01*
X392331Y133428D01*
X392302Y133580D01*
X392283Y133734D01*
X392243Y133893D01*
X392212Y134054D01*
X392164Y134201D01*
X392126Y134351D01*
X392066Y134504D01*
X392015Y134660D01*
X391950Y134800D01*
X391893Y134944D01*
X391814Y135088D01*
X391744Y135236D01*
X391662Y135367D01*
X391587Y135503D01*
X391491Y135636D01*
X391403Y135775D01*
X391305Y135894D01*
X391214Y136020D01*
X391102Y136139D01*
X390998Y136266D01*
X390885Y136372D01*
X390779Y136485D01*
X390653Y136590D01*
X390534Y136702D01*
X390408Y136794D01*
X390289Y136893D01*
X390151Y136981D01*
X390019Y137077D01*
X389883Y137152D01*
X389752Y137236D01*
X389604Y137306D01*
X389461Y137385D01*
X389317Y137442D01*
X389177Y137509D01*
X389021Y137560D01*
X388868Y137620D01*
X388718Y137659D01*
X388571Y137708D01*
X388410Y137739D01*
X388252Y137780D01*
X388098Y137799D01*
X387946Y137829D01*
X387787Y137839D01*
X387620Y137861D01*
X387451Y137861D01*
X387292Y137871D01*
X373672Y137871D01*
X373608Y137900D01*
X373373Y137973D01*
X373141Y138053D01*
X373070Y138067D01*
X373000Y138089D01*
X372757Y138132D01*
X372517Y138182D01*
X372445Y138188D01*
X372372Y138200D01*
X372127Y138213D01*
X371882Y138232D01*
X371809Y138229D01*
X371736Y138232D01*
X371491Y138214D01*
X371246Y138202D01*
X371174Y138190D01*
X371101Y138184D01*
X370860Y138135D01*
X370618Y138093D01*
X370548Y138072D01*
X370476Y138057D01*
X370257Y137983D01*
X370009Y137906D01*
X369933Y137872D01*
X369930Y137871D01*
X356683Y137871D01*
X353695Y139109D01*
X351388Y141417D01*
X351318Y141544D01*
X351228Y141728D01*
X351165Y141823D01*
X351111Y141923D01*
X350990Y142090D01*
X350878Y142260D01*
X350804Y142347D01*
X350737Y142440D01*
X350597Y142589D01*
X350465Y142745D01*
X350380Y142822D01*
X350302Y142905D01*
X350145Y143036D01*
X349994Y143174D01*
X349900Y143240D01*
X349813Y143313D01*
X349640Y143423D01*
X349473Y143541D01*
X349372Y143594D01*
X349276Y143656D01*
X349091Y143743D01*
X348910Y143839D01*
X348803Y143880D01*
X348700Y143929D01*
X348505Y143993D01*
X348314Y144065D01*
X348203Y144092D01*
X348095Y144128D01*
X347894Y144167D01*
X347695Y144215D01*
X347581Y144227D01*
X347469Y144249D01*
X347272Y144262D01*
X347061Y144285D01*
X346936Y144283D01*
X346815Y144291D01*
X324812Y144291D01*
X320824Y145943D01*
X320770Y145962D01*
X320718Y145986D01*
X320468Y146065D01*
X320221Y146150D01*
X320165Y146161D01*
X320111Y146179D01*
X319854Y146226D01*
X319597Y146279D01*
X319540Y146283D01*
X319484Y146294D01*
X319223Y146309D01*
X318962Y146329D01*
X318905Y146327D01*
X318848Y146330D01*
X318587Y146312D01*
X318326Y146300D01*
X318269Y146290D01*
X318212Y146286D01*
X317956Y146235D01*
X317698Y146190D01*
X317643Y146174D01*
X317587Y146163D01*
X317339Y146080D01*
X317089Y146004D01*
X317037Y145980D01*
X316982Y145962D01*
X316746Y145849D01*
X316508Y145742D01*
X316459Y145712D01*
X316408Y145687D01*
X316188Y145546D01*
X315964Y145410D01*
X315920Y145374D01*
X315872Y145343D01*
X315671Y145175D01*
X315467Y145012D01*
X315427Y144971D01*
X315383Y144934D01*
X315205Y144742D01*
X315023Y144555D01*
X314988Y144509D01*
X314949Y144467D01*
X314796Y144255D01*
X314639Y144046D01*
X314611Y143996D01*
X314578Y143950D01*
X314452Y143720D01*
X314323Y143493D01*
X314301Y143440D01*
X314273Y143390D01*
X314178Y143146D01*
X314078Y142905D01*
X314063Y142850D01*
X314042Y142796D01*
X313978Y142543D01*
X313909Y142291D01*
X313900Y142234D01*
X313886Y142179D01*
X313855Y141919D01*
X313817Y141660D01*
X313816Y141603D01*
X313810Y141546D01*
X313811Y141284D01*
X313806Y141023D01*
X313812Y140966D01*
X313812Y140909D01*
X313841Y140696D01*
X313841Y140379D01*
X307508Y140379D01*
X307353Y140370D01*
X307198Y140370D01*
X307036Y140350D01*
X306872Y140339D01*
X306720Y140310D01*
X306566Y140291D01*
X306407Y140251D01*
X306246Y140220D01*
X306099Y140172D01*
X305949Y140134D01*
X305796Y140074D01*
X305640Y140024D01*
X305500Y139958D01*
X305356Y139901D01*
X305212Y139822D01*
X305064Y139753D01*
X304933Y139670D01*
X304797Y139595D01*
X304664Y139499D01*
X304525Y139411D01*
X304406Y139313D01*
X304280Y139222D01*
X304161Y139110D01*
X304034Y139006D01*
X303928Y138893D01*
X303815Y138787D01*
X303710Y138661D01*
X303598Y138542D01*
X303506Y138416D01*
X303407Y138297D01*
X303319Y138159D01*
X303223Y138027D01*
X303148Y137891D01*
X303064Y137760D01*
X302994Y137612D01*
X302915Y137469D01*
X302858Y137325D01*
X302791Y137185D01*
X302740Y137029D01*
X302680Y136877D01*
X302641Y136727D01*
X302592Y136579D01*
X302561Y136419D01*
X302520Y136260D01*
X302501Y136106D01*
X302471Y135954D01*
X302461Y135795D01*
X302439Y135628D01*
X302439Y135459D01*
X302429Y135300D01*
X302438Y135145D01*
X302438Y134991D01*
X302438Y134990D01*
X302458Y134827D01*
X302469Y134664D01*
X302498Y134512D01*
X302517Y134358D01*
X302557Y134199D01*
X302588Y134038D01*
X302636Y133891D01*
X302674Y133741D01*
X302734Y133588D01*
X302785Y133432D01*
X302850Y133292D01*
X302907Y133148D01*
X302986Y133004D01*
X303056Y132855D01*
X303138Y132725D01*
X303213Y132589D01*
X303309Y132456D01*
X303397Y132317D01*
X303495Y132198D01*
X303586Y132072D01*
X303698Y131952D01*
X303802Y131826D01*
X303915Y131720D01*
X304021Y131607D01*
X304147Y131502D01*
X304266Y131389D01*
X304392Y131298D01*
X304511Y131199D01*
X304649Y131111D01*
X304781Y131014D01*
X304917Y130940D01*
X305048Y130856D01*
X305196Y130786D01*
X305339Y130707D01*
X305483Y130650D01*
X305623Y130583D01*
X305779Y130532D01*
X305932Y130471D01*
X306082Y130433D01*
X306229Y130384D01*
X306390Y130353D01*
X306548Y130312D01*
X306702Y130292D01*
X306854Y130263D01*
X307013Y130253D01*
X307180Y130231D01*
X307349Y130231D01*
X307508Y130221D01*
X313841Y130221D01*
X313841Y130050D01*
X313743Y129559D01*
X313552Y129097D01*
X313273Y128680D01*
X312728Y128135D01*
X312626Y128019D01*
X312516Y127909D01*
X312415Y127780D01*
X312307Y127657D01*
X312220Y127529D01*
X312124Y127407D01*
X312041Y127266D01*
X311949Y127130D01*
X311878Y126992D01*
X311799Y126859D01*
X311734Y126709D01*
X311659Y126563D01*
X311607Y126417D01*
X311545Y126275D01*
X311499Y126118D01*
X311443Y125963D01*
X311409Y125812D01*
X311365Y125663D01*
X311339Y125502D01*
X311304Y125342D01*
X311289Y125188D01*
X311264Y125034D01*
X311259Y124870D01*
X311243Y124707D01*
X311248Y124553D01*
X311243Y124398D01*
X311257Y124234D01*
X311262Y124071D01*
X311287Y123918D01*
X311301Y123763D01*
X311336Y123603D01*
X311361Y123441D01*
X311405Y123292D01*
X311438Y123141D01*
X311493Y122987D01*
X311538Y122829D01*
X311600Y122687D01*
X311652Y122541D01*
X311726Y122395D01*
X311791Y122244D01*
X311869Y122110D01*
X311939Y121972D01*
X312031Y121836D01*
X312114Y121695D01*
X312209Y121573D01*
X312296Y121444D01*
X312401Y121325D01*
X312504Y121191D01*
X312623Y121071D01*
X312728Y120952D01*
X331198Y102482D01*
X332670Y98928D01*
X332721Y98824D01*
X332763Y98716D01*
X332861Y98538D01*
X332950Y98356D01*
X333014Y98259D01*
X333069Y98157D01*
X333188Y97993D01*
X333300Y97823D01*
X333375Y97735D01*
X333443Y97641D01*
X333581Y97493D01*
X333714Y97338D01*
X333799Y97260D01*
X333878Y97176D01*
X334034Y97046D01*
X334185Y96909D01*
X334279Y96843D01*
X334368Y96769D01*
X334539Y96660D01*
X334706Y96543D01*
X334808Y96489D01*
X334906Y96426D01*
X335089Y96339D01*
X335268Y96244D01*
X335377Y96203D01*
X335481Y96154D01*
X335674Y96090D01*
X335864Y96018D01*
X335977Y95991D01*
X336087Y95955D01*
X336286Y95917D01*
X336484Y95869D01*
X336599Y95856D01*
X336712Y95834D01*
X336914Y95821D01*
X337117Y95798D01*
X337233Y95800D01*
X337348Y95792D01*
X337551Y95805D01*
X337754Y95807D01*
X337869Y95824D01*
X337984Y95831D01*
X338184Y95868D01*
X338385Y95896D01*
X338497Y95927D01*
X338610Y95948D01*
X338804Y96010D01*
X339000Y96063D01*
X339107Y96107D01*
X339217Y96143D01*
X339401Y96229D01*
X339589Y96306D01*
X339689Y96363D01*
X339794Y96412D01*
X339960Y96517D01*
X340143Y96621D01*
X340245Y96697D01*
X340348Y96762D01*
X341075Y97290D01*
X341321Y97416D01*
X341321Y88600D01*
X341330Y88446D01*
X341330Y88291D01*
X341350Y88128D01*
X341361Y87964D01*
X341389Y87813D01*
X341409Y87659D01*
X341449Y87499D01*
X341480Y87339D01*
X341528Y87191D01*
X341566Y87041D01*
X341626Y86889D01*
X341676Y86733D01*
X341742Y86592D01*
X341799Y86448D01*
X341878Y86304D01*
X341947Y86156D01*
X342030Y86025D01*
X342105Y85889D01*
X342201Y85756D01*
X342288Y85618D01*
X342387Y85498D01*
X342478Y85373D01*
X342590Y85253D01*
X342694Y85127D01*
X342695Y85126D01*
X342807Y85020D01*
X342913Y84907D01*
X343039Y84802D01*
X343159Y84689D01*
X343284Y84598D01*
X343403Y84499D01*
X343541Y84411D01*
X343674Y84314D01*
X343809Y84240D01*
X343940Y84156D01*
X344088Y84086D01*
X344232Y84007D01*
X344376Y83950D01*
X344516Y83883D01*
X344672Y83832D01*
X344824Y83771D01*
X344974Y83733D01*
X345121Y83684D01*
X345282Y83653D01*
X345441Y83612D01*
X345594Y83592D01*
X345746Y83563D01*
X345905Y83553D01*
X346073Y83531D01*
X346241Y83531D01*
X346400Y83521D01*
X355216Y83521D01*
X355090Y83275D01*
X355076Y83255D01*
X355036Y83192D01*
X354990Y83133D01*
X354865Y82923D01*
X354735Y82718D01*
X354703Y82650D01*
X354665Y82585D01*
X354567Y82361D01*
X354463Y82141D01*
X354440Y82070D01*
X354410Y82001D01*
X354342Y81767D01*
X354266Y81535D01*
X354252Y81461D01*
X354231Y81390D01*
X354192Y81149D01*
X354147Y80909D01*
X354142Y80835D01*
X354130Y80761D01*
X354122Y80517D01*
X354106Y80274D01*
X354111Y80199D01*
X354108Y80124D01*
X354130Y79881D01*
X354146Y79638D01*
X354160Y79564D01*
X354166Y79490D01*
X354219Y79252D01*
X354264Y79012D01*
X354288Y78940D01*
X354304Y78867D01*
X354385Y78638D01*
X354461Y78406D01*
X354492Y78338D01*
X354518Y78267D01*
X354628Y78049D01*
X354731Y77829D01*
X354771Y77765D01*
X354805Y77699D01*
X354941Y77497D01*
X355072Y77290D01*
X355119Y77233D01*
X355161Y77170D01*
X355313Y76997D01*
X355477Y76799D01*
X355539Y76740D01*
X355594Y76678D01*
X359751Y72521D01*
X362149Y66733D01*
X362149Y64585D01*
X362161Y64389D01*
X362164Y64193D01*
X362181Y64072D01*
X362189Y63949D01*
X362225Y63756D01*
X362253Y63563D01*
X362285Y63444D01*
X362308Y63323D01*
X362368Y63137D01*
X362420Y62948D01*
X362467Y62834D01*
X362505Y62717D01*
X362588Y62540D01*
X362663Y62359D01*
X362723Y62252D01*
X362776Y62140D01*
X362880Y61975D01*
X362977Y61805D01*
X363051Y61706D01*
X363117Y61602D01*
X363241Y61451D01*
X363359Y61294D01*
X363444Y61206D01*
X363522Y61111D01*
X363665Y60977D01*
X363801Y60836D01*
X363897Y60759D01*
X363986Y60674D01*
X364145Y60559D01*
X364297Y60436D01*
X364402Y60372D01*
X364501Y60299D01*
X364673Y60205D01*
X364840Y60102D01*
X364952Y60051D01*
X365059Y59992D01*
X365241Y59919D01*
X365420Y59838D01*
X365537Y59802D01*
X365652Y59756D01*
X365841Y59707D01*
X366028Y59649D01*
X366149Y59628D01*
X366268Y59597D01*
X366463Y59572D01*
X366655Y59538D01*
X366778Y59532D01*
X366900Y59516D01*
X367097Y59516D01*
X367292Y59506D01*
X367414Y59515D01*
G37*
G36*
X190937Y130391D02*
X190937Y130391D01*
X190879Y130489D01*
X190827Y130589D01*
X190807Y130611D01*
X190792Y130636D01*
X190709Y130713D01*
X190631Y130795D01*
X190606Y130810D01*
X190584Y130830D01*
X190483Y130882D01*
X190386Y130939D01*
X190357Y130946D01*
X190331Y130960D01*
X190254Y130973D01*
X190110Y131009D01*
X190048Y131007D01*
X190000Y131015D01*
X165000Y131015D01*
X164913Y131003D01*
X164826Y131000D01*
X164773Y130983D01*
X164719Y130975D01*
X164639Y130940D01*
X164555Y130913D01*
X164516Y130885D01*
X164459Y130859D01*
X164346Y130763D01*
X164282Y130718D01*
X163282Y129718D01*
X163230Y129648D01*
X163170Y129584D01*
X163144Y129535D01*
X163111Y129491D01*
X163080Y129409D01*
X163040Y129331D01*
X163032Y129284D01*
X163010Y129225D01*
X162998Y129077D01*
X162985Y129000D01*
X162985Y111000D01*
X162993Y110942D01*
X162991Y110884D01*
X163013Y110802D01*
X163025Y110719D01*
X163049Y110665D01*
X163063Y110609D01*
X163106Y110536D01*
X163141Y110459D01*
X163179Y110414D01*
X163209Y110364D01*
X163209Y77373D01*
X161198Y72518D01*
X156768Y68088D01*
X152272Y63592D01*
X152169Y63475D01*
X152059Y63366D01*
X151959Y63237D01*
X151850Y63114D01*
X151763Y62986D01*
X151668Y62863D01*
X151584Y62722D01*
X151492Y62587D01*
X151422Y62449D01*
X151342Y62316D01*
X151277Y62165D01*
X151202Y62019D01*
X151150Y61874D01*
X151088Y61731D01*
X151042Y61574D01*
X150986Y61420D01*
X150952Y61269D01*
X150909Y61120D01*
X150883Y60958D01*
X150847Y60798D01*
X150832Y60644D01*
X150808Y60491D01*
X150802Y60327D01*
X150787Y60164D01*
X150791Y60009D01*
X150786Y59854D01*
X150801Y59691D01*
X150806Y59527D01*
X150830Y59374D01*
X150844Y59220D01*
X150879Y59060D01*
X150905Y58898D01*
X150948Y58749D01*
X150981Y58598D01*
X151036Y58443D01*
X151082Y58286D01*
X151143Y58143D01*
X151195Y57997D01*
X151269Y57851D01*
X151334Y57701D01*
X151413Y57567D01*
X151483Y57429D01*
X151574Y57293D01*
X151658Y57152D01*
X151752Y57029D01*
X151839Y56901D01*
X151944Y56781D01*
X152047Y56648D01*
X152166Y56528D01*
X152272Y56408D01*
X178744Y29936D01*
X178798Y29888D01*
X178848Y29835D01*
X179037Y29677D01*
X179047Y29669D01*
X179049Y29665D01*
X179063Y29609D01*
X179106Y29536D01*
X179141Y29459D01*
X179179Y29414D01*
X179209Y29364D01*
X179270Y29306D01*
X179325Y29242D01*
X179373Y29210D01*
X179416Y29170D01*
X179491Y29131D01*
X179561Y29085D01*
X179617Y29067D01*
X179669Y29040D01*
X179737Y29029D01*
X179832Y28999D01*
X179932Y28996D01*
X180000Y28985D01*
X180085Y28985D01*
X180097Y28979D01*
X180316Y28867D01*
X180385Y28843D01*
X180451Y28811D01*
X180684Y28735D01*
X180915Y28651D01*
X180986Y28635D01*
X181056Y28612D01*
X181297Y28566D01*
X181537Y28512D01*
X181610Y28505D01*
X181681Y28491D01*
X181913Y28476D01*
X181948Y28473D01*
X182052Y28459D01*
X182089Y28459D01*
X182171Y28451D01*
X182255Y28454D01*
X182335Y28449D01*
X182380Y28449D01*
X182535Y28458D01*
X182690Y28458D01*
X182786Y28470D01*
X182808Y28471D01*
X182859Y28479D01*
X183016Y28489D01*
X183168Y28518D01*
X183322Y28537D01*
X183481Y28577D01*
X183642Y28608D01*
X183789Y28656D01*
X183939Y28694D01*
X184092Y28754D01*
X184248Y28805D01*
X184388Y28870D01*
X184532Y28927D01*
X184637Y28985D01*
X196000Y28985D01*
X196058Y28993D01*
X196116Y28991D01*
X196198Y29013D01*
X196282Y29025D01*
X196335Y29049D01*
X196391Y29063D01*
X196464Y29106D01*
X196541Y29141D01*
X196586Y29179D01*
X196636Y29209D01*
X196694Y29270D01*
X196758Y29325D01*
X196790Y29373D01*
X196830Y29416D01*
X196869Y29491D01*
X196916Y29561D01*
X196933Y29617D01*
X196960Y29669D01*
X196971Y29737D01*
X197001Y29832D01*
X197004Y29932D01*
X197015Y30000D01*
X197015Y35617D01*
X197054Y35658D01*
X197088Y35705D01*
X197126Y35747D01*
X197276Y35962D01*
X197429Y36173D01*
X197457Y36223D01*
X197490Y36271D01*
X197611Y36503D01*
X197737Y36731D01*
X197758Y36784D01*
X197785Y36835D01*
X197876Y37081D01*
X197972Y37323D01*
X197987Y37379D01*
X198007Y37433D01*
X198066Y37688D01*
X198132Y37940D01*
X198139Y37997D01*
X198152Y38053D01*
X198179Y38313D01*
X198213Y38572D01*
X198213Y38630D01*
X198219Y38687D01*
X198213Y38948D01*
X198214Y39209D01*
X198207Y39266D01*
X198205Y39324D01*
X198167Y39582D01*
X198135Y39842D01*
X198121Y39897D01*
X198113Y39954D01*
X198042Y40206D01*
X197978Y40459D01*
X197957Y40512D01*
X197941Y40568D01*
X197847Y40790D01*
X197745Y41052D01*
X197744Y41052D01*
X197712Y41111D01*
X197687Y41171D01*
X197687Y41172D01*
X197560Y41389D01*
X197439Y41611D01*
X197400Y41665D01*
X197367Y41723D01*
X197214Y41923D01*
X197066Y42128D01*
X197020Y42176D01*
X197015Y42183D01*
X197015Y47000D01*
X197003Y47087D01*
X197000Y47174D01*
X196983Y47227D01*
X196975Y47282D01*
X196940Y47361D01*
X196913Y47445D01*
X196885Y47484D01*
X196859Y47541D01*
X196763Y47654D01*
X196718Y47718D01*
X195606Y48830D01*
X195660Y48929D01*
X195744Y49060D01*
X195814Y49208D01*
X195893Y49351D01*
X195950Y49495D01*
X196017Y49635D01*
X196068Y49791D01*
X196128Y49944D01*
X196167Y50094D01*
X196216Y50241D01*
X196247Y50402D01*
X196288Y50560D01*
X196307Y50714D01*
X196337Y50866D01*
X196347Y51025D01*
X196369Y51192D01*
X196369Y51361D01*
X196379Y51520D01*
X196379Y64563D01*
X196375Y64636D01*
X196377Y64709D01*
X196355Y64954D01*
X196339Y65199D01*
X196326Y65271D01*
X196319Y65343D01*
X196266Y65584D01*
X196220Y65825D01*
X196197Y65894D01*
X196182Y65966D01*
X196100Y66196D01*
X196023Y66431D01*
X195992Y66497D01*
X195968Y66566D01*
X195857Y66785D01*
X195752Y67008D01*
X195713Y67069D01*
X195680Y67134D01*
X195543Y67338D01*
X195411Y67546D01*
X195365Y67602D01*
X195324Y67662D01*
X195171Y67836D01*
X195006Y68037D01*
X194945Y68094D01*
X194892Y68155D01*
X190749Y72297D01*
X188141Y78593D01*
X188141Y85407D01*
X190749Y91703D01*
X194892Y95845D01*
X194940Y95900D01*
X194993Y95950D01*
X195151Y96139D01*
X195313Y96323D01*
X195354Y96384D01*
X195401Y96440D01*
X195533Y96647D01*
X195671Y96850D01*
X195704Y96915D01*
X195744Y96977D01*
X195849Y97199D01*
X195961Y97418D01*
X195985Y97486D01*
X196017Y97552D01*
X196093Y97786D01*
X196177Y98017D01*
X196193Y98088D01*
X196216Y98158D01*
X196262Y98399D01*
X196316Y98639D01*
X196323Y98711D01*
X196337Y98783D01*
X196352Y99014D01*
X196377Y99273D01*
X196374Y99356D01*
X196379Y99437D01*
X196379Y101239D01*
X197733Y104506D01*
X200948Y107721D01*
X200948Y107722D01*
X206284Y113057D01*
X206332Y113112D01*
X206385Y113162D01*
X206542Y113350D01*
X206705Y113535D01*
X206746Y113595D01*
X206793Y113651D01*
X206925Y113858D01*
X207063Y114062D01*
X207096Y114127D01*
X207136Y114188D01*
X207241Y114411D01*
X207353Y114629D01*
X207377Y114698D01*
X207409Y114764D01*
X207485Y114997D01*
X207569Y115229D01*
X207585Y115300D01*
X207608Y115369D01*
X207654Y115610D01*
X207708Y115850D01*
X207715Y115923D01*
X207729Y115995D01*
X207744Y116226D01*
X207769Y116485D01*
X207766Y116568D01*
X207771Y116649D01*
X207771Y122217D01*
X209061Y125331D01*
X209098Y125439D01*
X209144Y125543D01*
X209201Y125740D01*
X209268Y125934D01*
X209291Y126045D01*
X209323Y126155D01*
X209355Y126357D01*
X209397Y126558D01*
X209406Y126671D01*
X209424Y126784D01*
X209431Y126989D01*
X209447Y127193D01*
X209442Y127307D01*
X209446Y127421D01*
X209427Y127624D01*
X209418Y127829D01*
X209398Y127942D01*
X209388Y128055D01*
X209343Y128255D01*
X209308Y128457D01*
X209275Y128566D01*
X209250Y128677D01*
X209182Y128870D01*
X209122Y129066D01*
X209075Y129170D01*
X209036Y129277D01*
X208944Y129460D01*
X208860Y129647D01*
X208800Y129744D01*
X208749Y129846D01*
X208635Y130016D01*
X208528Y130191D01*
X208456Y130280D01*
X208393Y130374D01*
X208263Y130522D01*
X208130Y130688D01*
X208040Y130776D01*
X207960Y130866D01*
X204830Y133996D01*
X204714Y134099D01*
X204605Y134208D01*
X204476Y134309D01*
X204353Y134418D01*
X204224Y134505D01*
X204102Y134600D01*
X203961Y134684D01*
X203826Y134776D01*
X203688Y134846D01*
X203554Y134925D01*
X203404Y134991D01*
X203258Y135065D01*
X203112Y135118D01*
X202970Y135180D01*
X202813Y135226D01*
X202659Y135281D01*
X202507Y135315D01*
X202359Y135359D01*
X202197Y135385D01*
X202037Y135421D01*
X201883Y135436D01*
X201730Y135460D01*
X201566Y135466D01*
X201403Y135481D01*
X201248Y135477D01*
X201093Y135482D01*
X200930Y135467D01*
X200766Y135462D01*
X200613Y135438D01*
X200459Y135424D01*
X200298Y135388D01*
X200137Y135363D01*
X199988Y135320D01*
X199836Y135286D01*
X199682Y135231D01*
X199524Y135186D01*
X199382Y135125D01*
X199236Y135072D01*
X199090Y134998D01*
X198939Y134934D01*
X198806Y134855D01*
X198668Y134785D01*
X198532Y134693D01*
X198390Y134610D01*
X198268Y134515D01*
X198139Y134429D01*
X198020Y134323D01*
X197886Y134220D01*
X197767Y134102D01*
X197647Y133996D01*
X195468Y131817D01*
X191920Y130347D01*
X190952Y130347D01*
X190944Y130363D01*
X190937Y130391D01*
G37*
G36*
X301867Y28458D02*
X301867Y28458D01*
X302022Y28458D01*
X302184Y28478D01*
X302348Y28489D01*
X302500Y28518D01*
X302654Y28537D01*
X302813Y28577D01*
X302974Y28608D01*
X303121Y28656D01*
X303271Y28694D01*
X303424Y28754D01*
X303580Y28805D01*
X303720Y28870D01*
X303864Y28927D01*
X304008Y29006D01*
X304156Y29076D01*
X304287Y29158D01*
X304423Y29233D01*
X304556Y29329D01*
X304695Y29417D01*
X304814Y29515D01*
X304940Y29606D01*
X305059Y29718D01*
X305186Y29822D01*
X305292Y29935D01*
X305405Y30041D01*
X305510Y30167D01*
X305622Y30286D01*
X305714Y30412D01*
X305813Y30531D01*
X305901Y30669D01*
X305997Y30801D01*
X306072Y30937D01*
X306156Y31068D01*
X306226Y31216D01*
X306305Y31359D01*
X306362Y31503D01*
X306429Y31643D01*
X306480Y31799D01*
X306540Y31952D01*
X306579Y32102D01*
X306628Y32249D01*
X306659Y32410D01*
X306700Y32568D01*
X306719Y32722D01*
X306749Y32874D01*
X306759Y33033D01*
X306781Y33200D01*
X306781Y33369D01*
X306791Y33528D01*
X306791Y87425D01*
X306787Y87498D01*
X306789Y87571D01*
X306767Y87816D01*
X306751Y88061D01*
X306738Y88132D01*
X306731Y88205D01*
X306678Y88445D01*
X306632Y88687D01*
X306609Y88756D01*
X306594Y88827D01*
X306511Y89058D01*
X306435Y89293D01*
X306404Y89359D01*
X306380Y89427D01*
X306269Y89646D01*
X306164Y89869D01*
X306125Y89931D01*
X306092Y89996D01*
X305955Y90199D01*
X305823Y90407D01*
X305777Y90464D01*
X305736Y90524D01*
X305583Y90698D01*
X305418Y90899D01*
X305357Y90956D01*
X305304Y91016D01*
X283978Y112342D01*
X283832Y112471D01*
X283691Y112608D01*
X283593Y112682D01*
X283500Y112763D01*
X283339Y112873D01*
X283182Y112991D01*
X283075Y113052D01*
X282974Y113121D01*
X282799Y113210D01*
X282629Y113308D01*
X282515Y113355D01*
X282406Y113411D01*
X282222Y113477D01*
X282041Y113552D01*
X281922Y113585D01*
X281807Y113627D01*
X281616Y113670D01*
X281427Y113722D01*
X281305Y113739D01*
X281185Y113766D01*
X280990Y113785D01*
X280796Y113813D01*
X280673Y113815D01*
X280551Y113827D01*
X280355Y113821D01*
X280159Y113824D01*
X280037Y113811D01*
X279914Y113807D01*
X279721Y113777D01*
X279526Y113756D01*
X279406Y113727D01*
X279284Y113708D01*
X279096Y113654D01*
X278906Y113609D01*
X278791Y113566D01*
X278672Y113531D01*
X278492Y113454D01*
X278309Y113385D01*
X278200Y113328D01*
X278087Y113279D01*
X277919Y113180D01*
X277745Y113088D01*
X277644Y113018D01*
X277538Y112956D01*
X277383Y112836D01*
X277223Y112724D01*
X277132Y112641D01*
X277034Y112566D01*
X276896Y112428D01*
X276750Y112296D01*
X276670Y112203D01*
X276583Y112116D01*
X276463Y111962D01*
X276335Y111813D01*
X276267Y111711D01*
X276192Y111613D01*
X276091Y111445D01*
X275983Y111282D01*
X275930Y111174D01*
X275866Y111066D01*
X275781Y110870D01*
X275694Y110694D01*
X275097Y109253D01*
X271747Y105903D01*
X267257Y104043D01*
X267059Y104005D01*
X266824Y103968D01*
X266746Y103945D01*
X266665Y103930D01*
X266440Y103857D01*
X266212Y103791D01*
X266137Y103759D01*
X266059Y103733D01*
X265845Y103633D01*
X265627Y103539D01*
X265556Y103497D01*
X265482Y103462D01*
X265282Y103336D01*
X265078Y103215D01*
X265014Y103165D01*
X264944Y103121D01*
X264762Y102971D01*
X264574Y102826D01*
X264516Y102768D01*
X264453Y102716D01*
X264291Y102544D01*
X264123Y102376D01*
X264073Y102311D01*
X264016Y102252D01*
X263877Y102060D01*
X263732Y101873D01*
X263690Y101803D01*
X263641Y101737D01*
X263527Y101529D01*
X263406Y101326D01*
X263373Y101250D01*
X263334Y101179D01*
X263246Y100959D01*
X263152Y100741D01*
X263129Y100663D01*
X263098Y100586D01*
X263039Y100357D01*
X262973Y100130D01*
X262960Y100049D01*
X262939Y99970D01*
X262909Y99735D01*
X262871Y99501D01*
X262869Y99419D01*
X262858Y99338D01*
X262858Y99101D01*
X262850Y98864D01*
X262857Y98783D01*
X262857Y98700D01*
X262886Y98466D01*
X262908Y98230D01*
X262925Y98150D01*
X262936Y98068D01*
X262994Y97839D01*
X263045Y97608D01*
X263073Y97530D01*
X263093Y97451D01*
X263179Y97230D01*
X263259Y97007D01*
X263296Y96934D01*
X263326Y96858D01*
X263440Y96650D01*
X263546Y96439D01*
X263592Y96371D01*
X263632Y96299D01*
X263770Y96107D01*
X263903Y95911D01*
X263956Y95850D01*
X264005Y95782D01*
X264182Y95593D01*
X264335Y95418D01*
X268051Y91703D01*
X270659Y85407D01*
X270659Y78593D01*
X268051Y72297D01*
X263908Y68155D01*
X263860Y68100D01*
X263807Y68050D01*
X263649Y67861D01*
X263487Y67677D01*
X263446Y67616D01*
X263399Y67560D01*
X263267Y67353D01*
X263129Y67150D01*
X263096Y67085D01*
X263056Y67023D01*
X262951Y66801D01*
X262839Y66582D01*
X262815Y66514D01*
X262783Y66448D01*
X262707Y66214D01*
X262623Y65983D01*
X262607Y65912D01*
X262584Y65842D01*
X262538Y65601D01*
X262484Y65361D01*
X262477Y65289D01*
X262463Y65217D01*
X262448Y64986D01*
X262423Y64727D01*
X262426Y64644D01*
X262421Y64563D01*
X262421Y51827D01*
X262414Y51821D01*
X262364Y51792D01*
X262306Y51730D01*
X262242Y51676D01*
X262210Y51627D01*
X262170Y51584D01*
X262131Y51509D01*
X262085Y51439D01*
X262067Y51383D01*
X262040Y51331D01*
X262029Y51263D01*
X261999Y51168D01*
X261996Y51068D01*
X261985Y51000D01*
X261985Y42397D01*
X261832Y42243D01*
X261791Y42190D01*
X261746Y42142D01*
X261597Y41938D01*
X261443Y41738D01*
X261411Y41681D01*
X261371Y41627D01*
X261236Y41381D01*
X261113Y41172D01*
X261113Y41171D01*
X261091Y41119D01*
X261063Y41069D01*
X261063Y41068D01*
X260967Y40826D01*
X260864Y40585D01*
X260849Y40530D01*
X260828Y40476D01*
X260762Y40222D01*
X260691Y39972D01*
X260683Y39915D01*
X260668Y39859D01*
X260635Y39600D01*
X260596Y39342D01*
X260595Y39284D01*
X260587Y39227D01*
X260587Y38966D01*
X260581Y38705D01*
X260586Y38648D01*
X260586Y38590D01*
X260619Y38330D01*
X260645Y38071D01*
X260658Y38015D01*
X260665Y37958D01*
X260730Y37704D01*
X260788Y37450D01*
X260808Y37396D01*
X260822Y37341D01*
X260918Y37097D01*
X261008Y36852D01*
X261034Y36801D01*
X261055Y36748D01*
X261181Y36517D01*
X261301Y36286D01*
X261333Y36239D01*
X261361Y36189D01*
X261514Y35976D01*
X261662Y35761D01*
X261701Y35719D01*
X261734Y35672D01*
X261912Y35482D01*
X261985Y35400D01*
X261985Y30000D01*
X261993Y29942D01*
X261991Y29884D01*
X262013Y29802D01*
X262025Y29719D01*
X262049Y29665D01*
X262063Y29609D01*
X262106Y29536D01*
X262141Y29459D01*
X262179Y29414D01*
X262209Y29364D01*
X262270Y29306D01*
X262325Y29242D01*
X262373Y29210D01*
X262416Y29170D01*
X262491Y29131D01*
X262561Y29085D01*
X262617Y29067D01*
X262669Y29040D01*
X262737Y29029D01*
X262832Y28999D01*
X262932Y28996D01*
X263000Y28985D01*
X274161Y28985D01*
X274251Y28935D01*
X274395Y28878D01*
X274535Y28811D01*
X274691Y28760D01*
X274844Y28700D01*
X274994Y28661D01*
X275141Y28612D01*
X275302Y28581D01*
X275460Y28540D01*
X275614Y28521D01*
X275766Y28491D01*
X275925Y28481D01*
X276092Y28459D01*
X276261Y28459D01*
X276420Y28449D01*
X301712Y28449D01*
X301867Y28458D01*
G37*
G36*
X37417Y10162D02*
X37417Y10162D01*
X37433Y10161D01*
X37737Y10182D01*
X38037Y10201D01*
X38053Y10204D01*
X38069Y10205D01*
X38366Y10263D01*
X38663Y10320D01*
X38678Y10325D01*
X38694Y10328D01*
X38980Y10423D01*
X39269Y10517D01*
X39284Y10523D01*
X39299Y10528D01*
X39572Y10659D01*
X39846Y10788D01*
X39859Y10796D01*
X39874Y10803D01*
X40128Y10966D01*
X40384Y11129D01*
X40396Y11139D01*
X40410Y11148D01*
X40641Y11341D01*
X40875Y11534D01*
X40886Y11546D01*
X40898Y11556D01*
X41103Y11777D01*
X41312Y11998D01*
X41321Y12011D01*
X41332Y12023D01*
X41508Y12268D01*
X41687Y12513D01*
X41694Y12528D01*
X41704Y12541D01*
X41849Y12808D01*
X41994Y13071D01*
X42000Y13086D01*
X42008Y13100D01*
X42118Y13383D01*
X42230Y13664D01*
X42234Y13679D01*
X42240Y13694D01*
X42313Y13987D01*
X42389Y14280D01*
X42391Y14296D01*
X42395Y14312D01*
X42431Y14609D01*
X42470Y14912D01*
X42470Y14929D01*
X42472Y14944D01*
X42471Y15240D01*
X42471Y15550D01*
X42469Y15566D01*
X42469Y15581D01*
X42438Y15813D01*
X42392Y16182D01*
X42386Y16207D01*
X42383Y16231D01*
X42359Y16350D01*
X42359Y16521D01*
X48057Y16521D01*
X48221Y16531D01*
X48386Y16531D01*
X48539Y16551D01*
X48693Y16561D01*
X48855Y16591D01*
X49018Y16612D01*
X49167Y16651D01*
X49318Y16680D01*
X49475Y16731D01*
X49635Y16772D01*
X49778Y16829D01*
X49925Y16876D01*
X50074Y16947D01*
X50227Y17008D01*
X50362Y17082D01*
X50501Y17147D01*
X50641Y17236D01*
X50785Y17315D01*
X50909Y17406D01*
X51039Y17488D01*
X51167Y17594D01*
X51300Y17691D01*
X51412Y17796D01*
X51531Y17894D01*
X51644Y18014D01*
X51764Y18127D01*
X51862Y18246D01*
X51967Y18358D01*
X52064Y18492D01*
X52169Y18619D01*
X52251Y18749D01*
X52342Y18873D01*
X52422Y19018D01*
X52510Y19157D01*
X52575Y19296D01*
X52650Y19431D01*
X52711Y19585D01*
X52781Y19734D01*
X52828Y19880D01*
X52885Y20023D01*
X52926Y20183D01*
X52977Y20340D01*
X53006Y20491D01*
X53045Y20640D01*
X53065Y20804D01*
X53096Y20966D01*
X53106Y21119D01*
X53125Y21272D01*
X53126Y21437D01*
X53136Y21602D01*
X53126Y21755D01*
X53127Y21909D01*
X53106Y22073D01*
X53096Y22238D01*
X53067Y22389D01*
X53048Y22542D01*
X53007Y22702D01*
X52976Y22863D01*
X52930Y23006D01*
X52891Y23159D01*
X52856Y23246D01*
X52825Y23326D01*
X52773Y23486D01*
X52773Y23487D01*
X52711Y23617D01*
X52657Y23752D01*
X52574Y23905D01*
X52499Y24062D01*
X52421Y24184D01*
X52352Y24311D01*
X52250Y24453D01*
X52156Y24599D01*
X52063Y24710D01*
X51979Y24828D01*
X51860Y24955D01*
X51748Y25089D01*
X51642Y25188D01*
X51544Y25293D01*
X51410Y25405D01*
X51283Y25523D01*
X51165Y25608D01*
X51054Y25701D01*
X50907Y25794D01*
X50766Y25896D01*
X50639Y25966D01*
X50517Y26044D01*
X50359Y26118D01*
X50207Y26202D01*
X50072Y26255D01*
X49941Y26317D01*
X49776Y26371D01*
X49614Y26435D01*
X49473Y26470D01*
X49336Y26516D01*
X49165Y26549D01*
X48997Y26592D01*
X48853Y26610D01*
X48710Y26637D01*
X48542Y26648D01*
X48364Y26670D01*
X48206Y26670D01*
X48057Y26679D01*
X42359Y26679D01*
X42359Y26850D01*
X42457Y27341D01*
X42648Y27803D01*
X42975Y28292D01*
X43123Y28546D01*
X43273Y28799D01*
X43282Y28821D01*
X43295Y28843D01*
X43409Y29113D01*
X43527Y29383D01*
X43534Y29407D01*
X43544Y29430D01*
X43623Y29712D01*
X43706Y29994D01*
X43710Y30019D01*
X43717Y30043D01*
X43761Y30333D01*
X43807Y30623D01*
X43808Y30648D01*
X43812Y30673D01*
X43819Y30965D01*
X43829Y31260D01*
X43827Y31285D01*
X43827Y31310D01*
X43797Y31603D01*
X43771Y31894D01*
X43765Y31919D01*
X43763Y31944D01*
X43697Y32231D01*
X43634Y32517D01*
X43625Y32540D01*
X43620Y32564D01*
X43518Y32840D01*
X43420Y33117D01*
X43408Y33139D01*
X43400Y33162D01*
X43265Y33423D01*
X43132Y33685D01*
X43118Y33706D01*
X43107Y33728D01*
X42939Y33971D01*
X42776Y34213D01*
X42760Y34232D01*
X42745Y34253D01*
X42498Y34530D01*
X42343Y34706D01*
X41465Y35584D01*
X41411Y35632D01*
X41361Y35685D01*
X41171Y35843D01*
X40987Y36005D01*
X40927Y36046D01*
X40871Y36093D01*
X40664Y36225D01*
X40461Y36363D01*
X40396Y36396D01*
X40334Y36436D01*
X40112Y36541D01*
X39893Y36653D01*
X39824Y36677D01*
X39758Y36709D01*
X39525Y36786D01*
X39294Y36869D01*
X39222Y36885D01*
X39153Y36908D01*
X38912Y36954D01*
X38672Y37008D01*
X38599Y37015D01*
X38528Y37029D01*
X38296Y37044D01*
X38038Y37069D01*
X37954Y37066D01*
X37874Y37071D01*
X33383Y37071D01*
X30395Y38309D01*
X29233Y39472D01*
X29178Y39520D01*
X29128Y39573D01*
X28939Y39731D01*
X28755Y39893D01*
X28694Y39934D01*
X28638Y39981D01*
X28431Y40113D01*
X28228Y40251D01*
X28163Y40284D01*
X28101Y40324D01*
X27879Y40429D01*
X27660Y40541D01*
X27592Y40565D01*
X27526Y40597D01*
X27292Y40673D01*
X27061Y40757D01*
X26990Y40773D01*
X26920Y40796D01*
X26679Y40842D01*
X26439Y40896D01*
X26367Y40903D01*
X26295Y40917D01*
X26064Y40932D01*
X25805Y40957D01*
X25721Y40954D01*
X25641Y40959D01*
X24279Y40959D01*
X24279Y49292D01*
X24270Y49447D01*
X24270Y49602D01*
X24250Y49764D01*
X24239Y49928D01*
X24210Y50080D01*
X24191Y50234D01*
X24151Y50393D01*
X24120Y50554D01*
X24072Y50701D01*
X24034Y50851D01*
X23974Y51004D01*
X23924Y51160D01*
X23858Y51300D01*
X23801Y51444D01*
X23722Y51588D01*
X23653Y51736D01*
X23570Y51867D01*
X23495Y52003D01*
X23399Y52136D01*
X23311Y52275D01*
X23213Y52394D01*
X23122Y52520D01*
X23010Y52639D01*
X22906Y52766D01*
X22793Y52872D01*
X22687Y52985D01*
X22561Y53090D01*
X22442Y53202D01*
X22316Y53294D01*
X22197Y53393D01*
X22059Y53481D01*
X21927Y53577D01*
X21791Y53652D01*
X21660Y53736D01*
X21512Y53806D01*
X21369Y53885D01*
X21225Y53942D01*
X21085Y54009D01*
X20929Y54060D01*
X20777Y54120D01*
X20627Y54159D01*
X20479Y54208D01*
X20319Y54239D01*
X20160Y54280D01*
X20006Y54299D01*
X19854Y54329D01*
X19695Y54339D01*
X19528Y54361D01*
X19359Y54361D01*
X19200Y54371D01*
X19045Y54362D01*
X18891Y54362D01*
X18890Y54362D01*
X18727Y54342D01*
X18564Y54331D01*
X18412Y54302D01*
X18258Y54283D01*
X18099Y54243D01*
X17938Y54212D01*
X17791Y54164D01*
X17641Y54126D01*
X17488Y54066D01*
X17332Y54015D01*
X17192Y53950D01*
X17048Y53893D01*
X16904Y53814D01*
X16755Y53744D01*
X16625Y53662D01*
X16489Y53587D01*
X16356Y53491D01*
X16217Y53403D01*
X16098Y53305D01*
X15972Y53214D01*
X15852Y53102D01*
X15726Y52998D01*
X15620Y52885D01*
X15507Y52779D01*
X15402Y52653D01*
X15289Y52534D01*
X15198Y52408D01*
X15099Y52289D01*
X15011Y52151D01*
X14914Y52019D01*
X14840Y51883D01*
X14756Y51752D01*
X14686Y51604D01*
X14607Y51461D01*
X14550Y51317D01*
X14483Y51177D01*
X14432Y51021D01*
X14371Y50868D01*
X14333Y50718D01*
X14284Y50571D01*
X14253Y50410D01*
X14212Y50252D01*
X14192Y50098D01*
X14163Y49946D01*
X14153Y49787D01*
X14131Y49620D01*
X14131Y49451D01*
X14121Y49292D01*
X14121Y40827D01*
X13978Y40800D01*
X13831Y40752D01*
X13681Y40714D01*
X13528Y40654D01*
X13372Y40603D01*
X13232Y40538D01*
X13088Y40481D01*
X12944Y40402D01*
X12796Y40332D01*
X12665Y40250D01*
X12529Y40175D01*
X12396Y40079D01*
X12257Y39991D01*
X12138Y39893D01*
X12012Y39802D01*
X11893Y39690D01*
X11766Y39586D01*
X11660Y39473D01*
X11547Y39367D01*
X11442Y39241D01*
X11330Y39122D01*
X11238Y38996D01*
X11139Y38877D01*
X11051Y38739D01*
X10955Y38607D01*
X10880Y38471D01*
X10796Y38340D01*
X10726Y38192D01*
X10647Y38049D01*
X10590Y37905D01*
X10523Y37765D01*
X10472Y37609D01*
X10412Y37457D01*
X10373Y37306D01*
X10324Y37159D01*
X10293Y36999D01*
X10252Y36840D01*
X10233Y36686D01*
X10203Y36534D01*
X10193Y36375D01*
X10171Y36208D01*
X10171Y36039D01*
X10161Y35880D01*
X10161Y15240D01*
X10170Y15085D01*
X10170Y14930D01*
X10190Y14768D01*
X10201Y14604D01*
X10230Y14452D01*
X10249Y14298D01*
X10289Y14139D01*
X10320Y13978D01*
X10368Y13831D01*
X10406Y13681D01*
X10466Y13528D01*
X10517Y13372D01*
X10582Y13232D01*
X10639Y13088D01*
X10718Y12944D01*
X10788Y12796D01*
X10870Y12665D01*
X10945Y12529D01*
X11041Y12396D01*
X11129Y12257D01*
X11227Y12138D01*
X11318Y12012D01*
X11430Y11893D01*
X11534Y11766D01*
X11647Y11660D01*
X11753Y11547D01*
X11879Y11442D01*
X11998Y11330D01*
X12124Y11238D01*
X12243Y11139D01*
X12381Y11051D01*
X12513Y10955D01*
X12649Y10880D01*
X12780Y10796D01*
X12928Y10726D01*
X13071Y10647D01*
X13215Y10590D01*
X13355Y10523D01*
X13511Y10472D01*
X13664Y10412D01*
X13814Y10373D01*
X13961Y10324D01*
X14122Y10293D01*
X14280Y10252D01*
X14434Y10233D01*
X14586Y10203D01*
X14745Y10193D01*
X14912Y10171D01*
X15081Y10171D01*
X15240Y10161D01*
X37401Y10161D01*
X37417Y10162D01*
G37*
G36*
X467864Y102519D02*
X467864Y102519D01*
X468102Y102519D01*
X468183Y102529D01*
X468265Y102531D01*
X468498Y102568D01*
X468734Y102597D01*
X468813Y102618D01*
X468894Y102630D01*
X469122Y102696D01*
X469351Y102755D01*
X469428Y102785D01*
X469506Y102807D01*
X469723Y102901D01*
X469944Y102988D01*
X470016Y103027D01*
X470091Y103060D01*
X470295Y103179D01*
X470503Y103293D01*
X470570Y103342D01*
X470640Y103383D01*
X470827Y103528D01*
X471020Y103667D01*
X471080Y103723D01*
X471144Y103773D01*
X471312Y103940D01*
X471485Y104102D01*
X471538Y104165D01*
X471596Y104222D01*
X471741Y104409D01*
X471893Y104591D01*
X471937Y104660D01*
X471987Y104725D01*
X472108Y104929D01*
X472236Y105128D01*
X472271Y105202D01*
X472313Y105273D01*
X472407Y105490D01*
X472509Y105704D01*
X472534Y105782D01*
X472567Y105857D01*
X472634Y106084D01*
X472708Y106309D01*
X472723Y106390D01*
X472746Y106468D01*
X472784Y106702D01*
X472829Y106935D01*
X472834Y107015D01*
X472847Y107097D01*
X472856Y107357D01*
X472871Y107589D01*
X472871Y129176D01*
X472864Y129289D01*
X472866Y129403D01*
X472844Y129607D01*
X472831Y129811D01*
X472810Y129923D01*
X472798Y130037D01*
X472750Y130236D01*
X472712Y130437D01*
X472677Y130546D01*
X472651Y130657D01*
X472579Y130848D01*
X472515Y131043D01*
X472467Y131147D01*
X472427Y131253D01*
X472332Y131434D01*
X472244Y131620D01*
X472183Y131716D01*
X472130Y131817D01*
X472013Y131985D01*
X471903Y132158D01*
X471831Y132246D01*
X471766Y132339D01*
X471628Y132491D01*
X471498Y132649D01*
X471415Y132728D01*
X471338Y132812D01*
X471183Y132946D01*
X471034Y133086D01*
X470941Y133153D01*
X470855Y133227D01*
X470684Y133341D01*
X470519Y133461D01*
X470419Y133516D01*
X470324Y133579D01*
X470147Y133666D01*
X469961Y133769D01*
X469844Y133815D01*
X469736Y133868D01*
X467253Y134897D01*
X463903Y138247D01*
X462089Y142625D01*
X462089Y147363D01*
X463961Y151881D01*
X463971Y151911D01*
X463985Y151940D01*
X464074Y152213D01*
X464167Y152484D01*
X464174Y152515D01*
X464184Y152546D01*
X464238Y152827D01*
X464296Y153108D01*
X464299Y153140D01*
X464305Y153171D01*
X464321Y153422D01*
X464347Y153743D01*
X464345Y153785D01*
X464347Y153825D01*
X464347Y165522D01*
X464338Y165677D01*
X464338Y165832D01*
X464318Y165994D01*
X464307Y166158D01*
X464278Y166310D01*
X464259Y166464D01*
X464219Y166623D01*
X464188Y166784D01*
X464140Y166931D01*
X464102Y167081D01*
X464042Y167234D01*
X463991Y167390D01*
X463926Y167530D01*
X463869Y167674D01*
X463790Y167818D01*
X463720Y167966D01*
X463638Y168097D01*
X463563Y168233D01*
X463467Y168366D01*
X463379Y168505D01*
X463281Y168624D01*
X463190Y168750D01*
X463078Y168869D01*
X462974Y168996D01*
X462861Y169102D01*
X462755Y169215D01*
X462629Y169320D01*
X462510Y169432D01*
X462384Y169524D01*
X462265Y169623D01*
X462127Y169711D01*
X461995Y169807D01*
X461859Y169882D01*
X461728Y169966D01*
X461580Y170036D01*
X461437Y170115D01*
X461293Y170172D01*
X461153Y170239D01*
X460997Y170290D01*
X460844Y170350D01*
X460694Y170389D01*
X460547Y170438D01*
X460386Y170469D01*
X460228Y170510D01*
X460074Y170529D01*
X459922Y170559D01*
X459763Y170569D01*
X459596Y170591D01*
X459427Y170591D01*
X459268Y170601D01*
X455632Y170601D01*
X455477Y170592D01*
X455322Y170592D01*
X455160Y170572D01*
X454996Y170561D01*
X454844Y170532D01*
X454690Y170513D01*
X454531Y170473D01*
X454370Y170442D01*
X454223Y170394D01*
X454073Y170356D01*
X453920Y170296D01*
X453764Y170245D01*
X453624Y170180D01*
X453480Y170123D01*
X453336Y170044D01*
X453188Y169974D01*
X453057Y169892D01*
X452921Y169817D01*
X452788Y169721D01*
X452649Y169633D01*
X452530Y169535D01*
X452404Y169444D01*
X452285Y169332D01*
X452158Y169228D01*
X452052Y169115D01*
X451939Y169009D01*
X451834Y168883D01*
X451722Y168764D01*
X451630Y168638D01*
X451531Y168519D01*
X451443Y168381D01*
X451347Y168249D01*
X451272Y168113D01*
X451188Y167982D01*
X451118Y167834D01*
X451039Y167691D01*
X450982Y167547D01*
X450915Y167407D01*
X450864Y167251D01*
X450804Y167098D01*
X450765Y166948D01*
X450716Y166801D01*
X450685Y166640D01*
X450644Y166482D01*
X450625Y166328D01*
X450595Y166176D01*
X450585Y166017D01*
X450563Y165850D01*
X450563Y165681D01*
X450553Y165522D01*
X450553Y110667D01*
X450562Y110512D01*
X450562Y110357D01*
X450582Y110194D01*
X450593Y110031D01*
X450622Y109879D01*
X450641Y109725D01*
X450681Y109566D01*
X450712Y109405D01*
X450760Y109257D01*
X450798Y109107D01*
X450858Y108955D01*
X450909Y108799D01*
X450974Y108659D01*
X451031Y108514D01*
X451110Y108370D01*
X451180Y108222D01*
X451262Y108091D01*
X451337Y107955D01*
X451433Y107822D01*
X451521Y107684D01*
X451619Y107565D01*
X451710Y107439D01*
X451822Y107319D01*
X451926Y107193D01*
X452039Y107087D01*
X452145Y106973D01*
X452271Y106869D01*
X452390Y106756D01*
X452516Y106665D01*
X452635Y106566D01*
X452773Y106478D01*
X452905Y106381D01*
X453041Y106306D01*
X453172Y106223D01*
X453320Y106153D01*
X453463Y106073D01*
X453607Y106016D01*
X453747Y105950D01*
X453903Y105899D01*
X454056Y105838D01*
X454206Y105799D01*
X454353Y105751D01*
X454514Y105720D01*
X454672Y105679D01*
X454826Y105659D01*
X454978Y105630D01*
X455137Y105619D01*
X455304Y105598D01*
X455473Y105598D01*
X455632Y105587D01*
X460046Y105587D01*
X464468Y103755D01*
X464550Y103678D01*
X464617Y103630D01*
X464678Y103576D01*
X464874Y103443D01*
X465066Y103303D01*
X465137Y103264D01*
X465205Y103217D01*
X465416Y103110D01*
X465623Y102995D01*
X465700Y102965D01*
X465773Y102928D01*
X465995Y102848D01*
X466216Y102760D01*
X466295Y102740D01*
X466372Y102712D01*
X466603Y102660D01*
X466832Y102601D01*
X466914Y102590D01*
X466994Y102572D01*
X467229Y102550D01*
X467464Y102520D01*
X467547Y102520D01*
X467628Y102512D01*
X467864Y102519D01*
G37*
G36*
X83108Y51452D02*
X83108Y51452D01*
X83117Y51451D01*
X83205Y51472D01*
X83295Y51490D01*
X83302Y51495D01*
X83310Y51497D01*
X83383Y51551D01*
X83459Y51603D01*
X83463Y51610D01*
X83470Y51615D01*
X83517Y51693D01*
X83566Y51770D01*
X83567Y51779D01*
X83572Y51786D01*
X83599Y51950D01*
X83599Y55576D01*
X90100Y55576D01*
X90108Y55577D01*
X90117Y55576D01*
X90205Y55597D01*
X90295Y55615D01*
X90302Y55620D01*
X90310Y55622D01*
X90383Y55676D01*
X90459Y55728D01*
X90463Y55735D01*
X90470Y55740D01*
X90517Y55818D01*
X90566Y55895D01*
X90567Y55904D01*
X90572Y55911D01*
X90599Y56075D01*
X90599Y57825D01*
X90598Y57833D01*
X90599Y57842D01*
X90578Y57930D01*
X90560Y58020D01*
X90555Y58027D01*
X90553Y58035D01*
X90499Y58108D01*
X90447Y58184D01*
X90440Y58188D01*
X90435Y58195D01*
X90357Y58242D01*
X90280Y58291D01*
X90271Y58292D01*
X90264Y58297D01*
X90100Y58324D01*
X83599Y58324D01*
X83599Y61076D01*
X90100Y61076D01*
X90108Y61077D01*
X90117Y61076D01*
X90205Y61097D01*
X90295Y61115D01*
X90302Y61120D01*
X90310Y61122D01*
X90383Y61176D01*
X90459Y61228D01*
X90463Y61235D01*
X90470Y61240D01*
X90517Y61318D01*
X90566Y61395D01*
X90567Y61404D01*
X90572Y61411D01*
X90599Y61575D01*
X90599Y63325D01*
X90598Y63333D01*
X90599Y63342D01*
X90578Y63430D01*
X90560Y63520D01*
X90555Y63527D01*
X90553Y63535D01*
X90499Y63608D01*
X90447Y63684D01*
X90440Y63688D01*
X90435Y63695D01*
X90357Y63742D01*
X90280Y63791D01*
X90271Y63792D01*
X90264Y63797D01*
X90100Y63824D01*
X83599Y63824D01*
X83599Y67450D01*
X83598Y67458D01*
X83599Y67467D01*
X83578Y67555D01*
X83560Y67645D01*
X83555Y67652D01*
X83553Y67660D01*
X83499Y67733D01*
X83447Y67809D01*
X83440Y67813D01*
X83435Y67820D01*
X83357Y67867D01*
X83280Y67916D01*
X83271Y67917D01*
X83264Y67922D01*
X83100Y67949D01*
X60100Y67949D01*
X60092Y67948D01*
X60083Y67949D01*
X59995Y67928D01*
X59905Y67910D01*
X59898Y67905D01*
X59890Y67903D01*
X59817Y67849D01*
X59741Y67797D01*
X59737Y67790D01*
X59730Y67785D01*
X59683Y67707D01*
X59634Y67630D01*
X59633Y67621D01*
X59628Y67614D01*
X59601Y67450D01*
X59601Y63824D01*
X53100Y63824D01*
X53092Y63823D01*
X53083Y63824D01*
X52995Y63803D01*
X52905Y63785D01*
X52898Y63780D01*
X52890Y63778D01*
X52817Y63724D01*
X52741Y63672D01*
X52737Y63665D01*
X52730Y63660D01*
X52683Y63582D01*
X52634Y63505D01*
X52633Y63496D01*
X52628Y63489D01*
X52601Y63325D01*
X52601Y61575D01*
X52602Y61567D01*
X52601Y61558D01*
X52622Y61470D01*
X52640Y61380D01*
X52645Y61373D01*
X52647Y61365D01*
X52701Y61292D01*
X52753Y61216D01*
X52760Y61212D01*
X52765Y61205D01*
X52843Y61158D01*
X52920Y61109D01*
X52929Y61108D01*
X52936Y61103D01*
X53100Y61076D01*
X59601Y61076D01*
X59601Y58324D01*
X53100Y58324D01*
X53092Y58323D01*
X53083Y58324D01*
X52995Y58303D01*
X52905Y58285D01*
X52898Y58280D01*
X52890Y58278D01*
X52817Y58224D01*
X52741Y58172D01*
X52737Y58165D01*
X52730Y58160D01*
X52683Y58082D01*
X52634Y58005D01*
X52633Y57996D01*
X52628Y57989D01*
X52601Y57825D01*
X52601Y56075D01*
X52602Y56067D01*
X52601Y56058D01*
X52622Y55970D01*
X52640Y55880D01*
X52645Y55873D01*
X52647Y55865D01*
X52701Y55792D01*
X52753Y55716D01*
X52760Y55712D01*
X52765Y55705D01*
X52843Y55658D01*
X52920Y55609D01*
X52929Y55608D01*
X52936Y55603D01*
X53100Y55576D01*
X59601Y55576D01*
X59601Y51950D01*
X59602Y51942D01*
X59601Y51933D01*
X59622Y51845D01*
X59640Y51755D01*
X59645Y51748D01*
X59647Y51740D01*
X59701Y51667D01*
X59753Y51591D01*
X59760Y51587D01*
X59765Y51580D01*
X59843Y51533D01*
X59920Y51484D01*
X59929Y51483D01*
X59936Y51478D01*
X60100Y51451D01*
X83100Y51451D01*
X83108Y51452D01*
G37*
%LPC*%
G36*
X351479Y93679D02*
X351479Y93679D01*
X351479Y97416D01*
X351725Y97290D01*
X353019Y96350D01*
X354150Y95219D01*
X355090Y93925D01*
X355216Y93679D01*
X351479Y93679D01*
G37*
%LPD*%
%LPC*%
G36*
X100479Y261621D02*
X100479Y261621D01*
X104216Y261621D01*
X104090Y261375D01*
X103150Y260081D01*
X102019Y258950D01*
X100817Y258076D01*
X100816Y258076D01*
X100725Y258010D01*
X100479Y257884D01*
X100479Y261621D01*
G37*
%LPD*%
%LPC*%
G36*
X90075Y258010D02*
X90075Y258010D01*
X88781Y258950D01*
X87650Y260081D01*
X86710Y261375D01*
X86584Y261621D01*
X90321Y261621D01*
X90321Y257884D01*
X90075Y258010D01*
G37*
%LPD*%
D10*
X67400Y21600D03*
X50400Y21600D03*
X246300Y38900D03*
X263300Y38900D03*
D11*
X270500Y280200D03*
X270500Y297200D03*
X211700Y281600D03*
X211700Y298600D03*
D12*
X111500Y222300D03*
X92500Y222300D03*
D11*
X171700Y141800D03*
X171700Y124800D03*
D10*
X288800Y157300D03*
X305800Y157300D03*
X288800Y135300D03*
X305800Y135300D03*
D11*
X574500Y303300D03*
X574500Y286300D03*
D13*
X650800Y247900D03*
X650800Y266900D03*
D11*
X586700Y245800D03*
X586700Y228800D03*
D13*
X625800Y248400D03*
X625800Y267400D03*
X19200Y69000D03*
X19200Y50000D03*
D10*
X212500Y38900D03*
X195500Y38900D03*
D14*
X346400Y38600D03*
D15*
X346400Y63600D03*
X346400Y88600D03*
D14*
X95400Y291700D03*
D15*
X95400Y266700D03*
D16*
X71600Y59700D03*
D17*
X80900Y70900D02*
X80900Y78000D01*
X82300Y78000D01*
X82300Y70900D01*
X80900Y70900D01*
X80900Y72230D02*
X82300Y72230D01*
X82300Y73560D02*
X80900Y73560D01*
X80900Y74890D02*
X82300Y74890D01*
X82300Y76220D02*
X80900Y76220D01*
X80900Y77550D02*
X82300Y77550D01*
X75900Y78000D02*
X75900Y70900D01*
X75900Y78000D02*
X77300Y78000D01*
X77300Y70900D01*
X75900Y70900D01*
X75900Y72230D02*
X77300Y72230D01*
X77300Y73560D02*
X75900Y73560D01*
X75900Y74890D02*
X77300Y74890D01*
X77300Y76220D02*
X75900Y76220D01*
X75900Y77550D02*
X77300Y77550D01*
X70900Y78000D02*
X70900Y70900D01*
X70900Y78000D02*
X72300Y78000D01*
X72300Y70900D01*
X70900Y70900D01*
X70900Y72230D02*
X72300Y72230D01*
X72300Y73560D02*
X70900Y73560D01*
X70900Y74890D02*
X72300Y74890D01*
X72300Y76220D02*
X70900Y76220D01*
X70900Y77550D02*
X72300Y77550D01*
X65900Y78000D02*
X65900Y70900D01*
X65900Y78000D02*
X67300Y78000D01*
X67300Y70900D01*
X65900Y70900D01*
X65900Y72230D02*
X67300Y72230D01*
X67300Y73560D02*
X65900Y73560D01*
X65900Y74890D02*
X67300Y74890D01*
X67300Y76220D02*
X65900Y76220D01*
X65900Y77550D02*
X67300Y77550D01*
X60900Y78000D02*
X60900Y70900D01*
X60900Y78000D02*
X62300Y78000D01*
X62300Y70900D01*
X60900Y70900D01*
X60900Y72230D02*
X62300Y72230D01*
X62300Y73560D02*
X60900Y73560D01*
X60900Y74890D02*
X62300Y74890D01*
X62300Y76220D02*
X60900Y76220D01*
X60900Y77550D02*
X62300Y77550D01*
X62300Y48500D02*
X62300Y41400D01*
X60900Y41400D01*
X60900Y48500D01*
X62300Y48500D01*
X62300Y42730D02*
X60900Y42730D01*
X60900Y44060D02*
X62300Y44060D01*
X62300Y45390D02*
X60900Y45390D01*
X60900Y46720D02*
X62300Y46720D01*
X62300Y48050D02*
X60900Y48050D01*
X67300Y48500D02*
X67300Y41400D01*
X65900Y41400D01*
X65900Y48500D01*
X67300Y48500D01*
X67300Y42730D02*
X65900Y42730D01*
X65900Y44060D02*
X67300Y44060D01*
X67300Y45390D02*
X65900Y45390D01*
X65900Y46720D02*
X67300Y46720D01*
X67300Y48050D02*
X65900Y48050D01*
X72300Y48500D02*
X72300Y41400D01*
X70900Y41400D01*
X70900Y48500D01*
X72300Y48500D01*
X72300Y42730D02*
X70900Y42730D01*
X70900Y44060D02*
X72300Y44060D01*
X72300Y45390D02*
X70900Y45390D01*
X70900Y46720D02*
X72300Y46720D01*
X72300Y48050D02*
X70900Y48050D01*
X77300Y48500D02*
X77300Y41400D01*
X75900Y41400D01*
X75900Y48500D01*
X77300Y48500D01*
X77300Y42730D02*
X75900Y42730D01*
X75900Y44060D02*
X77300Y44060D01*
X77300Y45390D02*
X75900Y45390D01*
X75900Y46720D02*
X77300Y46720D01*
X77300Y48050D02*
X75900Y48050D01*
X82300Y48500D02*
X82300Y41400D01*
X80900Y41400D01*
X80900Y48500D01*
X82300Y48500D01*
X82300Y42730D02*
X80900Y42730D01*
X80900Y44060D02*
X82300Y44060D01*
X82300Y45390D02*
X80900Y45390D01*
X80900Y46720D02*
X82300Y46720D01*
X82300Y48050D02*
X80900Y48050D01*
D18*
X105638Y134200D03*
X56362Y134200D03*
D10*
X40500Y50200D03*
X40500Y67200D03*
D11*
X628200Y295300D03*
X645200Y295300D03*
D10*
X414700Y263000D03*
X414700Y246000D03*
D11*
X611800Y296500D03*
X594800Y296500D03*
D10*
X414500Y297700D03*
X414500Y280700D03*
D11*
X380300Y151500D03*
X363300Y151500D03*
D10*
X565500Y249200D03*
X565500Y266200D03*
D11*
X120900Y32300D03*
X103900Y32300D03*
D10*
X107400Y50200D03*
X107400Y67200D03*
X151600Y170600D03*
X151600Y187600D03*
X334600Y157500D03*
X334600Y174500D03*
D11*
X237900Y115100D03*
X220900Y115100D03*
X283200Y259700D03*
X266200Y259700D03*
D19*
X439850Y245660D03*
X439850Y301540D03*
X477950Y245660D03*
X477950Y301540D03*
X498950Y245760D03*
X498950Y301640D03*
X537050Y245760D03*
X537050Y301640D03*
D20*
X27600Y280000D03*
X27600Y254600D03*
X27600Y229200D03*
D21*
X588000Y205000D03*
X575300Y205000D03*
X562600Y205000D03*
X549900Y205000D03*
X537200Y205000D03*
X524500Y205000D03*
X511800Y205000D03*
X499100Y205000D03*
X486400Y205000D03*
X473700Y205000D03*
X461000Y205000D03*
X448300Y205000D03*
X435600Y205000D03*
X422900Y205000D03*
D22*
X408000Y172150D03*
X408000Y159450D03*
X408000Y146750D03*
X408000Y134050D03*
X408000Y121350D03*
X408000Y108650D03*
X408000Y95950D03*
X408000Y83250D03*
X408000Y70550D03*
X408000Y57850D03*
D21*
X422900Y25000D03*
X435600Y25000D03*
X448300Y25000D03*
X461000Y25000D03*
X473700Y25000D03*
X486400Y25000D03*
X499100Y25000D03*
X511800Y25000D03*
X524500Y25000D03*
X537200Y25000D03*
X549900Y25000D03*
X562600Y25000D03*
X575300Y25000D03*
X588000Y25000D03*
D23*
X511000Y115000D03*
D24*
X174900Y231500D03*
X174900Y226500D03*
X174900Y221500D03*
X174900Y216500D03*
X174900Y211500D03*
X174900Y206500D03*
X174900Y201500D03*
X174900Y196500D03*
X174900Y191500D03*
X174900Y186500D03*
X174900Y181500D03*
X174900Y176500D03*
D25*
X191900Y159500D03*
X196900Y159500D03*
X201900Y159500D03*
X206900Y159500D03*
X211900Y159500D03*
X216900Y159500D03*
X221900Y159500D03*
X226900Y159500D03*
X231900Y159500D03*
X236900Y159500D03*
X241900Y159500D03*
X246900Y159500D03*
D24*
X263900Y176500D03*
X263900Y181500D03*
X263900Y186500D03*
X263900Y191500D03*
X263900Y196500D03*
X263900Y201500D03*
X263900Y206500D03*
X263900Y211500D03*
X263900Y216500D03*
X263900Y221500D03*
X263900Y226500D03*
X263900Y231500D03*
D25*
X246900Y248500D03*
X241900Y248500D03*
X236900Y248500D03*
X231900Y248500D03*
X226900Y248500D03*
X221900Y248500D03*
X216900Y248500D03*
X211900Y248500D03*
X206900Y248500D03*
X201900Y248500D03*
X196900Y248500D03*
X191900Y248500D03*
D26*
X253530Y82000D03*
X205270Y82000D03*
D27*
X308000Y299000D03*
X378000Y299000D03*
X308000Y265000D03*
X378000Y227000D03*
X378000Y205000D03*
X308000Y210000D03*
D28*
X76756Y74606D02*
X76600Y74450D01*
X76756Y74606D02*
X76756Y80457D01*
X105638Y109339D02*
X105638Y134200D01*
X105638Y109339D02*
X76756Y80457D01*
D29*
X66600Y123962D02*
X56362Y134200D01*
D28*
X66600Y123962D02*
X66600Y74450D01*
D29*
X40500Y50200D02*
X66700Y24000D01*
X66600Y22400D02*
X66600Y44950D01*
X66600Y22400D02*
X67400Y21600D01*
X61600Y27400D02*
X61600Y44950D01*
X61600Y27400D02*
X66600Y22400D01*
X71600Y25800D02*
X71600Y44950D01*
X71600Y25800D02*
X67400Y21600D01*
D30*
X250850Y291850D02*
X244100Y298600D01*
X230000Y298600D01*
X220000Y298600D01*
X211700Y298600D01*
X95400Y266700D02*
X95400Y225200D01*
X92500Y222300D01*
X626300Y266900D02*
X650800Y266900D01*
X626300Y266900D02*
X625800Y267400D01*
D31*
X477950Y285483D02*
X477950Y301540D01*
X477950Y285483D02*
X480074Y283359D01*
X480074Y267641D01*
X477950Y265517D01*
X477950Y245660D01*
X498950Y245760D02*
X498950Y301640D01*
X588000Y227500D02*
X588000Y205000D01*
X588000Y227500D02*
X586700Y228800D01*
D30*
X305800Y157300D02*
X305800Y135300D01*
D29*
X574500Y286300D02*
X598075Y286300D01*
X616513Y276687D02*
X625800Y267400D01*
X607688Y276687D02*
X598075Y286300D01*
X607688Y276687D02*
X616513Y276687D01*
D30*
X650000Y267700D02*
X650800Y266900D01*
X650000Y267700D02*
X650000Y280000D01*
D32*
X650000Y280000D03*
D30*
X510000Y301640D02*
X498950Y301640D01*
D33*
X120900Y32300D02*
X120900Y29300D01*
X111600Y20000D01*
X100000Y20000D01*
D32*
X100000Y20000D03*
X80000Y100000D03*
D29*
X50400Y21600D02*
X31600Y21600D01*
X30000Y20000D01*
D32*
X30000Y20000D03*
D29*
X263300Y38900D02*
X264400Y40000D01*
X290000Y40000D01*
D32*
X290000Y40000D03*
D29*
X588000Y25000D02*
X588000Y62000D01*
X570000Y80000D01*
D32*
X570000Y80000D03*
D29*
X346400Y88600D02*
X346400Y113600D01*
X340000Y120000D01*
D32*
X340000Y120000D03*
D29*
X324700Y135300D02*
X305800Y135300D01*
X324700Y135300D02*
X330000Y130000D01*
D32*
X330000Y130000D03*
X456500Y146500D03*
D29*
X456500Y115194D01*
X472694Y99000D01*
D32*
X472694Y99000D03*
D29*
X625800Y267400D02*
X635000Y276600D01*
X635000Y281000D01*
D32*
X635000Y281000D03*
X509735Y301905D03*
X460000Y300000D03*
D29*
X250850Y291850D02*
X248472Y289472D01*
X174900Y216500D02*
X164590Y216500D01*
X160000Y221090D01*
X151600Y170600D02*
X162200Y160000D01*
X170000Y160000D01*
D32*
X170000Y160000D03*
D29*
X191100Y38900D02*
X195500Y38900D01*
X191100Y38900D02*
X180000Y50000D01*
D32*
X180000Y50000D03*
D29*
X171700Y124800D02*
X192200Y124800D01*
X194000Y123000D01*
D32*
X194000Y123000D03*
X166000Y300000D03*
D33*
X202600Y298600D02*
X211700Y298600D01*
X202600Y298600D02*
X199000Y295000D01*
D32*
X199000Y295000D03*
D29*
X160000Y260000D02*
X140000Y280000D01*
X150000Y280000D01*
X160000Y250000D02*
X160000Y221090D01*
X160000Y250000D02*
X160000Y260000D01*
D32*
X257000Y298000D03*
X283000Y225000D03*
D29*
X281500Y226500D01*
X263900Y226500D01*
X206900Y159500D02*
X206900Y136900D01*
X231900Y149100D02*
X231900Y159500D01*
X231900Y149100D02*
X235000Y146000D01*
X239306Y146000D01*
X240306Y146000D01*
X239000Y144694D01*
D32*
X239000Y144694D03*
D29*
X236900Y146794D02*
X236900Y159500D01*
X236900Y146794D02*
X239000Y144694D01*
X226900Y149100D02*
X226900Y159500D01*
X226900Y149100D02*
X231000Y145000D01*
X238306Y145000D01*
X239306Y146000D01*
X586700Y228800D02*
X588800Y228800D01*
D32*
X610000Y236594D03*
D29*
X588000Y205000D02*
X593000Y200000D01*
X593000Y163000D01*
X591000Y163000D01*
D32*
X591000Y163000D03*
X560000Y160000D03*
D29*
X560000Y140000D01*
X554048Y134048D01*
X554048Y126742D01*
X548306Y121000D01*
D32*
X548306Y121000D03*
X422000Y163000D03*
D29*
X414611Y172150D02*
X408000Y172150D01*
D32*
X160000Y250000D03*
D29*
X194000Y124000D02*
X194000Y123000D01*
X194000Y124000D02*
X206900Y136900D01*
D28*
X80000Y100000D02*
X74944Y94944D01*
X74594Y94944D01*
X71600Y91951D01*
X71600Y74450D01*
X226900Y248500D02*
X226900Y266856D01*
X227102Y267058D01*
X227102Y291498D01*
X220000Y298600D01*
X231900Y262056D02*
X231900Y248500D01*
X231900Y262056D02*
X229898Y264058D01*
X229898Y264262D01*
X227102Y267058D01*
X246900Y260365D02*
X246900Y248500D01*
X246900Y260365D02*
X248692Y262157D01*
X248692Y289692D02*
X250850Y291850D01*
X248692Y289692D02*
X248692Y262157D01*
X196720Y239625D02*
X194775Y237680D01*
X189025Y237680D01*
X196720Y248320D02*
X196900Y248500D01*
X196720Y248320D02*
X196720Y239625D01*
X166705Y260000D02*
X160000Y260000D01*
X166705Y260000D02*
X189025Y237680D01*
X100000Y20000D02*
X92615Y20000D01*
X76600Y36015D01*
X76600Y44950D01*
X408000Y172150D02*
X417850Y172150D01*
X422000Y168000D02*
X422000Y163000D01*
X422000Y168000D02*
X417850Y172150D01*
X586700Y228800D02*
X594494Y236594D01*
X610000Y236594D01*
D30*
X257000Y298000D02*
X250850Y291850D01*
X250000Y299000D02*
X230400Y299000D01*
X230000Y298600D01*
X251000Y298000D02*
X257000Y298000D01*
X230400Y299000D02*
X212100Y299000D01*
X211700Y298600D01*
D34*
X520000Y100000D03*
X500000Y120000D03*
D32*
X120000Y290000D03*
D34*
X520000Y120000D03*
X500000Y100000D03*
D30*
X270500Y297200D02*
X251800Y297200D01*
X251000Y298000D01*
X250000Y299000D01*
D29*
X107400Y50200D02*
X103900Y43241D01*
X103900Y32300D01*
D28*
X81600Y39950D02*
X81600Y44950D01*
X81600Y39950D02*
X89250Y32300D01*
X103900Y32300D01*
D32*
X500000Y190000D03*
D29*
X499548Y190452D01*
X493338Y190452D01*
X486400Y197390D01*
X486400Y205000D01*
D32*
X150000Y220000D03*
X154000Y199000D03*
X260000Y140000D03*
D29*
X250000Y140000D01*
X246900Y143100D01*
X246900Y159500D01*
D32*
X230000Y179853D03*
D28*
X253080Y202933D02*
X253080Y204375D01*
X253080Y202933D02*
X230000Y179853D01*
X255205Y206500D02*
X263900Y206500D01*
X255205Y206500D02*
X253080Y204375D01*
X174900Y211500D02*
X158500Y211500D01*
X150000Y220000D01*
X156500Y201500D02*
X174900Y201500D01*
X156500Y201500D02*
X154000Y199000D01*
D29*
X155500Y191500D02*
X174900Y191500D01*
X155500Y191500D02*
X151600Y187600D01*
X152700Y186500D02*
X174900Y186500D01*
X152700Y186500D02*
X151600Y187600D01*
X157700Y181500D02*
X174900Y181500D01*
X157700Y181500D02*
X152700Y186500D01*
X162700Y176500D02*
X174900Y176500D01*
X162700Y176500D02*
X157700Y181500D01*
D28*
X263744Y231344D02*
X263900Y231500D01*
X194650Y191500D02*
X174900Y191500D01*
X234494Y231344D02*
X263744Y231344D01*
X234494Y231344D02*
X224650Y221500D01*
X221575Y218425D02*
X194650Y191500D01*
X224650Y221500D02*
X263900Y221500D01*
X224650Y221500D02*
X221575Y218425D01*
X223500Y216500D02*
X263900Y216500D01*
X223500Y216500D02*
X221575Y218425D01*
D35*
X216900Y159500D02*
X216900Y140500D01*
X237900Y119500D02*
X237900Y115100D01*
X237900Y119500D02*
X216900Y140500D01*
X253530Y92000D02*
X253530Y82000D01*
X253530Y92000D02*
X237900Y107630D01*
X237900Y115100D01*
X253530Y46130D02*
X246300Y38900D01*
X253530Y46130D02*
X253530Y82000D01*
X211900Y139500D02*
X211900Y159500D01*
X211900Y139500D02*
X221900Y129500D01*
X221900Y116100D01*
X220900Y115100D01*
X205270Y46130D02*
X212500Y38900D01*
X205270Y46130D02*
X205270Y82000D01*
X205270Y99470D02*
X220900Y115100D01*
X205270Y99470D02*
X205270Y82000D01*
D29*
X196900Y146900D02*
X196900Y159500D01*
X196900Y146900D02*
X190000Y140000D01*
X173500Y140000D01*
X171700Y141800D01*
X286670Y133170D02*
X288800Y135300D01*
X98850Y84450D02*
X87600Y84450D01*
X81600Y78450D02*
X81600Y74450D01*
X81600Y78450D02*
X87600Y84450D01*
X107400Y75900D02*
X107400Y67200D01*
X107400Y75900D02*
X98850Y84450D01*
D32*
X130000Y60000D03*
D30*
X150000Y80000D01*
X150000Y141800D01*
X150000Y143000D01*
X110000Y183000D02*
X110000Y220000D01*
X130000Y220000D02*
X130000Y240000D01*
X110000Y183000D02*
X150000Y143000D01*
X130000Y240000D02*
X142300Y252300D01*
X130000Y220000D02*
X113800Y220000D01*
X110000Y220000D01*
X111500Y222300D02*
X113800Y220000D01*
D29*
X153159Y206500D02*
X174900Y206500D01*
X153159Y206500D02*
X152829Y206830D01*
X143170Y206830D02*
X130000Y220000D01*
X143170Y206830D02*
X152829Y206830D01*
D32*
X142300Y252300D03*
X201011Y270700D03*
X220000Y270000D03*
D30*
X288800Y157300D02*
X288800Y135300D01*
D32*
X240000Y279300D03*
D29*
X263900Y181500D02*
X327600Y181500D01*
X334600Y174500D01*
D30*
X174760Y15240D02*
X130000Y60000D01*
X174760Y15240D02*
X315240Y15240D01*
X320000Y20000D01*
X320000Y95000D01*
X288800Y126200D02*
X288800Y135300D01*
X288800Y126200D02*
X320000Y95000D01*
X650300Y248400D02*
X650800Y247900D01*
X650300Y248400D02*
X625800Y248400D01*
X288800Y162300D02*
X288800Y157300D01*
X288800Y162300D02*
X298404Y171904D01*
X313035Y171904D01*
X327439Y157500D02*
X334600Y157500D01*
X327439Y157500D02*
X313035Y171904D01*
X357300Y157500D02*
X363300Y151500D01*
X357300Y157500D02*
X334600Y157500D01*
X398504Y229804D02*
X414700Y246000D01*
X398504Y229804D02*
X398504Y191265D01*
X363300Y156061D01*
X363300Y151500D01*
D32*
X413000Y228000D03*
X550000Y250000D03*
D36*
X414700Y246000D02*
X414700Y229700D01*
X413000Y228000D01*
D30*
X565500Y266200D02*
X577261Y266200D01*
X578965Y267904D01*
X601957Y267904D01*
X600000Y248400D02*
X625800Y248400D01*
X600000Y248400D02*
X589300Y248400D01*
X586700Y245800D01*
D36*
X575300Y234400D01*
X575300Y205000D01*
D30*
X565500Y266200D02*
X556536Y266200D01*
X550000Y259664D02*
X550000Y250000D01*
X550000Y259664D02*
X556536Y266200D01*
D36*
X575300Y205000D02*
X575300Y164700D01*
X590000Y150000D01*
D32*
X590000Y150000D03*
D30*
X171700Y141800D02*
X150000Y141800D01*
D28*
X216900Y248500D02*
X217056Y248656D01*
X220000Y260295D02*
X220000Y270000D01*
X220000Y260295D02*
X217056Y257351D01*
X217056Y248656D01*
X201011Y265840D02*
X201011Y270700D01*
X201011Y265840D02*
X206744Y260107D01*
X206744Y248656D02*
X206900Y248500D01*
X206744Y248656D02*
X206744Y260107D01*
X241900Y261856D02*
X244102Y264058D01*
X241900Y261856D02*
X241900Y248500D01*
X244102Y275198D02*
X240000Y279300D01*
X244102Y275198D02*
X244102Y264058D01*
X221900Y159500D02*
X222056Y159344D01*
X222056Y147094D01*
X262942Y132898D02*
X265344Y135300D01*
X288800Y135300D01*
X236252Y132898D02*
X222056Y147094D01*
X236252Y132898D02*
X262942Y132898D01*
D30*
X601957Y250357D02*
X601957Y267904D01*
X601957Y250357D02*
X600000Y248400D01*
X122800Y67200D02*
X107400Y67200D01*
X122800Y67200D02*
X130000Y60000D01*
D32*
X360000Y271000D03*
D29*
X350000Y271000D01*
X221900Y248500D02*
X221900Y236900D01*
X215000Y230000D01*
D32*
X215000Y230000D03*
X297000Y237000D03*
D29*
X360000Y271000D02*
X378900Y289900D01*
X360000Y271000D02*
X361000Y270000D01*
D28*
X378000Y290800D02*
X378000Y299000D01*
X378000Y290800D02*
X378900Y289900D01*
X378900Y298100D01*
X378000Y299000D01*
X350000Y271000D02*
X336000Y271000D01*
X308500Y298500D01*
X308000Y299000D01*
X308500Y298500D02*
X308500Y289695D01*
X294680Y275875D01*
X294680Y239320D01*
X297000Y237000D01*
D32*
X350000Y260000D03*
D29*
X348996Y260000D01*
X334376Y245380D01*
D32*
X302000Y246000D03*
X237000Y267000D03*
D29*
X237000Y248600D01*
X236900Y248500D01*
X302620Y245380D02*
X334376Y245380D01*
X302620Y245380D02*
X302000Y246000D01*
D28*
X313000Y260000D02*
X350000Y260000D01*
X313000Y260000D02*
X308000Y265000D01*
D29*
X270500Y280200D02*
X266200Y278896D01*
X266200Y259700D01*
X211700Y281600D02*
X211685Y285385D01*
D28*
X211700Y281600D02*
X211700Y257395D01*
X211720Y257375D01*
X211720Y248680D01*
X211900Y248500D01*
D32*
X199000Y221000D03*
D29*
X199048Y221000D01*
D32*
X457677Y93677D03*
D29*
X473700Y47641D02*
X473700Y25000D01*
X463170Y88183D02*
X457677Y93677D01*
X463170Y88183D02*
X463170Y58171D01*
X473700Y47641D01*
X199048Y221000D02*
X198524Y221524D01*
X174900Y221524D01*
D32*
X290000Y210000D03*
X473000Y67694D03*
D29*
X477965Y67694D02*
X499100Y46559D01*
X477965Y67694D02*
X473000Y67694D01*
X499100Y46559D02*
X499100Y25000D01*
D28*
X290000Y210000D02*
X287102Y207102D01*
X287058Y207102D01*
X281456Y201500D02*
X263900Y201500D01*
X281456Y201500D02*
X287058Y207102D01*
D32*
X289000Y198000D03*
X560000Y60000D03*
D29*
X575300Y44700D01*
X575300Y25000D01*
D28*
X289000Y198000D02*
X287500Y196500D01*
X263900Y196500D01*
D32*
X300000Y190000D03*
X483000Y51000D03*
D29*
X486400Y47600D01*
X486400Y25000D01*
D28*
X300000Y190000D02*
X274095Y190000D01*
X272775Y191320D01*
X264080Y191320D01*
X263900Y191500D01*
D29*
X460000Y26000D02*
X461000Y25000D01*
X460000Y26000D02*
X460000Y50000D01*
X450000Y60000D01*
D32*
X450000Y60000D03*
X190000Y200000D03*
D28*
X186500Y196500D01*
X174900Y196500D01*
D29*
X448300Y48700D02*
X448300Y25000D01*
X448300Y48700D02*
X436000Y61000D01*
D32*
X436000Y61000D03*
X220000Y190000D03*
D29*
X200000Y190000D01*
X191900Y181900D01*
X191900Y159500D01*
X435600Y46400D02*
X435600Y25000D01*
X435600Y46400D02*
X432000Y50000D01*
D32*
X432000Y50000D03*
X250000Y183000D03*
D29*
X241900Y174900D01*
X241900Y159500D01*
X565500Y243200D02*
X565500Y249200D01*
X565500Y243200D02*
X544300Y222000D01*
X452000Y222000D01*
X448300Y218300D01*
X448300Y205000D01*
X448300Y191700D01*
X450000Y190000D01*
D32*
X450000Y190000D03*
X410000Y208000D03*
X470000Y180000D03*
D28*
X428775Y215820D02*
X417025Y215820D01*
X428775Y215820D02*
X435720Y208875D01*
X417025Y215820D02*
X410000Y208795D01*
X410000Y208000D01*
X435600Y205000D02*
X435720Y205120D01*
X435720Y208875D01*
X435600Y205000D02*
X435480Y204880D01*
X435480Y194476D01*
X449956Y180000D01*
X470000Y180000D01*
D29*
X408000Y159450D02*
X392100Y159450D01*
X392050Y159500D01*
X388300Y159500D01*
X380300Y151500D01*
X406950Y160500D02*
X408000Y159450D01*
D32*
X487476Y177476D03*
D29*
X474000Y164000D01*
D32*
X474000Y144994D03*
X429806Y140000D03*
D29*
X474000Y144994D02*
X474000Y164000D01*
D28*
X418820Y152625D02*
X418820Y150986D01*
X429806Y140000D01*
X411995Y159450D02*
X408000Y159450D01*
X411995Y159450D02*
X418820Y152625D01*
D29*
X604538Y307048D02*
X619063Y307048D01*
X628200Y297911D02*
X628200Y295300D01*
X628200Y297911D02*
X619063Y307048D01*
X604538Y307048D02*
X594800Y297311D01*
X594800Y296500D01*
X581300Y296500D01*
X574500Y303300D01*
X572840Y301640D01*
X537050Y301640D01*
X547534Y282307D02*
X547534Y270693D01*
X537050Y292791D02*
X537050Y301640D01*
X537050Y260209D02*
X537050Y245760D01*
X547534Y282307D02*
X537050Y292791D01*
X547534Y270693D02*
X537050Y260209D01*
X440900Y164900D02*
X440900Y81000D01*
X422900Y63000D02*
X422900Y25000D01*
X422900Y63000D02*
X440900Y81000D01*
X440900Y164900D02*
X438000Y167800D01*
X438000Y180000D01*
D32*
X438000Y180000D03*
D29*
X414500Y263200D02*
X414500Y280700D01*
X414500Y263200D02*
X414700Y263000D01*
D32*
X439000Y220899D03*
D29*
X425000Y234899D01*
X425000Y258000D01*
X420000Y263000D01*
X414700Y263000D01*
X408000Y57850D02*
X393150Y57850D01*
X391000Y60000D01*
D32*
X391000Y60000D03*
D29*
X562600Y205000D02*
X562600Y227000D01*
X563000Y227000D01*
D32*
X563000Y227000D03*
X610517Y284517D03*
D29*
X611800Y285800D02*
X611800Y296500D01*
X611800Y285800D02*
X610517Y284517D01*
X439850Y301540D02*
X439850Y245660D01*
X439850Y301540D02*
X418340Y301540D01*
X414500Y297700D01*
X418340Y301540D02*
X439850Y301540D01*
X418340Y301540D02*
X414500Y297700D01*
D32*
X480000Y190000D03*
D29*
X461000Y198390D02*
X461000Y205000D01*
X469390Y190000D02*
X480000Y190000D01*
X469390Y190000D02*
X461000Y198390D01*
X549900Y39900D02*
X549900Y25000D01*
X549900Y39900D02*
X550000Y40000D01*
D32*
X550000Y40000D03*
X374000Y39000D03*
D29*
X346800Y39000D01*
X346400Y38600D01*
X537200Y41800D02*
X537200Y25000D01*
X537200Y41800D02*
X537000Y42000D01*
D32*
X537000Y42000D03*
X374000Y49000D03*
D29*
X361000Y49000D01*
X346400Y63600D01*
D30*
X95400Y291700D02*
X39300Y291700D01*
X27600Y280000D01*
X27600Y254600D01*
X17600Y219200D02*
X17600Y70600D01*
X19200Y69000D01*
X17600Y219200D02*
X27600Y229200D01*
D36*
X21000Y67200D02*
X40500Y67200D01*
X21000Y67200D02*
X19200Y69000D01*
D29*
X61600Y74450D02*
X61600Y88400D01*
X60000Y90000D01*
X50000Y90000D01*
X40500Y80500D02*
X40500Y67200D01*
X40500Y80500D02*
X50000Y90000D01*
D32*
X265000Y116000D03*
D28*
X287200Y307420D02*
X201376Y307420D01*
X191898Y297942D01*
X191898Y268461D01*
X201900Y258459D01*
X287200Y263700D02*
X287200Y307420D01*
X287200Y263700D02*
X283200Y259700D01*
X201900Y258459D02*
X201900Y248500D01*
X289898Y234058D02*
X294058Y229898D01*
X335159Y206070D02*
X350841Y206070D01*
X371771Y227000D02*
X378000Y227000D01*
X371771Y227000D02*
X350841Y206070D01*
X289898Y253002D02*
X283200Y259700D01*
X294058Y229898D02*
X311331Y229898D01*
X289898Y234058D02*
X289898Y253002D01*
X311331Y229898D02*
X335159Y206070D01*
M02*
