G04 EAGLE Gerber RS-274X export*
G04 #@! %TF.Part,Single*
G04 #@! %TF.FileFunction,Copper,L2,Bot,Mixed*
G04 #@! %TF.FilePolarity,Positive*
G04 #@! %TF.GenerationSoftware,Autodesk,EAGLE,9.5.2*
G04 #@! %TF.CreationDate,2020-03-16T13:55:46Z*
G75*
%MOMM*%
%FSLAX34Y34*%
%LPD*%
%INBottom Copper*%
%IPPOS*%
%AMOC8*
5,1,8,0,0,1.08239X$1,22.5*%
G01*
%ADD10R,1.000000X1.100000*%
%ADD11R,1.300000X1.500000*%
%ADD12R,1.500000X1.300000*%
%ADD13R,1.100000X1.000000*%
%ADD14R,1.524000X1.524000*%
%ADD15C,1.524000*%
%ADD16R,1.270000X1.270000*%
%ADD17R,1.050000X0.600000*%
%ADD18R,0.620000X1.400000*%
%ADD19R,1.100000X2.400000*%
%ADD20C,1.879600*%
%ADD21C,1.800000*%
%ADD22C,1.016000*%
%ADD23C,1.270000*%
%ADD24C,0.609600*%
%ADD25C,0.812800*%
%ADD26C,0.756400*%
%ADD27C,0.304800*%
%ADD28C,0.254000*%
%ADD29R,1.056400X1.056400*%
%ADD30C,0.152400*%
%ADD31C,0.508000*%

G36*
X586212Y10170D02*
X586212Y10170D01*
X586367Y10170D01*
X586529Y10190D01*
X586693Y10201D01*
X586845Y10230D01*
X586999Y10249D01*
X587158Y10289D01*
X587319Y10320D01*
X587466Y10368D01*
X587616Y10406D01*
X587769Y10466D01*
X587925Y10517D01*
X588065Y10582D01*
X588209Y10639D01*
X588353Y10718D01*
X588501Y10788D01*
X588632Y10870D01*
X588768Y10945D01*
X588901Y11041D01*
X589040Y11129D01*
X589159Y11227D01*
X589285Y11318D01*
X589404Y11430D01*
X589531Y11534D01*
X589637Y11647D01*
X589750Y11753D01*
X589855Y11879D01*
X589967Y11998D01*
X590059Y12124D01*
X590158Y12243D01*
X590246Y12381D01*
X590342Y12513D01*
X590417Y12649D01*
X590501Y12780D01*
X590571Y12928D01*
X590650Y13071D01*
X590707Y13215D01*
X590774Y13355D01*
X590825Y13511D01*
X590885Y13664D01*
X590924Y13814D01*
X590973Y13961D01*
X591004Y14122D01*
X591045Y14280D01*
X591064Y14434D01*
X591094Y14586D01*
X591104Y14745D01*
X591126Y14912D01*
X591126Y15081D01*
X591136Y15240D01*
X591136Y87292D01*
X591127Y87447D01*
X591127Y87602D01*
X591107Y87764D01*
X591096Y87928D01*
X591067Y88080D01*
X591048Y88234D01*
X591008Y88393D01*
X590977Y88554D01*
X590929Y88701D01*
X590891Y88851D01*
X590831Y89004D01*
X590780Y89160D01*
X590715Y89300D01*
X590658Y89444D01*
X590579Y89588D01*
X590509Y89736D01*
X590427Y89867D01*
X590352Y90003D01*
X590256Y90136D01*
X590168Y90275D01*
X590070Y90394D01*
X589979Y90520D01*
X589867Y90639D01*
X589763Y90766D01*
X589650Y90872D01*
X589544Y90985D01*
X589418Y91090D01*
X589299Y91202D01*
X589173Y91294D01*
X589054Y91393D01*
X588916Y91481D01*
X588784Y91577D01*
X588648Y91652D01*
X588517Y91736D01*
X588369Y91806D01*
X588226Y91885D01*
X588082Y91942D01*
X587942Y92009D01*
X587786Y92060D01*
X587633Y92120D01*
X587483Y92159D01*
X587336Y92208D01*
X587175Y92239D01*
X587017Y92280D01*
X586863Y92299D01*
X586711Y92329D01*
X586552Y92339D01*
X586385Y92361D01*
X586216Y92361D01*
X586057Y92371D01*
X575183Y92371D01*
X572195Y93609D01*
X569362Y96442D01*
X569361Y96449D01*
X569347Y96734D01*
X569341Y96766D01*
X569339Y96799D01*
X569286Y97080D01*
X569236Y97361D01*
X569226Y97392D01*
X569220Y97425D01*
X569114Y97751D01*
X569041Y97987D01*
X569031Y98009D01*
X569024Y98031D01*
X569023Y98031D01*
X569023Y98032D01*
X568897Y98300D01*
X568775Y98567D01*
X568762Y98587D01*
X568752Y98608D01*
X568594Y98857D01*
X568439Y99108D01*
X568424Y99126D01*
X568411Y99147D01*
X568224Y99373D01*
X568038Y99603D01*
X568021Y99619D01*
X568005Y99638D01*
X567791Y99840D01*
X567578Y100044D01*
X567559Y100058D01*
X567541Y100074D01*
X567303Y100248D01*
X567066Y100424D01*
X567046Y100435D01*
X567026Y100449D01*
X566768Y100592D01*
X566511Y100737D01*
X566489Y100746D01*
X566468Y100757D01*
X566195Y100866D01*
X565922Y100977D01*
X565898Y100984D01*
X565876Y100992D01*
X565592Y101066D01*
X565306Y101143D01*
X565282Y101146D01*
X565259Y101152D01*
X564967Y101189D01*
X564675Y101229D01*
X564651Y101230D01*
X564627Y101233D01*
X564332Y101233D01*
X564038Y101237D01*
X564014Y101234D01*
X563990Y101234D01*
X563696Y101197D01*
X563405Y101164D01*
X563382Y101158D01*
X563358Y101155D01*
X563072Y101082D01*
X562786Y101012D01*
X562764Y101004D01*
X562741Y100998D01*
X562467Y100890D01*
X562191Y100785D01*
X562170Y100774D01*
X562148Y100765D01*
X561888Y100623D01*
X561629Y100484D01*
X561610Y100471D01*
X561589Y100459D01*
X561348Y100285D01*
X561109Y100116D01*
X561092Y100100D01*
X561072Y100086D01*
X560857Y99885D01*
X560640Y99686D01*
X560624Y99667D01*
X560607Y99651D01*
X560418Y99425D01*
X560227Y99200D01*
X560214Y99180D01*
X560199Y99161D01*
X560040Y98913D01*
X559879Y98666D01*
X559869Y98644D01*
X559856Y98624D01*
X559730Y98358D01*
X559601Y98093D01*
X559593Y98070D01*
X559583Y98049D01*
X559554Y97959D01*
X557550Y97959D01*
X557059Y98057D01*
X556597Y98248D01*
X556180Y98527D01*
X555827Y98880D01*
X555548Y99297D01*
X555357Y99759D01*
X555259Y100250D01*
X555259Y102921D01*
X563592Y102921D01*
X563747Y102930D01*
X563902Y102930D01*
X564064Y102950D01*
X564228Y102961D01*
X564380Y102989D01*
X564534Y103009D01*
X564693Y103049D01*
X564854Y103080D01*
X565001Y103128D01*
X565151Y103166D01*
X565304Y103226D01*
X565460Y103276D01*
X565600Y103342D01*
X565744Y103399D01*
X565888Y103478D01*
X566036Y103547D01*
X566167Y103630D01*
X566303Y103705D01*
X566436Y103801D01*
X566575Y103888D01*
X566694Y103987D01*
X566820Y104078D01*
X566939Y104190D01*
X567066Y104294D01*
X567172Y104407D01*
X567285Y104513D01*
X567390Y104639D01*
X567502Y104758D01*
X567594Y104884D01*
X567693Y105003D01*
X567781Y105141D01*
X567877Y105273D01*
X567952Y105409D01*
X568036Y105540D01*
X568106Y105688D01*
X568185Y105831D01*
X568242Y105975D01*
X568309Y106115D01*
X568360Y106271D01*
X568420Y106423D01*
X568459Y106573D01*
X568508Y106721D01*
X568539Y106881D01*
X568580Y107040D01*
X568599Y107194D01*
X568629Y107346D01*
X568639Y107505D01*
X568661Y107672D01*
X568661Y107841D01*
X568671Y108000D01*
X568662Y108155D01*
X568662Y108310D01*
X568642Y108473D01*
X568631Y108636D01*
X568602Y108788D01*
X568583Y108942D01*
X568543Y109101D01*
X568512Y109262D01*
X568464Y109409D01*
X568426Y109559D01*
X568366Y109712D01*
X568315Y109868D01*
X568250Y110008D01*
X568193Y110152D01*
X568114Y110296D01*
X568044Y110445D01*
X567962Y110575D01*
X567887Y110711D01*
X567791Y110844D01*
X567703Y110983D01*
X567605Y111102D01*
X567514Y111228D01*
X567402Y111347D01*
X567298Y111474D01*
X567185Y111580D01*
X567079Y111693D01*
X566953Y111798D01*
X566834Y111911D01*
X566708Y112002D01*
X566589Y112101D01*
X566451Y112189D01*
X566319Y112286D01*
X566183Y112360D01*
X566052Y112444D01*
X565904Y112514D01*
X565761Y112593D01*
X565617Y112650D01*
X565477Y112717D01*
X565321Y112768D01*
X565168Y112829D01*
X565018Y112867D01*
X564871Y112916D01*
X564710Y112947D01*
X564552Y112988D01*
X564398Y113008D01*
X564246Y113037D01*
X564087Y113047D01*
X563920Y113069D01*
X563751Y113069D01*
X563592Y113079D01*
X555259Y113079D01*
X555259Y115750D01*
X555357Y116241D01*
X555548Y116703D01*
X555827Y117120D01*
X556180Y117473D01*
X556597Y117752D01*
X557059Y117943D01*
X557597Y118050D01*
X557612Y118054D01*
X557628Y118056D01*
X557921Y118136D01*
X558213Y118213D01*
X558228Y118219D01*
X558243Y118224D01*
X558522Y118338D01*
X558803Y118452D01*
X558817Y118460D01*
X558832Y118466D01*
X559096Y118616D01*
X559359Y118763D01*
X559372Y118773D01*
X559386Y118781D01*
X559629Y118962D01*
X559872Y119142D01*
X559884Y119153D01*
X559896Y119162D01*
X560113Y119371D01*
X560333Y119581D01*
X560343Y119594D01*
X560355Y119605D01*
X560543Y119839D01*
X560736Y120075D01*
X560744Y120089D01*
X560754Y120101D01*
X560912Y120357D01*
X561074Y120615D01*
X561080Y120630D01*
X561089Y120643D01*
X561214Y120919D01*
X561341Y121194D01*
X561346Y121209D01*
X561352Y121223D01*
X561442Y121513D01*
X561534Y121801D01*
X561537Y121817D01*
X561541Y121832D01*
X561594Y122129D01*
X561649Y122427D01*
X561650Y122444D01*
X561653Y122459D01*
X561668Y122759D01*
X561685Y123064D01*
X561684Y123080D01*
X561685Y123096D01*
X561662Y123398D01*
X561641Y123699D01*
X561638Y123715D01*
X561637Y123731D01*
X561576Y124027D01*
X561518Y124324D01*
X561513Y124340D01*
X561510Y124355D01*
X561434Y124577D01*
X561318Y124929D01*
X561307Y124952D01*
X561299Y124975D01*
X561057Y125559D01*
X560959Y126050D01*
X560959Y129616D01*
X560950Y129771D01*
X560950Y129926D01*
X560930Y130088D01*
X560919Y130252D01*
X560890Y130404D01*
X560871Y130558D01*
X560831Y130717D01*
X560800Y130878D01*
X560752Y131025D01*
X560714Y131175D01*
X560654Y131328D01*
X560603Y131484D01*
X560538Y131624D01*
X560481Y131768D01*
X560402Y131912D01*
X560332Y132060D01*
X560250Y132191D01*
X560175Y132327D01*
X560079Y132460D01*
X559991Y132599D01*
X559893Y132718D01*
X559802Y132844D01*
X559690Y132963D01*
X559586Y133090D01*
X559473Y133196D01*
X559367Y133309D01*
X559241Y133414D01*
X559122Y133526D01*
X558996Y133618D01*
X558877Y133717D01*
X558739Y133805D01*
X558607Y133901D01*
X558471Y133976D01*
X558340Y134060D01*
X558192Y134130D01*
X558049Y134209D01*
X557905Y134266D01*
X557765Y134333D01*
X557609Y134384D01*
X557456Y134444D01*
X557306Y134483D01*
X557159Y134532D01*
X556998Y134563D01*
X556840Y134604D01*
X556686Y134623D01*
X556534Y134653D01*
X556375Y134663D01*
X556208Y134685D01*
X556039Y134685D01*
X555880Y134695D01*
X492514Y134695D01*
X488497Y136359D01*
X488495Y136361D01*
X488367Y136448D01*
X488245Y136543D01*
X488104Y136627D01*
X487968Y136719D01*
X487830Y136789D01*
X487697Y136869D01*
X487547Y136934D01*
X487401Y137008D01*
X487255Y137061D01*
X487113Y137123D01*
X486956Y137169D01*
X486801Y137224D01*
X486650Y137258D01*
X486501Y137302D01*
X486340Y137328D01*
X486180Y137364D01*
X486025Y137379D01*
X485872Y137403D01*
X485708Y137409D01*
X485545Y137424D01*
X485390Y137420D01*
X485235Y137425D01*
X485072Y137410D01*
X484909Y137405D01*
X484755Y137381D01*
X484601Y137367D01*
X484441Y137332D01*
X484279Y137306D01*
X484130Y137263D01*
X483979Y137230D01*
X483825Y137175D01*
X483667Y137129D01*
X483525Y137068D01*
X483379Y137016D01*
X483232Y136942D01*
X483082Y136877D01*
X482949Y136798D01*
X482810Y136728D01*
X482674Y136636D01*
X482533Y136553D01*
X482410Y136459D01*
X482282Y136372D01*
X482162Y136267D01*
X482029Y136164D01*
X481909Y136044D01*
X481790Y135939D01*
X480747Y134897D01*
X478490Y133962D01*
X478439Y133937D01*
X478385Y133917D01*
X478152Y133796D01*
X477918Y133682D01*
X477870Y133650D01*
X477820Y133624D01*
X477603Y133475D01*
X477385Y133332D01*
X477342Y133295D01*
X477295Y133262D01*
X477100Y133088D01*
X476901Y132918D01*
X476862Y132876D01*
X476820Y132838D01*
X476648Y132641D01*
X476472Y132447D01*
X476439Y132401D01*
X476401Y132358D01*
X476255Y132140D01*
X476105Y131926D01*
X476078Y131876D01*
X476046Y131828D01*
X475929Y131594D01*
X475806Y131363D01*
X475786Y131310D01*
X475761Y131259D01*
X475673Y131012D01*
X475581Y130768D01*
X475567Y130712D01*
X475548Y130658D01*
X475492Y130402D01*
X475431Y130148D01*
X475425Y130092D01*
X475413Y130036D01*
X475390Y129775D01*
X475360Y129515D01*
X475361Y129458D01*
X475356Y129401D01*
X475366Y129140D01*
X475370Y128878D01*
X475378Y128821D01*
X475380Y128764D01*
X475422Y128506D01*
X475458Y128247D01*
X475473Y128192D01*
X475483Y128136D01*
X475557Y127884D01*
X475626Y127632D01*
X475647Y127580D01*
X475663Y127525D01*
X475769Y127285D01*
X475868Y127043D01*
X475897Y126993D01*
X475919Y126941D01*
X476053Y126717D01*
X476183Y126489D01*
X476217Y126443D01*
X476246Y126394D01*
X476408Y126188D01*
X476564Y125979D01*
X476604Y125938D01*
X476639Y125893D01*
X476825Y125709D01*
X477007Y125520D01*
X477051Y125484D01*
X477092Y125444D01*
X477284Y125297D01*
X477503Y125121D01*
X477560Y125085D01*
X477612Y125046D01*
X478020Y124773D01*
X478373Y124420D01*
X478652Y124003D01*
X478843Y123541D01*
X478941Y123050D01*
X478941Y122379D01*
X472608Y122379D01*
X472453Y122370D01*
X472298Y122370D01*
X472136Y122350D01*
X471972Y122339D01*
X471820Y122310D01*
X471666Y122291D01*
X471507Y122251D01*
X471346Y122220D01*
X471199Y122172D01*
X471049Y122134D01*
X470896Y122074D01*
X470740Y122024D01*
X470600Y121958D01*
X470456Y121901D01*
X470312Y121822D01*
X470164Y121753D01*
X470033Y121670D01*
X469897Y121595D01*
X469764Y121499D01*
X469625Y121411D01*
X469506Y121313D01*
X469380Y121222D01*
X469261Y121110D01*
X469134Y121006D01*
X469028Y120893D01*
X468915Y120787D01*
X468810Y120661D01*
X468698Y120542D01*
X468606Y120416D01*
X468507Y120297D01*
X468419Y120159D01*
X468323Y120027D01*
X468248Y119891D01*
X468164Y119760D01*
X468094Y119612D01*
X468015Y119469D01*
X467958Y119325D01*
X467891Y119185D01*
X467840Y119029D01*
X467780Y118877D01*
X467741Y118727D01*
X467692Y118579D01*
X467661Y118419D01*
X467620Y118260D01*
X467601Y118106D01*
X467571Y117954D01*
X467561Y117795D01*
X467539Y117628D01*
X467539Y117459D01*
X467529Y117300D01*
X467538Y117145D01*
X467538Y116991D01*
X467538Y116990D01*
X467558Y116827D01*
X467569Y116664D01*
X467598Y116512D01*
X467617Y116358D01*
X467657Y116199D01*
X467688Y116038D01*
X467736Y115891D01*
X467774Y115741D01*
X467834Y115588D01*
X467885Y115432D01*
X467950Y115292D01*
X468007Y115148D01*
X468086Y115004D01*
X468156Y114855D01*
X468238Y114725D01*
X468313Y114589D01*
X468409Y114456D01*
X468497Y114317D01*
X468595Y114198D01*
X468686Y114072D01*
X468798Y113952D01*
X468902Y113826D01*
X469015Y113720D01*
X469121Y113607D01*
X469247Y113502D01*
X469366Y113389D01*
X469492Y113298D01*
X469611Y113199D01*
X469749Y113111D01*
X469881Y113014D01*
X470017Y112940D01*
X470148Y112856D01*
X470296Y112786D01*
X470439Y112707D01*
X470583Y112650D01*
X470723Y112583D01*
X470879Y112532D01*
X471032Y112471D01*
X471182Y112433D01*
X471329Y112384D01*
X471490Y112353D01*
X471648Y112312D01*
X471802Y112292D01*
X471954Y112263D01*
X472113Y112253D01*
X472280Y112231D01*
X472449Y112231D01*
X472608Y112221D01*
X478941Y112221D01*
X478941Y111550D01*
X478843Y111059D01*
X478652Y110597D01*
X478373Y110180D01*
X478020Y109827D01*
X477603Y109548D01*
X477141Y109357D01*
X476650Y109259D01*
X475495Y109259D01*
X475483Y109278D01*
X475293Y109504D01*
X475106Y109731D01*
X475088Y109747D01*
X475073Y109765D01*
X474856Y109966D01*
X474642Y110167D01*
X474622Y110181D01*
X474605Y110197D01*
X474366Y110368D01*
X474127Y110542D01*
X474106Y110554D01*
X474086Y110568D01*
X473827Y110707D01*
X473569Y110850D01*
X473546Y110859D01*
X473525Y110870D01*
X473250Y110976D01*
X472977Y111085D01*
X472954Y111091D01*
X472931Y111100D01*
X472645Y111171D01*
X472360Y111245D01*
X472336Y111248D01*
X472313Y111253D01*
X472021Y111288D01*
X471728Y111325D01*
X471704Y111326D01*
X471680Y111328D01*
X471386Y111326D01*
X471091Y111327D01*
X471067Y111324D01*
X471043Y111323D01*
X470750Y111284D01*
X470458Y111248D01*
X470435Y111242D01*
X470412Y111239D01*
X470125Y111163D01*
X469841Y111091D01*
X469819Y111082D01*
X469796Y111076D01*
X469523Y110966D01*
X469248Y110858D01*
X469227Y110846D01*
X469205Y110837D01*
X468949Y110694D01*
X468689Y110552D01*
X468670Y110538D01*
X468649Y110526D01*
X468411Y110351D01*
X468173Y110179D01*
X468155Y110162D01*
X468136Y110148D01*
X467922Y109945D01*
X467707Y109744D01*
X467692Y109725D01*
X467674Y109709D01*
X467488Y109480D01*
X467299Y109254D01*
X467287Y109234D01*
X467272Y109215D01*
X467115Y108965D01*
X466957Y108717D01*
X466946Y108695D01*
X466934Y108675D01*
X466830Y108451D01*
X466683Y108141D01*
X466673Y108109D01*
X466659Y108080D01*
X466659Y108079D01*
X466574Y107808D01*
X466484Y107535D01*
X466478Y107503D01*
X466468Y107471D01*
X466417Y107190D01*
X466363Y106910D01*
X466361Y106877D01*
X466355Y106845D01*
X466337Y106504D01*
X466321Y106256D01*
X466321Y105557D01*
X466313Y105527D01*
X466246Y105300D01*
X466233Y105219D01*
X466213Y105140D01*
X466183Y104905D01*
X466145Y104671D01*
X466142Y104589D01*
X466132Y104508D01*
X466131Y104271D01*
X466123Y104034D01*
X466131Y103953D01*
X466131Y103870D01*
X466160Y103635D01*
X466182Y103400D01*
X466199Y103320D01*
X466209Y103238D01*
X466268Y103009D01*
X466319Y102777D01*
X466346Y102700D01*
X466367Y102621D01*
X466453Y102401D01*
X466533Y102177D01*
X466570Y102104D01*
X466600Y102028D01*
X466714Y101820D01*
X466820Y101609D01*
X466866Y101541D01*
X466905Y101469D01*
X467044Y101276D01*
X467177Y101081D01*
X467230Y101020D01*
X467279Y100952D01*
X467457Y100762D01*
X467609Y100588D01*
X467774Y100423D01*
X469587Y96046D01*
X469587Y91307D01*
X468968Y89812D01*
X468931Y89704D01*
X468885Y89599D01*
X468828Y89403D01*
X468761Y89209D01*
X468738Y89097D01*
X468706Y88988D01*
X468674Y88786D01*
X468632Y88585D01*
X468623Y88471D01*
X468605Y88359D01*
X468598Y88154D01*
X468582Y87950D01*
X468587Y87836D01*
X468583Y87722D01*
X468602Y87518D01*
X468611Y87313D01*
X468631Y87201D01*
X468641Y87088D01*
X468686Y86887D01*
X468721Y86686D01*
X468754Y86577D01*
X468779Y86465D01*
X468847Y86273D01*
X468907Y86077D01*
X468954Y85972D01*
X468993Y85865D01*
X469085Y85683D01*
X469169Y85496D01*
X469229Y85398D01*
X469280Y85297D01*
X469395Y85127D01*
X469501Y84952D01*
X469572Y84863D01*
X469636Y84768D01*
X469766Y84620D01*
X469899Y84454D01*
X469989Y84367D01*
X470069Y84276D01*
X473581Y80764D01*
X473605Y80743D01*
X473627Y80719D01*
X473844Y80532D01*
X474059Y80342D01*
X474086Y80324D01*
X474110Y80304D01*
X474349Y80145D01*
X474586Y79984D01*
X474614Y79970D01*
X474641Y79952D01*
X474866Y79841D01*
X475154Y79695D01*
X475193Y79681D01*
X475229Y79663D01*
X479747Y77791D01*
X483097Y74441D01*
X483782Y72788D01*
X483832Y72686D01*
X483874Y72580D01*
X483972Y72400D01*
X484062Y72216D01*
X484125Y72121D01*
X484179Y72021D01*
X484300Y71855D01*
X484412Y71683D01*
X484486Y71597D01*
X484553Y71504D01*
X484692Y71355D01*
X484825Y71199D01*
X484910Y71122D01*
X484988Y71039D01*
X485145Y70908D01*
X485297Y70770D01*
X485390Y70704D01*
X485477Y70631D01*
X485650Y70521D01*
X485818Y70403D01*
X485918Y70350D01*
X486014Y70288D01*
X486200Y70200D01*
X486380Y70105D01*
X486487Y70064D01*
X486590Y70015D01*
X486785Y69951D01*
X486976Y69879D01*
X487087Y69852D01*
X487195Y69816D01*
X487396Y69777D01*
X487596Y69729D01*
X487709Y69717D01*
X487821Y69695D01*
X488017Y69682D01*
X488229Y69659D01*
X488355Y69660D01*
X488475Y69653D01*
X551169Y69653D01*
X551201Y69655D01*
X551233Y69653D01*
X551519Y69675D01*
X551805Y69693D01*
X551836Y69699D01*
X551868Y69701D01*
X552150Y69758D01*
X552431Y69812D01*
X552461Y69822D01*
X552493Y69828D01*
X552730Y69909D01*
X553037Y70009D01*
X553075Y70026D01*
X553113Y70039D01*
X557631Y71911D01*
X562369Y71911D01*
X566747Y70097D01*
X570097Y66747D01*
X571911Y62369D01*
X571911Y57631D01*
X570097Y53253D01*
X566747Y49903D01*
X564648Y49033D01*
X564509Y48965D01*
X564366Y48906D01*
X564223Y48825D01*
X564076Y48753D01*
X563947Y48668D01*
X563812Y48591D01*
X563680Y48493D01*
X563543Y48403D01*
X563425Y48303D01*
X563301Y48210D01*
X563184Y48096D01*
X563059Y47990D01*
X562954Y47875D01*
X562843Y47768D01*
X562740Y47640D01*
X562630Y47519D01*
X562541Y47392D01*
X562443Y47271D01*
X562357Y47132D01*
X562263Y46998D01*
X562190Y46861D01*
X562109Y46729D01*
X562041Y46580D01*
X561964Y46435D01*
X561910Y46290D01*
X561845Y46149D01*
X561797Y45992D01*
X561739Y45839D01*
X561702Y45689D01*
X561656Y45540D01*
X561628Y45379D01*
X561589Y45220D01*
X561572Y45066D01*
X561545Y44913D01*
X561537Y44750D01*
X561519Y44586D01*
X561521Y44431D01*
X561513Y44277D01*
X561525Y44113D01*
X561528Y43949D01*
X561549Y43796D01*
X561561Y43641D01*
X561594Y43481D01*
X561617Y43318D01*
X561657Y43169D01*
X561688Y43017D01*
X561740Y42866D01*
X561784Y42704D01*
X561848Y42548D01*
X561899Y42397D01*
X561911Y42369D01*
X561911Y37631D01*
X560039Y33113D01*
X560029Y33083D01*
X560015Y33054D01*
X559926Y32781D01*
X559833Y32510D01*
X559826Y32479D01*
X559816Y32448D01*
X559762Y32167D01*
X559704Y31886D01*
X559701Y31854D01*
X559695Y31823D01*
X559679Y31572D01*
X559653Y31251D01*
X559655Y31209D01*
X559653Y31169D01*
X559653Y31080D01*
X558183Y27532D01*
X555468Y24817D01*
X551920Y23347D01*
X378080Y23347D01*
X374532Y24817D01*
X373419Y25930D01*
X373395Y25951D01*
X373373Y25975D01*
X373156Y26162D01*
X372941Y26352D01*
X372914Y26370D01*
X372890Y26390D01*
X372651Y26549D01*
X372414Y26710D01*
X372386Y26724D01*
X372359Y26742D01*
X372133Y26853D01*
X371846Y26999D01*
X371807Y27013D01*
X371771Y27031D01*
X367426Y28831D01*
X367279Y28881D01*
X367136Y28941D01*
X366978Y28984D01*
X366823Y29037D01*
X366672Y29069D01*
X366522Y29110D01*
X366360Y29133D01*
X366199Y29167D01*
X366045Y29179D01*
X365891Y29201D01*
X365728Y29204D01*
X365564Y29217D01*
X365409Y29210D01*
X365254Y29212D01*
X365092Y29195D01*
X364928Y29187D01*
X364775Y29161D01*
X364621Y29144D01*
X364462Y29106D01*
X364300Y29078D01*
X364152Y29033D01*
X364001Y28997D01*
X363848Y28939D01*
X363691Y28891D01*
X363550Y28828D01*
X363404Y28773D01*
X363259Y28697D01*
X363110Y28630D01*
X362978Y28549D01*
X362841Y28477D01*
X362706Y28383D01*
X362566Y28297D01*
X362445Y28200D01*
X362318Y28112D01*
X362197Y28002D01*
X362069Y27899D01*
X361960Y27788D01*
X361846Y27684D01*
X361739Y27560D01*
X361625Y27443D01*
X361531Y27319D01*
X361430Y27201D01*
X361340Y27065D01*
X361241Y26934D01*
X361164Y26799D01*
X361079Y26670D01*
X361009Y26527D01*
X360936Y26400D01*
X358625Y24089D01*
X355637Y22851D01*
X337163Y22851D01*
X334175Y24089D01*
X331889Y26375D01*
X330651Y29363D01*
X330651Y47837D01*
X331955Y50986D01*
X331995Y51035D01*
X332103Y51209D01*
X332218Y51379D01*
X332270Y51480D01*
X332329Y51577D01*
X332414Y51763D01*
X332507Y51946D01*
X332546Y52054D01*
X332593Y52157D01*
X332654Y52353D01*
X332723Y52545D01*
X332748Y52657D01*
X332782Y52766D01*
X332818Y52967D01*
X332863Y53167D01*
X332874Y53281D01*
X332894Y53393D01*
X332904Y53597D01*
X332923Y53801D01*
X332920Y53916D01*
X332926Y54029D01*
X332910Y54233D01*
X332904Y54438D01*
X332886Y54551D01*
X332878Y54665D01*
X332837Y54865D01*
X332805Y55068D01*
X332773Y55177D01*
X332750Y55289D01*
X332687Y55475D01*
X332628Y55680D01*
X332578Y55795D01*
X332539Y55909D01*
X330651Y60467D01*
X330651Y66733D01*
X333049Y72521D01*
X337206Y76678D01*
X337256Y76734D01*
X337310Y76786D01*
X337466Y76973D01*
X337628Y77156D01*
X337670Y77218D01*
X337718Y77276D01*
X337849Y77481D01*
X337986Y77683D01*
X338020Y77750D01*
X338060Y77813D01*
X338165Y78033D01*
X338275Y78251D01*
X338301Y78321D01*
X338333Y78389D01*
X338409Y78620D01*
X338491Y78850D01*
X338508Y78923D01*
X338531Y78994D01*
X338577Y79233D01*
X338631Y79472D01*
X338638Y79546D01*
X338652Y79620D01*
X338668Y79863D01*
X338691Y80106D01*
X338689Y80181D01*
X338694Y80256D01*
X338679Y80499D01*
X338672Y80743D01*
X338660Y80817D01*
X338656Y80892D01*
X338611Y81131D01*
X338573Y81372D01*
X338552Y81444D01*
X338538Y81518D01*
X338464Y81750D01*
X338396Y81984D01*
X338366Y82053D01*
X338343Y82124D01*
X338240Y82345D01*
X338144Y82569D01*
X338105Y82634D01*
X338074Y82702D01*
X337951Y82896D01*
X337820Y83118D01*
X337768Y83186D01*
X337724Y83255D01*
X337710Y83275D01*
X337584Y83521D01*
X346400Y83521D01*
X346554Y83530D01*
X346709Y83530D01*
X346872Y83550D01*
X347036Y83561D01*
X347187Y83589D01*
X347341Y83609D01*
X347501Y83649D01*
X347661Y83680D01*
X347809Y83728D01*
X347959Y83766D01*
X348111Y83826D01*
X348267Y83876D01*
X348408Y83942D01*
X348552Y83999D01*
X348696Y84078D01*
X348844Y84147D01*
X348975Y84230D01*
X349111Y84305D01*
X349244Y84401D01*
X349382Y84488D01*
X349502Y84587D01*
X349627Y84678D01*
X349747Y84790D01*
X349873Y84894D01*
X349928Y84952D01*
X349980Y85007D01*
X350093Y85113D01*
X350198Y85239D01*
X350311Y85359D01*
X350402Y85484D01*
X350501Y85603D01*
X350589Y85741D01*
X350686Y85874D01*
X350760Y86009D01*
X350844Y86140D01*
X350914Y86288D01*
X350993Y86432D01*
X351050Y86576D01*
X351117Y86716D01*
X351168Y86872D01*
X351229Y87024D01*
X351267Y87174D01*
X351316Y87321D01*
X351347Y87482D01*
X351388Y87641D01*
X351408Y87794D01*
X351437Y87946D01*
X351447Y88105D01*
X351469Y88273D01*
X351469Y88441D01*
X351479Y88600D01*
X351479Y97416D01*
X351725Y97290D01*
X353019Y96350D01*
X354150Y95219D01*
X355090Y93925D01*
X355816Y92500D01*
X356311Y90979D01*
X356463Y90015D01*
X356515Y89782D01*
X356560Y89548D01*
X356585Y89471D01*
X356602Y89393D01*
X356683Y89168D01*
X356757Y88942D01*
X356791Y88869D01*
X356818Y88794D01*
X356926Y88581D01*
X357028Y88365D01*
X357070Y88297D01*
X357107Y88226D01*
X357241Y88028D01*
X357369Y87827D01*
X357420Y87765D01*
X357465Y87699D01*
X357622Y87519D01*
X357774Y87335D01*
X357833Y87281D01*
X357886Y87220D01*
X358065Y87062D01*
X358238Y86899D01*
X358303Y86852D01*
X358363Y86799D01*
X358560Y86664D01*
X358754Y86524D01*
X358824Y86485D01*
X358890Y86440D01*
X359102Y86331D01*
X359311Y86216D01*
X359386Y86187D01*
X359457Y86150D01*
X359682Y86069D01*
X359904Y85981D01*
X359981Y85961D01*
X360057Y85934D01*
X360289Y85881D01*
X360520Y85822D01*
X360600Y85811D01*
X360678Y85794D01*
X360915Y85771D01*
X361152Y85741D01*
X361233Y85740D01*
X361312Y85733D01*
X361550Y85740D01*
X361790Y85739D01*
X361869Y85749D01*
X361949Y85752D01*
X362185Y85789D01*
X362422Y85818D01*
X362500Y85838D01*
X362579Y85850D01*
X362808Y85916D01*
X363039Y85975D01*
X363114Y86005D01*
X363191Y86027D01*
X363410Y86121D01*
X363632Y86209D01*
X363703Y86247D01*
X363776Y86279D01*
X363982Y86400D01*
X364191Y86514D01*
X364256Y86561D01*
X364325Y86602D01*
X364514Y86748D01*
X364708Y86887D01*
X364766Y86942D01*
X364830Y86991D01*
X364999Y87160D01*
X365173Y87322D01*
X365225Y87384D01*
X365281Y87440D01*
X365428Y87628D01*
X365581Y87812D01*
X365624Y87880D01*
X365673Y87943D01*
X365795Y88148D01*
X365924Y88349D01*
X365958Y88421D01*
X365999Y88490D01*
X366094Y88709D01*
X366197Y88925D01*
X366222Y89001D01*
X366254Y89074D01*
X366321Y89303D01*
X366396Y89530D01*
X366411Y89609D01*
X366433Y89686D01*
X366471Y89921D01*
X366517Y90155D01*
X366522Y90234D01*
X366535Y90315D01*
X366544Y90576D01*
X366559Y90809D01*
X366559Y94850D01*
X366657Y95341D01*
X366848Y95803D01*
X367127Y96220D01*
X367536Y96629D01*
X367639Y96745D01*
X367749Y96855D01*
X367849Y96985D01*
X367958Y97107D01*
X368045Y97235D01*
X368140Y97358D01*
X368224Y97499D01*
X368316Y97634D01*
X368386Y97772D01*
X368465Y97905D01*
X368531Y98056D01*
X368605Y98202D01*
X368658Y98348D01*
X368720Y98490D01*
X368766Y98647D01*
X368822Y98801D01*
X368855Y98952D01*
X368899Y99101D01*
X368925Y99263D01*
X368961Y99423D01*
X368976Y99577D01*
X369000Y99730D01*
X369006Y99894D01*
X369021Y100057D01*
X369017Y100212D01*
X369022Y100367D01*
X369007Y100530D01*
X369002Y100694D01*
X368978Y100847D01*
X368964Y101001D01*
X368928Y101161D01*
X368903Y101323D01*
X368860Y101472D01*
X368827Y101623D01*
X368772Y101778D01*
X368726Y101935D01*
X368664Y102078D01*
X368613Y102224D01*
X368539Y102370D01*
X368474Y102521D01*
X368395Y102654D01*
X368325Y102792D01*
X368234Y102928D01*
X368150Y103069D01*
X368055Y103192D01*
X367969Y103320D01*
X367864Y103440D01*
X367761Y103573D01*
X367641Y103693D01*
X367536Y103813D01*
X319950Y151399D01*
X319895Y151447D01*
X319846Y151500D01*
X319656Y151658D01*
X319472Y151820D01*
X319412Y151861D01*
X319356Y151908D01*
X319149Y152040D01*
X318945Y152178D01*
X318880Y152212D01*
X318819Y152251D01*
X318597Y152356D01*
X318378Y152468D01*
X318309Y152493D01*
X318243Y152524D01*
X318009Y152601D01*
X317778Y152684D01*
X317707Y152700D01*
X317638Y152723D01*
X317397Y152770D01*
X317157Y152823D01*
X317084Y152830D01*
X317012Y152844D01*
X316781Y152859D01*
X316522Y152884D01*
X316439Y152881D01*
X316359Y152886D01*
X302820Y152886D01*
X302665Y152877D01*
X302510Y152877D01*
X302348Y152857D01*
X302184Y152847D01*
X302032Y152818D01*
X301878Y152798D01*
X301803Y152779D01*
X297563Y152779D01*
X297524Y152777D01*
X297485Y152779D01*
X297206Y152757D01*
X296927Y152739D01*
X296889Y152732D01*
X296850Y152729D01*
X296575Y152672D01*
X296301Y152620D01*
X296264Y152608D01*
X296226Y152600D01*
X295961Y152510D01*
X295695Y152424D01*
X295660Y152407D01*
X295623Y152394D01*
X295372Y152272D01*
X295119Y152153D01*
X295086Y152132D01*
X295051Y152115D01*
X294816Y151961D01*
X294580Y151811D01*
X294550Y151787D01*
X294518Y151765D01*
X294304Y151584D01*
X294089Y151406D01*
X294063Y151377D01*
X294033Y151352D01*
X293844Y151145D01*
X293653Y150942D01*
X293630Y150910D01*
X293603Y150881D01*
X293442Y150653D01*
X293278Y150427D01*
X293259Y150393D01*
X293236Y150361D01*
X293105Y150113D01*
X292970Y149869D01*
X292956Y149832D01*
X292937Y149798D01*
X292838Y149537D01*
X292735Y149277D01*
X292725Y149239D01*
X292711Y149202D01*
X292645Y148932D01*
X292575Y148660D01*
X292570Y148621D01*
X292561Y148583D01*
X292530Y148306D01*
X292494Y148028D01*
X292494Y147989D01*
X292490Y147950D01*
X292494Y147671D01*
X292493Y147391D01*
X292498Y147352D01*
X292498Y147313D01*
X292537Y147037D01*
X292572Y146758D01*
X292581Y146720D01*
X292587Y146682D01*
X292660Y146413D01*
X292729Y146141D01*
X292743Y146105D01*
X292753Y146067D01*
X292860Y145809D01*
X292962Y145548D01*
X292981Y145514D01*
X292996Y145478D01*
X293133Y145235D01*
X293268Y144989D01*
X293291Y144957D01*
X293310Y144924D01*
X293477Y144699D01*
X293641Y144473D01*
X293668Y144444D01*
X293691Y144413D01*
X293866Y144232D01*
X294076Y144007D01*
X294114Y143976D01*
X294146Y143942D01*
X294147Y143941D01*
X294358Y143772D01*
X294566Y143599D01*
X294607Y143573D01*
X294644Y143543D01*
X294875Y143402D01*
X295103Y143256D01*
X295146Y143236D01*
X295187Y143211D01*
X295434Y143099D01*
X295679Y142983D01*
X295724Y142968D01*
X295768Y142948D01*
X296027Y142869D01*
X296284Y142784D01*
X296331Y142775D01*
X296377Y142761D01*
X296644Y142714D01*
X296909Y142663D01*
X296957Y142660D01*
X297005Y142651D01*
X297313Y142637D01*
X297563Y142621D01*
X298648Y142621D01*
X298709Y142525D01*
X298807Y142406D01*
X298898Y142280D01*
X299010Y142161D01*
X299114Y142034D01*
X299227Y141928D01*
X299333Y141815D01*
X299459Y141710D01*
X299578Y141598D01*
X299704Y141506D01*
X299823Y141407D01*
X299961Y141319D01*
X300093Y141223D01*
X300229Y141148D01*
X300360Y141064D01*
X300508Y140994D01*
X300651Y140915D01*
X300795Y140858D01*
X300935Y140791D01*
X301091Y140740D01*
X301244Y140680D01*
X301394Y140641D01*
X301541Y140592D01*
X301702Y140561D01*
X301860Y140520D01*
X302014Y140501D01*
X302166Y140471D01*
X302325Y140461D01*
X302492Y140439D01*
X302661Y140439D01*
X302698Y140437D01*
X305705Y139191D01*
X308538Y136358D01*
X308539Y136351D01*
X308553Y136066D01*
X308558Y136034D01*
X308561Y136001D01*
X308614Y135720D01*
X308664Y135439D01*
X308674Y135408D01*
X308680Y135375D01*
X308786Y135049D01*
X308859Y134814D01*
X308859Y134813D01*
X308869Y134792D01*
X308876Y134769D01*
X308877Y134769D01*
X308877Y134768D01*
X309003Y134501D01*
X309125Y134234D01*
X309138Y134213D01*
X309148Y134192D01*
X309306Y133943D01*
X309461Y133692D01*
X309476Y133674D01*
X309489Y133654D01*
X309677Y133426D01*
X309862Y133197D01*
X309879Y133181D01*
X309895Y133162D01*
X310109Y132960D01*
X310322Y132756D01*
X310341Y132742D01*
X310359Y132726D01*
X310597Y132552D01*
X310834Y132376D01*
X310854Y132365D01*
X310874Y132351D01*
X311132Y132208D01*
X311389Y132064D01*
X311411Y132055D01*
X311432Y132043D01*
X311705Y131934D01*
X311978Y131823D01*
X312002Y131816D01*
X312024Y131808D01*
X312308Y131734D01*
X312594Y131658D01*
X312617Y131654D01*
X312641Y131648D01*
X312933Y131611D01*
X313225Y131571D01*
X313249Y131570D01*
X313273Y131567D01*
X313568Y131567D01*
X313862Y131564D01*
X313886Y131566D01*
X313910Y131566D01*
X314204Y131603D01*
X314495Y131636D01*
X314518Y131642D01*
X314542Y131645D01*
X314828Y131718D01*
X315114Y131788D01*
X315136Y131796D01*
X315159Y131802D01*
X315433Y131910D01*
X315709Y132015D01*
X315730Y132027D01*
X315752Y132035D01*
X316012Y132177D01*
X316271Y132316D01*
X316290Y132329D01*
X316311Y132341D01*
X316551Y132514D01*
X316791Y132684D01*
X316808Y132700D01*
X316828Y132714D01*
X317043Y132915D01*
X317260Y133115D01*
X317276Y133133D01*
X317293Y133149D01*
X317481Y133375D01*
X317672Y133600D01*
X317686Y133621D01*
X317701Y133639D01*
X317859Y133887D01*
X318020Y134134D01*
X318031Y134156D01*
X318044Y134176D01*
X318170Y134442D01*
X318299Y134707D01*
X318307Y134730D01*
X318317Y134751D01*
X318346Y134841D01*
X320350Y134841D01*
X320841Y134743D01*
X321303Y134552D01*
X321720Y134273D01*
X322073Y133920D01*
X322352Y133503D01*
X322543Y133041D01*
X322641Y132550D01*
X322641Y129879D01*
X314308Y129879D01*
X314153Y129870D01*
X313998Y129870D01*
X313836Y129850D01*
X313672Y129839D01*
X313520Y129810D01*
X313366Y129791D01*
X313207Y129751D01*
X313046Y129720D01*
X312899Y129672D01*
X312749Y129634D01*
X312596Y129574D01*
X312440Y129524D01*
X312300Y129458D01*
X312156Y129401D01*
X312012Y129322D01*
X311864Y129253D01*
X311733Y129170D01*
X311597Y129095D01*
X311464Y128999D01*
X311325Y128911D01*
X311206Y128813D01*
X311080Y128722D01*
X310961Y128610D01*
X310834Y128506D01*
X310728Y128393D01*
X310615Y128287D01*
X310510Y128161D01*
X310398Y128042D01*
X310306Y127916D01*
X310207Y127797D01*
X310119Y127659D01*
X310023Y127527D01*
X309948Y127391D01*
X309864Y127260D01*
X309794Y127112D01*
X309715Y126969D01*
X309658Y126825D01*
X309591Y126685D01*
X309540Y126529D01*
X309480Y126377D01*
X309441Y126227D01*
X309392Y126079D01*
X309361Y125919D01*
X309320Y125760D01*
X309301Y125606D01*
X309271Y125454D01*
X309261Y125295D01*
X309239Y125128D01*
X309239Y124959D01*
X309229Y124800D01*
X309238Y124645D01*
X309238Y124491D01*
X309238Y124490D01*
X309258Y124327D01*
X309269Y124164D01*
X309298Y124012D01*
X309317Y123858D01*
X309357Y123699D01*
X309388Y123538D01*
X309436Y123391D01*
X309474Y123241D01*
X309534Y123088D01*
X309585Y122932D01*
X309650Y122792D01*
X309707Y122648D01*
X309786Y122504D01*
X309856Y122355D01*
X309938Y122225D01*
X310013Y122089D01*
X310109Y121956D01*
X310197Y121817D01*
X310295Y121698D01*
X310386Y121572D01*
X310498Y121452D01*
X310602Y121326D01*
X310715Y121220D01*
X310821Y121107D01*
X310947Y121002D01*
X311066Y120889D01*
X311192Y120798D01*
X311311Y120699D01*
X311449Y120611D01*
X311581Y120514D01*
X311717Y120440D01*
X311848Y120356D01*
X311996Y120286D01*
X312139Y120207D01*
X312283Y120150D01*
X312423Y120083D01*
X312579Y120032D01*
X312732Y119971D01*
X312882Y119933D01*
X313029Y119884D01*
X313190Y119853D01*
X313348Y119812D01*
X313502Y119792D01*
X313654Y119763D01*
X313813Y119753D01*
X313980Y119731D01*
X314149Y119731D01*
X314308Y119721D01*
X322641Y119721D01*
X322641Y117050D01*
X322543Y116559D01*
X322352Y116097D01*
X322073Y115680D01*
X321720Y115327D01*
X321303Y115048D01*
X320841Y114857D01*
X320350Y114759D01*
X318347Y114759D01*
X318324Y114832D01*
X318313Y114853D01*
X318306Y114876D01*
X318178Y115141D01*
X318053Y115408D01*
X318040Y115429D01*
X318029Y115450D01*
X317870Y115697D01*
X317711Y115946D01*
X317696Y115965D01*
X317683Y115985D01*
X317493Y116211D01*
X317306Y116438D01*
X317288Y116454D01*
X317273Y116472D01*
X317056Y116673D01*
X316842Y116874D01*
X316822Y116888D01*
X316805Y116905D01*
X316566Y117075D01*
X316327Y117249D01*
X316306Y117261D01*
X316286Y117275D01*
X316027Y117414D01*
X315769Y117557D01*
X315746Y117566D01*
X315725Y117577D01*
X315450Y117683D01*
X315177Y117792D01*
X315154Y117798D01*
X315131Y117807D01*
X314845Y117878D01*
X314560Y117952D01*
X314536Y117955D01*
X314513Y117960D01*
X314221Y117995D01*
X313928Y118033D01*
X313904Y118033D01*
X313880Y118035D01*
X313586Y118033D01*
X313291Y118034D01*
X313267Y118031D01*
X313243Y118031D01*
X312950Y117991D01*
X312658Y117955D01*
X312635Y117949D01*
X312612Y117946D01*
X312325Y117870D01*
X312041Y117798D01*
X312019Y117789D01*
X311996Y117783D01*
X311723Y117673D01*
X311448Y117565D01*
X311427Y117553D01*
X311405Y117544D01*
X311149Y117401D01*
X310889Y117259D01*
X310870Y117245D01*
X310849Y117233D01*
X310611Y117058D01*
X310373Y116886D01*
X310355Y116870D01*
X310336Y116855D01*
X310122Y116652D01*
X309907Y116451D01*
X309892Y116433D01*
X309874Y116416D01*
X309688Y116187D01*
X309499Y115961D01*
X309487Y115941D01*
X309472Y115923D01*
X309315Y115672D01*
X309157Y115424D01*
X309146Y115403D01*
X309134Y115382D01*
X309030Y115158D01*
X308883Y114849D01*
X308883Y114848D01*
X308873Y114816D01*
X308859Y114787D01*
X308859Y114786D01*
X308774Y114515D01*
X308684Y114242D01*
X308678Y114210D01*
X308668Y114179D01*
X308617Y113898D01*
X308563Y113617D01*
X308561Y113584D01*
X308555Y113552D01*
X308538Y113242D01*
X305705Y110409D01*
X302717Y109171D01*
X286483Y109171D01*
X283495Y110409D01*
X283271Y110633D01*
X283124Y110763D01*
X282983Y110900D01*
X282885Y110974D01*
X282793Y111055D01*
X282631Y111165D01*
X282474Y111283D01*
X282368Y111344D01*
X282266Y111413D01*
X282092Y111502D01*
X281922Y111599D01*
X281808Y111647D01*
X281699Y111702D01*
X281514Y111769D01*
X281333Y111844D01*
X281215Y111877D01*
X281099Y111919D01*
X280908Y111962D01*
X280719Y112014D01*
X280597Y112031D01*
X280477Y112058D01*
X280283Y112077D01*
X280088Y112105D01*
X279965Y112107D01*
X279843Y112118D01*
X279647Y112112D01*
X279451Y112116D01*
X279329Y112103D01*
X279206Y112099D01*
X279013Y112069D01*
X278818Y112048D01*
X278698Y112019D01*
X278577Y112000D01*
X278389Y111946D01*
X278198Y111900D01*
X278083Y111857D01*
X277965Y111823D01*
X277785Y111746D01*
X277602Y111677D01*
X277493Y111620D01*
X277380Y111571D01*
X277211Y111471D01*
X277038Y111380D01*
X276937Y111310D01*
X276831Y111247D01*
X276676Y111128D01*
X276515Y111015D01*
X276424Y110933D01*
X276327Y110858D01*
X276188Y110719D01*
X276043Y110588D01*
X275963Y110495D01*
X275876Y110408D01*
X275755Y110253D01*
X275627Y110105D01*
X275560Y110002D01*
X275484Y109905D01*
X275384Y109737D01*
X275276Y109573D01*
X275223Y109466D01*
X275159Y109358D01*
X275125Y109281D01*
X271747Y105903D01*
X267257Y104043D01*
X267059Y104005D01*
X266824Y103968D01*
X266746Y103945D01*
X266665Y103930D01*
X266440Y103857D01*
X266212Y103791D01*
X266137Y103759D01*
X266059Y103733D01*
X265845Y103633D01*
X265627Y103539D01*
X265556Y103497D01*
X265482Y103462D01*
X265282Y103336D01*
X265078Y103215D01*
X265014Y103165D01*
X264944Y103121D01*
X264762Y102971D01*
X264574Y102826D01*
X264516Y102768D01*
X264453Y102716D01*
X264291Y102544D01*
X264123Y102376D01*
X264073Y102311D01*
X264016Y102252D01*
X263877Y102060D01*
X263732Y101873D01*
X263690Y101803D01*
X263641Y101737D01*
X263527Y101529D01*
X263406Y101326D01*
X263373Y101250D01*
X263334Y101179D01*
X263246Y100959D01*
X263152Y100741D01*
X263129Y100663D01*
X263098Y100586D01*
X263039Y100357D01*
X262973Y100130D01*
X262960Y100049D01*
X262939Y99970D01*
X262909Y99735D01*
X262871Y99501D01*
X262869Y99419D01*
X262858Y99338D01*
X262858Y99101D01*
X262850Y98864D01*
X262857Y98783D01*
X262857Y98700D01*
X262886Y98466D01*
X262908Y98230D01*
X262925Y98150D01*
X262936Y98068D01*
X262994Y97838D01*
X263045Y97608D01*
X263073Y97530D01*
X263093Y97451D01*
X263179Y97230D01*
X263259Y97007D01*
X263296Y96934D01*
X263326Y96858D01*
X263440Y96650D01*
X263546Y96439D01*
X263592Y96371D01*
X263632Y96299D01*
X263770Y96107D01*
X263903Y95911D01*
X263956Y95850D01*
X264005Y95782D01*
X264182Y95593D01*
X264335Y95418D01*
X268051Y91703D01*
X270659Y85407D01*
X270659Y78593D01*
X268051Y72297D01*
X263233Y67479D01*
X256937Y64871D01*
X250123Y64871D01*
X243827Y67479D01*
X239009Y72297D01*
X236401Y78593D01*
X236401Y85407D01*
X239009Y91703D01*
X243827Y96521D01*
X250123Y99129D01*
X252765Y99129D01*
X253001Y99144D01*
X253238Y99151D01*
X253319Y99164D01*
X253400Y99169D01*
X253633Y99213D01*
X253867Y99250D01*
X253946Y99273D01*
X254026Y99288D01*
X254252Y99361D01*
X254479Y99427D01*
X254554Y99459D01*
X254632Y99485D01*
X254847Y99585D01*
X255064Y99679D01*
X255135Y99721D01*
X255209Y99756D01*
X255409Y99882D01*
X255613Y100003D01*
X255678Y100053D01*
X255747Y100097D01*
X255930Y100247D01*
X256117Y100392D01*
X256175Y100450D01*
X256238Y100502D01*
X256401Y100675D01*
X256568Y100842D01*
X256619Y100907D01*
X256675Y100966D01*
X256815Y101158D01*
X256960Y101345D01*
X257002Y101415D01*
X257050Y101481D01*
X257164Y101689D01*
X257285Y101892D01*
X257318Y101968D01*
X257358Y102039D01*
X257445Y102259D01*
X257540Y102477D01*
X257563Y102555D01*
X257593Y102632D01*
X257652Y102861D01*
X257719Y103088D01*
X257732Y103169D01*
X257752Y103248D01*
X257782Y103484D01*
X257820Y103717D01*
X257823Y103799D01*
X257833Y103880D01*
X257834Y104117D01*
X257842Y104354D01*
X257834Y104435D01*
X257834Y104518D01*
X257805Y104752D01*
X257784Y104988D01*
X257766Y105068D01*
X257756Y105150D01*
X257697Y105379D01*
X257646Y105610D01*
X257619Y105688D01*
X257599Y105767D01*
X257512Y105988D01*
X257432Y106211D01*
X257395Y106284D01*
X257365Y106360D01*
X257252Y106568D01*
X257145Y106779D01*
X257099Y106847D01*
X257060Y106919D01*
X256921Y107111D01*
X256789Y107307D01*
X256736Y107368D01*
X256687Y107436D01*
X256509Y107626D01*
X256356Y107800D01*
X254903Y109253D01*
X253089Y113631D01*
X253089Y118369D01*
X255247Y123579D01*
X255297Y123726D01*
X255357Y123869D01*
X255401Y124027D01*
X255454Y124182D01*
X255485Y124333D01*
X255526Y124483D01*
X255550Y124645D01*
X255583Y124805D01*
X255595Y124960D01*
X255617Y125114D01*
X255620Y125278D01*
X255633Y125441D01*
X255626Y125596D01*
X255629Y125751D01*
X255611Y125913D01*
X255603Y126077D01*
X255577Y126230D01*
X255560Y126384D01*
X255522Y126543D01*
X255494Y126705D01*
X255449Y126853D01*
X255413Y127004D01*
X255356Y127157D01*
X255307Y127314D01*
X255244Y127456D01*
X255189Y127601D01*
X255113Y127745D01*
X255046Y127895D01*
X254965Y128027D01*
X254893Y128165D01*
X254799Y128298D01*
X254714Y128438D01*
X254616Y128560D01*
X254528Y128687D01*
X254418Y128808D01*
X254316Y128936D01*
X254205Y129044D01*
X254100Y129159D01*
X253976Y129266D01*
X253859Y129380D01*
X253735Y129473D01*
X253617Y129575D01*
X253510Y129645D01*
X249903Y133253D01*
X248089Y137631D01*
X248089Y142369D01*
X249903Y146747D01*
X253253Y150097D01*
X256223Y151327D01*
X256288Y151360D01*
X256357Y151385D01*
X256574Y151500D01*
X256795Y151608D01*
X256856Y151648D01*
X256921Y151682D01*
X257122Y151822D01*
X257328Y151957D01*
X257383Y152005D01*
X257443Y152047D01*
X257625Y152211D01*
X257812Y152371D01*
X257861Y152425D01*
X257915Y152474D01*
X258076Y152660D01*
X258241Y152842D01*
X258283Y152902D01*
X258331Y152957D01*
X258466Y153162D01*
X258608Y153363D01*
X258642Y153428D01*
X258682Y153488D01*
X258785Y153696D01*
X258906Y153926D01*
X258936Y154004D01*
X258972Y154076D01*
X259131Y154462D01*
X259195Y154648D01*
X259267Y154830D01*
X259298Y154949D01*
X259338Y155065D01*
X259378Y155257D01*
X259427Y155446D01*
X259442Y155569D01*
X259467Y155689D01*
X259483Y155884D01*
X259508Y156078D01*
X259508Y156202D01*
X259517Y156324D01*
X259508Y156520D01*
X259509Y156716D01*
X259493Y156838D01*
X259488Y156961D01*
X259454Y157153D01*
X259430Y157348D01*
X259400Y157467D01*
X259379Y157588D01*
X259321Y157776D01*
X259273Y157965D01*
X259228Y158080D01*
X259192Y158197D01*
X259111Y158376D01*
X259040Y158558D01*
X258981Y158666D01*
X258930Y158778D01*
X258828Y158945D01*
X258734Y159117D01*
X258662Y159217D01*
X258598Y159322D01*
X258476Y159475D01*
X258361Y159634D01*
X258277Y159724D01*
X258200Y159820D01*
X258060Y159956D01*
X257926Y160099D01*
X257831Y160178D01*
X257743Y160264D01*
X257586Y160382D01*
X257436Y160507D01*
X257332Y160573D01*
X257234Y160647D01*
X257064Y160744D01*
X256899Y160850D01*
X256788Y160902D01*
X256681Y160964D01*
X256501Y161039D01*
X256323Y161123D01*
X256206Y161161D01*
X256093Y161208D01*
X255904Y161260D01*
X255718Y161322D01*
X255597Y161345D01*
X255479Y161378D01*
X255285Y161406D01*
X255093Y161443D01*
X254972Y161451D01*
X254848Y161469D01*
X254636Y161473D01*
X254439Y161485D01*
X244628Y161485D01*
X240707Y163110D01*
X237247Y166569D01*
X237162Y166644D01*
X237082Y166727D01*
X236923Y166855D01*
X236769Y166991D01*
X236675Y167055D01*
X236586Y167126D01*
X236412Y167234D01*
X236242Y167349D01*
X236141Y167400D01*
X236044Y167460D01*
X235857Y167545D01*
X235675Y167638D01*
X235567Y167677D01*
X235464Y167724D01*
X235268Y167785D01*
X235075Y167854D01*
X234964Y167879D01*
X234855Y167913D01*
X234654Y167949D01*
X234454Y167994D01*
X234340Y168005D01*
X234228Y168024D01*
X234023Y168035D01*
X233819Y168054D01*
X233705Y168051D01*
X233592Y168056D01*
X233387Y168041D01*
X233183Y168035D01*
X233070Y168017D01*
X232956Y168008D01*
X232755Y167968D01*
X232596Y167943D01*
X227631Y167943D01*
X225211Y168945D01*
X225181Y168955D01*
X225152Y168969D01*
X224880Y169058D01*
X224609Y169151D01*
X224577Y169158D01*
X224547Y169168D01*
X224265Y169222D01*
X223985Y169280D01*
X223953Y169283D01*
X223922Y169289D01*
X223671Y169305D01*
X223350Y169331D01*
X223308Y169329D01*
X223268Y169331D01*
X172878Y169331D01*
X169183Y170862D01*
X168959Y170938D01*
X168738Y171022D01*
X168658Y171041D01*
X168580Y171068D01*
X168348Y171116D01*
X168118Y171172D01*
X168037Y171181D01*
X167957Y171197D01*
X167721Y171216D01*
X167485Y171242D01*
X167403Y171241D01*
X167321Y171248D01*
X167085Y171237D01*
X166848Y171233D01*
X166767Y171222D01*
X166685Y171218D01*
X166452Y171177D01*
X166217Y171144D01*
X166138Y171123D01*
X166057Y171109D01*
X165831Y171039D01*
X165602Y170977D01*
X165527Y170946D01*
X165448Y170922D01*
X165232Y170825D01*
X165013Y170734D01*
X164942Y170694D01*
X164867Y170660D01*
X164665Y170537D01*
X164459Y170420D01*
X164394Y170371D01*
X164324Y170328D01*
X164138Y170180D01*
X163949Y170038D01*
X163890Y169982D01*
X163826Y169930D01*
X163661Y169760D01*
X163490Y169596D01*
X163439Y169532D01*
X163382Y169473D01*
X163240Y169285D01*
X163091Y169100D01*
X163048Y169030D01*
X162999Y168964D01*
X162881Y168759D01*
X162757Y168557D01*
X162723Y168482D01*
X162682Y168411D01*
X162591Y168193D01*
X162493Y167977D01*
X162469Y167899D01*
X162437Y167823D01*
X162374Y167595D01*
X162304Y167369D01*
X162290Y167288D01*
X162268Y167209D01*
X162234Y166974D01*
X162193Y166741D01*
X162188Y166660D01*
X162177Y166578D01*
X162172Y166341D01*
X162161Y166105D01*
X162167Y166024D01*
X162165Y165941D01*
X162191Y165706D01*
X162209Y165470D01*
X162225Y165389D01*
X162234Y165308D01*
X162288Y165078D01*
X162336Y164846D01*
X162362Y164769D01*
X162381Y164688D01*
X162472Y164444D01*
X162547Y164225D01*
X163209Y162627D01*
X163209Y57373D01*
X161186Y52489D01*
X161097Y52379D01*
X160962Y52225D01*
X160898Y52131D01*
X160826Y52042D01*
X160719Y51868D01*
X160604Y51699D01*
X160552Y51597D01*
X160492Y51500D01*
X160407Y51314D01*
X160314Y51131D01*
X160275Y51024D01*
X160228Y50920D01*
X160168Y50724D01*
X160098Y50532D01*
X160073Y50420D01*
X160039Y50311D01*
X160003Y50110D01*
X159959Y49910D01*
X159948Y49796D01*
X159928Y49684D01*
X159918Y49480D01*
X159898Y49276D01*
X159902Y49162D01*
X159896Y49048D01*
X159911Y48843D01*
X159918Y48639D01*
X159935Y48526D01*
X159944Y48412D01*
X159985Y48212D01*
X160017Y48009D01*
X160048Y47900D01*
X160071Y47788D01*
X160134Y47602D01*
X160194Y47397D01*
X160243Y47282D01*
X160282Y47168D01*
X161629Y43917D01*
X161629Y27683D01*
X160391Y24695D01*
X157558Y21862D01*
X157487Y21857D01*
X157201Y21839D01*
X157200Y21839D01*
X157199Y21839D01*
X156854Y21773D01*
X156575Y21720D01*
X156574Y21720D01*
X156573Y21720D01*
X156519Y21702D01*
X155969Y21524D01*
X155969Y21523D01*
X155968Y21523D01*
X155959Y21519D01*
X155950Y21516D01*
X155674Y21385D01*
X155392Y21252D01*
X155383Y21247D01*
X155374Y21243D01*
X155118Y21079D01*
X154853Y20911D01*
X154846Y20905D01*
X154837Y20899D01*
X154599Y20701D01*
X154362Y20505D01*
X154355Y20498D01*
X154348Y20492D01*
X154136Y20265D01*
X153926Y20041D01*
X153920Y20033D01*
X153913Y20026D01*
X153733Y19776D01*
X153551Y19526D01*
X153546Y19517D01*
X153540Y19509D01*
X153392Y19239D01*
X153243Y18968D01*
X153239Y18959D01*
X153234Y18950D01*
X153121Y18663D01*
X153008Y18376D01*
X153005Y18367D01*
X153001Y18357D01*
X152924Y18051D01*
X152848Y17759D01*
X152847Y17749D01*
X152844Y17740D01*
X152806Y17433D01*
X152767Y17127D01*
X152767Y17117D01*
X152766Y17107D01*
X152767Y16798D01*
X152766Y16490D01*
X152767Y16480D01*
X152767Y16470D01*
X152806Y16167D01*
X152845Y15858D01*
X152847Y15848D01*
X152849Y15838D01*
X152925Y15542D01*
X153002Y15241D01*
X153006Y15231D01*
X153008Y15222D01*
X153123Y14932D01*
X153235Y14648D01*
X153240Y14639D01*
X153244Y14630D01*
X153391Y14363D01*
X153541Y14089D01*
X153547Y14080D01*
X153552Y14072D01*
X153732Y13824D01*
X153914Y13572D01*
X153921Y13565D01*
X153927Y13557D01*
X154138Y13332D01*
X154349Y13107D01*
X154357Y13100D01*
X154364Y13093D01*
X154601Y12897D01*
X154839Y12699D01*
X154847Y12694D01*
X154855Y12687D01*
X155113Y12524D01*
X155376Y12356D01*
X155385Y12352D01*
X155393Y12347D01*
X155668Y12218D01*
X155951Y12083D01*
X155961Y12080D01*
X155970Y12076D01*
X156261Y11981D01*
X156557Y11884D01*
X156567Y11882D01*
X156576Y11879D01*
X156878Y11822D01*
X157182Y11763D01*
X157192Y11762D01*
X157202Y11760D01*
X157436Y11746D01*
X157527Y11660D01*
X157633Y11547D01*
X157759Y11442D01*
X157878Y11330D01*
X158004Y11238D01*
X158123Y11139D01*
X158261Y11051D01*
X158393Y10955D01*
X158529Y10880D01*
X158660Y10796D01*
X158808Y10726D01*
X158951Y10647D01*
X159095Y10590D01*
X159235Y10523D01*
X159391Y10472D01*
X159543Y10412D01*
X159693Y10373D01*
X159841Y10324D01*
X160002Y10293D01*
X160160Y10252D01*
X160314Y10233D01*
X160466Y10203D01*
X160625Y10193D01*
X160792Y10171D01*
X160961Y10171D01*
X161120Y10161D01*
X586057Y10161D01*
X586212Y10170D01*
G37*
G36*
X109035Y10170D02*
X109035Y10170D01*
X109190Y10170D01*
X109352Y10190D01*
X109516Y10201D01*
X109668Y10230D01*
X109822Y10249D01*
X109981Y10289D01*
X110142Y10320D01*
X110289Y10368D01*
X110439Y10406D01*
X110592Y10466D01*
X110748Y10517D01*
X110888Y10582D01*
X111032Y10639D01*
X111176Y10718D01*
X111324Y10788D01*
X111455Y10870D01*
X111591Y10945D01*
X111724Y11041D01*
X111863Y11129D01*
X111982Y11227D01*
X112108Y11318D01*
X112227Y11430D01*
X112354Y11534D01*
X112460Y11647D01*
X112573Y11753D01*
X112678Y11879D01*
X112790Y11998D01*
X112882Y12124D01*
X112981Y12243D01*
X113018Y12301D01*
X113137Y12325D01*
X113426Y12380D01*
X113448Y12387D01*
X113472Y12392D01*
X113751Y12485D01*
X114032Y12576D01*
X114053Y12587D01*
X114076Y12594D01*
X114341Y12722D01*
X114608Y12847D01*
X114629Y12860D01*
X114650Y12871D01*
X114897Y13030D01*
X115147Y13188D01*
X115165Y13204D01*
X115185Y13217D01*
X115411Y13407D01*
X115638Y13594D01*
X115654Y13612D01*
X115672Y13627D01*
X115873Y13844D01*
X116074Y14058D01*
X116088Y14078D01*
X116105Y14095D01*
X116275Y14334D01*
X116449Y14573D01*
X116461Y14594D01*
X116475Y14614D01*
X116614Y14873D01*
X116757Y15131D01*
X116766Y15154D01*
X116777Y15175D01*
X116884Y15450D01*
X116992Y15723D01*
X116998Y15746D01*
X117007Y15769D01*
X117078Y16055D01*
X117152Y16340D01*
X117155Y16364D01*
X117161Y16387D01*
X117195Y16679D01*
X117233Y16972D01*
X117233Y16996D01*
X117236Y17020D01*
X117233Y17314D01*
X117234Y17609D01*
X117231Y17633D01*
X117231Y17657D01*
X117192Y17949D01*
X117155Y18242D01*
X117149Y18265D01*
X117146Y18288D01*
X117070Y18575D01*
X116998Y18859D01*
X116989Y18881D01*
X116983Y18904D01*
X116873Y19177D01*
X116765Y19452D01*
X116753Y19473D01*
X116744Y19495D01*
X116601Y19751D01*
X116459Y20011D01*
X116445Y20030D01*
X116434Y20051D01*
X116258Y20289D01*
X116086Y20527D01*
X116070Y20545D01*
X116055Y20564D01*
X115852Y20778D01*
X115651Y20993D01*
X115633Y21008D01*
X115616Y21026D01*
X115387Y21212D01*
X115161Y21400D01*
X115141Y21413D01*
X115123Y21428D01*
X114872Y21585D01*
X114624Y21743D01*
X114603Y21754D01*
X114582Y21766D01*
X114359Y21870D01*
X114049Y22017D01*
X114048Y22017D01*
X114016Y22027D01*
X113987Y22041D01*
X113715Y22126D01*
X113442Y22216D01*
X113410Y22222D01*
X113379Y22232D01*
X113098Y22282D01*
X112817Y22337D01*
X112785Y22339D01*
X112752Y22345D01*
X112442Y22362D01*
X109609Y25195D01*
X108371Y28183D01*
X108371Y44417D01*
X109609Y47405D01*
X111895Y49691D01*
X115297Y51100D01*
X115436Y51168D01*
X115579Y51227D01*
X115722Y51308D01*
X115869Y51380D01*
X115998Y51465D01*
X116133Y51542D01*
X116265Y51640D01*
X116401Y51730D01*
X116519Y51830D01*
X116643Y51923D01*
X116761Y52037D01*
X116886Y52144D01*
X116990Y52258D01*
X117102Y52366D01*
X117205Y52493D01*
X117315Y52615D01*
X117404Y52741D01*
X117501Y52862D01*
X117587Y53002D01*
X117682Y53136D01*
X117754Y53272D01*
X117836Y53404D01*
X117904Y53554D01*
X117980Y53698D01*
X118035Y53843D01*
X118099Y53984D01*
X118148Y54141D01*
X118206Y54294D01*
X118243Y54445D01*
X118288Y54593D01*
X118317Y54754D01*
X118356Y54914D01*
X118373Y55068D01*
X118400Y55220D01*
X118408Y55384D01*
X118426Y55547D01*
X118424Y55702D01*
X118432Y55856D01*
X118419Y56020D01*
X118417Y56184D01*
X118395Y56337D01*
X118384Y56492D01*
X118351Y56652D01*
X118328Y56815D01*
X118288Y56964D01*
X118257Y57116D01*
X118205Y57267D01*
X118161Y57430D01*
X118097Y57585D01*
X118089Y57608D01*
X118089Y62369D01*
X119903Y66747D01*
X123253Y70097D01*
X127631Y71911D01*
X131712Y71911D01*
X131867Y71920D01*
X132022Y71920D01*
X132184Y71940D01*
X132348Y71951D01*
X132500Y71980D01*
X132654Y71999D01*
X132813Y72039D01*
X132974Y72070D01*
X133121Y72118D01*
X133271Y72156D01*
X133424Y72216D01*
X133580Y72267D01*
X133720Y72332D01*
X133864Y72389D01*
X134008Y72468D01*
X134156Y72538D01*
X134287Y72620D01*
X134423Y72695D01*
X134556Y72791D01*
X134695Y72879D01*
X134814Y72977D01*
X134940Y73068D01*
X135059Y73180D01*
X135186Y73284D01*
X135292Y73397D01*
X135405Y73503D01*
X135510Y73629D01*
X135622Y73748D01*
X135714Y73874D01*
X135813Y73993D01*
X135901Y74131D01*
X135997Y74263D01*
X136072Y74399D01*
X136156Y74530D01*
X136226Y74678D01*
X136305Y74821D01*
X136362Y74965D01*
X136429Y75105D01*
X136480Y75261D01*
X136540Y75414D01*
X136579Y75564D01*
X136628Y75711D01*
X136659Y75872D01*
X136700Y76030D01*
X136719Y76184D01*
X136749Y76336D01*
X136759Y76495D01*
X136781Y76662D01*
X136781Y76831D01*
X136791Y76990D01*
X136791Y152425D01*
X136787Y152498D01*
X136789Y152571D01*
X136782Y152651D01*
X136782Y152689D01*
X136768Y152798D01*
X136767Y152816D01*
X136751Y153061D01*
X136738Y153132D01*
X136731Y153205D01*
X136678Y153445D01*
X136632Y153687D01*
X136610Y153756D01*
X136594Y153827D01*
X136511Y154059D01*
X136435Y154293D01*
X136404Y154359D01*
X136380Y154427D01*
X136269Y154647D01*
X136164Y154869D01*
X136125Y154931D01*
X136092Y154996D01*
X135955Y155199D01*
X135823Y155407D01*
X135777Y155464D01*
X135736Y155524D01*
X135583Y155698D01*
X135418Y155899D01*
X135357Y155956D01*
X135304Y156016D01*
X132136Y159184D01*
X132082Y159232D01*
X132032Y159285D01*
X131843Y159442D01*
X131659Y159605D01*
X131598Y159646D01*
X131542Y159693D01*
X131335Y159825D01*
X131132Y159963D01*
X131067Y159996D01*
X131005Y160036D01*
X130783Y160141D01*
X130564Y160253D01*
X130496Y160277D01*
X130430Y160309D01*
X130196Y160386D01*
X129965Y160469D01*
X129894Y160485D01*
X129824Y160508D01*
X129583Y160554D01*
X129343Y160608D01*
X129270Y160615D01*
X129199Y160629D01*
X128968Y160644D01*
X128943Y160646D01*
X125065Y162253D01*
X125050Y162261D01*
X125019Y162272D01*
X124962Y162295D01*
X124914Y162312D01*
X124822Y162354D01*
X124635Y162412D01*
X124451Y162479D01*
X124377Y162496D01*
X124359Y162502D01*
X124317Y162511D01*
X124213Y162543D01*
X124021Y162577D01*
X123830Y162620D01*
X123748Y162629D01*
X123735Y162631D01*
X123699Y162634D01*
X123586Y162654D01*
X123391Y162664D01*
X123196Y162683D01*
X123107Y162681D01*
X123100Y162681D01*
X123070Y162680D01*
X122950Y162686D01*
X122755Y162671D01*
X122753Y162671D01*
X108233Y162671D01*
X105245Y163909D01*
X105192Y163963D01*
X105075Y164065D01*
X104966Y164175D01*
X104837Y164276D01*
X104714Y164384D01*
X104586Y164471D01*
X104463Y164566D01*
X104322Y164650D01*
X104187Y164742D01*
X104049Y164813D01*
X103916Y164892D01*
X103765Y164957D01*
X103619Y165032D01*
X103474Y165084D01*
X103331Y165146D01*
X103174Y165192D01*
X103020Y165248D01*
X102869Y165282D01*
X102720Y165325D01*
X102558Y165351D01*
X102398Y165387D01*
X102244Y165402D01*
X102091Y165427D01*
X101927Y165432D01*
X101764Y165448D01*
X101609Y165443D01*
X101454Y165448D01*
X101291Y165433D01*
X101127Y165428D01*
X100974Y165404D01*
X100820Y165390D01*
X100660Y165355D01*
X100498Y165329D01*
X100349Y165286D01*
X100198Y165253D01*
X100044Y165198D01*
X99886Y165152D01*
X99743Y165091D01*
X99597Y165039D01*
X99451Y164965D01*
X99301Y164900D01*
X99167Y164821D01*
X99029Y164751D01*
X98893Y164660D01*
X98752Y164577D01*
X98629Y164482D01*
X98501Y164395D01*
X98381Y164290D01*
X98248Y164187D01*
X98128Y164068D01*
X98008Y163963D01*
X97955Y163909D01*
X94967Y162671D01*
X81233Y162671D01*
X78245Y163909D01*
X75959Y166195D01*
X75675Y166880D01*
X75607Y167019D01*
X75548Y167162D01*
X75467Y167305D01*
X75395Y167452D01*
X75310Y167582D01*
X75233Y167716D01*
X75135Y167848D01*
X75045Y167985D01*
X74945Y168103D01*
X74852Y168227D01*
X74738Y168345D01*
X74632Y168469D01*
X74517Y168574D01*
X74410Y168685D01*
X74282Y168788D01*
X74161Y168898D01*
X74034Y168988D01*
X73913Y169085D01*
X73774Y169171D01*
X73640Y169265D01*
X73503Y169338D01*
X73371Y169419D01*
X73221Y169487D01*
X73077Y169564D01*
X72932Y169619D01*
X72791Y169683D01*
X72634Y169731D01*
X72481Y169789D01*
X72330Y169826D01*
X72182Y169872D01*
X72021Y169900D01*
X71862Y169939D01*
X71707Y169956D01*
X71555Y169983D01*
X71392Y169991D01*
X71228Y170010D01*
X71073Y170007D01*
X70919Y170015D01*
X70755Y170003D01*
X70591Y170000D01*
X70438Y169979D01*
X70283Y169967D01*
X70123Y169934D01*
X69960Y169912D01*
X69811Y169871D01*
X69659Y169840D01*
X69508Y169789D01*
X69346Y169744D01*
X69190Y169680D01*
X69039Y169629D01*
X68417Y169371D01*
X65131Y169371D01*
X65099Y169369D01*
X65067Y169371D01*
X64781Y169349D01*
X64495Y169331D01*
X64463Y169325D01*
X64431Y169323D01*
X64276Y169291D01*
X58327Y169291D01*
X58187Y169320D01*
X58155Y169323D01*
X58123Y169329D01*
X57872Y169345D01*
X57552Y169371D01*
X57510Y169369D01*
X57469Y169371D01*
X54183Y169371D01*
X51195Y170609D01*
X48879Y172925D01*
X48775Y173152D01*
X48762Y173173D01*
X48752Y173194D01*
X48594Y173443D01*
X48439Y173694D01*
X48424Y173712D01*
X48411Y173732D01*
X48223Y173960D01*
X48038Y174189D01*
X48021Y174205D01*
X48005Y174224D01*
X47791Y174426D01*
X47578Y174630D01*
X47559Y174644D01*
X47541Y174660D01*
X47303Y174834D01*
X47066Y175009D01*
X47046Y175021D01*
X47026Y175035D01*
X46768Y175178D01*
X46511Y175322D01*
X46489Y175331D01*
X46468Y175343D01*
X46195Y175452D01*
X45922Y175563D01*
X45898Y175569D01*
X45876Y175578D01*
X45592Y175652D01*
X45306Y175728D01*
X45282Y175732D01*
X45259Y175738D01*
X44967Y175775D01*
X44675Y175815D01*
X44651Y175815D01*
X44627Y175818D01*
X44332Y175819D01*
X44038Y175822D01*
X44014Y175820D01*
X43990Y175820D01*
X43696Y175783D01*
X43405Y175750D01*
X43382Y175744D01*
X43358Y175741D01*
X43072Y175668D01*
X42786Y175598D01*
X42764Y175590D01*
X42741Y175584D01*
X42467Y175476D01*
X42191Y175371D01*
X42170Y175359D01*
X42148Y175351D01*
X41888Y175209D01*
X41629Y175070D01*
X41610Y175056D01*
X41589Y175045D01*
X41470Y174959D01*
X38550Y174959D01*
X38059Y175057D01*
X37597Y175248D01*
X37180Y175527D01*
X36827Y175880D01*
X36548Y176297D01*
X36357Y176759D01*
X36259Y177250D01*
X36259Y177421D01*
X41712Y177421D01*
X41867Y177430D01*
X42022Y177430D01*
X42184Y177450D01*
X42348Y177461D01*
X42500Y177489D01*
X42654Y177509D01*
X42813Y177549D01*
X42974Y177580D01*
X43121Y177628D01*
X43271Y177666D01*
X43424Y177726D01*
X43580Y177776D01*
X43720Y177842D01*
X43864Y177899D01*
X44008Y177978D01*
X44156Y178047D01*
X44287Y178130D01*
X44423Y178205D01*
X44556Y178301D01*
X44695Y178388D01*
X44814Y178487D01*
X44940Y178578D01*
X45059Y178690D01*
X45186Y178794D01*
X45292Y178907D01*
X45405Y179013D01*
X45510Y179139D01*
X45622Y179258D01*
X45714Y179384D01*
X45813Y179503D01*
X45901Y179641D01*
X45997Y179773D01*
X46072Y179909D01*
X46156Y180040D01*
X46226Y180188D01*
X46305Y180331D01*
X46362Y180475D01*
X46429Y180615D01*
X46480Y180771D01*
X46540Y180923D01*
X46579Y181073D01*
X46628Y181221D01*
X46659Y181381D01*
X46700Y181540D01*
X46719Y181694D01*
X46749Y181846D01*
X46759Y182005D01*
X46781Y182172D01*
X46781Y182341D01*
X46791Y182500D01*
X46782Y182655D01*
X46782Y182810D01*
X46762Y182973D01*
X46751Y183136D01*
X46722Y183288D01*
X46703Y183442D01*
X46663Y183601D01*
X46632Y183762D01*
X46584Y183909D01*
X46546Y184059D01*
X46486Y184212D01*
X46435Y184368D01*
X46370Y184508D01*
X46313Y184652D01*
X46234Y184796D01*
X46164Y184945D01*
X46082Y185075D01*
X46007Y185211D01*
X45911Y185344D01*
X45823Y185483D01*
X45725Y185602D01*
X45634Y185728D01*
X45522Y185847D01*
X45418Y185974D01*
X45305Y186080D01*
X45199Y186193D01*
X45073Y186298D01*
X44954Y186411D01*
X44828Y186502D01*
X44709Y186601D01*
X44571Y186689D01*
X44439Y186786D01*
X44303Y186860D01*
X44172Y186944D01*
X44024Y187014D01*
X43881Y187093D01*
X43737Y187150D01*
X43597Y187217D01*
X43441Y187268D01*
X43288Y187329D01*
X43138Y187367D01*
X42991Y187416D01*
X42830Y187447D01*
X42672Y187488D01*
X42518Y187508D01*
X42366Y187537D01*
X42207Y187547D01*
X42040Y187569D01*
X41871Y187569D01*
X41712Y187579D01*
X36259Y187579D01*
X36259Y187750D01*
X36357Y188241D01*
X36548Y188703D01*
X36827Y189120D01*
X37180Y189473D01*
X37597Y189752D01*
X38059Y189943D01*
X38550Y190041D01*
X41712Y190041D01*
X41867Y190050D01*
X42022Y190050D01*
X42184Y190070D01*
X42348Y190081D01*
X42500Y190110D01*
X42654Y190129D01*
X42813Y190169D01*
X42974Y190200D01*
X43121Y190248D01*
X43271Y190286D01*
X43424Y190346D01*
X43580Y190397D01*
X43720Y190462D01*
X43864Y190519D01*
X44008Y190598D01*
X44156Y190668D01*
X44287Y190750D01*
X44423Y190825D01*
X44556Y190921D01*
X44695Y191009D01*
X44814Y191107D01*
X44940Y191198D01*
X45059Y191310D01*
X45186Y191414D01*
X45292Y191527D01*
X45405Y191633D01*
X45510Y191759D01*
X45622Y191878D01*
X45714Y192004D01*
X45813Y192123D01*
X45901Y192261D01*
X45997Y192393D01*
X46072Y192529D01*
X46156Y192660D01*
X46226Y192808D01*
X46305Y192951D01*
X46362Y193095D01*
X46429Y193235D01*
X46480Y193391D01*
X46540Y193544D01*
X46579Y193694D01*
X46628Y193841D01*
X46659Y194002D01*
X46700Y194160D01*
X46719Y194314D01*
X46749Y194466D01*
X46759Y194625D01*
X46781Y194792D01*
X46781Y194961D01*
X46791Y195120D01*
X46791Y211342D01*
X46776Y211579D01*
X46769Y211815D01*
X46756Y211897D01*
X46751Y211978D01*
X46707Y212210D01*
X46670Y212445D01*
X46647Y212524D01*
X46632Y212604D01*
X46559Y212829D01*
X46493Y213057D01*
X46461Y213132D01*
X46435Y213210D01*
X46335Y213424D01*
X46241Y213642D01*
X46199Y213713D01*
X46164Y213787D01*
X46037Y213987D01*
X45917Y214191D01*
X45867Y214255D01*
X45823Y214325D01*
X45673Y214507D01*
X45528Y214695D01*
X45470Y214753D01*
X45418Y214816D01*
X45245Y214978D01*
X45078Y215146D01*
X45013Y215197D01*
X44954Y215253D01*
X44762Y215392D01*
X44575Y215538D01*
X44505Y215580D01*
X44439Y215628D01*
X44231Y215742D01*
X44028Y215863D01*
X43952Y215896D01*
X43881Y215935D01*
X43661Y216023D01*
X43443Y216117D01*
X43365Y216141D01*
X43288Y216171D01*
X43060Y216230D01*
X42832Y216297D01*
X42751Y216310D01*
X42672Y216330D01*
X42437Y216360D01*
X42203Y216398D01*
X42121Y216401D01*
X42040Y216411D01*
X41803Y216411D01*
X41566Y216420D01*
X41485Y216412D01*
X41402Y216412D01*
X41168Y216383D01*
X40932Y216361D01*
X40852Y216344D01*
X40770Y216334D01*
X40541Y216275D01*
X40310Y216224D01*
X40232Y216197D01*
X40153Y216176D01*
X39932Y216090D01*
X39709Y216010D01*
X39636Y215973D01*
X39560Y215943D01*
X39351Y215829D01*
X39141Y215723D01*
X39073Y215677D01*
X39001Y215638D01*
X38809Y215499D01*
X38613Y215366D01*
X38552Y215313D01*
X38484Y215264D01*
X38295Y215087D01*
X38120Y214934D01*
X37528Y214342D01*
X31086Y211673D01*
X24114Y211673D01*
X17184Y214544D01*
X16998Y214607D01*
X16816Y214680D01*
X16697Y214710D01*
X16581Y214750D01*
X16389Y214790D01*
X16200Y214839D01*
X16078Y214855D01*
X15957Y214880D01*
X15762Y214895D01*
X15568Y214920D01*
X15444Y214920D01*
X15322Y214930D01*
X15126Y214921D01*
X14930Y214921D01*
X14808Y214906D01*
X14686Y214900D01*
X14493Y214867D01*
X14298Y214842D01*
X14179Y214812D01*
X14058Y214791D01*
X13871Y214733D01*
X13681Y214685D01*
X13566Y214640D01*
X13449Y214604D01*
X13270Y214524D01*
X13088Y214452D01*
X12980Y214393D01*
X12868Y214342D01*
X12701Y214240D01*
X12529Y214146D01*
X12429Y214074D01*
X12324Y214010D01*
X12171Y213888D01*
X12012Y213773D01*
X11923Y213689D01*
X11826Y213612D01*
X11690Y213472D01*
X11547Y213338D01*
X11468Y213243D01*
X11382Y213155D01*
X11265Y212999D01*
X11139Y212848D01*
X11073Y212745D01*
X10999Y212646D01*
X10902Y212477D01*
X10796Y212311D01*
X10744Y212200D01*
X10683Y212094D01*
X10607Y211913D01*
X10523Y211736D01*
X10485Y211619D01*
X10438Y211505D01*
X10386Y211316D01*
X10324Y211130D01*
X10301Y211010D01*
X10268Y210891D01*
X10240Y210697D01*
X10203Y210505D01*
X10195Y210385D01*
X10177Y210261D01*
X10173Y210048D01*
X10161Y209851D01*
X10161Y15240D01*
X10170Y15085D01*
X10170Y14930D01*
X10190Y14768D01*
X10201Y14604D01*
X10230Y14452D01*
X10249Y14298D01*
X10289Y14139D01*
X10320Y13978D01*
X10368Y13831D01*
X10406Y13681D01*
X10466Y13528D01*
X10517Y13372D01*
X10582Y13232D01*
X10639Y13088D01*
X10718Y12944D01*
X10788Y12796D01*
X10870Y12665D01*
X10945Y12529D01*
X11041Y12396D01*
X11129Y12257D01*
X11227Y12138D01*
X11318Y12012D01*
X11430Y11893D01*
X11534Y11766D01*
X11647Y11660D01*
X11753Y11547D01*
X11879Y11442D01*
X11998Y11330D01*
X12124Y11238D01*
X12243Y11139D01*
X12381Y11051D01*
X12513Y10955D01*
X12649Y10880D01*
X12780Y10796D01*
X12928Y10726D01*
X13071Y10647D01*
X13215Y10590D01*
X13355Y10523D01*
X13511Y10472D01*
X13664Y10412D01*
X13814Y10373D01*
X13961Y10324D01*
X14122Y10293D01*
X14280Y10252D01*
X14434Y10233D01*
X14586Y10203D01*
X14745Y10193D01*
X14912Y10171D01*
X15081Y10171D01*
X15240Y10161D01*
X108880Y10161D01*
X109035Y10170D01*
G37*
G36*
X90455Y225338D02*
X90455Y225338D01*
X90609Y225338D01*
X90610Y225338D01*
X90773Y225358D01*
X90936Y225369D01*
X91088Y225398D01*
X91242Y225417D01*
X91401Y225457D01*
X91562Y225488D01*
X91709Y225536D01*
X91859Y225574D01*
X92012Y225634D01*
X92168Y225685D01*
X92308Y225750D01*
X92452Y225807D01*
X92596Y225886D01*
X92745Y225956D01*
X92875Y226038D01*
X93011Y226113D01*
X93144Y226209D01*
X93283Y226297D01*
X93402Y226395D01*
X93528Y226486D01*
X93647Y226598D01*
X93774Y226702D01*
X93880Y226815D01*
X93993Y226921D01*
X94098Y227047D01*
X94211Y227166D01*
X94302Y227292D01*
X94401Y227411D01*
X94489Y227549D01*
X94586Y227681D01*
X94660Y227817D01*
X94744Y227948D01*
X94814Y228096D01*
X94893Y228239D01*
X94950Y228383D01*
X95017Y228523D01*
X95068Y228679D01*
X95129Y228832D01*
X95167Y228982D01*
X95216Y229129D01*
X95247Y229290D01*
X95288Y229448D01*
X95308Y229602D01*
X95337Y229754D01*
X95347Y229913D01*
X95369Y230080D01*
X95369Y230249D01*
X95379Y230408D01*
X95379Y236741D01*
X95550Y236741D01*
X95877Y236676D01*
X96118Y236611D01*
X96426Y236484D01*
X96642Y236359D01*
X96920Y236174D01*
X97273Y235820D01*
X97459Y235542D01*
X97668Y235181D01*
X97841Y234535D01*
X97841Y230000D01*
X97842Y229995D01*
X97841Y229990D01*
X97862Y229897D01*
X97880Y229804D01*
X97883Y229799D01*
X97884Y229794D01*
X97940Y229716D01*
X97993Y229638D01*
X97997Y229635D01*
X98000Y229631D01*
X98082Y229580D01*
X98161Y229528D01*
X98166Y229528D01*
X98171Y229525D01*
X98348Y229493D01*
X105252Y229493D01*
X105257Y229494D01*
X105262Y229493D01*
X105355Y229514D01*
X105449Y229532D01*
X105453Y229535D01*
X105458Y229536D01*
X105536Y229592D01*
X105614Y229645D01*
X105617Y229649D01*
X105621Y229652D01*
X105672Y229734D01*
X105724Y229813D01*
X105724Y229818D01*
X105727Y229823D01*
X105759Y230000D01*
X105759Y234035D01*
X105932Y234681D01*
X106163Y235080D01*
X106190Y235116D01*
X106327Y235320D01*
X106680Y235674D01*
X106958Y235859D01*
X107174Y235984D01*
X107482Y236111D01*
X107723Y236176D01*
X108050Y236241D01*
X108221Y236241D01*
X108221Y233400D01*
X108224Y233343D01*
X108222Y233286D01*
X108244Y233025D01*
X108261Y232764D01*
X108271Y232708D01*
X108276Y232651D01*
X108331Y232395D01*
X108380Y232139D01*
X108397Y232084D01*
X108409Y232028D01*
X108496Y231782D01*
X108576Y231533D01*
X108601Y231480D01*
X108620Y231427D01*
X108736Y231193D01*
X108847Y230956D01*
X108878Y230907D01*
X108904Y230856D01*
X109048Y230639D01*
X109188Y230418D01*
X109225Y230373D01*
X109257Y230326D01*
X109427Y230129D01*
X109594Y229926D01*
X109636Y229887D01*
X109673Y229844D01*
X109868Y229669D01*
X110058Y229490D01*
X110105Y229456D01*
X110147Y229418D01*
X110362Y229268D01*
X110573Y229115D01*
X110623Y229087D01*
X110671Y229054D01*
X110903Y228933D01*
X111131Y228807D01*
X111184Y228786D01*
X111235Y228760D01*
X111481Y228668D01*
X111723Y228572D01*
X111779Y228558D01*
X111833Y228538D01*
X112088Y228478D01*
X112340Y228413D01*
X112397Y228405D01*
X112453Y228392D01*
X112713Y228365D01*
X112972Y228332D01*
X113030Y228332D01*
X113087Y228326D01*
X113348Y228331D01*
X113609Y228330D01*
X113666Y228338D01*
X113724Y228339D01*
X113982Y228377D01*
X114242Y228409D01*
X114297Y228423D01*
X114354Y228432D01*
X114606Y228502D01*
X114859Y228566D01*
X114912Y228587D01*
X114968Y228603D01*
X115190Y228697D01*
X115452Y228800D01*
X115511Y228832D01*
X115571Y228857D01*
X115572Y228857D01*
X115789Y228984D01*
X116011Y229105D01*
X116065Y229144D01*
X116123Y229178D01*
X116323Y229330D01*
X116528Y229479D01*
X116576Y229524D01*
X116629Y229564D01*
X116809Y229741D01*
X116993Y229913D01*
X117036Y229965D01*
X117083Y230011D01*
X117239Y230209D01*
X117401Y230403D01*
X117437Y230459D01*
X117478Y230511D01*
X117608Y230728D01*
X117744Y230940D01*
X117772Y231000D01*
X117806Y231057D01*
X117908Y231287D01*
X118017Y231516D01*
X118038Y231579D01*
X118064Y231640D01*
X118137Y231881D01*
X118216Y232121D01*
X118228Y232186D01*
X118247Y232250D01*
X118289Y232499D01*
X118337Y232747D01*
X118341Y232812D01*
X118352Y232878D01*
X118364Y233159D01*
X118379Y233400D01*
X118379Y236241D01*
X118550Y236241D01*
X118877Y236176D01*
X119118Y236111D01*
X119426Y235984D01*
X119642Y235859D01*
X119920Y235674D01*
X120274Y235320D01*
X120459Y235042D01*
X120584Y234826D01*
X120711Y234519D01*
X120841Y234035D01*
X120841Y231176D01*
X120842Y231171D01*
X120841Y231166D01*
X120862Y231073D01*
X120880Y230979D01*
X120883Y230975D01*
X120884Y230970D01*
X120940Y230892D01*
X120993Y230814D01*
X120997Y230811D01*
X121000Y230807D01*
X121082Y230756D01*
X121161Y230704D01*
X121166Y230704D01*
X121171Y230701D01*
X121348Y230669D01*
X134471Y230669D01*
X134749Y230686D01*
X135026Y230699D01*
X135066Y230706D01*
X135107Y230709D01*
X135380Y230761D01*
X135654Y230808D01*
X135693Y230820D01*
X135733Y230828D01*
X135997Y230914D01*
X136263Y230995D01*
X136300Y231012D01*
X136339Y231025D01*
X136591Y231143D01*
X136844Y231257D01*
X136879Y231278D01*
X136916Y231296D01*
X137150Y231444D01*
X137387Y231589D01*
X137419Y231615D01*
X137454Y231637D01*
X137668Y231814D01*
X137885Y231987D01*
X137913Y232016D01*
X137945Y232042D01*
X138135Y232245D01*
X138329Y232444D01*
X138354Y232477D01*
X138382Y232506D01*
X138545Y232731D01*
X138712Y232953D01*
X138733Y232988D01*
X138757Y233021D01*
X138891Y233264D01*
X139029Y233506D01*
X139045Y233544D01*
X139064Y233579D01*
X139167Y233838D01*
X139274Y234094D01*
X139285Y234133D01*
X139300Y234172D01*
X139369Y234441D01*
X139443Y234708D01*
X139449Y234749D01*
X139459Y234788D01*
X139494Y235065D01*
X139534Y235339D01*
X139535Y235379D01*
X139540Y235420D01*
X139541Y235698D01*
X139546Y235976D01*
X139541Y236017D01*
X139541Y236058D01*
X139507Y236333D01*
X139477Y236609D01*
X139468Y236649D01*
X139463Y236690D01*
X139394Y236959D01*
X139330Y237229D01*
X139315Y237268D01*
X139305Y237307D01*
X139204Y237566D01*
X139106Y237826D01*
X139087Y237862D01*
X139072Y237900D01*
X138938Y238145D01*
X138810Y238390D01*
X138786Y238423D01*
X138767Y238459D01*
X138604Y238685D01*
X138445Y238912D01*
X138417Y238942D01*
X138393Y238976D01*
X138204Y239178D01*
X138017Y239384D01*
X137986Y239411D01*
X137958Y239441D01*
X137745Y239619D01*
X137534Y239800D01*
X137500Y239822D01*
X137469Y239849D01*
X137235Y239998D01*
X137003Y240151D01*
X136967Y240169D01*
X136932Y240192D01*
X136640Y240330D01*
X136415Y240441D01*
X134818Y241102D01*
X131102Y244818D01*
X129091Y249673D01*
X129091Y269673D01*
X129120Y269814D01*
X129123Y269845D01*
X129129Y269877D01*
X129145Y270128D01*
X129171Y270449D01*
X129169Y270491D01*
X129171Y270531D01*
X129171Y273817D01*
X130409Y276805D01*
X132081Y278477D01*
X167000Y278477D01*
X167026Y278480D01*
X167052Y278478D01*
X167199Y278500D01*
X167346Y278517D01*
X167371Y278525D01*
X167397Y278529D01*
X167535Y278584D01*
X167674Y278634D01*
X167696Y278648D01*
X167721Y278658D01*
X167842Y278743D01*
X167967Y278823D01*
X167985Y278842D01*
X168007Y278857D01*
X168106Y278967D01*
X168209Y279074D01*
X168223Y279096D01*
X168240Y279116D01*
X168312Y279246D01*
X168388Y279373D01*
X168396Y279398D01*
X168409Y279421D01*
X168449Y279564D01*
X168494Y279705D01*
X168496Y279731D01*
X168504Y279756D01*
X168523Y280000D01*
X168523Y300369D01*
X169077Y300923D01*
X169139Y301001D01*
X169209Y301074D01*
X169248Y301138D01*
X169294Y301196D01*
X169337Y301287D01*
X169388Y301373D01*
X169411Y301444D01*
X169443Y301511D01*
X169464Y301609D01*
X169494Y301705D01*
X169500Y301779D01*
X169516Y301852D01*
X169514Y301952D01*
X169522Y302052D01*
X169511Y302126D01*
X169510Y302200D01*
X169486Y302297D01*
X169471Y302397D01*
X169443Y302466D01*
X169425Y302538D01*
X169379Y302628D01*
X169342Y302721D01*
X169300Y302782D01*
X169265Y302848D01*
X169200Y302925D01*
X169143Y303007D01*
X169088Y303057D01*
X169040Y303113D01*
X168959Y303173D01*
X168884Y303240D01*
X168819Y303276D01*
X168759Y303321D01*
X168667Y303360D01*
X168579Y303409D01*
X168508Y303429D01*
X168439Y303459D01*
X168341Y303476D01*
X168244Y303504D01*
X168144Y303512D01*
X168096Y303520D01*
X168061Y303518D01*
X168000Y303523D01*
X111000Y303523D01*
X110874Y303509D01*
X110748Y303502D01*
X110702Y303489D01*
X110654Y303483D01*
X110535Y303441D01*
X110413Y303406D01*
X110371Y303382D01*
X110326Y303366D01*
X110219Y303297D01*
X110109Y303236D01*
X110063Y303196D01*
X110033Y303177D01*
X109999Y303142D01*
X109923Y303077D01*
X108923Y302077D01*
X108844Y301978D01*
X108760Y301884D01*
X108736Y301842D01*
X108706Y301804D01*
X108652Y301690D01*
X108591Y301579D01*
X108578Y301533D01*
X108557Y301489D01*
X108531Y301366D01*
X108496Y301244D01*
X108492Y301183D01*
X108484Y301148D01*
X108485Y301100D01*
X108477Y301000D01*
X108477Y279000D01*
X108488Y278900D01*
X108490Y278800D01*
X108508Y278728D01*
X108517Y278654D01*
X108550Y278559D01*
X108575Y278462D01*
X108609Y278396D01*
X108634Y278326D01*
X108684Y278248D01*
X107625Y277189D01*
X107601Y277179D01*
X107355Y277058D01*
X107106Y276942D01*
X107068Y276918D01*
X107028Y276899D01*
X106800Y276749D01*
X106567Y276602D01*
X106533Y276573D01*
X106496Y276549D01*
X106287Y276371D01*
X106076Y276197D01*
X106045Y276164D01*
X106011Y276135D01*
X105826Y275933D01*
X105638Y275733D01*
X105612Y275697D01*
X105582Y275664D01*
X105424Y275440D01*
X105263Y275219D01*
X105241Y275180D01*
X105215Y275143D01*
X105087Y274901D01*
X104954Y274661D01*
X104938Y274620D01*
X104917Y274580D01*
X104819Y274323D01*
X104718Y274070D01*
X104707Y274027D01*
X104691Y273985D01*
X104627Y273717D01*
X104558Y273453D01*
X104552Y273409D01*
X104542Y273365D01*
X104511Y273093D01*
X104476Y272821D01*
X104476Y272776D01*
X104471Y272732D01*
X104475Y272459D01*
X104474Y272184D01*
X104479Y272139D01*
X104480Y272095D01*
X104518Y271824D01*
X104524Y271779D01*
X95400Y271779D01*
X95246Y271770D01*
X95091Y271770D01*
X94928Y271750D01*
X94764Y271739D01*
X94613Y271710D01*
X94459Y271691D01*
X94299Y271651D01*
X94139Y271620D01*
X93991Y271572D01*
X93841Y271534D01*
X93689Y271474D01*
X93533Y271424D01*
X93392Y271358D01*
X93248Y271301D01*
X93104Y271222D01*
X92956Y271153D01*
X92825Y271070D01*
X92689Y270995D01*
X92556Y270899D01*
X92418Y270811D01*
X92298Y270713D01*
X92173Y270622D01*
X92053Y270510D01*
X91927Y270406D01*
X91926Y270405D01*
X91820Y270292D01*
X91707Y270187D01*
X91602Y270061D01*
X91489Y269941D01*
X91398Y269816D01*
X91299Y269697D01*
X91211Y269559D01*
X91114Y269426D01*
X91040Y269291D01*
X90956Y269160D01*
X90886Y269012D01*
X90807Y268868D01*
X90750Y268724D01*
X90683Y268584D01*
X90632Y268428D01*
X90571Y268276D01*
X90533Y268126D01*
X90484Y267979D01*
X90453Y267818D01*
X90412Y267659D01*
X90392Y267506D01*
X90363Y267354D01*
X90353Y267195D01*
X90331Y267027D01*
X90331Y266859D01*
X90321Y266700D01*
X90321Y257884D01*
X90075Y258010D01*
X88781Y258950D01*
X87650Y260081D01*
X86710Y261375D01*
X85984Y262800D01*
X85662Y263791D01*
X85618Y263900D01*
X85584Y264013D01*
X85501Y264196D01*
X85427Y264383D01*
X85371Y264486D01*
X85322Y264594D01*
X85217Y264765D01*
X85120Y264942D01*
X85051Y265037D01*
X84990Y265137D01*
X84864Y265294D01*
X84746Y265457D01*
X84665Y265543D01*
X84592Y265635D01*
X84448Y265775D01*
X84310Y265922D01*
X84220Y265997D01*
X84135Y266079D01*
X83974Y266200D01*
X83819Y266328D01*
X83720Y266391D01*
X83626Y266462D01*
X83452Y266562D01*
X83282Y266670D01*
X83175Y266720D01*
X83073Y266779D01*
X82887Y266856D01*
X82706Y266942D01*
X82594Y266978D01*
X82485Y267024D01*
X82291Y267077D01*
X82100Y267139D01*
X81984Y267162D01*
X81871Y267193D01*
X81672Y267222D01*
X81474Y267260D01*
X81357Y267267D01*
X81240Y267284D01*
X81039Y267288D01*
X80838Y267300D01*
X80721Y267293D01*
X80603Y267295D01*
X80403Y267274D01*
X80202Y267261D01*
X80087Y267240D01*
X79970Y267227D01*
X79774Y267180D01*
X79576Y267143D01*
X79465Y267107D01*
X79350Y267080D01*
X79161Y267009D01*
X78970Y266947D01*
X78863Y266897D01*
X78753Y266856D01*
X78575Y266763D01*
X78393Y266677D01*
X78294Y266614D01*
X78189Y266560D01*
X78025Y266444D01*
X77854Y266337D01*
X77763Y266262D01*
X77667Y266195D01*
X77518Y266060D01*
X77363Y265932D01*
X77282Y265846D01*
X77195Y265767D01*
X77063Y265615D01*
X76925Y265468D01*
X76856Y265373D01*
X76779Y265284D01*
X76668Y265116D01*
X76549Y264954D01*
X76493Y264851D01*
X76428Y264753D01*
X76342Y264579D01*
X76241Y264396D01*
X76193Y264276D01*
X76138Y264165D01*
X74991Y261395D01*
X72547Y258952D01*
X72382Y258920D01*
X72381Y258920D01*
X72380Y258920D01*
X72327Y258902D01*
X71776Y258724D01*
X71776Y258723D01*
X71775Y258723D01*
X71766Y258719D01*
X71758Y258716D01*
X71757Y258716D01*
X71481Y258585D01*
X71199Y258452D01*
X71190Y258447D01*
X71181Y258443D01*
X70925Y258279D01*
X70661Y258111D01*
X70653Y258105D01*
X70644Y258099D01*
X70404Y257899D01*
X70169Y257705D01*
X70162Y257698D01*
X70155Y257692D01*
X69943Y257465D01*
X69733Y257241D01*
X69727Y257233D01*
X69720Y257226D01*
X69540Y256976D01*
X69358Y256726D01*
X69353Y256717D01*
X69347Y256709D01*
X69200Y256441D01*
X69050Y256168D01*
X69046Y256159D01*
X69042Y256150D01*
X68928Y255860D01*
X68815Y255576D01*
X68812Y255567D01*
X68809Y255557D01*
X68732Y255257D01*
X68655Y254959D01*
X68654Y254949D01*
X68652Y254940D01*
X68614Y254633D01*
X68574Y254327D01*
X68574Y254317D01*
X68573Y254307D01*
X68574Y253998D01*
X68573Y253690D01*
X68575Y253680D01*
X68575Y253670D01*
X68614Y253367D01*
X68652Y253058D01*
X68654Y253048D01*
X68656Y253038D01*
X68733Y252741D01*
X68809Y252441D01*
X68813Y252431D01*
X68815Y252422D01*
X68930Y252132D01*
X69042Y251848D01*
X69047Y251839D01*
X69051Y251830D01*
X69198Y251563D01*
X69348Y251289D01*
X69354Y251280D01*
X69359Y251272D01*
X69539Y251025D01*
X69721Y250772D01*
X69728Y250765D01*
X69734Y250757D01*
X69948Y250530D01*
X70156Y250307D01*
X70164Y250300D01*
X70171Y250293D01*
X70408Y250097D01*
X70641Y249903D01*
X70641Y248750D01*
X70543Y248259D01*
X70352Y247797D01*
X70073Y247380D01*
X69720Y247027D01*
X69304Y246748D01*
X68493Y246413D01*
X68243Y246290D01*
X67992Y246172D01*
X67957Y246150D01*
X67921Y246132D01*
X67688Y245980D01*
X67454Y245831D01*
X67422Y245805D01*
X67388Y245783D01*
X67176Y245602D01*
X66963Y245426D01*
X66935Y245396D01*
X66903Y245369D01*
X66716Y245164D01*
X66526Y244962D01*
X66502Y244928D01*
X66474Y244898D01*
X66314Y244671D01*
X66151Y244446D01*
X66131Y244411D01*
X66108Y244377D01*
X65977Y244131D01*
X65843Y243889D01*
X65828Y243850D01*
X65809Y243814D01*
X65711Y243555D01*
X65608Y243296D01*
X65598Y243257D01*
X65583Y243218D01*
X65518Y242949D01*
X65449Y242680D01*
X65443Y242639D01*
X65434Y242599D01*
X65403Y242324D01*
X65368Y242048D01*
X65368Y242006D01*
X65363Y241966D01*
X65367Y241689D01*
X65367Y241410D01*
X65372Y241370D01*
X65372Y241329D01*
X65411Y241055D01*
X65445Y240778D01*
X65455Y240738D01*
X65461Y240698D01*
X65513Y240507D01*
X60000Y240507D01*
X59997Y240507D01*
X59995Y240507D01*
X59900Y240487D01*
X59804Y240468D01*
X59801Y240466D01*
X59799Y240466D01*
X59718Y240410D01*
X59638Y240355D01*
X59636Y240353D01*
X59634Y240351D01*
X59581Y240268D01*
X59528Y240187D01*
X59528Y240184D01*
X59527Y240182D01*
X59510Y240086D01*
X59493Y239990D01*
X59493Y239987D01*
X59493Y239985D01*
X59515Y239891D01*
X59536Y239794D01*
X59538Y239792D01*
X59539Y239789D01*
X59641Y239641D01*
X62493Y236789D01*
X62500Y236785D01*
X62504Y236779D01*
X62583Y236730D01*
X62660Y236678D01*
X62668Y236677D01*
X62675Y236673D01*
X62852Y236641D01*
X66285Y236641D01*
X66285Y230000D01*
X66286Y229995D01*
X66285Y229990D01*
X66306Y229897D01*
X66324Y229804D01*
X66327Y229799D01*
X66328Y229794D01*
X66384Y229716D01*
X66437Y229638D01*
X66441Y229635D01*
X66444Y229631D01*
X66526Y229580D01*
X66605Y229528D01*
X66610Y229528D01*
X66615Y229525D01*
X66792Y229493D01*
X67808Y229493D01*
X67813Y229494D01*
X67818Y229493D01*
X67911Y229514D01*
X68004Y229532D01*
X68009Y229535D01*
X68014Y229536D01*
X68092Y229592D01*
X68170Y229645D01*
X68173Y229649D01*
X68177Y229652D01*
X68228Y229734D01*
X68279Y229813D01*
X68280Y229818D01*
X68283Y229823D01*
X68315Y230000D01*
X68315Y236641D01*
X72550Y236641D01*
X72877Y236576D01*
X73118Y236511D01*
X73426Y236384D01*
X73642Y236259D01*
X73920Y236074D01*
X74273Y235720D01*
X74459Y235442D01*
X74668Y235081D01*
X74841Y234435D01*
X74841Y230000D01*
X74842Y229995D01*
X74841Y229990D01*
X74862Y229897D01*
X74880Y229804D01*
X74883Y229799D01*
X74884Y229794D01*
X74940Y229716D01*
X74993Y229638D01*
X74997Y229635D01*
X75000Y229631D01*
X75082Y229580D01*
X75161Y229528D01*
X75166Y229528D01*
X75171Y229525D01*
X75348Y229493D01*
X82252Y229493D01*
X82257Y229494D01*
X82262Y229493D01*
X82355Y229514D01*
X82449Y229532D01*
X82453Y229535D01*
X82458Y229536D01*
X82536Y229592D01*
X82614Y229645D01*
X82617Y229649D01*
X82621Y229652D01*
X82672Y229734D01*
X82724Y229813D01*
X82724Y229818D01*
X82727Y229823D01*
X82759Y230000D01*
X82759Y234535D01*
X82932Y235181D01*
X83141Y235542D01*
X83326Y235820D01*
X83680Y236174D01*
X83958Y236359D01*
X84174Y236484D01*
X84482Y236611D01*
X84723Y236676D01*
X85050Y236741D01*
X85221Y236741D01*
X85221Y230408D01*
X85230Y230253D01*
X85230Y230098D01*
X85250Y229936D01*
X85261Y229772D01*
X85289Y229620D01*
X85309Y229466D01*
X85349Y229307D01*
X85380Y229146D01*
X85428Y228999D01*
X85466Y228849D01*
X85526Y228696D01*
X85576Y228540D01*
X85642Y228400D01*
X85699Y228256D01*
X85778Y228112D01*
X85847Y227964D01*
X85930Y227833D01*
X86005Y227697D01*
X86101Y227564D01*
X86188Y227425D01*
X86287Y227306D01*
X86378Y227180D01*
X86490Y227061D01*
X86594Y226934D01*
X86707Y226828D01*
X86813Y226715D01*
X86939Y226610D01*
X87058Y226498D01*
X87184Y226406D01*
X87303Y226307D01*
X87441Y226219D01*
X87573Y226123D01*
X87709Y226048D01*
X87840Y225964D01*
X87988Y225894D01*
X88131Y225815D01*
X88275Y225758D01*
X88415Y225691D01*
X88571Y225640D01*
X88723Y225580D01*
X88873Y225541D01*
X89021Y225492D01*
X89181Y225461D01*
X89340Y225420D01*
X89494Y225401D01*
X89646Y225371D01*
X89805Y225361D01*
X89972Y225339D01*
X90141Y225339D01*
X90300Y225329D01*
X90455Y225338D01*
G37*
G36*
X654915Y238073D02*
X654915Y238073D01*
X655070Y238073D01*
X655232Y238093D01*
X655396Y238104D01*
X655548Y238133D01*
X655702Y238152D01*
X655861Y238192D01*
X656022Y238223D01*
X656169Y238271D01*
X656319Y238309D01*
X656472Y238369D01*
X656628Y238420D01*
X656768Y238485D01*
X656912Y238542D01*
X657056Y238621D01*
X657204Y238691D01*
X657335Y238773D01*
X657471Y238848D01*
X657604Y238944D01*
X657743Y239032D01*
X657862Y239130D01*
X657988Y239221D01*
X658107Y239333D01*
X658234Y239437D01*
X658340Y239550D01*
X658453Y239656D01*
X658558Y239782D01*
X658670Y239901D01*
X658762Y240027D01*
X658861Y240146D01*
X658949Y240284D01*
X659045Y240416D01*
X659120Y240552D01*
X659204Y240683D01*
X659274Y240831D01*
X659353Y240974D01*
X659410Y241118D01*
X659477Y241258D01*
X659528Y241414D01*
X659588Y241567D01*
X659627Y241717D01*
X659676Y241864D01*
X659707Y242025D01*
X659748Y242183D01*
X659767Y242337D01*
X659797Y242489D01*
X659807Y242648D01*
X659829Y242815D01*
X659829Y242984D01*
X659839Y243143D01*
X659839Y304760D01*
X659830Y304915D01*
X659830Y305070D01*
X659810Y305232D01*
X659799Y305396D01*
X659770Y305548D01*
X659751Y305702D01*
X659711Y305861D01*
X659680Y306022D01*
X659632Y306169D01*
X659594Y306319D01*
X659534Y306472D01*
X659483Y306628D01*
X659418Y306768D01*
X659361Y306912D01*
X659282Y307056D01*
X659212Y307204D01*
X659130Y307335D01*
X659055Y307471D01*
X658959Y307604D01*
X658871Y307743D01*
X658773Y307862D01*
X658682Y307988D01*
X658570Y308107D01*
X658466Y308234D01*
X658353Y308340D01*
X658247Y308453D01*
X658121Y308558D01*
X658002Y308670D01*
X657876Y308762D01*
X657757Y308861D01*
X657619Y308949D01*
X657487Y309045D01*
X657351Y309120D01*
X657220Y309204D01*
X657072Y309274D01*
X656929Y309353D01*
X656785Y309410D01*
X656645Y309477D01*
X656489Y309528D01*
X656336Y309588D01*
X656186Y309627D01*
X656039Y309676D01*
X655878Y309707D01*
X655720Y309748D01*
X655566Y309767D01*
X655414Y309797D01*
X655255Y309807D01*
X655088Y309829D01*
X654919Y309829D01*
X654760Y309839D01*
X648280Y309839D01*
X648085Y309827D01*
X647889Y309824D01*
X647767Y309807D01*
X647644Y309799D01*
X647452Y309763D01*
X647258Y309735D01*
X647139Y309703D01*
X647019Y309680D01*
X646832Y309620D01*
X646643Y309568D01*
X646529Y309521D01*
X646413Y309483D01*
X646235Y309400D01*
X646054Y309325D01*
X645947Y309265D01*
X645836Y309212D01*
X645670Y309107D01*
X645500Y309011D01*
X645402Y308937D01*
X645298Y308871D01*
X645147Y308747D01*
X644990Y308629D01*
X644901Y308544D01*
X644806Y308466D01*
X644672Y308323D01*
X644531Y308187D01*
X644454Y308091D01*
X644370Y308002D01*
X644255Y307843D01*
X644132Y307691D01*
X644067Y307586D01*
X643995Y307487D01*
X643900Y307315D01*
X643798Y307148D01*
X643747Y307036D01*
X643687Y306929D01*
X643615Y306746D01*
X643534Y306568D01*
X643497Y306451D01*
X643452Y306336D01*
X643403Y306147D01*
X643345Y305960D01*
X643323Y305839D01*
X643293Y305720D01*
X643268Y305525D01*
X643233Y305332D01*
X643227Y305210D01*
X643212Y305088D01*
X643211Y304891D01*
X643201Y304696D01*
X643211Y304574D01*
X643210Y304450D01*
X643235Y304256D01*
X643249Y304061D01*
X643274Y303940D01*
X643289Y303818D01*
X643337Y303628D01*
X643377Y303436D01*
X643415Y303323D01*
X643446Y303201D01*
X643524Y303003D01*
X643588Y302816D01*
X643743Y302441D01*
X643841Y301950D01*
X643841Y301779D01*
X637508Y301779D01*
X637353Y301770D01*
X637198Y301770D01*
X637036Y301750D01*
X636872Y301739D01*
X636720Y301710D01*
X636566Y301691D01*
X636407Y301651D01*
X636246Y301620D01*
X636099Y301572D01*
X635949Y301534D01*
X635796Y301474D01*
X635640Y301424D01*
X635500Y301358D01*
X635356Y301301D01*
X635212Y301222D01*
X635064Y301153D01*
X634933Y301070D01*
X634797Y300995D01*
X634664Y300899D01*
X634525Y300811D01*
X634406Y300713D01*
X634280Y300622D01*
X634161Y300510D01*
X634034Y300406D01*
X633928Y300293D01*
X633815Y300187D01*
X633710Y300061D01*
X633598Y299942D01*
X633506Y299816D01*
X633407Y299697D01*
X633319Y299559D01*
X633223Y299427D01*
X633148Y299291D01*
X633064Y299160D01*
X632994Y299012D01*
X632915Y298869D01*
X632858Y298725D01*
X632791Y298585D01*
X632740Y298429D01*
X632680Y298277D01*
X632641Y298127D01*
X632592Y297979D01*
X632561Y297819D01*
X632520Y297660D01*
X632501Y297506D01*
X632471Y297354D01*
X632461Y297195D01*
X632439Y297028D01*
X632439Y296859D01*
X632429Y296700D01*
X632438Y296545D01*
X632438Y296391D01*
X632438Y296390D01*
X632458Y296227D01*
X632469Y296064D01*
X632498Y295912D01*
X632517Y295758D01*
X632557Y295599D01*
X632588Y295438D01*
X632636Y295291D01*
X632674Y295141D01*
X632734Y294988D01*
X632785Y294832D01*
X632850Y294692D01*
X632907Y294548D01*
X632986Y294404D01*
X633056Y294255D01*
X633138Y294125D01*
X633213Y293989D01*
X633309Y293856D01*
X633397Y293717D01*
X633495Y293598D01*
X633586Y293472D01*
X633698Y293352D01*
X633802Y293226D01*
X633915Y293120D01*
X634021Y293007D01*
X634147Y292902D01*
X634266Y292789D01*
X634392Y292698D01*
X634511Y292599D01*
X634649Y292511D01*
X634781Y292414D01*
X634917Y292340D01*
X635048Y292256D01*
X635196Y292186D01*
X635339Y292107D01*
X635483Y292050D01*
X635623Y291983D01*
X635779Y291932D01*
X635932Y291871D01*
X636082Y291833D01*
X636229Y291784D01*
X636390Y291753D01*
X636548Y291712D01*
X636702Y291692D01*
X636854Y291663D01*
X637013Y291653D01*
X637180Y291631D01*
X637349Y291631D01*
X637508Y291621D01*
X643841Y291621D01*
X643841Y291450D01*
X643743Y290959D01*
X643552Y290497D01*
X643273Y290080D01*
X642920Y289727D01*
X642503Y289448D01*
X642041Y289257D01*
X641550Y289159D01*
X638631Y289159D01*
X638527Y289235D01*
X638506Y289247D01*
X638486Y289261D01*
X638227Y289400D01*
X637969Y289543D01*
X637946Y289552D01*
X637925Y289563D01*
X637650Y289669D01*
X637377Y289778D01*
X637354Y289784D01*
X637331Y289793D01*
X637045Y289864D01*
X636760Y289937D01*
X636736Y289941D01*
X636713Y289946D01*
X636421Y289981D01*
X636128Y290018D01*
X636104Y290018D01*
X636080Y290021D01*
X635786Y290019D01*
X635491Y290020D01*
X635467Y290017D01*
X635443Y290016D01*
X635150Y289977D01*
X634858Y289941D01*
X634835Y289935D01*
X634812Y289932D01*
X634525Y289856D01*
X634241Y289784D01*
X634219Y289775D01*
X634196Y289769D01*
X633923Y289659D01*
X633648Y289550D01*
X633627Y289539D01*
X633605Y289530D01*
X633349Y289387D01*
X633089Y289245D01*
X633070Y289231D01*
X633049Y289219D01*
X632811Y289044D01*
X632573Y288872D01*
X632555Y288855D01*
X632536Y288841D01*
X632322Y288637D01*
X632107Y288437D01*
X632092Y288418D01*
X632074Y288402D01*
X631887Y288173D01*
X631699Y287947D01*
X631687Y287927D01*
X631672Y287908D01*
X631515Y287658D01*
X631357Y287410D01*
X631346Y287388D01*
X631334Y287368D01*
X631230Y287144D01*
X631222Y287126D01*
X630488Y286392D01*
X630439Y286337D01*
X630386Y286287D01*
X630229Y286098D01*
X630066Y285914D01*
X630025Y285854D01*
X629979Y285798D01*
X629846Y285590D01*
X629708Y285387D01*
X629675Y285322D01*
X629636Y285261D01*
X629530Y285038D01*
X629419Y284820D01*
X629394Y284751D01*
X629363Y284685D01*
X629286Y284451D01*
X629202Y284220D01*
X629186Y284149D01*
X629164Y284080D01*
X629117Y283838D01*
X629063Y283599D01*
X629056Y283526D01*
X629042Y283454D01*
X629027Y283223D01*
X629003Y282964D01*
X629005Y282881D01*
X629000Y282800D01*
X629000Y267768D01*
X627530Y264220D01*
X624101Y260791D01*
X610045Y246735D01*
X609888Y246557D01*
X609726Y246385D01*
X609678Y246318D01*
X609623Y246257D01*
X609490Y246061D01*
X609351Y245869D01*
X609311Y245798D01*
X609265Y245730D01*
X609157Y245519D01*
X609043Y245312D01*
X609013Y245235D01*
X608976Y245162D01*
X608895Y244939D01*
X608808Y244719D01*
X608787Y244640D01*
X608760Y244563D01*
X608708Y244332D01*
X608648Y244103D01*
X608638Y244021D01*
X608620Y243941D01*
X608598Y243706D01*
X608568Y243471D01*
X608567Y243388D01*
X608560Y243307D01*
X608567Y243071D01*
X608566Y242833D01*
X608577Y242752D01*
X608579Y242670D01*
X608616Y242436D01*
X608645Y242201D01*
X608665Y242122D01*
X608678Y242041D01*
X608744Y241813D01*
X608802Y241584D01*
X608832Y241508D01*
X608855Y241429D01*
X608949Y241211D01*
X609035Y240991D01*
X609075Y240919D01*
X609107Y240844D01*
X609227Y240640D01*
X609341Y240432D01*
X609389Y240365D01*
X609431Y240295D01*
X609576Y240107D01*
X609714Y239915D01*
X609770Y239856D01*
X609821Y239791D01*
X609988Y239623D01*
X610149Y239450D01*
X610212Y239397D01*
X610270Y239339D01*
X610457Y239194D01*
X610639Y239042D01*
X610708Y238998D01*
X610773Y238948D01*
X610977Y238827D01*
X611176Y238699D01*
X611250Y238664D01*
X611321Y238622D01*
X611537Y238528D01*
X611752Y238426D01*
X611830Y238401D01*
X611905Y238368D01*
X612132Y238301D01*
X612357Y238227D01*
X612437Y238212D01*
X612516Y238189D01*
X612750Y238151D01*
X612982Y238106D01*
X613063Y238101D01*
X613145Y238088D01*
X613405Y238079D01*
X613636Y238064D01*
X654760Y238064D01*
X654915Y238073D01*
G37*
G36*
X173300Y198932D02*
X173300Y198932D01*
X173496Y198929D01*
X173618Y198942D01*
X173741Y198946D01*
X173935Y198976D01*
X174129Y198997D01*
X174249Y199025D01*
X174371Y199045D01*
X174559Y199099D01*
X174749Y199144D01*
X174864Y199187D01*
X174983Y199222D01*
X175163Y199299D01*
X175346Y199368D01*
X175455Y199425D01*
X175568Y199474D01*
X175737Y199573D01*
X175910Y199664D01*
X176010Y199735D01*
X176117Y199797D01*
X176272Y199917D01*
X176432Y200029D01*
X176523Y200112D01*
X176621Y200187D01*
X176759Y200325D01*
X176905Y200457D01*
X176985Y200550D01*
X177072Y200637D01*
X177192Y200791D01*
X177320Y200940D01*
X177388Y201042D01*
X177463Y201139D01*
X177564Y201308D01*
X177672Y201471D01*
X177725Y201579D01*
X177789Y201687D01*
X177874Y201882D01*
X177961Y202059D01*
X179903Y206747D01*
X183253Y210097D01*
X184852Y210760D01*
X184991Y210828D01*
X185134Y210887D01*
X185277Y210968D01*
X185424Y211040D01*
X185554Y211125D01*
X185688Y211201D01*
X185819Y211300D01*
X185957Y211390D01*
X186075Y211490D01*
X186199Y211583D01*
X186316Y211697D01*
X186441Y211803D01*
X186546Y211918D01*
X186657Y212025D01*
X186760Y212153D01*
X186870Y212274D01*
X186960Y212401D01*
X187057Y212522D01*
X187143Y212661D01*
X187237Y212795D01*
X187310Y212932D01*
X187391Y213064D01*
X187459Y213213D01*
X187536Y213358D01*
X187591Y213503D01*
X187655Y213644D01*
X187703Y213800D01*
X187761Y213954D01*
X187798Y214105D01*
X187844Y214252D01*
X187872Y214413D01*
X187911Y214573D01*
X187928Y214728D01*
X187955Y214880D01*
X187963Y215043D01*
X187981Y215206D01*
X187979Y215362D01*
X187987Y215516D01*
X187975Y215680D01*
X187972Y215844D01*
X187951Y215997D01*
X187939Y216151D01*
X187906Y216312D01*
X187883Y216474D01*
X187843Y216624D01*
X187812Y216776D01*
X187761Y216927D01*
X187716Y217089D01*
X187652Y217245D01*
X187601Y217396D01*
X187089Y218631D01*
X187089Y223369D01*
X188903Y227747D01*
X192253Y231097D01*
X196631Y232911D01*
X199920Y232911D01*
X200033Y232918D01*
X200147Y232916D01*
X200351Y232938D01*
X200556Y232951D01*
X200667Y232972D01*
X200781Y232984D01*
X200980Y233032D01*
X201181Y233070D01*
X201290Y233105D01*
X201401Y233131D01*
X201593Y233203D01*
X201788Y233267D01*
X201891Y233315D01*
X201997Y233355D01*
X202179Y233450D01*
X202364Y233538D01*
X202460Y233599D01*
X202561Y233652D01*
X202729Y233769D01*
X202902Y233879D01*
X202990Y233951D01*
X203084Y234016D01*
X203236Y234154D01*
X203394Y234284D01*
X203472Y234367D01*
X203556Y234444D01*
X203690Y234599D01*
X203830Y234748D01*
X203897Y234841D01*
X203972Y234927D01*
X204085Y235098D01*
X204205Y235263D01*
X204260Y235363D01*
X204323Y235458D01*
X204410Y235635D01*
X204513Y235821D01*
X204559Y235938D01*
X204612Y236046D01*
X204903Y236747D01*
X208253Y240097D01*
X212771Y241969D01*
X212800Y241983D01*
X212830Y241994D01*
X213086Y242123D01*
X213343Y242249D01*
X213370Y242267D01*
X213398Y242281D01*
X213636Y242441D01*
X213876Y242599D01*
X213900Y242620D01*
X213927Y242637D01*
X214116Y242803D01*
X214360Y243012D01*
X214388Y243043D01*
X214419Y243070D01*
X216532Y245183D01*
X220965Y247019D01*
X221214Y247141D01*
X221466Y247260D01*
X221500Y247282D01*
X221537Y247300D01*
X221770Y247452D01*
X222004Y247601D01*
X222036Y247627D01*
X222070Y247649D01*
X222281Y247830D01*
X222495Y248006D01*
X222523Y248036D01*
X222555Y248063D01*
X222742Y248268D01*
X222932Y248470D01*
X222956Y248504D01*
X222984Y248534D01*
X223144Y248761D01*
X223307Y248986D01*
X223327Y249021D01*
X223350Y249055D01*
X223480Y249300D01*
X223615Y249543D01*
X223630Y249582D01*
X223649Y249618D01*
X223747Y249877D01*
X223850Y250136D01*
X223860Y250175D01*
X223875Y250214D01*
X223940Y250484D01*
X224009Y250752D01*
X224014Y250793D01*
X224024Y250833D01*
X224055Y251109D01*
X224090Y251384D01*
X224090Y251425D01*
X224095Y251466D01*
X224091Y251744D01*
X224091Y252022D01*
X224086Y252062D01*
X224086Y252103D01*
X224047Y252378D01*
X224013Y252654D01*
X224003Y252694D01*
X223997Y252734D01*
X223924Y253002D01*
X223855Y253271D01*
X223840Y253309D01*
X223830Y253349D01*
X223724Y253605D01*
X223622Y253864D01*
X223602Y253900D01*
X223587Y253938D01*
X223450Y254179D01*
X223317Y254423D01*
X223293Y254457D01*
X223272Y254492D01*
X223106Y254714D01*
X222943Y254940D01*
X222915Y254970D01*
X222891Y255002D01*
X222698Y255202D01*
X222508Y255405D01*
X222477Y255432D01*
X222448Y255461D01*
X222232Y255635D01*
X222019Y255813D01*
X221984Y255835D01*
X221952Y255860D01*
X221715Y256006D01*
X221482Y256156D01*
X221445Y256173D01*
X221410Y256195D01*
X221157Y256310D01*
X220906Y256429D01*
X220867Y256442D01*
X220830Y256458D01*
X220564Y256541D01*
X220301Y256628D01*
X220261Y256635D01*
X220221Y256648D01*
X219948Y256696D01*
X219675Y256749D01*
X219635Y256752D01*
X219594Y256759D01*
X219273Y256775D01*
X219021Y256791D01*
X176491Y256791D01*
X176418Y256787D01*
X176345Y256789D01*
X176100Y256767D01*
X175855Y256751D01*
X175783Y256738D01*
X175711Y256731D01*
X175471Y256678D01*
X175229Y256632D01*
X175160Y256609D01*
X175088Y256594D01*
X174857Y256511D01*
X174623Y256435D01*
X174557Y256404D01*
X174488Y256380D01*
X174269Y256269D01*
X174047Y256164D01*
X173985Y256125D01*
X173920Y256092D01*
X173716Y255955D01*
X173508Y255823D01*
X173452Y255777D01*
X173391Y255736D01*
X173218Y255583D01*
X173017Y255418D01*
X172960Y255357D01*
X172906Y255309D01*
X169917Y254071D01*
X167338Y254071D01*
X167306Y254069D01*
X167274Y254071D01*
X166988Y254049D01*
X166702Y254031D01*
X166671Y254025D01*
X166639Y254023D01*
X166357Y253966D01*
X166076Y253912D01*
X166046Y253902D01*
X166014Y253896D01*
X165777Y253815D01*
X165470Y253715D01*
X165432Y253698D01*
X165394Y253685D01*
X164927Y253491D01*
X160484Y253491D01*
X160371Y253484D01*
X160257Y253486D01*
X160053Y253464D01*
X159848Y253451D01*
X159737Y253430D01*
X159623Y253418D01*
X159424Y253370D01*
X159223Y253332D01*
X159114Y253297D01*
X159003Y253271D01*
X158811Y253199D01*
X158617Y253135D01*
X158513Y253087D01*
X158407Y253047D01*
X158225Y252951D01*
X158040Y252864D01*
X157944Y252803D01*
X157843Y252750D01*
X157675Y252633D01*
X157502Y252523D01*
X157414Y252451D01*
X157320Y252386D01*
X157168Y252248D01*
X157011Y252118D01*
X156932Y252035D01*
X156848Y251958D01*
X156714Y251803D01*
X156574Y251654D01*
X156507Y251561D01*
X156433Y251475D01*
X156320Y251304D01*
X156199Y251139D01*
X156144Y251039D01*
X156081Y250944D01*
X155994Y250767D01*
X155891Y250581D01*
X155845Y250464D01*
X155792Y250356D01*
X153498Y244818D01*
X149262Y240582D01*
X149105Y240404D01*
X148943Y240232D01*
X148894Y240165D01*
X148840Y240104D01*
X148707Y239908D01*
X148568Y239716D01*
X148528Y239645D01*
X148482Y239577D01*
X148374Y239366D01*
X148260Y239159D01*
X148230Y239082D01*
X148192Y239009D01*
X148112Y238787D01*
X148025Y238566D01*
X148004Y238487D01*
X147976Y238410D01*
X147925Y238179D01*
X147865Y237950D01*
X147855Y237868D01*
X147837Y237788D01*
X147814Y237553D01*
X147784Y237318D01*
X147784Y237235D01*
X147776Y237154D01*
X147784Y236918D01*
X147783Y236680D01*
X147793Y236599D01*
X147796Y236517D01*
X147833Y236283D01*
X147862Y236048D01*
X147882Y235969D01*
X147895Y235888D01*
X147961Y235660D01*
X148019Y235431D01*
X148049Y235355D01*
X148072Y235276D01*
X148166Y235058D01*
X148252Y234838D01*
X148292Y234766D01*
X148324Y234691D01*
X148444Y234487D01*
X148558Y234279D01*
X148606Y234212D01*
X148648Y234142D01*
X148792Y233954D01*
X148931Y233762D01*
X148987Y233702D01*
X149037Y233638D01*
X149204Y233470D01*
X149366Y233297D01*
X149429Y233244D01*
X149487Y233186D01*
X149674Y233041D01*
X149856Y232889D01*
X149925Y232845D01*
X149990Y232795D01*
X150193Y232674D01*
X150393Y232546D01*
X150467Y232511D01*
X150537Y232469D01*
X150754Y232375D01*
X150968Y232273D01*
X151046Y232248D01*
X151122Y232215D01*
X151349Y232148D01*
X151574Y232074D01*
X151654Y232059D01*
X151733Y232036D01*
X151967Y231998D01*
X152199Y231953D01*
X152280Y231948D01*
X156747Y230097D01*
X160097Y226747D01*
X161911Y222369D01*
X161911Y217631D01*
X160441Y214082D01*
X160404Y213974D01*
X160358Y213869D01*
X160300Y213673D01*
X160234Y213479D01*
X160211Y213367D01*
X160179Y213258D01*
X160146Y213056D01*
X160105Y212855D01*
X160096Y212741D01*
X160078Y212629D01*
X160071Y212424D01*
X160055Y212220D01*
X160060Y212106D01*
X160056Y211992D01*
X160075Y211788D01*
X160084Y211583D01*
X160104Y211471D01*
X160114Y211358D01*
X160158Y211157D01*
X160193Y210956D01*
X160227Y210847D01*
X160251Y210735D01*
X160320Y210543D01*
X160380Y210346D01*
X160427Y210242D01*
X160465Y210135D01*
X160558Y209953D01*
X160642Y209766D01*
X160701Y209668D01*
X160753Y209567D01*
X160867Y209397D01*
X160974Y209222D01*
X161046Y209133D01*
X161109Y209038D01*
X161239Y208891D01*
X161372Y208724D01*
X161462Y208636D01*
X161542Y208546D01*
X169677Y200411D01*
X169824Y200282D01*
X169964Y200145D01*
X170062Y200071D01*
X170155Y199990D01*
X170317Y199880D01*
X170473Y199762D01*
X170580Y199701D01*
X170681Y199632D01*
X170856Y199543D01*
X171026Y199445D01*
X171139Y199398D01*
X171249Y199342D01*
X171433Y199276D01*
X171614Y199200D01*
X171733Y199168D01*
X171848Y199126D01*
X172039Y199083D01*
X172228Y199031D01*
X172350Y199014D01*
X172470Y198987D01*
X172665Y198968D01*
X172859Y198940D01*
X172982Y198938D01*
X173104Y198926D01*
X173300Y198932D01*
G37*
G36*
X564845Y156048D02*
X564845Y156048D01*
X565082Y156055D01*
X565163Y156068D01*
X565245Y156073D01*
X565477Y156117D01*
X565712Y156154D01*
X565790Y156177D01*
X565871Y156192D01*
X566096Y156265D01*
X566324Y156331D01*
X566399Y156363D01*
X566477Y156389D01*
X566692Y156490D01*
X566909Y156583D01*
X566979Y156625D01*
X567054Y156660D01*
X567253Y156786D01*
X567458Y156907D01*
X567523Y156957D01*
X567592Y157001D01*
X567774Y157151D01*
X567962Y157296D01*
X568020Y157354D01*
X568083Y157406D01*
X568245Y157579D01*
X568413Y157746D01*
X568463Y157811D01*
X568520Y157870D01*
X568659Y158062D01*
X568804Y158249D01*
X568846Y158319D01*
X568895Y158385D01*
X569009Y158593D01*
X569130Y158796D01*
X569163Y158872D01*
X569202Y158943D01*
X569290Y159164D01*
X569384Y159381D01*
X569407Y159459D01*
X569438Y159536D01*
X569497Y159765D01*
X569563Y159992D01*
X569576Y160073D01*
X569597Y160152D01*
X569627Y160388D01*
X569665Y160621D01*
X569667Y160703D01*
X569678Y160784D01*
X569678Y161022D01*
X569686Y161258D01*
X569679Y161340D01*
X569679Y161422D01*
X569650Y161657D01*
X569628Y161892D01*
X569610Y161972D01*
X569600Y162054D01*
X569542Y162284D01*
X569491Y162515D01*
X569463Y162592D01*
X569443Y162671D01*
X569356Y162892D01*
X569277Y163115D01*
X569240Y163188D01*
X569210Y163264D01*
X569096Y163472D01*
X568989Y163683D01*
X568944Y163751D01*
X568904Y163823D01*
X568766Y164015D01*
X568633Y164211D01*
X568580Y164272D01*
X568531Y164340D01*
X568354Y164530D01*
X568210Y164693D01*
X566971Y167683D01*
X566971Y191399D01*
X566956Y191635D01*
X566949Y191872D01*
X566936Y191953D01*
X566931Y192035D01*
X566887Y192267D01*
X566850Y192501D01*
X566827Y192580D01*
X566812Y192660D01*
X566739Y192885D01*
X566673Y193113D01*
X566641Y193189D01*
X566615Y193267D01*
X566515Y193481D01*
X566421Y193698D01*
X566379Y193769D01*
X566344Y193843D01*
X566218Y194043D01*
X566097Y194247D01*
X566047Y194312D01*
X566003Y194381D01*
X565853Y194564D01*
X565708Y194751D01*
X565650Y194809D01*
X565598Y194873D01*
X565425Y195035D01*
X565258Y195202D01*
X565193Y195253D01*
X565134Y195309D01*
X564942Y195449D01*
X564755Y195594D01*
X564685Y195636D01*
X564619Y195684D01*
X564411Y195798D01*
X564208Y195919D01*
X564132Y195952D01*
X564061Y195992D01*
X563841Y196079D01*
X563623Y196174D01*
X563545Y196197D01*
X563468Y196227D01*
X563239Y196286D01*
X563012Y196353D01*
X562931Y196366D01*
X562852Y196387D01*
X562617Y196417D01*
X562383Y196454D01*
X562301Y196457D01*
X562220Y196467D01*
X561983Y196468D01*
X561746Y196476D01*
X561665Y196468D01*
X561582Y196469D01*
X561347Y196439D01*
X561112Y196418D01*
X561032Y196400D01*
X560950Y196390D01*
X560720Y196331D01*
X560490Y196281D01*
X560412Y196253D01*
X560333Y196233D01*
X560112Y196146D01*
X559889Y196067D01*
X559816Y196030D01*
X559740Y196000D01*
X559531Y195886D01*
X559321Y195779D01*
X559253Y195733D01*
X559181Y195694D01*
X558989Y195555D01*
X558793Y195423D01*
X558732Y195370D01*
X558664Y195321D01*
X558474Y195143D01*
X558300Y194990D01*
X548557Y185247D01*
X548557Y185246D01*
X545127Y181817D01*
X541579Y180347D01*
X535410Y180347D01*
X535215Y180335D01*
X535019Y180332D01*
X534897Y180315D01*
X534774Y180307D01*
X534582Y180271D01*
X534388Y180243D01*
X534269Y180211D01*
X534148Y180188D01*
X533962Y180128D01*
X533773Y180076D01*
X533659Y180029D01*
X533542Y179991D01*
X533365Y179908D01*
X533184Y179833D01*
X533077Y179773D01*
X532966Y179720D01*
X532800Y179616D01*
X532630Y179519D01*
X532531Y179445D01*
X532427Y179379D01*
X532276Y179255D01*
X532120Y179137D01*
X532031Y179052D01*
X531936Y178974D01*
X531802Y178831D01*
X531661Y178695D01*
X531584Y178599D01*
X531500Y178510D01*
X531384Y178351D01*
X531261Y178199D01*
X531197Y178094D01*
X531125Y177995D01*
X531030Y177823D01*
X530927Y177656D01*
X530876Y177544D01*
X530817Y177437D01*
X530745Y177255D01*
X530664Y177076D01*
X530627Y176959D01*
X530582Y176844D01*
X530533Y176655D01*
X530474Y176468D01*
X530453Y176347D01*
X530422Y176228D01*
X530397Y176033D01*
X530363Y175841D01*
X530357Y175718D01*
X530341Y175596D01*
X530341Y175399D01*
X530331Y175204D01*
X530340Y175082D01*
X530340Y174958D01*
X530364Y174764D01*
X530379Y174569D01*
X530404Y174448D01*
X530419Y174326D01*
X530467Y174136D01*
X530506Y173945D01*
X530545Y173831D01*
X530576Y173709D01*
X530654Y173511D01*
X530717Y173324D01*
X532129Y169917D01*
X532129Y161112D01*
X532138Y160957D01*
X532138Y160802D01*
X532158Y160640D01*
X532169Y160476D01*
X532198Y160324D01*
X532217Y160170D01*
X532257Y160011D01*
X532288Y159850D01*
X532336Y159703D01*
X532374Y159553D01*
X532434Y159400D01*
X532485Y159244D01*
X532550Y159104D01*
X532607Y158960D01*
X532686Y158816D01*
X532756Y158668D01*
X532838Y158537D01*
X532913Y158401D01*
X533009Y158268D01*
X533097Y158129D01*
X533195Y158010D01*
X533286Y157884D01*
X533398Y157765D01*
X533502Y157638D01*
X533615Y157532D01*
X533721Y157419D01*
X533847Y157314D01*
X533966Y157202D01*
X534092Y157110D01*
X534211Y157011D01*
X534349Y156923D01*
X534481Y156827D01*
X534617Y156752D01*
X534748Y156668D01*
X534896Y156598D01*
X535039Y156519D01*
X535183Y156462D01*
X535323Y156395D01*
X535479Y156344D01*
X535632Y156284D01*
X535782Y156245D01*
X535929Y156196D01*
X536090Y156165D01*
X536248Y156124D01*
X536402Y156105D01*
X536554Y156075D01*
X536713Y156065D01*
X536880Y156043D01*
X537049Y156043D01*
X537208Y156033D01*
X564609Y156033D01*
X564845Y156048D01*
G37*
%LPC*%
G36*
X201863Y64871D02*
X201863Y64871D01*
X195567Y67479D01*
X190749Y72297D01*
X188141Y78593D01*
X188141Y85407D01*
X190749Y91703D01*
X195567Y96521D01*
X201863Y99129D01*
X208677Y99129D01*
X214973Y96521D01*
X219791Y91703D01*
X222399Y85407D01*
X222399Y78593D01*
X219791Y72297D01*
X214973Y67479D01*
X208677Y64871D01*
X201863Y64871D01*
G37*
%LPD*%
%LPC*%
G36*
X63633Y45221D02*
X63633Y45221D01*
X60645Y46459D01*
X58359Y48745D01*
X57121Y51733D01*
X57121Y67667D01*
X58359Y70655D01*
X60645Y72941D01*
X63633Y74179D01*
X79567Y74179D01*
X82555Y72941D01*
X84841Y70655D01*
X86079Y67667D01*
X86079Y51733D01*
X84841Y48745D01*
X82555Y46459D01*
X79567Y45221D01*
X63633Y45221D01*
G37*
%LPD*%
G36*
X212498Y283213D02*
X212498Y283213D01*
X212571Y283211D01*
X212816Y283233D01*
X213061Y283249D01*
X213132Y283262D01*
X213205Y283269D01*
X213445Y283322D01*
X213687Y283368D01*
X213756Y283391D01*
X213827Y283406D01*
X214058Y283489D01*
X214293Y283565D01*
X214359Y283596D01*
X214427Y283620D01*
X214646Y283731D01*
X214869Y283836D01*
X214931Y283875D01*
X214996Y283908D01*
X215200Y284045D01*
X215407Y284177D01*
X215464Y284223D01*
X215524Y284264D01*
X215698Y284417D01*
X215899Y284582D01*
X215956Y284643D01*
X216016Y284696D01*
X217388Y286068D01*
X221312Y289992D01*
X221469Y290170D01*
X221631Y290342D01*
X221680Y290409D01*
X221734Y290470D01*
X221867Y290666D01*
X222006Y290858D01*
X222046Y290929D01*
X222092Y290997D01*
X222200Y291208D01*
X222314Y291415D01*
X222344Y291492D01*
X222382Y291565D01*
X222462Y291787D01*
X222549Y292008D01*
X222570Y292087D01*
X222598Y292164D01*
X222649Y292395D01*
X222709Y292624D01*
X222719Y292706D01*
X222737Y292786D01*
X222760Y293021D01*
X222790Y293256D01*
X222790Y293339D01*
X222798Y293420D01*
X222790Y293656D01*
X222791Y293894D01*
X222781Y293975D01*
X222778Y294057D01*
X222741Y294291D01*
X222712Y294526D01*
X222692Y294605D01*
X222679Y294686D01*
X222613Y294914D01*
X222555Y295143D01*
X222525Y295220D01*
X222502Y295298D01*
X222408Y295516D01*
X222322Y295736D01*
X222282Y295808D01*
X222250Y295883D01*
X222130Y296087D01*
X222016Y296295D01*
X221968Y296362D01*
X221926Y296432D01*
X221782Y296620D01*
X221643Y296812D01*
X221587Y296872D01*
X221537Y296936D01*
X221370Y297104D01*
X221208Y297277D01*
X221145Y297330D01*
X221087Y297388D01*
X220900Y297533D01*
X220718Y297685D01*
X220649Y297729D01*
X220584Y297779D01*
X220381Y297900D01*
X220181Y298028D01*
X220107Y298063D01*
X220037Y298105D01*
X219820Y298199D01*
X219606Y298301D01*
X219528Y298326D01*
X219452Y298359D01*
X219225Y298426D01*
X219000Y298500D01*
X218920Y298515D01*
X218841Y298538D01*
X218607Y298576D01*
X218375Y298621D01*
X218294Y298626D01*
X218212Y298639D01*
X217952Y298648D01*
X217721Y298663D01*
X175146Y298663D01*
X174951Y298651D01*
X174755Y298648D01*
X174633Y298631D01*
X174510Y298623D01*
X174318Y298587D01*
X174124Y298559D01*
X174005Y298527D01*
X173884Y298504D01*
X173698Y298444D01*
X173509Y298392D01*
X173395Y298345D01*
X173278Y298307D01*
X173101Y298224D01*
X172920Y298149D01*
X172813Y298089D01*
X172702Y298036D01*
X172536Y297932D01*
X172366Y297835D01*
X172267Y297761D01*
X172164Y297695D01*
X172013Y297571D01*
X171856Y297453D01*
X171767Y297368D01*
X171672Y297290D01*
X171538Y297147D01*
X171397Y297011D01*
X171320Y296915D01*
X171236Y296826D01*
X171120Y296667D01*
X170998Y296515D01*
X170933Y296410D01*
X170861Y296311D01*
X170766Y296139D01*
X170663Y295972D01*
X170612Y295860D01*
X170553Y295753D01*
X170481Y295571D01*
X170400Y295392D01*
X170363Y295275D01*
X170318Y295160D01*
X170269Y294971D01*
X170211Y294784D01*
X170189Y294663D01*
X170158Y294544D01*
X170133Y294350D01*
X170099Y294156D01*
X170093Y294034D01*
X170077Y293912D01*
X170077Y293716D01*
X170067Y293520D01*
X170076Y293398D01*
X170076Y293274D01*
X170100Y293080D01*
X170115Y292885D01*
X170140Y292765D01*
X170155Y292642D01*
X170203Y292452D01*
X170242Y292260D01*
X170281Y292147D01*
X170312Y292025D01*
X170390Y291827D01*
X170453Y291640D01*
X170743Y290941D01*
X170841Y290450D01*
X170841Y288288D01*
X170850Y288133D01*
X170850Y287978D01*
X170870Y287816D01*
X170881Y287652D01*
X170910Y287500D01*
X170929Y287346D01*
X170969Y287187D01*
X171000Y287026D01*
X171048Y286879D01*
X171086Y286729D01*
X171146Y286576D01*
X171197Y286420D01*
X171262Y286280D01*
X171319Y286136D01*
X171398Y285992D01*
X171468Y285844D01*
X171550Y285713D01*
X171625Y285577D01*
X171721Y285444D01*
X171809Y285305D01*
X171907Y285186D01*
X171998Y285060D01*
X172110Y284941D01*
X172214Y284814D01*
X172327Y284708D01*
X172433Y284595D01*
X172559Y284490D01*
X172678Y284378D01*
X172804Y284286D01*
X172923Y284187D01*
X173061Y284099D01*
X173193Y284003D01*
X173329Y283928D01*
X173460Y283844D01*
X173608Y283774D01*
X173751Y283695D01*
X173895Y283638D01*
X174035Y283571D01*
X174191Y283520D01*
X174344Y283460D01*
X174494Y283421D01*
X174641Y283372D01*
X174802Y283341D01*
X174960Y283300D01*
X175114Y283281D01*
X175266Y283251D01*
X175425Y283241D01*
X175592Y283219D01*
X175761Y283219D01*
X175920Y283209D01*
X212425Y283209D01*
X212498Y283213D01*
G37*
G36*
X340026Y248480D02*
X340026Y248480D01*
X340052Y248478D01*
X340199Y248500D01*
X340346Y248517D01*
X340371Y248525D01*
X340397Y248529D01*
X340535Y248584D01*
X340674Y248634D01*
X340696Y248648D01*
X340721Y248658D01*
X340842Y248743D01*
X340967Y248823D01*
X340985Y248842D01*
X341007Y248857D01*
X341106Y248967D01*
X341209Y249074D01*
X341223Y249096D01*
X341240Y249116D01*
X341312Y249246D01*
X341388Y249373D01*
X341396Y249398D01*
X341409Y249421D01*
X341449Y249564D01*
X341494Y249705D01*
X341496Y249731D01*
X341504Y249756D01*
X341523Y250000D01*
X341523Y264000D01*
X341509Y264126D01*
X341502Y264252D01*
X341489Y264298D01*
X341483Y264346D01*
X341441Y264465D01*
X341406Y264587D01*
X341382Y264629D01*
X341366Y264674D01*
X341297Y264781D01*
X341236Y264891D01*
X341196Y264937D01*
X341177Y264967D01*
X341142Y265001D01*
X341077Y265077D01*
X334859Y271295D01*
X334760Y271374D01*
X334666Y271458D01*
X334624Y271482D01*
X334586Y271512D01*
X334472Y271566D01*
X334361Y271627D01*
X334315Y271640D01*
X334271Y271661D01*
X334148Y271687D01*
X334026Y271722D01*
X333965Y271727D01*
X333930Y271734D01*
X333882Y271733D01*
X333782Y271741D01*
X333473Y271741D01*
X330933Y274281D01*
X324077Y281137D01*
X323999Y281199D01*
X323926Y281269D01*
X323862Y281308D01*
X323804Y281354D01*
X323713Y281397D01*
X323627Y281448D01*
X323556Y281471D01*
X323489Y281503D01*
X323391Y281524D01*
X323295Y281554D01*
X323221Y281560D01*
X323148Y281576D01*
X323048Y281574D01*
X322948Y281582D01*
X322874Y281571D01*
X322800Y281570D01*
X322703Y281546D01*
X322603Y281531D01*
X322534Y281503D01*
X322462Y281485D01*
X322372Y281439D01*
X322279Y281402D01*
X322218Y281360D01*
X322152Y281325D01*
X322075Y281260D01*
X321993Y281203D01*
X321943Y281148D01*
X321887Y281100D01*
X321827Y281019D01*
X321760Y280944D01*
X321724Y280879D01*
X321679Y280819D01*
X321640Y280727D01*
X321591Y280639D01*
X321571Y280568D01*
X321541Y280499D01*
X321524Y280401D01*
X321496Y280304D01*
X321488Y280204D01*
X321480Y280156D01*
X321482Y280121D01*
X321477Y280060D01*
X321477Y273631D01*
X314925Y267079D01*
X311408Y267079D01*
X311253Y267070D01*
X311098Y267070D01*
X310936Y267050D01*
X310772Y267039D01*
X310620Y267010D01*
X310466Y266991D01*
X310307Y266951D01*
X310146Y266920D01*
X309999Y266872D01*
X309849Y266834D01*
X309696Y266774D01*
X309540Y266724D01*
X309400Y266658D01*
X309256Y266601D01*
X309112Y266522D01*
X308964Y266453D01*
X308833Y266370D01*
X308697Y266295D01*
X308564Y266199D01*
X308425Y266111D01*
X308306Y266013D01*
X308180Y265922D01*
X308061Y265810D01*
X307934Y265706D01*
X307828Y265593D01*
X307715Y265487D01*
X307610Y265361D01*
X307498Y265242D01*
X307406Y265116D01*
X307307Y264997D01*
X307219Y264859D01*
X307123Y264727D01*
X307048Y264591D01*
X306964Y264460D01*
X306894Y264312D01*
X306815Y264169D01*
X306758Y264025D01*
X306691Y263885D01*
X306640Y263729D01*
X306580Y263577D01*
X306541Y263427D01*
X306492Y263279D01*
X306461Y263119D01*
X306420Y262960D01*
X306401Y262806D01*
X306371Y262654D01*
X306361Y262495D01*
X306339Y262328D01*
X306339Y262159D01*
X306329Y262000D01*
X306338Y261845D01*
X306338Y261691D01*
X306338Y261690D01*
X306358Y261527D01*
X306369Y261364D01*
X306398Y261212D01*
X306417Y261058D01*
X306457Y260899D01*
X306488Y260738D01*
X306536Y260591D01*
X306574Y260441D01*
X306634Y260288D01*
X306685Y260132D01*
X306750Y259992D01*
X306807Y259848D01*
X306886Y259704D01*
X306956Y259555D01*
X307038Y259425D01*
X307113Y259289D01*
X307209Y259156D01*
X307297Y259017D01*
X307395Y258898D01*
X307486Y258772D01*
X307598Y258652D01*
X307702Y258526D01*
X307815Y258420D01*
X307921Y258307D01*
X308047Y258202D01*
X308166Y258089D01*
X308292Y257998D01*
X308411Y257899D01*
X308549Y257811D01*
X308681Y257714D01*
X308817Y257640D01*
X308948Y257556D01*
X309096Y257486D01*
X309239Y257407D01*
X309383Y257350D01*
X309523Y257283D01*
X309679Y257232D01*
X309832Y257171D01*
X309982Y257133D01*
X310129Y257084D01*
X310290Y257053D01*
X310448Y257012D01*
X310602Y256992D01*
X310754Y256963D01*
X310913Y256953D01*
X311080Y256931D01*
X311249Y256931D01*
X311408Y256921D01*
X314925Y256921D01*
X322923Y248923D01*
X323022Y248844D01*
X323116Y248760D01*
X323158Y248736D01*
X323196Y248706D01*
X323310Y248652D01*
X323421Y248591D01*
X323467Y248578D01*
X323511Y248557D01*
X323634Y248531D01*
X323756Y248496D01*
X323817Y248492D01*
X323852Y248484D01*
X323900Y248485D01*
X324000Y248477D01*
X340000Y248477D01*
X340026Y248480D01*
G37*
%LPC*%
G36*
X337584Y93679D02*
X337584Y93679D01*
X337710Y93925D01*
X338650Y95219D01*
X339781Y96350D01*
X341075Y97290D01*
X341321Y97416D01*
X341321Y93679D01*
X337584Y93679D01*
G37*
%LPD*%
%LPC*%
G36*
X100479Y261621D02*
X100479Y261621D01*
X104216Y261621D01*
X104090Y261375D01*
X103150Y260081D01*
X102019Y258950D01*
X100817Y258076D01*
X100816Y258076D01*
X100725Y258010D01*
X100479Y257884D01*
X100479Y261621D01*
G37*
%LPD*%
D10*
X376500Y228200D03*
X376500Y211200D03*
X398500Y227700D03*
X398500Y210700D03*
X163300Y267700D03*
X163300Y284700D03*
X142300Y266700D03*
X142300Y283700D03*
D11*
X291700Y262000D03*
X310700Y262000D03*
D12*
X146000Y35800D03*
X146000Y16800D03*
D10*
X297700Y279800D03*
X297700Y296800D03*
X274700Y279300D03*
X274700Y296300D03*
D11*
X294600Y124800D03*
X313600Y124800D03*
D13*
X272700Y147700D03*
X289700Y147700D03*
D10*
X113300Y211200D03*
X113300Y228200D03*
X90300Y211700D03*
X90300Y228700D03*
D12*
X124000Y36300D03*
X124000Y17300D03*
D13*
X586000Y131300D03*
X569000Y131300D03*
X618800Y296700D03*
X635800Y296700D03*
D10*
X135500Y174300D03*
X135500Y191300D03*
D13*
X61300Y182500D03*
X44300Y182500D03*
D10*
X67300Y211600D03*
X67300Y228600D03*
D11*
X583300Y108000D03*
X564300Y108000D03*
D14*
X346400Y38600D03*
D15*
X346400Y63600D03*
X346400Y88600D03*
D14*
X95400Y291700D03*
D15*
X95400Y266700D03*
D16*
X71600Y59700D03*
D17*
X115100Y192800D03*
X115100Y183300D03*
X115100Y173800D03*
X88100Y192800D03*
X88100Y173800D03*
D18*
X520900Y161300D03*
X509900Y161300D03*
X498900Y161300D03*
X487900Y161300D03*
X476900Y161300D03*
X465900Y161300D03*
X454900Y161300D03*
X443900Y161300D03*
X432900Y161300D03*
D19*
X419100Y271300D03*
X419100Y181300D03*
X580600Y181300D03*
X580600Y271300D03*
D10*
X471400Y117300D03*
X454400Y117300D03*
D13*
X374600Y89600D03*
X374600Y72600D03*
X62600Y284800D03*
X62600Y301800D03*
X62600Y254000D03*
X62600Y271000D03*
X392500Y195300D03*
X392500Y178300D03*
D10*
X372600Y248700D03*
X389600Y248700D03*
X371400Y270700D03*
X388400Y270700D03*
D20*
X27600Y280000D03*
X27600Y254600D03*
X27600Y229200D03*
D21*
X253530Y82000D03*
X205270Y82000D03*
D22*
X76000Y254000D02*
X62600Y254000D01*
X76000Y254000D02*
X80000Y250000D01*
X66600Y250000D01*
X62600Y254000D01*
X62600Y233300D01*
X67300Y228600D01*
X145300Y284700D02*
X163300Y284700D01*
X145300Y284700D02*
X140000Y290000D01*
X140000Y286000D01*
X142300Y283700D01*
X112900Y228600D02*
X67300Y228600D01*
X112900Y228600D02*
X113300Y228200D01*
D23*
X124000Y17300D02*
X123210Y16510D01*
X90000Y16510D01*
X90290Y16800D01*
X146000Y16800D01*
X176800Y16800D01*
X190000Y30000D01*
X67300Y228600D02*
X58600Y228600D01*
X67300Y228600D02*
X78700Y240000D01*
X110000Y240000D01*
D24*
X132500Y191300D02*
X135500Y191300D01*
X132500Y191300D02*
X124500Y183300D01*
X115100Y183300D01*
D25*
X135500Y191300D02*
X136800Y190000D01*
X148000Y190000D01*
X170000Y168000D01*
X170000Y160000D01*
X398000Y211200D02*
X398500Y210700D01*
X398000Y211200D02*
X376500Y211200D01*
X392400Y195300D02*
X392500Y195300D01*
X392400Y195300D02*
X376500Y211200D01*
D22*
X275200Y296800D02*
X274700Y296300D01*
X275200Y296800D02*
X297700Y296800D01*
D24*
X320000Y280000D02*
X320000Y270000D01*
D22*
X567700Y130000D02*
X569000Y131300D01*
X567700Y130000D02*
X520000Y130000D01*
X480000Y130000D01*
X564300Y126600D02*
X569000Y131300D01*
X564300Y126600D02*
X564300Y108000D01*
X471400Y117300D02*
X471400Y121400D01*
X480000Y130000D01*
X472700Y117300D02*
X471400Y117300D01*
X472700Y117300D02*
X480000Y110000D01*
X478700Y110000D01*
X471400Y117300D01*
X471400Y101400D01*
X470000Y100000D01*
X520000Y100000D01*
X556300Y100000D01*
X564300Y108000D01*
X562000Y108000D01*
X635800Y294200D02*
X635800Y296700D01*
X635800Y294200D02*
X640000Y290000D01*
X640000Y292500D01*
X635800Y296700D01*
X639100Y300000D01*
X650000Y300000D01*
X639100Y300000D02*
X638500Y300000D01*
X374600Y89600D02*
X340400Y89600D01*
X340000Y90000D01*
X374200Y90000D01*
X374600Y89600D01*
X364200Y100000D01*
X360000Y100000D01*
X374600Y95400D02*
X374600Y89600D01*
X374600Y95400D02*
X361000Y109000D01*
X44300Y182500D02*
X41000Y185800D01*
X44300Y182500D02*
X44300Y180300D01*
X33000Y169000D01*
X33000Y171200D01*
X44300Y182500D01*
D26*
X650000Y280000D03*
X100000Y20000D03*
X80000Y100000D03*
X30000Y20000D03*
X290000Y40000D03*
X570000Y80000D03*
X340000Y120000D03*
X330000Y130000D03*
D27*
X465900Y154900D02*
X465900Y161300D01*
X465900Y154900D02*
X460500Y149500D01*
X457000Y146000D01*
X456500Y146500D01*
D26*
X456500Y146500D03*
X472694Y99000D03*
X635000Y281000D03*
D24*
X635800Y296700D02*
X635800Y301700D01*
X630708Y306792D01*
X514622Y306792D02*
X509735Y301905D01*
D26*
X509735Y301905D03*
D24*
X514622Y306792D02*
X630708Y306792D01*
X514622Y306792D02*
X466792Y306792D01*
X460000Y300000D01*
D26*
X460000Y300000D03*
X170000Y160000D03*
X180000Y50000D03*
X194000Y123000D03*
D27*
X163300Y284700D02*
X163300Y290000D01*
D26*
X166000Y300000D03*
X199000Y295000D03*
D24*
X171000Y295000D01*
X166000Y300000D01*
X163300Y297300D01*
X163300Y290000D01*
D26*
X257000Y298000D03*
D22*
X275000Y297000D02*
X275200Y296800D01*
D26*
X283000Y225000D03*
D27*
X297000Y225000D01*
X314700Y242700D01*
X314700Y258000D02*
X310700Y262000D01*
X314700Y258000D02*
X314700Y242700D01*
D26*
X239000Y144694D03*
X610000Y236594D03*
D27*
X616594Y236594D01*
X630000Y250000D01*
X640000Y250000D01*
X640000Y292500D01*
D26*
X591000Y163000D03*
D27*
X588000Y160000D01*
X560000Y160000D01*
D26*
X560000Y160000D03*
X548306Y121000D03*
D27*
X422000Y156790D02*
X422000Y163000D01*
X429290Y149500D02*
X460500Y149500D01*
X429290Y149500D02*
X422000Y156790D01*
D26*
X422000Y163000D03*
D27*
X472694Y116006D02*
X472694Y99000D01*
X472694Y116006D02*
X471400Y117300D01*
D23*
X120100Y235000D02*
X113300Y228200D01*
X151000Y235000D02*
X161000Y245000D01*
X161000Y249000D01*
X160000Y250000D01*
D26*
X160000Y250000D03*
D23*
X151000Y235000D02*
X120100Y235000D01*
D22*
X67300Y228600D02*
X62930Y224230D01*
X56962Y224230D01*
X44300Y211568D01*
X44300Y182500D01*
X289700Y147700D02*
X300700Y147700D01*
X313600Y134800D02*
X313600Y124800D01*
X313600Y134800D02*
X300700Y147700D01*
X274700Y296300D02*
X263700Y296300D01*
X260338Y299662D01*
X260000Y299662D01*
D28*
X310700Y262000D02*
X323172Y249528D01*
X353853Y249528D01*
X367928Y235453D01*
X367928Y219772D01*
X376500Y211200D01*
D24*
X320000Y270000D02*
X312000Y262000D01*
X310700Y262000D01*
D29*
X520000Y100000D03*
X500000Y120000D03*
D30*
X511938Y126415D02*
X513585Y128062D01*
X511938Y126415D02*
X511938Y120000D01*
X518062Y128062D02*
X520000Y130000D01*
X518062Y128062D02*
X513585Y128062D01*
D26*
X120000Y290000D03*
D29*
X520000Y120000D03*
X500000Y100000D03*
D22*
X260338Y299662D02*
X258676Y298000D01*
X257000Y298000D01*
D24*
X303200Y296800D02*
X320000Y280000D01*
X303200Y296800D02*
X297700Y296800D01*
D27*
X62600Y284800D02*
X62600Y271000D01*
X80000Y288400D01*
X80000Y303000D01*
X85316Y308316D01*
X334954Y275316D02*
X350846Y275316D01*
X334954Y275316D02*
X301954Y308316D01*
X350846Y275316D02*
X367530Y292000D01*
X515490Y292000D02*
X523490Y300000D01*
X301954Y308316D02*
X85316Y308316D01*
X367530Y292000D02*
X515490Y292000D01*
X615500Y300000D02*
X618800Y296700D01*
X615500Y300000D02*
X523490Y300000D01*
X618800Y296700D02*
X619347Y296153D01*
X619347Y269688D01*
X539659Y190000D01*
X500000Y190000D01*
D26*
X500000Y190000D03*
X150000Y220000D03*
X154000Y199000D03*
D22*
X113300Y211200D02*
X90800Y211200D01*
X90300Y211700D01*
X60000Y210000D02*
X60000Y183800D01*
X61300Y182500D01*
D31*
X69000Y192800D02*
X88100Y192800D01*
X69000Y192800D02*
X60000Y183800D01*
X122100Y220000D02*
X150000Y220000D01*
X122100Y220000D02*
X113300Y211200D01*
X153000Y199000D02*
X154000Y199000D01*
X153000Y199000D02*
X140800Y211200D01*
X113300Y211200D01*
X154000Y199000D02*
X156000Y199000D01*
X175000Y180000D01*
X230000Y180000D01*
X240000Y180000D01*
X242154Y176750D02*
X246750Y172154D01*
X242154Y177846D02*
X240000Y180000D01*
X242154Y177846D02*
X242154Y176750D01*
X246750Y172154D02*
X267846Y172154D01*
X272700Y167300D02*
X272700Y147700D01*
X272700Y167300D02*
X267846Y172154D01*
D22*
X272700Y147700D02*
X272700Y134861D01*
X274600Y132961D01*
X286439Y132961D02*
X294600Y124800D01*
X286439Y132961D02*
X274600Y132961D01*
D27*
X272700Y147700D02*
X267700Y147700D01*
X260000Y140000D01*
D26*
X260000Y140000D03*
D27*
X230000Y179853D02*
X230000Y180000D01*
D26*
X230000Y179853D03*
D22*
X67300Y211600D02*
X65700Y210000D01*
X60000Y210000D01*
X90200Y211600D02*
X90300Y211700D01*
X90200Y211600D02*
X67300Y211600D01*
X162300Y266700D02*
X163300Y267700D01*
X162300Y266700D02*
X142300Y266700D01*
D26*
X130000Y60000D03*
D27*
X130000Y42300D01*
X124000Y36300D01*
D22*
X145500Y36300D01*
X146000Y35800D01*
X146000Y56000D01*
X150000Y60000D02*
X150000Y160000D01*
X135700Y174300D01*
X135500Y174300D01*
X150000Y60000D02*
X146000Y56000D01*
D31*
X135000Y173800D02*
X135500Y174300D01*
X135000Y173800D02*
X115100Y173800D01*
D22*
X142300Y252300D02*
X142300Y266700D01*
D26*
X142300Y252300D03*
X201011Y270700D03*
X220000Y270000D03*
D22*
X165600Y270000D02*
X163300Y267700D01*
X165600Y270000D02*
X220000Y270000D01*
X229300Y279300D01*
X240000Y279300D01*
X274700Y279300D01*
X275200Y279800D01*
X297700Y279800D01*
X291700Y273800D01*
X291700Y262000D01*
D26*
X240000Y279300D03*
X413000Y228000D03*
X550000Y250000D03*
D22*
X435000Y250000D02*
X413000Y228000D01*
X435000Y250000D02*
X550000Y250000D01*
D26*
X590000Y150000D03*
D31*
X487900Y152100D02*
X487900Y161300D01*
X494636Y145364D02*
X578183Y145364D01*
X586000Y137547D02*
X586000Y131300D01*
X586000Y137547D02*
X578183Y145364D01*
X494636Y145364D02*
X487900Y152100D01*
D22*
X583300Y128600D02*
X586000Y131300D01*
X583300Y128600D02*
X583300Y108000D01*
D31*
X590000Y135300D02*
X590000Y150000D01*
X590000Y135300D02*
X586000Y131300D01*
D28*
X108475Y176980D02*
X106530Y178925D01*
X106530Y187675D01*
X108475Y189620D01*
X111920Y176980D02*
X115100Y173800D01*
X111920Y176980D02*
X108475Y176980D01*
X108475Y189620D02*
X111920Y189620D01*
X115100Y192800D01*
D26*
X360000Y271000D03*
D27*
X370700Y270000D02*
X371400Y270700D01*
X370700Y270000D02*
X370000Y270000D01*
X371000Y271000D02*
X360000Y271000D01*
X370000Y270000D02*
X371000Y271000D01*
D26*
X215000Y230000D03*
D27*
X222000Y237000D01*
X297000Y237000D01*
D26*
X297000Y237000D03*
X350000Y260000D03*
D27*
X371300Y248700D02*
X372600Y248700D01*
X360000Y260000D02*
X350000Y260000D01*
X360000Y260000D02*
X371300Y248700D01*
D26*
X302000Y246000D03*
D27*
X280000Y246000D01*
X259000Y267000D01*
X237000Y267000D01*
D26*
X237000Y267000D03*
D27*
X398500Y263911D02*
X398500Y227700D01*
X398500Y263911D02*
X394200Y270700D01*
X388400Y270700D01*
X389600Y248700D02*
X383600Y242700D01*
X383600Y235300D01*
X376500Y228200D01*
X202444Y217556D02*
X199000Y221000D01*
D26*
X199000Y221000D03*
D27*
X202444Y217556D02*
X301556Y217556D01*
X328684Y244684D01*
X351846Y244684D01*
X363084Y233446D02*
X363084Y217554D01*
X360000Y214470D01*
X360000Y190160D01*
X363084Y233446D02*
X351846Y244684D01*
X360000Y190160D02*
X427080Y123080D01*
X457483Y93677D02*
X457677Y93677D01*
X457483Y93677D02*
X428080Y123080D01*
D26*
X457677Y93677D03*
D27*
X454400Y117300D02*
X448620Y123080D01*
X428080Y123080D01*
X427080Y123080D01*
D26*
X290000Y210000D03*
X473000Y67694D03*
D27*
X295996Y204004D02*
X290000Y210000D01*
X336690Y204004D02*
X473000Y67694D01*
X336690Y204004D02*
X295996Y204004D01*
D26*
X289000Y198000D03*
X560000Y60000D03*
D27*
X331568Y198432D02*
X289432Y198432D01*
X289000Y198000D01*
X470000Y60000D02*
X560000Y60000D01*
X470000Y60000D02*
X331568Y198432D01*
D26*
X300000Y190000D03*
X483000Y51000D03*
D27*
X338000Y183000D02*
X307000Y183000D01*
X300000Y190000D01*
X470000Y51000D02*
X483000Y51000D01*
X470000Y51000D02*
X338000Y183000D01*
D26*
X450000Y60000D03*
D27*
X334875Y175125D01*
D26*
X190000Y200000D03*
D27*
X297875Y175125D02*
X334875Y175125D01*
X297875Y175125D02*
X269875Y203125D01*
X193125Y203125D01*
X190000Y200000D01*
D26*
X436000Y61000D03*
D27*
X328889Y168111D02*
X294889Y168111D01*
X270317Y192683D02*
X222683Y192683D01*
X220000Y190000D01*
X270317Y192683D02*
X294889Y168111D01*
D26*
X220000Y190000D03*
D27*
X328889Y168111D02*
X436000Y61000D01*
D26*
X432000Y50000D03*
X250000Y183000D03*
D27*
X426000Y59000D02*
X426000Y56000D01*
X426000Y59000D02*
X322461Y162539D01*
X426000Y56000D02*
X428000Y54000D01*
X322461Y162539D02*
X291995Y162539D01*
X271534Y183000D01*
X250000Y183000D01*
X432000Y50000D02*
X432000Y50000D01*
X428000Y54000D01*
X454900Y161300D02*
X454900Y170000D01*
D26*
X450000Y190000D03*
D27*
X450000Y174900D02*
X454900Y170000D01*
X450000Y174900D02*
X450000Y190000D01*
D26*
X410000Y208000D03*
D27*
X410000Y195800D01*
X392500Y178300D01*
D26*
X470000Y180000D03*
D27*
X476900Y173100D01*
X476900Y161300D01*
D26*
X487476Y177476D03*
D27*
X499048Y161448D02*
X498900Y161300D01*
X499048Y161448D02*
X499048Y167563D01*
X489135Y177476D02*
X487476Y177476D01*
X489135Y177476D02*
X499048Y167563D01*
D26*
X474000Y144994D03*
D27*
X472000Y144994D01*
X462006Y135000D01*
X435000Y135000D02*
X429806Y140194D01*
X429806Y140000D01*
D26*
X429806Y140000D03*
D27*
X435000Y135000D02*
X462006Y135000D01*
D26*
X438000Y180000D03*
D27*
X438000Y219899D02*
X439000Y220899D01*
X438000Y219899D02*
X438000Y180000D01*
D26*
X439000Y220899D03*
X391000Y60000D03*
D27*
X387200Y60000D01*
X374600Y72600D01*
D26*
X563000Y227000D03*
D27*
X563000Y257000D01*
X555000Y265000D01*
D26*
X610517Y284517D03*
D27*
X601517Y293517D01*
X560517Y293517D01*
X555534Y288534D01*
X555534Y265534D01*
X555000Y265000D01*
X509900Y168711D02*
X509900Y161300D01*
X509900Y168711D02*
X488611Y190000D01*
X480000Y190000D01*
D26*
X480000Y190000D03*
X550000Y40000D03*
X374000Y39000D03*
D27*
X550000Y40000D02*
X550000Y33000D01*
X380000Y33000D01*
X374000Y39000D01*
D26*
X537000Y42000D03*
D27*
X411000Y42000D01*
X404000Y49000D02*
X374000Y49000D01*
X404000Y49000D02*
X411000Y42000D01*
D26*
X374000Y49000D03*
D27*
X50000Y251600D02*
X27600Y229200D01*
X50000Y251600D02*
X50000Y300000D01*
X51800Y301800D01*
X62600Y301800D01*
D26*
X265000Y116000D03*
M02*
