G04 EAGLE Gerber RS-274X export*
G04 #@! %TF.Part,Single*
G04 #@! %TF.FileFunction,Legend,Top,1*
G04 #@! %TF.FilePolarity,Positive*
G04 #@! %TF.GenerationSoftware,Autodesk,EAGLE,9.5.2*
G04 #@! %TF.CreationDate,2020-03-16T13:55:46Z*
G75*
%MOMM*%
%FSLAX34Y34*%
%LPD*%
%INSilkscreen Top*%
%IPPOS*%
%AMOC8*
5,1,8,0,0,1.08239X$1,22.5*%
G01*
%ADD10C,0.025400*%
%ADD11C,0.152400*%
%ADD12C,0.050800*%
%ADD13C,0.076200*%
%ADD14C,0.203200*%
%ADD15C,0.127000*%
%ADD16C,0.762000*%
%ADD17C,0.101600*%
%ADD18C,0.406400*%
%ADD19C,0.100000*%
%ADD20C,0.200000*%


D10*
X74642Y5313D02*
X73796Y5313D01*
X73741Y5315D01*
X73685Y5320D01*
X73631Y5329D01*
X73577Y5342D01*
X73524Y5358D01*
X73472Y5377D01*
X73421Y5400D01*
X73373Y5426D01*
X73325Y5456D01*
X73280Y5488D01*
X73238Y5523D01*
X73197Y5561D01*
X73159Y5602D01*
X73124Y5644D01*
X73092Y5689D01*
X73062Y5737D01*
X73036Y5785D01*
X73013Y5836D01*
X72994Y5888D01*
X72978Y5941D01*
X72965Y5995D01*
X72956Y6049D01*
X72951Y6105D01*
X72949Y6160D01*
X72949Y8276D01*
X72951Y8334D01*
X72957Y8391D01*
X72967Y8448D01*
X72980Y8505D01*
X72998Y8560D01*
X73019Y8613D01*
X73044Y8666D01*
X73072Y8716D01*
X73104Y8764D01*
X73139Y8811D01*
X73177Y8854D01*
X73218Y8895D01*
X73261Y8933D01*
X73308Y8968D01*
X73356Y9000D01*
X73406Y9028D01*
X73459Y9053D01*
X73512Y9074D01*
X73567Y9092D01*
X73624Y9105D01*
X73681Y9115D01*
X73738Y9121D01*
X73796Y9123D01*
X74642Y9123D01*
X76006Y8276D02*
X77065Y9123D01*
X77065Y5313D01*
X78123Y5313D02*
X76006Y5313D01*
X285424Y24377D02*
X286270Y24377D01*
X285424Y24377D02*
X285369Y24379D01*
X285313Y24384D01*
X285259Y24393D01*
X285205Y24406D01*
X285152Y24422D01*
X285100Y24441D01*
X285049Y24464D01*
X285001Y24490D01*
X284953Y24520D01*
X284908Y24552D01*
X284866Y24587D01*
X284825Y24625D01*
X284787Y24666D01*
X284752Y24708D01*
X284720Y24753D01*
X284690Y24801D01*
X284664Y24849D01*
X284641Y24900D01*
X284622Y24952D01*
X284606Y25005D01*
X284593Y25059D01*
X284584Y25113D01*
X284579Y25169D01*
X284577Y25224D01*
X284577Y27340D01*
X284579Y27398D01*
X284585Y27455D01*
X284595Y27512D01*
X284608Y27569D01*
X284626Y27624D01*
X284647Y27677D01*
X284672Y27730D01*
X284700Y27780D01*
X284732Y27828D01*
X284767Y27875D01*
X284805Y27918D01*
X284846Y27959D01*
X284889Y27997D01*
X284936Y28032D01*
X284984Y28064D01*
X285034Y28092D01*
X285087Y28117D01*
X285140Y28138D01*
X285195Y28156D01*
X285252Y28169D01*
X285309Y28179D01*
X285366Y28185D01*
X285424Y28187D01*
X286270Y28187D01*
X287634Y27340D02*
X288693Y28187D01*
X288693Y24377D01*
X289751Y24377D02*
X287634Y24377D01*
X291292Y26282D02*
X291294Y26392D01*
X291300Y26501D01*
X291309Y26610D01*
X291323Y26719D01*
X291340Y26827D01*
X291361Y26935D01*
X291385Y27041D01*
X291414Y27147D01*
X291446Y27252D01*
X291481Y27356D01*
X291520Y27458D01*
X291563Y27559D01*
X291610Y27658D01*
X291609Y27658D02*
X291629Y27708D01*
X291651Y27757D01*
X291677Y27805D01*
X291706Y27850D01*
X291739Y27893D01*
X291774Y27934D01*
X291812Y27973D01*
X291852Y28008D01*
X291895Y28041D01*
X291940Y28071D01*
X291987Y28098D01*
X292035Y28121D01*
X292085Y28141D01*
X292137Y28157D01*
X292189Y28170D01*
X292242Y28180D01*
X292296Y28185D01*
X292350Y28187D01*
X292404Y28185D01*
X292458Y28180D01*
X292511Y28170D01*
X292563Y28157D01*
X292615Y28141D01*
X292665Y28121D01*
X292713Y28098D01*
X292760Y28071D01*
X292805Y28041D01*
X292848Y28008D01*
X292888Y27973D01*
X292926Y27934D01*
X292961Y27893D01*
X292994Y27850D01*
X293023Y27805D01*
X293049Y27757D01*
X293071Y27708D01*
X293091Y27658D01*
X293138Y27559D01*
X293181Y27458D01*
X293220Y27356D01*
X293255Y27252D01*
X293287Y27147D01*
X293316Y27041D01*
X293340Y26935D01*
X293361Y26827D01*
X293378Y26719D01*
X293392Y26610D01*
X293401Y26501D01*
X293407Y26392D01*
X293409Y26282D01*
X291292Y26282D02*
X291294Y26172D01*
X291300Y26063D01*
X291309Y25954D01*
X291323Y25845D01*
X291340Y25737D01*
X291361Y25629D01*
X291385Y25523D01*
X291414Y25417D01*
X291446Y25312D01*
X291481Y25209D01*
X291520Y25106D01*
X291563Y25005D01*
X291610Y24906D01*
X291609Y24906D02*
X291629Y24856D01*
X291651Y24807D01*
X291677Y24759D01*
X291706Y24714D01*
X291739Y24671D01*
X291774Y24630D01*
X291812Y24591D01*
X291852Y24556D01*
X291895Y24523D01*
X291940Y24493D01*
X291987Y24466D01*
X292035Y24443D01*
X292085Y24423D01*
X292137Y24407D01*
X292189Y24394D01*
X292242Y24384D01*
X292296Y24379D01*
X292350Y24377D01*
X293091Y24906D02*
X293138Y25005D01*
X293181Y25106D01*
X293220Y25209D01*
X293255Y25312D01*
X293287Y25417D01*
X293316Y25523D01*
X293340Y25629D01*
X293361Y25737D01*
X293378Y25845D01*
X293392Y25954D01*
X293401Y26063D01*
X293407Y26172D01*
X293409Y26282D01*
X293091Y24906D02*
X293071Y24856D01*
X293049Y24807D01*
X293023Y24759D01*
X292994Y24714D01*
X292961Y24671D01*
X292926Y24630D01*
X292888Y24591D01*
X292848Y24556D01*
X292805Y24523D01*
X292760Y24493D01*
X292713Y24466D01*
X292665Y24443D01*
X292615Y24423D01*
X292563Y24407D01*
X292511Y24394D01*
X292458Y24384D01*
X292404Y24379D01*
X292350Y24377D01*
X291504Y25224D02*
X293197Y27340D01*
X282385Y315213D02*
X281538Y315213D01*
X281483Y315215D01*
X281427Y315220D01*
X281373Y315229D01*
X281319Y315242D01*
X281266Y315258D01*
X281214Y315277D01*
X281163Y315300D01*
X281115Y315326D01*
X281067Y315356D01*
X281022Y315388D01*
X280980Y315423D01*
X280939Y315461D01*
X280901Y315502D01*
X280866Y315544D01*
X280834Y315589D01*
X280804Y315637D01*
X280778Y315685D01*
X280755Y315736D01*
X280736Y315788D01*
X280720Y315841D01*
X280707Y315895D01*
X280698Y315949D01*
X280693Y316005D01*
X280691Y316060D01*
X280691Y318176D01*
X280693Y318234D01*
X280699Y318291D01*
X280709Y318348D01*
X280722Y318405D01*
X280740Y318460D01*
X280761Y318513D01*
X280786Y318566D01*
X280814Y318616D01*
X280846Y318664D01*
X280881Y318711D01*
X280919Y318754D01*
X280960Y318795D01*
X281003Y318833D01*
X281050Y318868D01*
X281098Y318900D01*
X281148Y318928D01*
X281201Y318953D01*
X281254Y318974D01*
X281309Y318992D01*
X281366Y319005D01*
X281423Y319015D01*
X281480Y319021D01*
X281538Y319023D01*
X282385Y319023D01*
X283749Y318176D02*
X284807Y319023D01*
X284807Y315213D01*
X283749Y315213D02*
X285865Y315213D01*
X287406Y315213D02*
X288465Y315213D01*
X288529Y315215D01*
X288593Y315221D01*
X288656Y315230D01*
X288718Y315244D01*
X288780Y315261D01*
X288840Y315282D01*
X288899Y315306D01*
X288957Y315334D01*
X289012Y315366D01*
X289066Y315400D01*
X289117Y315438D01*
X289167Y315479D01*
X289213Y315523D01*
X289257Y315569D01*
X289298Y315619D01*
X289336Y315670D01*
X289370Y315724D01*
X289402Y315779D01*
X289430Y315837D01*
X289454Y315896D01*
X289475Y315956D01*
X289492Y316018D01*
X289506Y316080D01*
X289515Y316143D01*
X289521Y316207D01*
X289523Y316271D01*
X289521Y316335D01*
X289515Y316399D01*
X289506Y316462D01*
X289492Y316524D01*
X289475Y316586D01*
X289454Y316646D01*
X289430Y316705D01*
X289402Y316763D01*
X289370Y316818D01*
X289336Y316872D01*
X289298Y316923D01*
X289257Y316973D01*
X289213Y317019D01*
X289167Y317063D01*
X289117Y317104D01*
X289066Y317142D01*
X289012Y317176D01*
X288957Y317208D01*
X288899Y317236D01*
X288840Y317260D01*
X288780Y317281D01*
X288718Y317298D01*
X288656Y317312D01*
X288593Y317321D01*
X288529Y317327D01*
X288465Y317329D01*
X288676Y319023D02*
X287406Y319023D01*
X288676Y319023D02*
X288733Y319021D01*
X288789Y319015D01*
X288845Y319006D01*
X288900Y318993D01*
X288954Y318976D01*
X289007Y318956D01*
X289058Y318932D01*
X289108Y318905D01*
X289155Y318874D01*
X289201Y318841D01*
X289244Y318804D01*
X289285Y318765D01*
X289323Y318723D01*
X289358Y318678D01*
X289390Y318632D01*
X289419Y318583D01*
X289444Y318533D01*
X289466Y318480D01*
X289485Y318427D01*
X289500Y318372D01*
X289511Y318317D01*
X289519Y318261D01*
X289523Y318204D01*
X289523Y318148D01*
X289519Y318091D01*
X289511Y318035D01*
X289500Y317980D01*
X289485Y317925D01*
X289466Y317872D01*
X289444Y317819D01*
X289419Y317769D01*
X289390Y317720D01*
X289358Y317674D01*
X289323Y317629D01*
X289285Y317587D01*
X289244Y317548D01*
X289201Y317511D01*
X289155Y317478D01*
X289108Y317447D01*
X289058Y317420D01*
X289007Y317396D01*
X288954Y317376D01*
X288900Y317359D01*
X288845Y317346D01*
X288789Y317337D01*
X288733Y317331D01*
X288676Y317329D01*
X288676Y317330D02*
X287830Y317330D01*
X198223Y279570D02*
X198223Y278724D01*
X198221Y278666D01*
X198215Y278609D01*
X198205Y278552D01*
X198192Y278495D01*
X198174Y278440D01*
X198153Y278387D01*
X198128Y278334D01*
X198100Y278284D01*
X198068Y278236D01*
X198033Y278189D01*
X197995Y278146D01*
X197954Y278105D01*
X197911Y278067D01*
X197864Y278032D01*
X197816Y278000D01*
X197766Y277972D01*
X197713Y277947D01*
X197660Y277926D01*
X197605Y277908D01*
X197548Y277895D01*
X197491Y277885D01*
X197434Y277879D01*
X197376Y277877D01*
X195260Y277877D01*
X195202Y277879D01*
X195145Y277885D01*
X195088Y277895D01*
X195031Y277908D01*
X194976Y277926D01*
X194923Y277947D01*
X194870Y277972D01*
X194820Y278000D01*
X194772Y278032D01*
X194725Y278067D01*
X194682Y278105D01*
X194641Y278146D01*
X194603Y278189D01*
X194568Y278236D01*
X194536Y278284D01*
X194508Y278334D01*
X194483Y278387D01*
X194462Y278440D01*
X194444Y278495D01*
X194431Y278552D01*
X194421Y278609D01*
X194415Y278666D01*
X194413Y278724D01*
X194413Y279570D01*
X195260Y280934D02*
X194413Y281993D01*
X198223Y281993D01*
X198223Y283051D02*
X198223Y280934D01*
X197376Y284592D02*
X194413Y285439D01*
X197376Y284592D02*
X197376Y286709D01*
X196530Y286074D02*
X198223Y286074D01*
X70435Y229663D02*
X69588Y229663D01*
X69533Y229665D01*
X69477Y229670D01*
X69423Y229679D01*
X69369Y229692D01*
X69316Y229708D01*
X69264Y229727D01*
X69213Y229750D01*
X69165Y229776D01*
X69117Y229806D01*
X69072Y229838D01*
X69030Y229873D01*
X68989Y229911D01*
X68951Y229952D01*
X68916Y229994D01*
X68884Y230039D01*
X68854Y230087D01*
X68828Y230135D01*
X68805Y230186D01*
X68786Y230238D01*
X68770Y230291D01*
X68757Y230345D01*
X68748Y230399D01*
X68743Y230455D01*
X68741Y230510D01*
X68741Y232626D01*
X68743Y232684D01*
X68749Y232741D01*
X68759Y232798D01*
X68772Y232855D01*
X68790Y232910D01*
X68811Y232963D01*
X68836Y233016D01*
X68864Y233066D01*
X68896Y233114D01*
X68931Y233161D01*
X68969Y233204D01*
X69010Y233245D01*
X69053Y233283D01*
X69100Y233318D01*
X69148Y233350D01*
X69198Y233378D01*
X69251Y233403D01*
X69304Y233424D01*
X69359Y233442D01*
X69416Y233455D01*
X69473Y233465D01*
X69530Y233471D01*
X69588Y233473D01*
X70435Y233473D01*
X71799Y232626D02*
X72857Y233473D01*
X72857Y229663D01*
X71799Y229663D02*
X73915Y229663D01*
X75456Y229663D02*
X76726Y229663D01*
X76781Y229665D01*
X76837Y229670D01*
X76891Y229679D01*
X76945Y229692D01*
X76998Y229708D01*
X77050Y229727D01*
X77101Y229750D01*
X77150Y229776D01*
X77197Y229806D01*
X77242Y229838D01*
X77284Y229873D01*
X77325Y229911D01*
X77363Y229952D01*
X77398Y229994D01*
X77430Y230039D01*
X77460Y230087D01*
X77486Y230135D01*
X77509Y230186D01*
X77528Y230238D01*
X77544Y230291D01*
X77557Y230345D01*
X77566Y230399D01*
X77571Y230455D01*
X77573Y230510D01*
X77573Y230933D01*
X77571Y230988D01*
X77566Y231044D01*
X77557Y231098D01*
X77544Y231152D01*
X77528Y231205D01*
X77509Y231257D01*
X77486Y231308D01*
X77460Y231357D01*
X77430Y231404D01*
X77398Y231449D01*
X77363Y231491D01*
X77325Y231532D01*
X77284Y231570D01*
X77242Y231605D01*
X77197Y231637D01*
X77150Y231667D01*
X77101Y231693D01*
X77050Y231716D01*
X76998Y231735D01*
X76945Y231751D01*
X76891Y231764D01*
X76837Y231773D01*
X76781Y231778D01*
X76726Y231780D01*
X75456Y231780D01*
X75456Y233473D01*
X77573Y233473D01*
X164987Y110385D02*
X164987Y109538D01*
X164985Y109480D01*
X164979Y109423D01*
X164969Y109366D01*
X164956Y109309D01*
X164938Y109254D01*
X164917Y109201D01*
X164892Y109148D01*
X164864Y109098D01*
X164832Y109050D01*
X164797Y109003D01*
X164759Y108960D01*
X164718Y108919D01*
X164675Y108881D01*
X164628Y108846D01*
X164580Y108814D01*
X164530Y108786D01*
X164477Y108761D01*
X164424Y108740D01*
X164369Y108722D01*
X164312Y108709D01*
X164255Y108699D01*
X164198Y108693D01*
X164140Y108691D01*
X162024Y108691D01*
X161966Y108693D01*
X161909Y108699D01*
X161852Y108709D01*
X161795Y108722D01*
X161740Y108740D01*
X161687Y108761D01*
X161634Y108786D01*
X161584Y108814D01*
X161536Y108846D01*
X161489Y108881D01*
X161446Y108919D01*
X161405Y108960D01*
X161367Y109003D01*
X161332Y109050D01*
X161300Y109098D01*
X161272Y109148D01*
X161247Y109201D01*
X161226Y109254D01*
X161208Y109309D01*
X161195Y109366D01*
X161185Y109423D01*
X161179Y109480D01*
X161177Y109538D01*
X161177Y110385D01*
X162024Y111749D02*
X161177Y112807D01*
X164987Y112807D01*
X164987Y111749D02*
X164987Y113865D01*
X161600Y115406D02*
X161177Y115406D01*
X161177Y117523D01*
X164987Y116465D01*
X319223Y146924D02*
X319223Y147770D01*
X319223Y146924D02*
X319221Y146866D01*
X319215Y146809D01*
X319205Y146752D01*
X319192Y146695D01*
X319174Y146640D01*
X319153Y146587D01*
X319128Y146534D01*
X319100Y146484D01*
X319068Y146436D01*
X319033Y146389D01*
X318995Y146346D01*
X318954Y146305D01*
X318911Y146267D01*
X318864Y146232D01*
X318816Y146200D01*
X318766Y146172D01*
X318713Y146147D01*
X318660Y146126D01*
X318605Y146108D01*
X318548Y146095D01*
X318491Y146085D01*
X318434Y146079D01*
X318376Y146077D01*
X316260Y146077D01*
X316202Y146079D01*
X316145Y146085D01*
X316088Y146095D01*
X316031Y146108D01*
X315976Y146126D01*
X315923Y146147D01*
X315870Y146172D01*
X315820Y146200D01*
X315772Y146232D01*
X315725Y146267D01*
X315682Y146305D01*
X315641Y146346D01*
X315603Y146389D01*
X315568Y146436D01*
X315536Y146484D01*
X315508Y146534D01*
X315483Y146587D01*
X315462Y146640D01*
X315444Y146695D01*
X315431Y146752D01*
X315421Y146809D01*
X315415Y146866D01*
X315413Y146924D01*
X315413Y147770D01*
X315413Y150299D02*
X315415Y150359D01*
X315421Y150418D01*
X315430Y150478D01*
X315443Y150536D01*
X315460Y150593D01*
X315480Y150650D01*
X315504Y150705D01*
X315531Y150758D01*
X315561Y150810D01*
X315595Y150859D01*
X315632Y150906D01*
X315671Y150951D01*
X315714Y150994D01*
X315759Y151033D01*
X315806Y151070D01*
X315855Y151104D01*
X315907Y151134D01*
X315960Y151161D01*
X316015Y151185D01*
X316072Y151205D01*
X316129Y151222D01*
X316187Y151235D01*
X316247Y151244D01*
X316306Y151250D01*
X316366Y151252D01*
X315413Y150299D02*
X315415Y150232D01*
X315420Y150165D01*
X315429Y150099D01*
X315442Y150033D01*
X315458Y149969D01*
X315478Y149905D01*
X315502Y149842D01*
X315528Y149780D01*
X315558Y149721D01*
X315591Y149663D01*
X315628Y149606D01*
X315667Y149552D01*
X315709Y149500D01*
X315754Y149451D01*
X315802Y149404D01*
X315852Y149360D01*
X315905Y149318D01*
X315960Y149280D01*
X316016Y149244D01*
X316075Y149212D01*
X316135Y149183D01*
X316197Y149157D01*
X316260Y149135D01*
X317107Y150933D02*
X317065Y150975D01*
X317020Y151014D01*
X316974Y151051D01*
X316925Y151085D01*
X316875Y151115D01*
X316823Y151143D01*
X316769Y151168D01*
X316714Y151190D01*
X316658Y151209D01*
X316601Y151224D01*
X316543Y151236D01*
X316484Y151244D01*
X316425Y151249D01*
X316366Y151251D01*
X317106Y150934D02*
X319223Y149134D01*
X319223Y151251D01*
X316366Y154909D02*
X316306Y154907D01*
X316247Y154901D01*
X316187Y154892D01*
X316129Y154879D01*
X316072Y154862D01*
X316015Y154842D01*
X315960Y154818D01*
X315907Y154791D01*
X315855Y154761D01*
X315806Y154727D01*
X315759Y154690D01*
X315714Y154651D01*
X315671Y154608D01*
X315632Y154563D01*
X315595Y154516D01*
X315561Y154467D01*
X315531Y154415D01*
X315504Y154362D01*
X315480Y154307D01*
X315460Y154250D01*
X315443Y154193D01*
X315430Y154135D01*
X315421Y154075D01*
X315415Y154016D01*
X315413Y153956D01*
X315415Y153889D01*
X315420Y153822D01*
X315429Y153756D01*
X315442Y153690D01*
X315458Y153626D01*
X315478Y153562D01*
X315502Y153499D01*
X315528Y153437D01*
X315558Y153378D01*
X315591Y153320D01*
X315628Y153263D01*
X315667Y153209D01*
X315709Y153157D01*
X315754Y153108D01*
X315802Y153061D01*
X315852Y153017D01*
X315905Y152975D01*
X315960Y152937D01*
X316016Y152901D01*
X316075Y152869D01*
X316135Y152840D01*
X316197Y152814D01*
X316260Y152792D01*
X317107Y154591D02*
X317065Y154633D01*
X317020Y154672D01*
X316974Y154709D01*
X316925Y154743D01*
X316875Y154773D01*
X316823Y154801D01*
X316769Y154826D01*
X316714Y154848D01*
X316658Y154867D01*
X316601Y154882D01*
X316543Y154894D01*
X316484Y154902D01*
X316425Y154907D01*
X316366Y154909D01*
X317106Y154591D02*
X319223Y152792D01*
X319223Y154909D01*
X314770Y119777D02*
X313924Y119777D01*
X313869Y119779D01*
X313813Y119784D01*
X313759Y119793D01*
X313705Y119806D01*
X313652Y119822D01*
X313600Y119841D01*
X313549Y119864D01*
X313501Y119890D01*
X313453Y119920D01*
X313408Y119952D01*
X313366Y119987D01*
X313325Y120025D01*
X313287Y120066D01*
X313252Y120108D01*
X313220Y120153D01*
X313190Y120201D01*
X313164Y120249D01*
X313141Y120300D01*
X313122Y120352D01*
X313106Y120405D01*
X313093Y120459D01*
X313084Y120513D01*
X313079Y120569D01*
X313077Y120624D01*
X313077Y122740D01*
X313079Y122798D01*
X313085Y122855D01*
X313095Y122912D01*
X313108Y122969D01*
X313126Y123024D01*
X313147Y123077D01*
X313172Y123130D01*
X313200Y123180D01*
X313232Y123228D01*
X313267Y123275D01*
X313305Y123318D01*
X313346Y123359D01*
X313389Y123397D01*
X313436Y123432D01*
X313484Y123464D01*
X313534Y123492D01*
X313587Y123517D01*
X313640Y123538D01*
X313695Y123556D01*
X313752Y123569D01*
X313809Y123579D01*
X313866Y123585D01*
X313924Y123587D01*
X314770Y123587D01*
X317299Y123588D02*
X317359Y123586D01*
X317418Y123580D01*
X317478Y123571D01*
X317536Y123558D01*
X317593Y123541D01*
X317650Y123521D01*
X317705Y123497D01*
X317758Y123470D01*
X317810Y123440D01*
X317859Y123406D01*
X317906Y123369D01*
X317951Y123330D01*
X317994Y123287D01*
X318033Y123242D01*
X318070Y123195D01*
X318104Y123146D01*
X318134Y123094D01*
X318161Y123041D01*
X318185Y122986D01*
X318205Y122929D01*
X318222Y122872D01*
X318235Y122814D01*
X318244Y122754D01*
X318250Y122695D01*
X318252Y122635D01*
X317299Y123587D02*
X317232Y123585D01*
X317165Y123580D01*
X317099Y123571D01*
X317033Y123558D01*
X316969Y123542D01*
X316905Y123522D01*
X316842Y123498D01*
X316780Y123472D01*
X316721Y123442D01*
X316663Y123409D01*
X316606Y123372D01*
X316552Y123333D01*
X316500Y123291D01*
X316451Y123246D01*
X316404Y123198D01*
X316360Y123148D01*
X316318Y123095D01*
X316280Y123040D01*
X316244Y122984D01*
X316212Y122925D01*
X316183Y122865D01*
X316157Y122803D01*
X316135Y122740D01*
X317934Y121894D02*
X317975Y121936D01*
X318014Y121981D01*
X318051Y122027D01*
X318085Y122076D01*
X318116Y122126D01*
X318143Y122178D01*
X318168Y122232D01*
X318190Y122287D01*
X318209Y122343D01*
X318224Y122400D01*
X318236Y122458D01*
X318244Y122517D01*
X318249Y122576D01*
X318251Y122635D01*
X317934Y121894D02*
X316134Y119777D01*
X318251Y119777D01*
X319792Y123164D02*
X319792Y123587D01*
X321909Y123587D01*
X320850Y119777D01*
X552824Y307977D02*
X553670Y307977D01*
X552824Y307977D02*
X552769Y307979D01*
X552713Y307984D01*
X552659Y307993D01*
X552605Y308006D01*
X552552Y308022D01*
X552500Y308041D01*
X552449Y308064D01*
X552401Y308090D01*
X552353Y308120D01*
X552308Y308152D01*
X552266Y308187D01*
X552225Y308225D01*
X552187Y308266D01*
X552152Y308308D01*
X552120Y308353D01*
X552090Y308401D01*
X552064Y308449D01*
X552041Y308500D01*
X552022Y308552D01*
X552006Y308605D01*
X551993Y308659D01*
X551984Y308713D01*
X551979Y308769D01*
X551977Y308824D01*
X551977Y310940D01*
X551979Y310998D01*
X551985Y311055D01*
X551995Y311112D01*
X552008Y311169D01*
X552026Y311224D01*
X552047Y311277D01*
X552072Y311330D01*
X552100Y311380D01*
X552132Y311428D01*
X552167Y311475D01*
X552205Y311518D01*
X552246Y311559D01*
X552289Y311597D01*
X552336Y311632D01*
X552384Y311664D01*
X552434Y311692D01*
X552487Y311717D01*
X552540Y311738D01*
X552595Y311756D01*
X552652Y311769D01*
X552709Y311779D01*
X552766Y311785D01*
X552824Y311787D01*
X553670Y311787D01*
X556199Y311788D02*
X556259Y311786D01*
X556318Y311780D01*
X556378Y311771D01*
X556436Y311758D01*
X556493Y311741D01*
X556550Y311721D01*
X556605Y311697D01*
X556658Y311670D01*
X556710Y311640D01*
X556759Y311606D01*
X556806Y311569D01*
X556851Y311530D01*
X556894Y311487D01*
X556933Y311442D01*
X556970Y311395D01*
X557004Y311346D01*
X557034Y311294D01*
X557061Y311241D01*
X557085Y311186D01*
X557105Y311129D01*
X557122Y311072D01*
X557135Y311014D01*
X557144Y310954D01*
X557150Y310895D01*
X557152Y310835D01*
X556199Y311787D02*
X556132Y311785D01*
X556065Y311780D01*
X555999Y311771D01*
X555933Y311758D01*
X555869Y311742D01*
X555805Y311722D01*
X555742Y311698D01*
X555680Y311672D01*
X555621Y311642D01*
X555563Y311609D01*
X555506Y311572D01*
X555452Y311533D01*
X555400Y311491D01*
X555351Y311446D01*
X555304Y311398D01*
X555260Y311348D01*
X555218Y311295D01*
X555180Y311240D01*
X555144Y311184D01*
X555112Y311125D01*
X555083Y311065D01*
X555057Y311003D01*
X555035Y310940D01*
X556834Y310094D02*
X556875Y310136D01*
X556914Y310181D01*
X556951Y310227D01*
X556985Y310276D01*
X557016Y310326D01*
X557043Y310378D01*
X557068Y310432D01*
X557090Y310487D01*
X557109Y310543D01*
X557124Y310600D01*
X557136Y310658D01*
X557144Y310717D01*
X557149Y310776D01*
X557151Y310835D01*
X556834Y310094D02*
X555034Y307977D01*
X557151Y307977D01*
X558692Y309035D02*
X558694Y309099D01*
X558700Y309163D01*
X558709Y309226D01*
X558723Y309288D01*
X558740Y309350D01*
X558761Y309410D01*
X558785Y309469D01*
X558813Y309527D01*
X558845Y309582D01*
X558879Y309636D01*
X558917Y309687D01*
X558958Y309737D01*
X559002Y309783D01*
X559048Y309827D01*
X559098Y309868D01*
X559149Y309906D01*
X559203Y309940D01*
X559258Y309972D01*
X559316Y310000D01*
X559375Y310024D01*
X559435Y310045D01*
X559497Y310062D01*
X559559Y310076D01*
X559622Y310085D01*
X559686Y310091D01*
X559750Y310093D01*
X559814Y310091D01*
X559878Y310085D01*
X559941Y310076D01*
X560003Y310062D01*
X560065Y310045D01*
X560125Y310024D01*
X560184Y310000D01*
X560242Y309972D01*
X560297Y309940D01*
X560351Y309906D01*
X560402Y309868D01*
X560452Y309827D01*
X560498Y309783D01*
X560542Y309737D01*
X560583Y309687D01*
X560621Y309636D01*
X560655Y309582D01*
X560687Y309527D01*
X560715Y309469D01*
X560739Y309410D01*
X560760Y309350D01*
X560777Y309288D01*
X560791Y309226D01*
X560800Y309163D01*
X560806Y309099D01*
X560808Y309035D01*
X560806Y308971D01*
X560800Y308907D01*
X560791Y308844D01*
X560777Y308782D01*
X560760Y308720D01*
X560739Y308660D01*
X560715Y308601D01*
X560687Y308543D01*
X560655Y308488D01*
X560621Y308434D01*
X560583Y308383D01*
X560542Y308333D01*
X560498Y308287D01*
X560452Y308243D01*
X560402Y308202D01*
X560351Y308164D01*
X560297Y308130D01*
X560242Y308098D01*
X560184Y308070D01*
X560125Y308046D01*
X560065Y308025D01*
X560003Y308008D01*
X559941Y307994D01*
X559878Y307985D01*
X559814Y307979D01*
X559750Y307977D01*
X559686Y307979D01*
X559622Y307985D01*
X559559Y307994D01*
X559497Y308008D01*
X559435Y308025D01*
X559375Y308046D01*
X559316Y308070D01*
X559258Y308098D01*
X559203Y308130D01*
X559149Y308164D01*
X559098Y308202D01*
X559048Y308243D01*
X559002Y308287D01*
X558958Y308333D01*
X558917Y308383D01*
X558879Y308434D01*
X558845Y308488D01*
X558813Y308543D01*
X558785Y308601D01*
X558761Y308660D01*
X558740Y308720D01*
X558723Y308782D01*
X558709Y308844D01*
X558700Y308907D01*
X558694Y308971D01*
X558692Y309035D01*
X558903Y310940D02*
X558905Y310997D01*
X558911Y311053D01*
X558920Y311109D01*
X558933Y311164D01*
X558950Y311218D01*
X558970Y311271D01*
X558994Y311322D01*
X559021Y311372D01*
X559052Y311419D01*
X559085Y311465D01*
X559122Y311508D01*
X559161Y311549D01*
X559203Y311587D01*
X559248Y311622D01*
X559294Y311654D01*
X559343Y311683D01*
X559393Y311708D01*
X559446Y311730D01*
X559499Y311749D01*
X559554Y311764D01*
X559609Y311775D01*
X559665Y311783D01*
X559722Y311787D01*
X559778Y311787D01*
X559835Y311783D01*
X559891Y311775D01*
X559946Y311764D01*
X560001Y311749D01*
X560054Y311730D01*
X560107Y311708D01*
X560157Y311683D01*
X560206Y311654D01*
X560252Y311622D01*
X560297Y311587D01*
X560339Y311549D01*
X560378Y311508D01*
X560415Y311465D01*
X560448Y311419D01*
X560479Y311372D01*
X560506Y311322D01*
X560530Y311271D01*
X560550Y311218D01*
X560567Y311164D01*
X560580Y311109D01*
X560589Y311053D01*
X560595Y310997D01*
X560597Y310940D01*
X560595Y310883D01*
X560589Y310827D01*
X560580Y310771D01*
X560567Y310716D01*
X560550Y310662D01*
X560530Y310609D01*
X560506Y310558D01*
X560479Y310508D01*
X560448Y310461D01*
X560415Y310415D01*
X560378Y310372D01*
X560339Y310331D01*
X560297Y310293D01*
X560252Y310258D01*
X560206Y310226D01*
X560157Y310197D01*
X560107Y310172D01*
X560054Y310150D01*
X560001Y310131D01*
X559946Y310116D01*
X559891Y310105D01*
X559835Y310097D01*
X559778Y310093D01*
X559722Y310093D01*
X559665Y310097D01*
X559609Y310105D01*
X559554Y310116D01*
X559499Y310131D01*
X559446Y310150D01*
X559393Y310172D01*
X559343Y310197D01*
X559294Y310226D01*
X559248Y310258D01*
X559203Y310293D01*
X559161Y310331D01*
X559122Y310372D01*
X559085Y310415D01*
X559052Y310461D01*
X559021Y310508D01*
X558994Y310558D01*
X558970Y310609D01*
X558950Y310662D01*
X558933Y310716D01*
X558920Y310771D01*
X558911Y310827D01*
X558905Y310883D01*
X558903Y310940D01*
X646988Y231763D02*
X647835Y231763D01*
X646988Y231763D02*
X646933Y231765D01*
X646877Y231770D01*
X646823Y231779D01*
X646769Y231792D01*
X646716Y231808D01*
X646664Y231827D01*
X646613Y231850D01*
X646565Y231876D01*
X646517Y231906D01*
X646472Y231938D01*
X646430Y231973D01*
X646389Y232011D01*
X646351Y232052D01*
X646316Y232094D01*
X646284Y232139D01*
X646254Y232187D01*
X646228Y232235D01*
X646205Y232286D01*
X646186Y232338D01*
X646170Y232391D01*
X646157Y232445D01*
X646148Y232499D01*
X646143Y232555D01*
X646141Y232610D01*
X646141Y234726D01*
X646143Y234784D01*
X646149Y234841D01*
X646159Y234898D01*
X646172Y234955D01*
X646190Y235010D01*
X646211Y235063D01*
X646236Y235116D01*
X646264Y235166D01*
X646296Y235214D01*
X646331Y235261D01*
X646369Y235304D01*
X646410Y235345D01*
X646453Y235383D01*
X646500Y235418D01*
X646548Y235450D01*
X646598Y235478D01*
X646651Y235503D01*
X646704Y235524D01*
X646759Y235542D01*
X646816Y235555D01*
X646873Y235565D01*
X646930Y235571D01*
X646988Y235573D01*
X647835Y235573D01*
X650363Y235574D02*
X650423Y235572D01*
X650482Y235566D01*
X650542Y235557D01*
X650600Y235544D01*
X650657Y235527D01*
X650714Y235507D01*
X650769Y235483D01*
X650822Y235456D01*
X650874Y235426D01*
X650923Y235392D01*
X650970Y235355D01*
X651015Y235316D01*
X651058Y235273D01*
X651097Y235228D01*
X651134Y235181D01*
X651168Y235132D01*
X651198Y235080D01*
X651225Y235027D01*
X651249Y234972D01*
X651269Y234915D01*
X651286Y234858D01*
X651299Y234800D01*
X651308Y234740D01*
X651314Y234681D01*
X651316Y234621D01*
X650363Y235573D02*
X650296Y235571D01*
X650229Y235566D01*
X650163Y235557D01*
X650097Y235544D01*
X650033Y235528D01*
X649969Y235508D01*
X649906Y235484D01*
X649844Y235458D01*
X649785Y235428D01*
X649727Y235395D01*
X649670Y235358D01*
X649616Y235319D01*
X649564Y235277D01*
X649515Y235232D01*
X649468Y235184D01*
X649424Y235134D01*
X649382Y235081D01*
X649344Y235026D01*
X649308Y234970D01*
X649276Y234911D01*
X649247Y234851D01*
X649221Y234789D01*
X649199Y234726D01*
X650998Y233880D02*
X651039Y233922D01*
X651078Y233967D01*
X651115Y234013D01*
X651149Y234062D01*
X651180Y234112D01*
X651207Y234164D01*
X651232Y234218D01*
X651254Y234273D01*
X651273Y234329D01*
X651288Y234386D01*
X651300Y234444D01*
X651308Y234503D01*
X651313Y234562D01*
X651315Y234621D01*
X650998Y233880D02*
X649199Y231763D01*
X651315Y231763D01*
X653703Y233456D02*
X654973Y233456D01*
X653703Y233456D02*
X653648Y233458D01*
X653592Y233463D01*
X653538Y233472D01*
X653484Y233485D01*
X653431Y233501D01*
X653379Y233520D01*
X653328Y233543D01*
X653280Y233569D01*
X653232Y233599D01*
X653187Y233631D01*
X653145Y233666D01*
X653104Y233704D01*
X653066Y233745D01*
X653031Y233787D01*
X652999Y233832D01*
X652969Y233880D01*
X652943Y233928D01*
X652920Y233979D01*
X652901Y234031D01*
X652885Y234084D01*
X652872Y234138D01*
X652863Y234192D01*
X652858Y234248D01*
X652856Y234303D01*
X652856Y234515D01*
X652857Y234515D02*
X652859Y234579D01*
X652865Y234643D01*
X652874Y234706D01*
X652888Y234768D01*
X652905Y234830D01*
X652926Y234890D01*
X652950Y234949D01*
X652978Y235007D01*
X653010Y235062D01*
X653044Y235116D01*
X653082Y235167D01*
X653123Y235217D01*
X653167Y235263D01*
X653213Y235307D01*
X653263Y235348D01*
X653314Y235386D01*
X653368Y235420D01*
X653423Y235452D01*
X653481Y235480D01*
X653540Y235504D01*
X653600Y235525D01*
X653662Y235542D01*
X653724Y235556D01*
X653787Y235565D01*
X653851Y235571D01*
X653915Y235573D01*
X653979Y235571D01*
X654043Y235565D01*
X654106Y235556D01*
X654168Y235542D01*
X654230Y235525D01*
X654290Y235504D01*
X654349Y235480D01*
X654407Y235452D01*
X654462Y235420D01*
X654516Y235386D01*
X654567Y235348D01*
X654617Y235307D01*
X654663Y235263D01*
X654707Y235217D01*
X654748Y235167D01*
X654786Y235116D01*
X654820Y235062D01*
X654852Y235007D01*
X654880Y234949D01*
X654904Y234890D01*
X654925Y234830D01*
X654942Y234768D01*
X654956Y234706D01*
X654965Y234643D01*
X654971Y234579D01*
X654973Y234515D01*
X654973Y233456D01*
X654971Y233375D01*
X654965Y233295D01*
X654956Y233215D01*
X654942Y233136D01*
X654925Y233057D01*
X654904Y232979D01*
X654880Y232902D01*
X654852Y232827D01*
X654820Y232753D01*
X654785Y232680D01*
X654746Y232610D01*
X654704Y232541D01*
X654659Y232474D01*
X654611Y232409D01*
X654559Y232347D01*
X654505Y232288D01*
X654448Y232231D01*
X654389Y232177D01*
X654327Y232125D01*
X654262Y232077D01*
X654195Y232032D01*
X654127Y231990D01*
X654056Y231951D01*
X653983Y231916D01*
X653909Y231884D01*
X653834Y231856D01*
X653757Y231832D01*
X653679Y231811D01*
X653600Y231794D01*
X653521Y231780D01*
X653441Y231771D01*
X653361Y231765D01*
X653280Y231763D01*
X602987Y222385D02*
X602987Y221538D01*
X602985Y221480D01*
X602979Y221423D01*
X602969Y221366D01*
X602956Y221309D01*
X602938Y221254D01*
X602917Y221201D01*
X602892Y221148D01*
X602864Y221098D01*
X602832Y221050D01*
X602797Y221003D01*
X602759Y220960D01*
X602718Y220919D01*
X602675Y220881D01*
X602628Y220846D01*
X602580Y220814D01*
X602530Y220786D01*
X602477Y220761D01*
X602424Y220740D01*
X602369Y220722D01*
X602312Y220709D01*
X602255Y220699D01*
X602198Y220693D01*
X602140Y220691D01*
X600024Y220691D01*
X599966Y220693D01*
X599909Y220699D01*
X599852Y220709D01*
X599795Y220722D01*
X599740Y220740D01*
X599687Y220761D01*
X599634Y220786D01*
X599584Y220814D01*
X599536Y220846D01*
X599489Y220881D01*
X599446Y220919D01*
X599405Y220960D01*
X599367Y221003D01*
X599332Y221050D01*
X599300Y221098D01*
X599272Y221148D01*
X599247Y221201D01*
X599226Y221254D01*
X599208Y221309D01*
X599195Y221366D01*
X599185Y221423D01*
X599179Y221480D01*
X599177Y221538D01*
X599177Y222385D01*
X602987Y223749D02*
X602987Y224807D01*
X602985Y224871D01*
X602979Y224935D01*
X602970Y224998D01*
X602956Y225060D01*
X602939Y225122D01*
X602918Y225182D01*
X602894Y225241D01*
X602866Y225299D01*
X602834Y225354D01*
X602800Y225408D01*
X602762Y225459D01*
X602721Y225509D01*
X602677Y225555D01*
X602631Y225599D01*
X602581Y225640D01*
X602530Y225678D01*
X602476Y225712D01*
X602421Y225744D01*
X602363Y225772D01*
X602304Y225796D01*
X602244Y225817D01*
X602182Y225834D01*
X602120Y225848D01*
X602057Y225857D01*
X601993Y225863D01*
X601929Y225865D01*
X601865Y225863D01*
X601801Y225857D01*
X601738Y225848D01*
X601676Y225834D01*
X601614Y225817D01*
X601554Y225796D01*
X601495Y225772D01*
X601437Y225744D01*
X601382Y225712D01*
X601328Y225678D01*
X601277Y225640D01*
X601227Y225599D01*
X601181Y225555D01*
X601137Y225509D01*
X601096Y225459D01*
X601058Y225408D01*
X601024Y225354D01*
X600992Y225299D01*
X600964Y225241D01*
X600940Y225182D01*
X600919Y225122D01*
X600902Y225060D01*
X600888Y224998D01*
X600879Y224935D01*
X600873Y224871D01*
X600871Y224807D01*
X599177Y225019D02*
X599177Y223749D01*
X599177Y225019D02*
X599179Y225076D01*
X599185Y225132D01*
X599194Y225188D01*
X599207Y225243D01*
X599224Y225297D01*
X599244Y225350D01*
X599268Y225401D01*
X599295Y225451D01*
X599326Y225498D01*
X599359Y225544D01*
X599396Y225587D01*
X599435Y225628D01*
X599477Y225666D01*
X599522Y225701D01*
X599568Y225733D01*
X599617Y225762D01*
X599667Y225787D01*
X599720Y225809D01*
X599773Y225828D01*
X599828Y225843D01*
X599883Y225854D01*
X599939Y225862D01*
X599996Y225866D01*
X600052Y225866D01*
X600109Y225862D01*
X600165Y225854D01*
X600220Y225843D01*
X600275Y225828D01*
X600328Y225809D01*
X600381Y225787D01*
X600431Y225762D01*
X600480Y225733D01*
X600526Y225701D01*
X600571Y225666D01*
X600613Y225628D01*
X600652Y225587D01*
X600689Y225544D01*
X600722Y225498D01*
X600753Y225451D01*
X600780Y225401D01*
X600804Y225350D01*
X600824Y225297D01*
X600841Y225243D01*
X600854Y225188D01*
X600863Y225132D01*
X600869Y225076D01*
X600871Y225019D01*
X600870Y225019D02*
X600870Y224172D01*
X601082Y227406D02*
X600972Y227408D01*
X600863Y227414D01*
X600754Y227423D01*
X600645Y227437D01*
X600537Y227454D01*
X600429Y227475D01*
X600323Y227499D01*
X600217Y227528D01*
X600112Y227560D01*
X600008Y227595D01*
X599906Y227634D01*
X599805Y227677D01*
X599706Y227724D01*
X599656Y227744D01*
X599607Y227766D01*
X599559Y227792D01*
X599514Y227821D01*
X599471Y227854D01*
X599430Y227889D01*
X599391Y227927D01*
X599356Y227967D01*
X599323Y228010D01*
X599293Y228055D01*
X599266Y228102D01*
X599243Y228150D01*
X599223Y228200D01*
X599207Y228252D01*
X599194Y228304D01*
X599184Y228357D01*
X599179Y228411D01*
X599177Y228465D01*
X599179Y228519D01*
X599184Y228573D01*
X599194Y228626D01*
X599207Y228678D01*
X599223Y228730D01*
X599243Y228780D01*
X599266Y228828D01*
X599293Y228875D01*
X599323Y228920D01*
X599356Y228963D01*
X599391Y229003D01*
X599430Y229041D01*
X599471Y229076D01*
X599514Y229109D01*
X599559Y229138D01*
X599607Y229164D01*
X599656Y229186D01*
X599706Y229206D01*
X599706Y229205D02*
X599805Y229252D01*
X599906Y229295D01*
X600008Y229334D01*
X600112Y229369D01*
X600217Y229401D01*
X600323Y229430D01*
X600429Y229454D01*
X600537Y229475D01*
X600645Y229492D01*
X600754Y229506D01*
X600863Y229515D01*
X600972Y229521D01*
X601082Y229523D01*
X601082Y227406D02*
X601192Y227408D01*
X601301Y227414D01*
X601410Y227423D01*
X601519Y227437D01*
X601627Y227454D01*
X601735Y227475D01*
X601841Y227499D01*
X601947Y227528D01*
X602052Y227560D01*
X602156Y227595D01*
X602258Y227634D01*
X602359Y227677D01*
X602458Y227724D01*
X602508Y227744D01*
X602557Y227766D01*
X602605Y227792D01*
X602650Y227821D01*
X602693Y227854D01*
X602734Y227889D01*
X602773Y227927D01*
X602808Y227967D01*
X602841Y228010D01*
X602871Y228055D01*
X602898Y228102D01*
X602921Y228150D01*
X602941Y228201D01*
X602957Y228252D01*
X602970Y228304D01*
X602980Y228357D01*
X602985Y228411D01*
X602987Y228465D01*
X602458Y229205D02*
X602359Y229252D01*
X602258Y229295D01*
X602156Y229334D01*
X602052Y229369D01*
X601947Y229401D01*
X601841Y229430D01*
X601735Y229454D01*
X601627Y229475D01*
X601519Y229492D01*
X601410Y229506D01*
X601301Y229515D01*
X601192Y229521D01*
X601082Y229523D01*
X602458Y229206D02*
X602508Y229186D01*
X602557Y229164D01*
X602605Y229138D01*
X602650Y229109D01*
X602693Y229076D01*
X602734Y229041D01*
X602773Y229003D01*
X602808Y228963D01*
X602841Y228920D01*
X602871Y228875D01*
X602898Y228828D01*
X602921Y228780D01*
X602941Y228729D01*
X602957Y228678D01*
X602970Y228626D01*
X602980Y228573D01*
X602985Y228519D01*
X602987Y228465D01*
X602140Y227618D02*
X600024Y229311D01*
X624688Y232163D02*
X625535Y232163D01*
X624688Y232163D02*
X624633Y232165D01*
X624577Y232170D01*
X624523Y232179D01*
X624469Y232192D01*
X624416Y232208D01*
X624364Y232227D01*
X624313Y232250D01*
X624265Y232276D01*
X624217Y232306D01*
X624172Y232338D01*
X624130Y232373D01*
X624089Y232411D01*
X624051Y232452D01*
X624016Y232494D01*
X623984Y232539D01*
X623954Y232587D01*
X623928Y232635D01*
X623905Y232686D01*
X623886Y232738D01*
X623870Y232791D01*
X623857Y232845D01*
X623848Y232899D01*
X623843Y232955D01*
X623841Y233010D01*
X623841Y235126D01*
X623843Y235184D01*
X623849Y235241D01*
X623859Y235298D01*
X623872Y235355D01*
X623890Y235410D01*
X623911Y235463D01*
X623936Y235516D01*
X623964Y235566D01*
X623996Y235614D01*
X624031Y235661D01*
X624069Y235704D01*
X624110Y235745D01*
X624153Y235783D01*
X624200Y235818D01*
X624248Y235850D01*
X624298Y235878D01*
X624351Y235903D01*
X624404Y235924D01*
X624459Y235942D01*
X624516Y235955D01*
X624573Y235965D01*
X624630Y235971D01*
X624688Y235973D01*
X625535Y235973D01*
X626899Y232163D02*
X627957Y232163D01*
X628021Y232165D01*
X628085Y232171D01*
X628148Y232180D01*
X628210Y232194D01*
X628272Y232211D01*
X628332Y232232D01*
X628391Y232256D01*
X628449Y232284D01*
X628504Y232316D01*
X628558Y232350D01*
X628609Y232388D01*
X628659Y232429D01*
X628705Y232473D01*
X628749Y232519D01*
X628790Y232569D01*
X628828Y232620D01*
X628862Y232674D01*
X628894Y232729D01*
X628922Y232787D01*
X628946Y232846D01*
X628967Y232906D01*
X628984Y232968D01*
X628998Y233030D01*
X629007Y233093D01*
X629013Y233157D01*
X629015Y233221D01*
X629013Y233285D01*
X629007Y233349D01*
X628998Y233412D01*
X628984Y233474D01*
X628967Y233536D01*
X628946Y233596D01*
X628922Y233655D01*
X628894Y233713D01*
X628862Y233768D01*
X628828Y233822D01*
X628790Y233873D01*
X628749Y233923D01*
X628705Y233969D01*
X628659Y234013D01*
X628609Y234054D01*
X628558Y234092D01*
X628504Y234126D01*
X628449Y234158D01*
X628391Y234186D01*
X628332Y234210D01*
X628272Y234231D01*
X628210Y234248D01*
X628148Y234262D01*
X628085Y234271D01*
X628021Y234277D01*
X627957Y234279D01*
X628169Y235973D02*
X626899Y235973D01*
X628169Y235973D02*
X628226Y235971D01*
X628282Y235965D01*
X628338Y235956D01*
X628393Y235943D01*
X628447Y235926D01*
X628500Y235906D01*
X628551Y235882D01*
X628601Y235855D01*
X628648Y235824D01*
X628694Y235791D01*
X628737Y235754D01*
X628778Y235715D01*
X628816Y235673D01*
X628851Y235628D01*
X628883Y235582D01*
X628912Y235533D01*
X628937Y235483D01*
X628959Y235430D01*
X628978Y235377D01*
X628993Y235322D01*
X629004Y235267D01*
X629012Y235211D01*
X629016Y235154D01*
X629016Y235098D01*
X629012Y235041D01*
X629004Y234985D01*
X628993Y234930D01*
X628978Y234875D01*
X628959Y234822D01*
X628937Y234769D01*
X628912Y234719D01*
X628883Y234670D01*
X628851Y234624D01*
X628816Y234579D01*
X628778Y234537D01*
X628737Y234498D01*
X628694Y234461D01*
X628648Y234428D01*
X628601Y234397D01*
X628551Y234370D01*
X628500Y234346D01*
X628447Y234326D01*
X628393Y234309D01*
X628338Y234296D01*
X628282Y234287D01*
X628226Y234281D01*
X628169Y234279D01*
X628169Y234280D02*
X627322Y234280D01*
X630556Y235126D02*
X631615Y235973D01*
X631615Y232163D01*
X632673Y232163D02*
X630556Y232163D01*
X12837Y33592D02*
X12837Y32746D01*
X12835Y32688D01*
X12829Y32631D01*
X12819Y32574D01*
X12806Y32517D01*
X12788Y32462D01*
X12767Y32409D01*
X12742Y32356D01*
X12714Y32306D01*
X12682Y32258D01*
X12647Y32211D01*
X12609Y32168D01*
X12568Y32127D01*
X12525Y32089D01*
X12478Y32054D01*
X12430Y32022D01*
X12380Y31994D01*
X12327Y31969D01*
X12274Y31948D01*
X12219Y31930D01*
X12162Y31917D01*
X12105Y31907D01*
X12048Y31901D01*
X11990Y31899D01*
X9874Y31899D01*
X9816Y31901D01*
X9759Y31907D01*
X9702Y31917D01*
X9645Y31930D01*
X9590Y31948D01*
X9537Y31969D01*
X9484Y31994D01*
X9434Y32022D01*
X9386Y32054D01*
X9339Y32089D01*
X9296Y32127D01*
X9255Y32168D01*
X9217Y32211D01*
X9182Y32258D01*
X9150Y32306D01*
X9122Y32356D01*
X9097Y32409D01*
X9076Y32462D01*
X9058Y32517D01*
X9045Y32574D01*
X9035Y32631D01*
X9029Y32688D01*
X9027Y32746D01*
X9027Y33592D01*
X9027Y35803D02*
X11990Y34956D01*
X11990Y37073D01*
X11144Y36438D02*
X12837Y36438D01*
X217896Y22613D02*
X218742Y22613D01*
X217896Y22613D02*
X217841Y22615D01*
X217785Y22620D01*
X217731Y22629D01*
X217677Y22642D01*
X217624Y22658D01*
X217572Y22677D01*
X217521Y22700D01*
X217473Y22726D01*
X217425Y22756D01*
X217380Y22788D01*
X217338Y22823D01*
X217297Y22861D01*
X217259Y22902D01*
X217224Y22944D01*
X217192Y22989D01*
X217162Y23037D01*
X217136Y23085D01*
X217113Y23136D01*
X217094Y23188D01*
X217078Y23241D01*
X217065Y23295D01*
X217056Y23349D01*
X217051Y23405D01*
X217049Y23460D01*
X217049Y25576D01*
X217051Y25634D01*
X217057Y25691D01*
X217067Y25748D01*
X217080Y25805D01*
X217098Y25860D01*
X217119Y25913D01*
X217144Y25966D01*
X217172Y26016D01*
X217204Y26064D01*
X217239Y26111D01*
X217277Y26154D01*
X217318Y26195D01*
X217361Y26233D01*
X217408Y26268D01*
X217456Y26300D01*
X217506Y26328D01*
X217559Y26353D01*
X217612Y26374D01*
X217667Y26392D01*
X217724Y26405D01*
X217781Y26415D01*
X217838Y26421D01*
X217896Y26423D01*
X218742Y26423D01*
X220953Y24306D02*
X222223Y24306D01*
X220953Y24306D02*
X220898Y24308D01*
X220842Y24313D01*
X220788Y24322D01*
X220734Y24335D01*
X220681Y24351D01*
X220629Y24370D01*
X220578Y24393D01*
X220530Y24419D01*
X220482Y24449D01*
X220437Y24481D01*
X220395Y24516D01*
X220354Y24554D01*
X220316Y24595D01*
X220281Y24637D01*
X220249Y24682D01*
X220219Y24730D01*
X220193Y24778D01*
X220170Y24829D01*
X220151Y24881D01*
X220135Y24934D01*
X220122Y24988D01*
X220113Y25042D01*
X220108Y25098D01*
X220106Y25153D01*
X220106Y25365D01*
X220107Y25365D02*
X220109Y25429D01*
X220115Y25493D01*
X220124Y25556D01*
X220138Y25618D01*
X220155Y25680D01*
X220176Y25740D01*
X220200Y25799D01*
X220228Y25857D01*
X220260Y25912D01*
X220294Y25966D01*
X220332Y26017D01*
X220373Y26067D01*
X220417Y26113D01*
X220463Y26157D01*
X220513Y26198D01*
X220564Y26236D01*
X220618Y26270D01*
X220673Y26302D01*
X220731Y26330D01*
X220790Y26354D01*
X220850Y26375D01*
X220912Y26392D01*
X220974Y26406D01*
X221037Y26415D01*
X221101Y26421D01*
X221165Y26423D01*
X221229Y26421D01*
X221293Y26415D01*
X221356Y26406D01*
X221418Y26392D01*
X221480Y26375D01*
X221540Y26354D01*
X221599Y26330D01*
X221657Y26302D01*
X221712Y26270D01*
X221766Y26236D01*
X221817Y26198D01*
X221867Y26157D01*
X221913Y26113D01*
X221957Y26067D01*
X221998Y26017D01*
X222036Y25966D01*
X222070Y25912D01*
X222102Y25857D01*
X222130Y25799D01*
X222154Y25740D01*
X222175Y25680D01*
X222192Y25618D01*
X222206Y25556D01*
X222215Y25493D01*
X222221Y25429D01*
X222223Y25365D01*
X222223Y24306D01*
X222221Y24225D01*
X222215Y24145D01*
X222206Y24065D01*
X222192Y23986D01*
X222175Y23907D01*
X222154Y23829D01*
X222130Y23752D01*
X222102Y23677D01*
X222070Y23603D01*
X222035Y23530D01*
X221996Y23460D01*
X221954Y23391D01*
X221909Y23324D01*
X221861Y23259D01*
X221809Y23197D01*
X221755Y23138D01*
X221698Y23081D01*
X221639Y23027D01*
X221577Y22975D01*
X221512Y22927D01*
X221445Y22882D01*
X221377Y22840D01*
X221306Y22801D01*
X221233Y22766D01*
X221159Y22734D01*
X221084Y22706D01*
X221007Y22682D01*
X220929Y22661D01*
X220850Y22644D01*
X220771Y22630D01*
X220691Y22621D01*
X220611Y22615D01*
X220530Y22613D01*
D11*
X322900Y14100D02*
X330900Y14100D01*
X343900Y14100D01*
X380400Y14100D01*
X322900Y14100D02*
X322900Y36400D01*
X322900Y90800D01*
X322900Y113100D01*
X380400Y113100D02*
X380400Y14100D01*
X330900Y113100D02*
X322900Y113100D01*
X330900Y113100D02*
X343900Y113100D01*
X380400Y113100D01*
X343900Y19350D02*
X343900Y14100D01*
X343900Y19350D02*
X375150Y19350D01*
X375150Y107850D01*
X343900Y107850D01*
X343900Y113100D01*
X330900Y36400D02*
X330900Y14100D01*
X330900Y36400D02*
X322900Y36400D01*
X322900Y90800D02*
X330900Y90800D01*
X330900Y113100D01*
D12*
X389146Y14934D02*
X389146Y14144D01*
X389144Y14090D01*
X389139Y14036D01*
X389129Y13983D01*
X389117Y13931D01*
X389100Y13879D01*
X389081Y13829D01*
X389057Y13781D01*
X389031Y13734D01*
X389001Y13688D01*
X388969Y13645D01*
X388933Y13605D01*
X388895Y13567D01*
X388855Y13531D01*
X388812Y13499D01*
X388766Y13469D01*
X388719Y13443D01*
X388671Y13419D01*
X388621Y13400D01*
X388569Y13383D01*
X388517Y13371D01*
X388464Y13361D01*
X388410Y13356D01*
X388356Y13354D01*
X386380Y13354D01*
X386326Y13356D01*
X386272Y13361D01*
X386219Y13371D01*
X386167Y13383D01*
X386115Y13400D01*
X386065Y13419D01*
X386017Y13443D01*
X385970Y13469D01*
X385924Y13499D01*
X385881Y13531D01*
X385841Y13567D01*
X385803Y13605D01*
X385767Y13645D01*
X385735Y13688D01*
X385705Y13734D01*
X385679Y13781D01*
X385655Y13829D01*
X385636Y13879D01*
X385619Y13931D01*
X385607Y13983D01*
X385597Y14036D01*
X385592Y14090D01*
X385590Y14144D01*
X385590Y14934D01*
X385590Y16538D02*
X389146Y16538D01*
X389146Y18513D02*
X385590Y16538D01*
X385590Y18513D02*
X389146Y18513D01*
X386380Y20317D02*
X385590Y21305D01*
X389146Y21305D01*
X389146Y20317D02*
X389146Y22293D01*
D11*
X118900Y316200D02*
X110900Y316200D01*
X97900Y316200D01*
X61400Y316200D01*
X118900Y316200D02*
X118900Y293900D01*
X118900Y264500D01*
X118900Y242200D01*
X61400Y242200D02*
X61400Y316200D01*
X110900Y242200D02*
X118900Y242200D01*
X110900Y242200D02*
X97900Y242200D01*
X61400Y242200D01*
X97900Y310950D02*
X97900Y316200D01*
X97900Y310950D02*
X66650Y310950D01*
X66650Y247450D01*
X97900Y247450D01*
X97900Y242200D01*
X110900Y293900D02*
X110900Y316200D01*
X110900Y293900D02*
X118900Y293900D01*
X118900Y264500D02*
X110900Y264500D01*
X110900Y242200D01*
D13*
X78147Y259442D02*
X78147Y261079D01*
X78147Y259442D02*
X78145Y259364D01*
X78140Y259286D01*
X78130Y259209D01*
X78117Y259132D01*
X78101Y259056D01*
X78081Y258981D01*
X78057Y258907D01*
X78030Y258834D01*
X77999Y258762D01*
X77965Y258692D01*
X77928Y258624D01*
X77887Y258557D01*
X77843Y258492D01*
X77797Y258430D01*
X77747Y258370D01*
X77695Y258312D01*
X77640Y258257D01*
X77582Y258205D01*
X77522Y258155D01*
X77460Y258109D01*
X77395Y258065D01*
X77329Y258024D01*
X77260Y257987D01*
X77190Y257953D01*
X77118Y257922D01*
X77045Y257895D01*
X76971Y257871D01*
X76896Y257851D01*
X76820Y257835D01*
X76743Y257822D01*
X76666Y257812D01*
X76588Y257807D01*
X76510Y257805D01*
X72418Y257805D01*
X72338Y257807D01*
X72258Y257813D01*
X72178Y257823D01*
X72099Y257836D01*
X72020Y257854D01*
X71943Y257875D01*
X71867Y257901D01*
X71792Y257930D01*
X71718Y257962D01*
X71646Y257998D01*
X71576Y258038D01*
X71509Y258081D01*
X71443Y258127D01*
X71380Y258177D01*
X71319Y258229D01*
X71260Y258284D01*
X71205Y258343D01*
X71153Y258403D01*
X71103Y258467D01*
X71057Y258532D01*
X71014Y258600D01*
X70974Y258670D01*
X70938Y258742D01*
X70906Y258816D01*
X70877Y258890D01*
X70852Y258967D01*
X70830Y259044D01*
X70812Y259123D01*
X70799Y259202D01*
X70789Y259281D01*
X70783Y259362D01*
X70781Y259442D01*
X70781Y261079D01*
X70781Y264168D02*
X78147Y264168D01*
X78147Y268260D02*
X70781Y264168D01*
X70781Y268260D02*
X78147Y268260D01*
X70781Y273978D02*
X70783Y274063D01*
X70789Y274148D01*
X70799Y274232D01*
X70812Y274316D01*
X70830Y274400D01*
X70851Y274482D01*
X70876Y274563D01*
X70905Y274643D01*
X70938Y274722D01*
X70974Y274799D01*
X71014Y274874D01*
X71057Y274948D01*
X71103Y275019D01*
X71153Y275088D01*
X71206Y275155D01*
X71262Y275219D01*
X71321Y275280D01*
X71382Y275339D01*
X71446Y275395D01*
X71513Y275448D01*
X71582Y275498D01*
X71653Y275544D01*
X71727Y275587D01*
X71802Y275627D01*
X71879Y275663D01*
X71958Y275696D01*
X72038Y275725D01*
X72119Y275750D01*
X72201Y275771D01*
X72285Y275789D01*
X72369Y275802D01*
X72453Y275812D01*
X72538Y275818D01*
X72623Y275820D01*
X70781Y273978D02*
X70783Y273882D01*
X70789Y273786D01*
X70799Y273691D01*
X70812Y273596D01*
X70830Y273501D01*
X70851Y273408D01*
X70876Y273315D01*
X70905Y273224D01*
X70937Y273133D01*
X70973Y273044D01*
X71013Y272957D01*
X71056Y272871D01*
X71102Y272787D01*
X71152Y272705D01*
X71206Y272625D01*
X71262Y272548D01*
X71322Y272473D01*
X71384Y272400D01*
X71450Y272330D01*
X71518Y272262D01*
X71589Y272197D01*
X71662Y272136D01*
X71738Y272077D01*
X71817Y272021D01*
X71897Y271969D01*
X71980Y271920D01*
X72064Y271874D01*
X72150Y271832D01*
X72238Y271794D01*
X72327Y271759D01*
X72418Y271727D01*
X74055Y275205D02*
X73996Y275265D01*
X73934Y275322D01*
X73870Y275377D01*
X73803Y275428D01*
X73734Y275477D01*
X73664Y275523D01*
X73591Y275566D01*
X73517Y275606D01*
X73441Y275642D01*
X73363Y275675D01*
X73284Y275705D01*
X73204Y275732D01*
X73123Y275755D01*
X73041Y275774D01*
X72959Y275790D01*
X72875Y275803D01*
X72791Y275812D01*
X72707Y275817D01*
X72623Y275819D01*
X74055Y275205D02*
X78147Y271727D01*
X78147Y275819D01*
D14*
X86350Y52225D02*
X86350Y44950D01*
X56850Y67175D02*
X56850Y74450D01*
X86350Y74450D02*
X86350Y67175D01*
X56850Y52225D02*
X56850Y44950D01*
D10*
X92441Y74763D02*
X92441Y78573D01*
X92017Y74763D02*
X92864Y74763D01*
X92864Y78573D02*
X92017Y78573D01*
X95146Y74763D02*
X95992Y74763D01*
X95146Y74763D02*
X95091Y74765D01*
X95035Y74770D01*
X94981Y74779D01*
X94927Y74792D01*
X94874Y74808D01*
X94822Y74827D01*
X94771Y74850D01*
X94723Y74876D01*
X94675Y74906D01*
X94630Y74938D01*
X94588Y74973D01*
X94547Y75011D01*
X94509Y75052D01*
X94474Y75094D01*
X94442Y75139D01*
X94412Y75187D01*
X94386Y75235D01*
X94363Y75286D01*
X94344Y75338D01*
X94328Y75391D01*
X94315Y75445D01*
X94306Y75499D01*
X94301Y75555D01*
X94299Y75610D01*
X94299Y77726D01*
X94301Y77784D01*
X94307Y77841D01*
X94317Y77898D01*
X94330Y77955D01*
X94348Y78010D01*
X94369Y78063D01*
X94394Y78116D01*
X94422Y78166D01*
X94454Y78214D01*
X94489Y78261D01*
X94527Y78304D01*
X94568Y78345D01*
X94611Y78383D01*
X94658Y78418D01*
X94706Y78450D01*
X94756Y78478D01*
X94809Y78503D01*
X94862Y78524D01*
X94917Y78542D01*
X94974Y78555D01*
X95031Y78565D01*
X95088Y78571D01*
X95146Y78573D01*
X95992Y78573D01*
X97356Y77726D02*
X98415Y78573D01*
X98415Y74763D01*
X99473Y74763D02*
X97356Y74763D01*
D11*
X107924Y161124D02*
X54076Y161124D01*
X54076Y157314D01*
X54076Y107276D02*
X107924Y107276D01*
X107924Y111086D01*
X107924Y157314D02*
X107924Y161124D01*
X54076Y111086D02*
X54076Y107276D01*
X113512Y134200D02*
X113514Y134254D01*
X113520Y134308D01*
X113529Y134362D01*
X113543Y134415D01*
X113560Y134466D01*
X113581Y134517D01*
X113605Y134565D01*
X113633Y134612D01*
X113664Y134657D01*
X113698Y134699D01*
X113735Y134739D01*
X113775Y134776D01*
X113817Y134810D01*
X113862Y134841D01*
X113909Y134869D01*
X113957Y134893D01*
X114008Y134914D01*
X114059Y134931D01*
X114112Y134945D01*
X114166Y134954D01*
X114220Y134960D01*
X114274Y134962D01*
X114328Y134960D01*
X114382Y134954D01*
X114436Y134945D01*
X114489Y134931D01*
X114540Y134914D01*
X114591Y134893D01*
X114639Y134869D01*
X114686Y134841D01*
X114731Y134810D01*
X114773Y134776D01*
X114813Y134739D01*
X114850Y134699D01*
X114884Y134657D01*
X114915Y134612D01*
X114943Y134565D01*
X114967Y134517D01*
X114988Y134466D01*
X115005Y134415D01*
X115019Y134362D01*
X115028Y134308D01*
X115034Y134254D01*
X115036Y134200D01*
X115034Y134146D01*
X115028Y134092D01*
X115019Y134038D01*
X115005Y133985D01*
X114988Y133934D01*
X114967Y133883D01*
X114943Y133835D01*
X114915Y133788D01*
X114884Y133743D01*
X114850Y133701D01*
X114813Y133661D01*
X114773Y133624D01*
X114731Y133590D01*
X114686Y133559D01*
X114639Y133531D01*
X114591Y133507D01*
X114540Y133486D01*
X114489Y133469D01*
X114436Y133455D01*
X114382Y133446D01*
X114328Y133440D01*
X114274Y133438D01*
X114220Y133440D01*
X114166Y133446D01*
X114112Y133455D01*
X114059Y133469D01*
X114008Y133486D01*
X113957Y133507D01*
X113909Y133531D01*
X113862Y133559D01*
X113817Y133590D01*
X113775Y133624D01*
X113735Y133661D01*
X113698Y133701D01*
X113664Y133743D01*
X113633Y133788D01*
X113605Y133835D01*
X113581Y133883D01*
X113560Y133934D01*
X113543Y133985D01*
X113529Y134038D01*
X113520Y134092D01*
X113514Y134146D01*
X113512Y134200D01*
D13*
X113385Y128231D02*
X113385Y140169D01*
X108079Y140169D01*
X103880Y130884D02*
X100564Y128231D01*
X100564Y140169D01*
X103880Y140169D02*
X97248Y140169D01*
D10*
X52023Y75477D02*
X48213Y75477D01*
X48213Y76535D01*
X48215Y76599D01*
X48221Y76663D01*
X48230Y76726D01*
X48244Y76788D01*
X48261Y76850D01*
X48282Y76910D01*
X48306Y76969D01*
X48334Y77027D01*
X48366Y77082D01*
X48400Y77136D01*
X48438Y77187D01*
X48479Y77237D01*
X48523Y77283D01*
X48569Y77327D01*
X48619Y77368D01*
X48670Y77406D01*
X48724Y77440D01*
X48779Y77472D01*
X48837Y77500D01*
X48896Y77524D01*
X48956Y77545D01*
X49018Y77562D01*
X49080Y77576D01*
X49143Y77585D01*
X49207Y77591D01*
X49271Y77593D01*
X49335Y77591D01*
X49399Y77585D01*
X49462Y77576D01*
X49524Y77562D01*
X49586Y77545D01*
X49646Y77524D01*
X49705Y77500D01*
X49763Y77472D01*
X49818Y77440D01*
X49872Y77406D01*
X49923Y77368D01*
X49973Y77327D01*
X50019Y77283D01*
X50063Y77237D01*
X50104Y77187D01*
X50142Y77136D01*
X50176Y77082D01*
X50208Y77027D01*
X50236Y76969D01*
X50260Y76910D01*
X50281Y76850D01*
X50298Y76788D01*
X50312Y76726D01*
X50321Y76663D01*
X50327Y76599D01*
X50329Y76535D01*
X50330Y76535D02*
X50330Y75477D01*
X50330Y76747D02*
X52023Y77594D01*
X49060Y79114D02*
X48213Y80172D01*
X52023Y80172D01*
X52023Y79114D02*
X52023Y81230D01*
X652477Y306777D02*
X652477Y310587D01*
X653535Y310587D01*
X653599Y310585D01*
X653663Y310579D01*
X653726Y310570D01*
X653788Y310556D01*
X653850Y310539D01*
X653910Y310518D01*
X653969Y310494D01*
X654027Y310466D01*
X654082Y310434D01*
X654136Y310400D01*
X654187Y310362D01*
X654237Y310321D01*
X654283Y310277D01*
X654327Y310231D01*
X654368Y310181D01*
X654406Y310130D01*
X654440Y310076D01*
X654472Y310021D01*
X654500Y309963D01*
X654524Y309904D01*
X654545Y309844D01*
X654562Y309782D01*
X654576Y309720D01*
X654585Y309657D01*
X654591Y309593D01*
X654593Y309529D01*
X654591Y309465D01*
X654585Y309401D01*
X654576Y309338D01*
X654562Y309276D01*
X654545Y309214D01*
X654524Y309154D01*
X654500Y309095D01*
X654472Y309037D01*
X654440Y308982D01*
X654406Y308928D01*
X654368Y308877D01*
X654327Y308827D01*
X654283Y308781D01*
X654237Y308737D01*
X654187Y308696D01*
X654136Y308658D01*
X654082Y308624D01*
X654027Y308592D01*
X653969Y308564D01*
X653910Y308540D01*
X653850Y308519D01*
X653788Y308502D01*
X653726Y308488D01*
X653663Y308479D01*
X653599Y308473D01*
X653535Y308471D01*
X653535Y308470D02*
X652477Y308470D01*
X653747Y308470D02*
X654594Y306777D01*
X656114Y309740D02*
X657172Y310587D01*
X657172Y306777D01*
X656114Y306777D02*
X658230Y306777D01*
X659771Y309740D02*
X660830Y310587D01*
X660830Y306777D01*
X661888Y306777D02*
X659771Y306777D01*
X404987Y251312D02*
X401177Y251312D01*
X401177Y252370D01*
X401179Y252434D01*
X401185Y252498D01*
X401194Y252561D01*
X401208Y252623D01*
X401225Y252685D01*
X401246Y252745D01*
X401270Y252804D01*
X401298Y252862D01*
X401330Y252917D01*
X401364Y252971D01*
X401402Y253022D01*
X401443Y253072D01*
X401487Y253118D01*
X401533Y253162D01*
X401583Y253203D01*
X401634Y253241D01*
X401688Y253275D01*
X401743Y253307D01*
X401801Y253335D01*
X401860Y253359D01*
X401920Y253380D01*
X401982Y253397D01*
X402044Y253411D01*
X402107Y253420D01*
X402171Y253426D01*
X402235Y253428D01*
X402299Y253426D01*
X402363Y253420D01*
X402426Y253411D01*
X402488Y253397D01*
X402550Y253380D01*
X402610Y253359D01*
X402669Y253335D01*
X402727Y253307D01*
X402782Y253275D01*
X402836Y253241D01*
X402887Y253203D01*
X402937Y253162D01*
X402983Y253118D01*
X403027Y253072D01*
X403068Y253022D01*
X403106Y252971D01*
X403140Y252917D01*
X403172Y252862D01*
X403200Y252804D01*
X403224Y252745D01*
X403245Y252685D01*
X403262Y252623D01*
X403276Y252561D01*
X403285Y252498D01*
X403291Y252434D01*
X403293Y252370D01*
X403294Y252370D02*
X403294Y251312D01*
X403294Y252582D02*
X404987Y253429D01*
X402024Y254949D02*
X401177Y256007D01*
X404987Y256007D01*
X404987Y254949D02*
X404987Y257065D01*
X402130Y260724D02*
X402070Y260722D01*
X402011Y260716D01*
X401951Y260707D01*
X401893Y260694D01*
X401836Y260677D01*
X401779Y260657D01*
X401724Y260633D01*
X401671Y260606D01*
X401619Y260576D01*
X401570Y260542D01*
X401523Y260505D01*
X401478Y260466D01*
X401435Y260423D01*
X401396Y260378D01*
X401359Y260331D01*
X401325Y260282D01*
X401295Y260230D01*
X401268Y260177D01*
X401244Y260122D01*
X401224Y260065D01*
X401207Y260008D01*
X401194Y259950D01*
X401185Y259890D01*
X401179Y259831D01*
X401177Y259771D01*
X401179Y259704D01*
X401184Y259637D01*
X401193Y259571D01*
X401206Y259505D01*
X401222Y259441D01*
X401242Y259377D01*
X401266Y259314D01*
X401292Y259252D01*
X401322Y259193D01*
X401355Y259135D01*
X401392Y259078D01*
X401431Y259024D01*
X401473Y258972D01*
X401518Y258923D01*
X401566Y258876D01*
X401616Y258832D01*
X401669Y258790D01*
X401724Y258752D01*
X401780Y258716D01*
X401839Y258684D01*
X401899Y258655D01*
X401961Y258629D01*
X402024Y258607D01*
X402871Y260405D02*
X402829Y260447D01*
X402784Y260486D01*
X402738Y260523D01*
X402689Y260557D01*
X402639Y260587D01*
X402587Y260615D01*
X402533Y260640D01*
X402478Y260662D01*
X402422Y260681D01*
X402365Y260696D01*
X402307Y260708D01*
X402248Y260716D01*
X402189Y260721D01*
X402130Y260723D01*
X402870Y260406D02*
X404987Y258606D01*
X404987Y260723D01*
X592112Y311213D02*
X592112Y315023D01*
X593170Y315023D01*
X593234Y315021D01*
X593298Y315015D01*
X593361Y315006D01*
X593423Y314992D01*
X593485Y314975D01*
X593545Y314954D01*
X593604Y314930D01*
X593662Y314902D01*
X593717Y314870D01*
X593771Y314836D01*
X593822Y314798D01*
X593872Y314757D01*
X593918Y314713D01*
X593962Y314667D01*
X594003Y314617D01*
X594041Y314566D01*
X594075Y314512D01*
X594107Y314457D01*
X594135Y314399D01*
X594159Y314340D01*
X594180Y314280D01*
X594197Y314218D01*
X594211Y314156D01*
X594220Y314093D01*
X594226Y314029D01*
X594228Y313965D01*
X594226Y313901D01*
X594220Y313837D01*
X594211Y313774D01*
X594197Y313712D01*
X594180Y313650D01*
X594159Y313590D01*
X594135Y313531D01*
X594107Y313473D01*
X594075Y313418D01*
X594041Y313364D01*
X594003Y313313D01*
X593962Y313263D01*
X593918Y313217D01*
X593872Y313173D01*
X593822Y313132D01*
X593771Y313094D01*
X593717Y313060D01*
X593662Y313028D01*
X593604Y313000D01*
X593545Y312976D01*
X593485Y312955D01*
X593423Y312938D01*
X593361Y312924D01*
X593298Y312915D01*
X593234Y312909D01*
X593170Y312907D01*
X593170Y312906D02*
X592112Y312906D01*
X593382Y312906D02*
X594229Y311213D01*
X595749Y314176D02*
X596807Y315023D01*
X596807Y311213D01*
X595749Y311213D02*
X597865Y311213D01*
X599406Y312060D02*
X600253Y315023D01*
X599406Y312060D02*
X601523Y312060D01*
X600888Y312906D02*
X600888Y311213D01*
X408577Y309787D02*
X408577Y305977D01*
X408577Y309787D02*
X409635Y309787D01*
X409699Y309785D01*
X409763Y309779D01*
X409826Y309770D01*
X409888Y309756D01*
X409950Y309739D01*
X410010Y309718D01*
X410069Y309694D01*
X410127Y309666D01*
X410182Y309634D01*
X410236Y309600D01*
X410287Y309562D01*
X410337Y309521D01*
X410383Y309477D01*
X410427Y309431D01*
X410468Y309381D01*
X410506Y309330D01*
X410540Y309276D01*
X410572Y309221D01*
X410600Y309163D01*
X410624Y309104D01*
X410645Y309044D01*
X410662Y308982D01*
X410676Y308920D01*
X410685Y308857D01*
X410691Y308793D01*
X410693Y308729D01*
X410691Y308665D01*
X410685Y308601D01*
X410676Y308538D01*
X410662Y308476D01*
X410645Y308414D01*
X410624Y308354D01*
X410600Y308295D01*
X410572Y308237D01*
X410540Y308182D01*
X410506Y308128D01*
X410468Y308077D01*
X410427Y308027D01*
X410383Y307981D01*
X410337Y307937D01*
X410287Y307896D01*
X410236Y307858D01*
X410182Y307824D01*
X410127Y307792D01*
X410069Y307764D01*
X410010Y307740D01*
X409950Y307719D01*
X409888Y307702D01*
X409826Y307688D01*
X409763Y307679D01*
X409699Y307673D01*
X409635Y307671D01*
X409635Y307670D02*
X408577Y307670D01*
X409847Y307670D02*
X410694Y305977D01*
X412214Y308940D02*
X413272Y309787D01*
X413272Y305977D01*
X412214Y305977D02*
X414330Y305977D01*
X415871Y305977D02*
X417141Y305977D01*
X417196Y305979D01*
X417252Y305984D01*
X417306Y305993D01*
X417360Y306006D01*
X417413Y306022D01*
X417465Y306041D01*
X417516Y306064D01*
X417565Y306090D01*
X417612Y306120D01*
X417657Y306152D01*
X417699Y306187D01*
X417740Y306225D01*
X417778Y306266D01*
X417813Y306308D01*
X417845Y306353D01*
X417875Y306401D01*
X417901Y306449D01*
X417924Y306500D01*
X417943Y306552D01*
X417959Y306605D01*
X417972Y306659D01*
X417981Y306713D01*
X417986Y306769D01*
X417988Y306824D01*
X417988Y307247D01*
X417986Y307302D01*
X417981Y307358D01*
X417972Y307412D01*
X417959Y307466D01*
X417943Y307519D01*
X417924Y307571D01*
X417901Y307622D01*
X417875Y307671D01*
X417845Y307718D01*
X417813Y307763D01*
X417778Y307805D01*
X417740Y307846D01*
X417699Y307884D01*
X417657Y307919D01*
X417612Y307951D01*
X417565Y307981D01*
X417516Y308007D01*
X417465Y308030D01*
X417413Y308049D01*
X417360Y308065D01*
X417306Y308078D01*
X417252Y308087D01*
X417196Y308092D01*
X417141Y308094D01*
X415871Y308094D01*
X415871Y309787D01*
X417988Y309787D01*
X370612Y140023D02*
X370612Y136213D01*
X370612Y140023D02*
X371670Y140023D01*
X371734Y140021D01*
X371798Y140015D01*
X371861Y140006D01*
X371923Y139992D01*
X371985Y139975D01*
X372045Y139954D01*
X372104Y139930D01*
X372162Y139902D01*
X372217Y139870D01*
X372271Y139836D01*
X372322Y139798D01*
X372372Y139757D01*
X372418Y139713D01*
X372462Y139667D01*
X372503Y139617D01*
X372541Y139566D01*
X372575Y139512D01*
X372607Y139457D01*
X372635Y139399D01*
X372659Y139340D01*
X372680Y139280D01*
X372697Y139218D01*
X372711Y139156D01*
X372720Y139093D01*
X372726Y139029D01*
X372728Y138965D01*
X372726Y138901D01*
X372720Y138837D01*
X372711Y138774D01*
X372697Y138712D01*
X372680Y138650D01*
X372659Y138590D01*
X372635Y138531D01*
X372607Y138473D01*
X372575Y138418D01*
X372541Y138364D01*
X372503Y138313D01*
X372462Y138263D01*
X372418Y138217D01*
X372372Y138173D01*
X372322Y138132D01*
X372271Y138094D01*
X372217Y138060D01*
X372162Y138028D01*
X372104Y138000D01*
X372045Y137976D01*
X371985Y137955D01*
X371923Y137938D01*
X371861Y137924D01*
X371798Y137915D01*
X371734Y137909D01*
X371670Y137907D01*
X371670Y137906D02*
X370612Y137906D01*
X371882Y137906D02*
X372729Y136213D01*
X374249Y139176D02*
X375307Y140023D01*
X375307Y136213D01*
X374249Y136213D02*
X376365Y136213D01*
X377907Y137271D02*
X377909Y137335D01*
X377915Y137399D01*
X377924Y137462D01*
X377938Y137524D01*
X377955Y137586D01*
X377976Y137646D01*
X378000Y137705D01*
X378028Y137763D01*
X378060Y137818D01*
X378094Y137872D01*
X378132Y137923D01*
X378173Y137973D01*
X378217Y138019D01*
X378263Y138063D01*
X378313Y138104D01*
X378364Y138142D01*
X378418Y138176D01*
X378473Y138208D01*
X378531Y138236D01*
X378590Y138260D01*
X378650Y138281D01*
X378712Y138298D01*
X378774Y138312D01*
X378837Y138321D01*
X378901Y138327D01*
X378965Y138329D01*
X379029Y138327D01*
X379093Y138321D01*
X379156Y138312D01*
X379218Y138298D01*
X379280Y138281D01*
X379340Y138260D01*
X379399Y138236D01*
X379457Y138208D01*
X379512Y138176D01*
X379566Y138142D01*
X379617Y138104D01*
X379667Y138063D01*
X379713Y138019D01*
X379757Y137973D01*
X379798Y137923D01*
X379836Y137872D01*
X379870Y137818D01*
X379902Y137763D01*
X379930Y137705D01*
X379954Y137646D01*
X379975Y137586D01*
X379992Y137524D01*
X380006Y137462D01*
X380015Y137399D01*
X380021Y137335D01*
X380023Y137271D01*
X380021Y137207D01*
X380015Y137143D01*
X380006Y137080D01*
X379992Y137018D01*
X379975Y136956D01*
X379954Y136896D01*
X379930Y136837D01*
X379902Y136779D01*
X379870Y136724D01*
X379836Y136670D01*
X379798Y136619D01*
X379757Y136569D01*
X379713Y136523D01*
X379667Y136479D01*
X379617Y136438D01*
X379566Y136400D01*
X379512Y136366D01*
X379457Y136334D01*
X379399Y136306D01*
X379340Y136282D01*
X379280Y136261D01*
X379218Y136244D01*
X379156Y136230D01*
X379093Y136221D01*
X379029Y136215D01*
X378965Y136213D01*
X378901Y136215D01*
X378837Y136221D01*
X378774Y136230D01*
X378712Y136244D01*
X378650Y136261D01*
X378590Y136282D01*
X378531Y136306D01*
X378473Y136334D01*
X378418Y136366D01*
X378364Y136400D01*
X378313Y136438D01*
X378263Y136479D01*
X378217Y136523D01*
X378173Y136569D01*
X378132Y136619D01*
X378094Y136670D01*
X378060Y136724D01*
X378028Y136779D01*
X378000Y136837D01*
X377976Y136896D01*
X377955Y136956D01*
X377938Y137018D01*
X377924Y137080D01*
X377915Y137143D01*
X377909Y137207D01*
X377907Y137271D01*
X378118Y139176D02*
X378120Y139233D01*
X378126Y139289D01*
X378135Y139345D01*
X378148Y139400D01*
X378165Y139454D01*
X378185Y139507D01*
X378209Y139558D01*
X378236Y139608D01*
X378267Y139655D01*
X378300Y139701D01*
X378337Y139744D01*
X378376Y139785D01*
X378418Y139823D01*
X378463Y139858D01*
X378509Y139890D01*
X378558Y139919D01*
X378608Y139944D01*
X378661Y139966D01*
X378714Y139985D01*
X378769Y140000D01*
X378824Y140011D01*
X378880Y140019D01*
X378937Y140023D01*
X378993Y140023D01*
X379050Y140019D01*
X379106Y140011D01*
X379161Y140000D01*
X379216Y139985D01*
X379269Y139966D01*
X379322Y139944D01*
X379372Y139919D01*
X379421Y139890D01*
X379467Y139858D01*
X379512Y139823D01*
X379554Y139785D01*
X379593Y139744D01*
X379630Y139701D01*
X379663Y139655D01*
X379694Y139608D01*
X379721Y139558D01*
X379745Y139507D01*
X379765Y139454D01*
X379782Y139400D01*
X379795Y139345D01*
X379804Y139289D01*
X379810Y139233D01*
X379812Y139176D01*
X379810Y139119D01*
X379804Y139063D01*
X379795Y139007D01*
X379782Y138952D01*
X379765Y138898D01*
X379745Y138845D01*
X379721Y138794D01*
X379694Y138744D01*
X379663Y138697D01*
X379630Y138651D01*
X379593Y138608D01*
X379554Y138567D01*
X379512Y138529D01*
X379467Y138494D01*
X379421Y138462D01*
X379372Y138433D01*
X379322Y138408D01*
X379269Y138386D01*
X379216Y138367D01*
X379161Y138352D01*
X379106Y138341D01*
X379050Y138333D01*
X378993Y138329D01*
X378937Y138329D01*
X378880Y138333D01*
X378824Y138341D01*
X378769Y138352D01*
X378714Y138367D01*
X378661Y138386D01*
X378608Y138408D01*
X378558Y138433D01*
X378509Y138462D01*
X378463Y138494D01*
X378418Y138529D01*
X378376Y138567D01*
X378337Y138608D01*
X378300Y138651D01*
X378267Y138697D01*
X378236Y138744D01*
X378209Y138794D01*
X378185Y138845D01*
X378165Y138898D01*
X378148Y138952D01*
X378135Y139007D01*
X378126Y139063D01*
X378120Y139119D01*
X378118Y139176D01*
X553112Y274213D02*
X553112Y278023D01*
X554170Y278023D01*
X554234Y278021D01*
X554298Y278015D01*
X554361Y278006D01*
X554423Y277992D01*
X554485Y277975D01*
X554545Y277954D01*
X554604Y277930D01*
X554662Y277902D01*
X554717Y277870D01*
X554771Y277836D01*
X554822Y277798D01*
X554872Y277757D01*
X554918Y277713D01*
X554962Y277667D01*
X555003Y277617D01*
X555041Y277566D01*
X555075Y277512D01*
X555107Y277457D01*
X555135Y277399D01*
X555159Y277340D01*
X555180Y277280D01*
X555197Y277218D01*
X555211Y277156D01*
X555220Y277093D01*
X555226Y277029D01*
X555228Y276965D01*
X555226Y276901D01*
X555220Y276837D01*
X555211Y276774D01*
X555197Y276712D01*
X555180Y276650D01*
X555159Y276590D01*
X555135Y276531D01*
X555107Y276473D01*
X555075Y276418D01*
X555041Y276364D01*
X555003Y276313D01*
X554962Y276263D01*
X554918Y276217D01*
X554872Y276173D01*
X554822Y276132D01*
X554771Y276094D01*
X554717Y276060D01*
X554662Y276028D01*
X554604Y276000D01*
X554545Y275976D01*
X554485Y275955D01*
X554423Y275938D01*
X554361Y275924D01*
X554298Y275915D01*
X554234Y275909D01*
X554170Y275907D01*
X554170Y275906D02*
X553112Y275906D01*
X554382Y275906D02*
X555229Y274213D01*
X556749Y277176D02*
X557807Y278023D01*
X557807Y274213D01*
X556749Y274213D02*
X558865Y274213D01*
X561253Y275906D02*
X562523Y275906D01*
X561253Y275906D02*
X561198Y275908D01*
X561142Y275913D01*
X561088Y275922D01*
X561034Y275935D01*
X560981Y275951D01*
X560929Y275970D01*
X560878Y275993D01*
X560830Y276019D01*
X560782Y276049D01*
X560737Y276081D01*
X560695Y276116D01*
X560654Y276154D01*
X560616Y276195D01*
X560581Y276237D01*
X560549Y276282D01*
X560519Y276330D01*
X560493Y276378D01*
X560470Y276429D01*
X560451Y276481D01*
X560435Y276534D01*
X560422Y276588D01*
X560413Y276642D01*
X560408Y276698D01*
X560406Y276753D01*
X560406Y276965D01*
X560407Y276965D02*
X560409Y277029D01*
X560415Y277093D01*
X560424Y277156D01*
X560438Y277218D01*
X560455Y277280D01*
X560476Y277340D01*
X560500Y277399D01*
X560528Y277457D01*
X560560Y277512D01*
X560594Y277566D01*
X560632Y277617D01*
X560673Y277667D01*
X560717Y277713D01*
X560763Y277757D01*
X560813Y277798D01*
X560864Y277836D01*
X560918Y277870D01*
X560973Y277902D01*
X561031Y277930D01*
X561090Y277954D01*
X561150Y277975D01*
X561212Y277992D01*
X561274Y278006D01*
X561337Y278015D01*
X561401Y278021D01*
X561465Y278023D01*
X561529Y278021D01*
X561593Y278015D01*
X561656Y278006D01*
X561718Y277992D01*
X561780Y277975D01*
X561840Y277954D01*
X561899Y277930D01*
X561957Y277902D01*
X562012Y277870D01*
X562066Y277836D01*
X562117Y277798D01*
X562167Y277757D01*
X562213Y277713D01*
X562257Y277667D01*
X562298Y277617D01*
X562336Y277566D01*
X562370Y277512D01*
X562402Y277457D01*
X562430Y277399D01*
X562454Y277340D01*
X562475Y277280D01*
X562492Y277218D01*
X562506Y277156D01*
X562515Y277093D01*
X562521Y277029D01*
X562523Y276965D01*
X562523Y275906D01*
X562521Y275825D01*
X562515Y275745D01*
X562506Y275665D01*
X562492Y275586D01*
X562475Y275507D01*
X562454Y275429D01*
X562430Y275352D01*
X562402Y275277D01*
X562370Y275203D01*
X562335Y275130D01*
X562296Y275060D01*
X562254Y274991D01*
X562209Y274924D01*
X562161Y274859D01*
X562109Y274797D01*
X562055Y274738D01*
X561998Y274681D01*
X561939Y274627D01*
X561877Y274575D01*
X561812Y274527D01*
X561745Y274482D01*
X561677Y274440D01*
X561606Y274401D01*
X561533Y274366D01*
X561459Y274334D01*
X561384Y274306D01*
X561307Y274282D01*
X561229Y274261D01*
X561150Y274244D01*
X561071Y274230D01*
X560991Y274221D01*
X560911Y274215D01*
X560830Y274213D01*
D13*
X107013Y25569D02*
X107013Y18203D01*
X107013Y25569D02*
X109059Y25569D01*
X109148Y25567D01*
X109237Y25561D01*
X109326Y25551D01*
X109414Y25538D01*
X109502Y25521D01*
X109589Y25499D01*
X109674Y25474D01*
X109759Y25446D01*
X109842Y25413D01*
X109924Y25377D01*
X110004Y25338D01*
X110082Y25295D01*
X110158Y25249D01*
X110233Y25199D01*
X110305Y25146D01*
X110374Y25090D01*
X110441Y25031D01*
X110506Y24970D01*
X110567Y24905D01*
X110626Y24838D01*
X110682Y24769D01*
X110735Y24697D01*
X110785Y24622D01*
X110831Y24546D01*
X110874Y24468D01*
X110913Y24388D01*
X110949Y24306D01*
X110982Y24223D01*
X111010Y24138D01*
X111035Y24053D01*
X111057Y23966D01*
X111074Y23878D01*
X111087Y23790D01*
X111097Y23701D01*
X111103Y23612D01*
X111105Y23523D01*
X111103Y23434D01*
X111097Y23345D01*
X111087Y23256D01*
X111074Y23168D01*
X111057Y23080D01*
X111035Y22993D01*
X111010Y22908D01*
X110982Y22823D01*
X110949Y22740D01*
X110913Y22658D01*
X110874Y22578D01*
X110831Y22500D01*
X110785Y22424D01*
X110735Y22349D01*
X110682Y22277D01*
X110626Y22208D01*
X110567Y22141D01*
X110506Y22076D01*
X110441Y22015D01*
X110374Y21956D01*
X110305Y21900D01*
X110233Y21847D01*
X110158Y21797D01*
X110082Y21751D01*
X110004Y21708D01*
X109924Y21669D01*
X109842Y21633D01*
X109759Y21600D01*
X109674Y21572D01*
X109589Y21547D01*
X109502Y21525D01*
X109414Y21508D01*
X109326Y21495D01*
X109237Y21485D01*
X109148Y21479D01*
X109059Y21477D01*
X107013Y21477D01*
X109468Y21477D02*
X111105Y18203D01*
X118370Y23728D02*
X118368Y23813D01*
X118362Y23898D01*
X118352Y23982D01*
X118339Y24066D01*
X118321Y24150D01*
X118300Y24232D01*
X118275Y24313D01*
X118246Y24393D01*
X118213Y24472D01*
X118177Y24549D01*
X118137Y24624D01*
X118094Y24698D01*
X118048Y24769D01*
X117998Y24838D01*
X117945Y24905D01*
X117889Y24969D01*
X117830Y25030D01*
X117769Y25089D01*
X117705Y25145D01*
X117638Y25198D01*
X117569Y25248D01*
X117498Y25294D01*
X117424Y25337D01*
X117349Y25377D01*
X117272Y25413D01*
X117193Y25446D01*
X117113Y25475D01*
X117032Y25500D01*
X116950Y25521D01*
X116866Y25539D01*
X116782Y25552D01*
X116698Y25562D01*
X116613Y25568D01*
X116528Y25570D01*
X116528Y25569D02*
X116432Y25567D01*
X116336Y25561D01*
X116241Y25551D01*
X116146Y25538D01*
X116051Y25520D01*
X115958Y25499D01*
X115865Y25474D01*
X115774Y25445D01*
X115683Y25413D01*
X115594Y25377D01*
X115507Y25337D01*
X115421Y25294D01*
X115337Y25248D01*
X115255Y25198D01*
X115175Y25144D01*
X115098Y25088D01*
X115023Y25028D01*
X114950Y24966D01*
X114880Y24900D01*
X114812Y24832D01*
X114747Y24761D01*
X114686Y24688D01*
X114627Y24612D01*
X114571Y24533D01*
X114519Y24453D01*
X114470Y24370D01*
X114424Y24286D01*
X114382Y24200D01*
X114344Y24112D01*
X114309Y24023D01*
X114277Y23932D01*
X117755Y22296D02*
X117815Y22355D01*
X117872Y22417D01*
X117927Y22481D01*
X117978Y22548D01*
X118027Y22617D01*
X118073Y22687D01*
X118116Y22760D01*
X118156Y22834D01*
X118192Y22910D01*
X118225Y22988D01*
X118255Y23067D01*
X118282Y23147D01*
X118305Y23228D01*
X118324Y23310D01*
X118340Y23392D01*
X118353Y23476D01*
X118362Y23560D01*
X118367Y23644D01*
X118369Y23728D01*
X117755Y22295D02*
X114277Y18203D01*
X118369Y18203D01*
D10*
X119113Y75477D02*
X122923Y75477D01*
X119113Y75477D02*
X119113Y76535D01*
X119115Y76599D01*
X119121Y76663D01*
X119130Y76726D01*
X119144Y76788D01*
X119161Y76850D01*
X119182Y76910D01*
X119206Y76969D01*
X119234Y77027D01*
X119266Y77082D01*
X119300Y77136D01*
X119338Y77187D01*
X119379Y77237D01*
X119423Y77283D01*
X119469Y77327D01*
X119519Y77368D01*
X119570Y77406D01*
X119624Y77440D01*
X119679Y77472D01*
X119737Y77500D01*
X119796Y77524D01*
X119856Y77545D01*
X119918Y77562D01*
X119980Y77576D01*
X120043Y77585D01*
X120107Y77591D01*
X120171Y77593D01*
X120235Y77591D01*
X120299Y77585D01*
X120362Y77576D01*
X120424Y77562D01*
X120486Y77545D01*
X120546Y77524D01*
X120605Y77500D01*
X120663Y77472D01*
X120718Y77440D01*
X120772Y77406D01*
X120823Y77368D01*
X120873Y77327D01*
X120919Y77283D01*
X120963Y77237D01*
X121004Y77187D01*
X121042Y77136D01*
X121076Y77082D01*
X121108Y77027D01*
X121136Y76969D01*
X121160Y76910D01*
X121181Y76850D01*
X121198Y76788D01*
X121212Y76726D01*
X121221Y76663D01*
X121227Y76599D01*
X121229Y76535D01*
X121230Y76535D02*
X121230Y75477D01*
X121230Y76747D02*
X122923Y77594D01*
X122923Y79114D02*
X122923Y80172D01*
X122921Y80236D01*
X122915Y80300D01*
X122906Y80363D01*
X122892Y80425D01*
X122875Y80487D01*
X122854Y80547D01*
X122830Y80606D01*
X122802Y80664D01*
X122770Y80719D01*
X122736Y80773D01*
X122698Y80824D01*
X122657Y80874D01*
X122613Y80920D01*
X122567Y80964D01*
X122517Y81005D01*
X122466Y81043D01*
X122412Y81077D01*
X122357Y81109D01*
X122299Y81137D01*
X122240Y81161D01*
X122180Y81182D01*
X122118Y81199D01*
X122056Y81213D01*
X121993Y81222D01*
X121929Y81228D01*
X121865Y81230D01*
X121801Y81228D01*
X121737Y81222D01*
X121674Y81213D01*
X121612Y81199D01*
X121550Y81182D01*
X121490Y81161D01*
X121431Y81137D01*
X121373Y81109D01*
X121318Y81077D01*
X121264Y81043D01*
X121213Y81005D01*
X121163Y80964D01*
X121117Y80920D01*
X121073Y80874D01*
X121032Y80824D01*
X120994Y80773D01*
X120960Y80719D01*
X120928Y80664D01*
X120900Y80606D01*
X120876Y80547D01*
X120855Y80487D01*
X120838Y80425D01*
X120824Y80363D01*
X120815Y80300D01*
X120809Y80236D01*
X120807Y80172D01*
X119113Y80384D02*
X119113Y79114D01*
X119113Y80384D02*
X119115Y80441D01*
X119121Y80497D01*
X119130Y80553D01*
X119143Y80608D01*
X119160Y80662D01*
X119180Y80715D01*
X119204Y80766D01*
X119231Y80816D01*
X119262Y80863D01*
X119295Y80909D01*
X119332Y80952D01*
X119371Y80993D01*
X119413Y81031D01*
X119458Y81066D01*
X119504Y81098D01*
X119553Y81127D01*
X119603Y81152D01*
X119656Y81174D01*
X119709Y81193D01*
X119764Y81208D01*
X119819Y81219D01*
X119875Y81227D01*
X119932Y81231D01*
X119988Y81231D01*
X120045Y81227D01*
X120101Y81219D01*
X120156Y81208D01*
X120211Y81193D01*
X120264Y81174D01*
X120317Y81152D01*
X120367Y81127D01*
X120416Y81098D01*
X120462Y81066D01*
X120507Y81031D01*
X120549Y80993D01*
X120588Y80952D01*
X120625Y80909D01*
X120658Y80863D01*
X120689Y80816D01*
X120716Y80766D01*
X120740Y80715D01*
X120760Y80662D01*
X120777Y80608D01*
X120790Y80553D01*
X120799Y80497D01*
X120805Y80441D01*
X120807Y80384D01*
X120806Y80384D02*
X120806Y79537D01*
X150313Y156877D02*
X154123Y156877D01*
X150313Y156877D02*
X150313Y157935D01*
X150315Y157999D01*
X150321Y158063D01*
X150330Y158126D01*
X150344Y158188D01*
X150361Y158250D01*
X150382Y158310D01*
X150406Y158369D01*
X150434Y158427D01*
X150466Y158482D01*
X150500Y158536D01*
X150538Y158587D01*
X150579Y158637D01*
X150623Y158683D01*
X150669Y158727D01*
X150719Y158768D01*
X150770Y158806D01*
X150824Y158840D01*
X150879Y158872D01*
X150937Y158900D01*
X150996Y158924D01*
X151056Y158945D01*
X151118Y158962D01*
X151180Y158976D01*
X151243Y158985D01*
X151307Y158991D01*
X151371Y158993D01*
X151435Y158991D01*
X151499Y158985D01*
X151562Y158976D01*
X151624Y158962D01*
X151686Y158945D01*
X151746Y158924D01*
X151805Y158900D01*
X151863Y158872D01*
X151918Y158840D01*
X151972Y158806D01*
X152023Y158768D01*
X152073Y158727D01*
X152119Y158683D01*
X152163Y158637D01*
X152204Y158587D01*
X152242Y158536D01*
X152276Y158482D01*
X152308Y158427D01*
X152336Y158369D01*
X152360Y158310D01*
X152381Y158250D01*
X152398Y158188D01*
X152412Y158126D01*
X152421Y158063D01*
X152427Y157999D01*
X152429Y157935D01*
X152430Y157935D02*
X152430Y156877D01*
X152430Y158147D02*
X154123Y158994D01*
X153276Y160514D02*
X150313Y161360D01*
X153276Y160514D02*
X153276Y162630D01*
X152430Y161995D02*
X154123Y161995D01*
X346313Y174777D02*
X350123Y174777D01*
X346313Y174777D02*
X346313Y175835D01*
X346315Y175899D01*
X346321Y175963D01*
X346330Y176026D01*
X346344Y176088D01*
X346361Y176150D01*
X346382Y176210D01*
X346406Y176269D01*
X346434Y176327D01*
X346466Y176382D01*
X346500Y176436D01*
X346538Y176487D01*
X346579Y176537D01*
X346623Y176583D01*
X346669Y176627D01*
X346719Y176668D01*
X346770Y176706D01*
X346824Y176740D01*
X346879Y176772D01*
X346937Y176800D01*
X346996Y176824D01*
X347056Y176845D01*
X347118Y176862D01*
X347180Y176876D01*
X347243Y176885D01*
X347307Y176891D01*
X347371Y176893D01*
X347435Y176891D01*
X347499Y176885D01*
X347562Y176876D01*
X347624Y176862D01*
X347686Y176845D01*
X347746Y176824D01*
X347805Y176800D01*
X347863Y176772D01*
X347918Y176740D01*
X347972Y176706D01*
X348023Y176668D01*
X348073Y176627D01*
X348119Y176583D01*
X348163Y176537D01*
X348204Y176487D01*
X348242Y176436D01*
X348276Y176382D01*
X348308Y176327D01*
X348336Y176269D01*
X348360Y176210D01*
X348381Y176150D01*
X348398Y176088D01*
X348412Y176026D01*
X348421Y175963D01*
X348427Y175899D01*
X348429Y175835D01*
X348430Y175835D02*
X348430Y174777D01*
X348430Y176047D02*
X350123Y176894D01*
X350123Y178414D02*
X350123Y179684D01*
X350121Y179739D01*
X350116Y179795D01*
X350107Y179849D01*
X350094Y179903D01*
X350078Y179956D01*
X350059Y180008D01*
X350036Y180059D01*
X350010Y180108D01*
X349980Y180155D01*
X349948Y180200D01*
X349913Y180242D01*
X349875Y180283D01*
X349834Y180321D01*
X349792Y180356D01*
X349747Y180388D01*
X349700Y180418D01*
X349651Y180444D01*
X349600Y180467D01*
X349548Y180486D01*
X349495Y180502D01*
X349441Y180515D01*
X349387Y180524D01*
X349331Y180529D01*
X349276Y180531D01*
X349276Y180530D02*
X348853Y180530D01*
X348853Y180531D02*
X348795Y180529D01*
X348738Y180523D01*
X348681Y180513D01*
X348624Y180500D01*
X348569Y180482D01*
X348516Y180461D01*
X348463Y180436D01*
X348413Y180408D01*
X348365Y180376D01*
X348318Y180341D01*
X348275Y180303D01*
X348234Y180262D01*
X348196Y180219D01*
X348161Y180172D01*
X348129Y180124D01*
X348101Y180074D01*
X348076Y180021D01*
X348055Y179968D01*
X348037Y179913D01*
X348024Y179856D01*
X348014Y179799D01*
X348008Y179742D01*
X348006Y179684D01*
X348006Y178414D01*
X346313Y178414D01*
X346313Y180530D01*
X247870Y111623D02*
X247870Y107813D01*
X247870Y111623D02*
X248928Y111623D01*
X248992Y111621D01*
X249056Y111615D01*
X249119Y111606D01*
X249181Y111592D01*
X249243Y111575D01*
X249303Y111554D01*
X249362Y111530D01*
X249420Y111502D01*
X249475Y111470D01*
X249529Y111436D01*
X249580Y111398D01*
X249630Y111357D01*
X249676Y111313D01*
X249720Y111267D01*
X249761Y111217D01*
X249799Y111166D01*
X249833Y111112D01*
X249865Y111057D01*
X249893Y110999D01*
X249917Y110940D01*
X249938Y110880D01*
X249955Y110818D01*
X249969Y110756D01*
X249978Y110693D01*
X249984Y110629D01*
X249986Y110565D01*
X249984Y110501D01*
X249978Y110437D01*
X249969Y110374D01*
X249955Y110312D01*
X249938Y110250D01*
X249917Y110190D01*
X249893Y110131D01*
X249865Y110073D01*
X249833Y110018D01*
X249799Y109964D01*
X249761Y109913D01*
X249720Y109863D01*
X249676Y109817D01*
X249630Y109773D01*
X249580Y109732D01*
X249529Y109694D01*
X249475Y109660D01*
X249420Y109628D01*
X249362Y109600D01*
X249303Y109576D01*
X249243Y109555D01*
X249181Y109538D01*
X249119Y109524D01*
X249056Y109515D01*
X248992Y109509D01*
X248928Y109507D01*
X248928Y109506D02*
X247870Y109506D01*
X249140Y109506D02*
X249986Y107813D01*
X251506Y109930D02*
X252776Y109930D01*
X252831Y109928D01*
X252887Y109923D01*
X252941Y109914D01*
X252995Y109901D01*
X253048Y109885D01*
X253100Y109866D01*
X253151Y109843D01*
X253200Y109817D01*
X253247Y109787D01*
X253292Y109755D01*
X253334Y109720D01*
X253375Y109682D01*
X253413Y109641D01*
X253448Y109599D01*
X253480Y109554D01*
X253510Y109507D01*
X253536Y109458D01*
X253559Y109407D01*
X253578Y109355D01*
X253594Y109302D01*
X253607Y109248D01*
X253616Y109194D01*
X253621Y109138D01*
X253623Y109083D01*
X253623Y108871D01*
X253621Y108807D01*
X253615Y108743D01*
X253606Y108680D01*
X253592Y108618D01*
X253575Y108556D01*
X253554Y108496D01*
X253530Y108437D01*
X253502Y108379D01*
X253470Y108324D01*
X253436Y108270D01*
X253398Y108219D01*
X253357Y108169D01*
X253313Y108123D01*
X253267Y108079D01*
X253217Y108038D01*
X253166Y108000D01*
X253112Y107966D01*
X253057Y107934D01*
X252999Y107906D01*
X252940Y107882D01*
X252880Y107861D01*
X252818Y107844D01*
X252756Y107830D01*
X252693Y107821D01*
X252629Y107815D01*
X252565Y107813D01*
X252501Y107815D01*
X252437Y107821D01*
X252374Y107830D01*
X252312Y107844D01*
X252250Y107861D01*
X252190Y107882D01*
X252131Y107906D01*
X252073Y107934D01*
X252018Y107966D01*
X251964Y108000D01*
X251913Y108038D01*
X251863Y108079D01*
X251817Y108123D01*
X251773Y108169D01*
X251732Y108219D01*
X251694Y108270D01*
X251660Y108324D01*
X251628Y108379D01*
X251600Y108437D01*
X251576Y108496D01*
X251555Y108556D01*
X251538Y108618D01*
X251524Y108680D01*
X251515Y108743D01*
X251509Y108807D01*
X251507Y108871D01*
X251506Y108871D02*
X251506Y109930D01*
X251507Y109930D02*
X251509Y110011D01*
X251515Y110091D01*
X251524Y110171D01*
X251538Y110250D01*
X251555Y110329D01*
X251576Y110407D01*
X251600Y110484D01*
X251628Y110559D01*
X251660Y110633D01*
X251695Y110706D01*
X251734Y110776D01*
X251776Y110845D01*
X251821Y110912D01*
X251869Y110977D01*
X251921Y111039D01*
X251975Y111098D01*
X252032Y111155D01*
X252091Y111209D01*
X252153Y111261D01*
X252218Y111309D01*
X252285Y111354D01*
X252353Y111396D01*
X252424Y111435D01*
X252497Y111470D01*
X252571Y111502D01*
X252646Y111530D01*
X252723Y111554D01*
X252801Y111575D01*
X252880Y111592D01*
X252959Y111606D01*
X253039Y111615D01*
X253119Y111621D01*
X253200Y111623D01*
X291777Y251170D02*
X295587Y251170D01*
X291777Y251170D02*
X291777Y252228D01*
X291779Y252292D01*
X291785Y252356D01*
X291794Y252419D01*
X291808Y252481D01*
X291825Y252543D01*
X291846Y252603D01*
X291870Y252662D01*
X291898Y252720D01*
X291930Y252775D01*
X291964Y252829D01*
X292002Y252880D01*
X292043Y252930D01*
X292087Y252976D01*
X292133Y253020D01*
X292183Y253061D01*
X292234Y253099D01*
X292288Y253133D01*
X292343Y253165D01*
X292401Y253193D01*
X292460Y253217D01*
X292520Y253238D01*
X292582Y253255D01*
X292644Y253269D01*
X292707Y253278D01*
X292771Y253284D01*
X292835Y253286D01*
X292899Y253284D01*
X292963Y253278D01*
X293026Y253269D01*
X293088Y253255D01*
X293150Y253238D01*
X293210Y253217D01*
X293269Y253193D01*
X293327Y253165D01*
X293382Y253133D01*
X293436Y253099D01*
X293487Y253061D01*
X293537Y253020D01*
X293583Y252976D01*
X293627Y252930D01*
X293668Y252880D01*
X293706Y252829D01*
X293740Y252775D01*
X293772Y252720D01*
X293800Y252662D01*
X293824Y252603D01*
X293845Y252543D01*
X293862Y252481D01*
X293876Y252419D01*
X293885Y252356D01*
X293891Y252292D01*
X293893Y252228D01*
X293894Y252228D02*
X293894Y251170D01*
X293894Y252440D02*
X295587Y253286D01*
X293894Y255653D02*
X293894Y256923D01*
X293894Y255653D02*
X293892Y255598D01*
X293887Y255542D01*
X293878Y255488D01*
X293865Y255434D01*
X293849Y255381D01*
X293830Y255329D01*
X293807Y255278D01*
X293781Y255229D01*
X293751Y255182D01*
X293719Y255137D01*
X293684Y255095D01*
X293646Y255054D01*
X293605Y255016D01*
X293563Y254981D01*
X293518Y254949D01*
X293470Y254919D01*
X293422Y254893D01*
X293371Y254870D01*
X293319Y254851D01*
X293266Y254835D01*
X293212Y254822D01*
X293158Y254813D01*
X293102Y254808D01*
X293047Y254806D01*
X292835Y254806D01*
X292835Y254807D02*
X292771Y254809D01*
X292707Y254815D01*
X292644Y254824D01*
X292582Y254838D01*
X292520Y254855D01*
X292460Y254876D01*
X292401Y254900D01*
X292343Y254928D01*
X292288Y254960D01*
X292234Y254994D01*
X292183Y255032D01*
X292133Y255073D01*
X292087Y255117D01*
X292043Y255163D01*
X292002Y255213D01*
X291964Y255264D01*
X291930Y255318D01*
X291898Y255373D01*
X291870Y255431D01*
X291846Y255490D01*
X291825Y255550D01*
X291808Y255612D01*
X291794Y255674D01*
X291785Y255737D01*
X291779Y255801D01*
X291777Y255865D01*
X291779Y255929D01*
X291785Y255993D01*
X291794Y256056D01*
X291808Y256118D01*
X291825Y256180D01*
X291846Y256240D01*
X291870Y256299D01*
X291898Y256357D01*
X291930Y256412D01*
X291964Y256466D01*
X292002Y256517D01*
X292043Y256567D01*
X292087Y256613D01*
X292133Y256657D01*
X292183Y256698D01*
X292234Y256736D01*
X292288Y256770D01*
X292343Y256802D01*
X292401Y256830D01*
X292460Y256854D01*
X292520Y256875D01*
X292582Y256892D01*
X292644Y256906D01*
X292707Y256915D01*
X292771Y256921D01*
X292835Y256923D01*
X293894Y256923D01*
X293975Y256921D01*
X294055Y256915D01*
X294135Y256906D01*
X294214Y256892D01*
X294293Y256875D01*
X294371Y256854D01*
X294448Y256830D01*
X294523Y256802D01*
X294597Y256770D01*
X294670Y256735D01*
X294741Y256696D01*
X294809Y256654D01*
X294876Y256609D01*
X294941Y256561D01*
X295003Y256509D01*
X295062Y256455D01*
X295119Y256398D01*
X295173Y256339D01*
X295225Y256277D01*
X295273Y256212D01*
X295318Y256145D01*
X295360Y256077D01*
X295399Y256006D01*
X295434Y255933D01*
X295466Y255859D01*
X295494Y255784D01*
X295518Y255707D01*
X295539Y255629D01*
X295556Y255550D01*
X295570Y255471D01*
X295579Y255391D01*
X295585Y255311D01*
X295587Y255230D01*
D14*
X446200Y248200D02*
X471300Y248200D01*
X433500Y258200D02*
X433500Y289000D01*
X446500Y299000D02*
X471300Y299000D01*
X484300Y289000D02*
X484300Y258200D01*
X446200Y273600D02*
X446204Y273912D01*
X446215Y274223D01*
X446234Y274534D01*
X446261Y274845D01*
X446296Y275155D01*
X446337Y275463D01*
X446387Y275771D01*
X446444Y276078D01*
X446509Y276383D01*
X446581Y276686D01*
X446660Y276987D01*
X446747Y277287D01*
X446841Y277584D01*
X446942Y277879D01*
X447051Y278171D01*
X447167Y278460D01*
X447290Y278747D01*
X447419Y279030D01*
X447556Y279310D01*
X447700Y279587D01*
X447850Y279860D01*
X448007Y280129D01*
X448170Y280394D01*
X448340Y280656D01*
X448517Y280913D01*
X448699Y281165D01*
X448888Y281413D01*
X449083Y281657D01*
X449283Y281895D01*
X449490Y282129D01*
X449702Y282357D01*
X449920Y282580D01*
X450143Y282798D01*
X450371Y283010D01*
X450605Y283217D01*
X450843Y283417D01*
X451087Y283612D01*
X451335Y283801D01*
X451587Y283983D01*
X451844Y284160D01*
X452106Y284330D01*
X452371Y284493D01*
X452640Y284650D01*
X452913Y284800D01*
X453190Y284944D01*
X453470Y285081D01*
X453753Y285210D01*
X454040Y285333D01*
X454329Y285449D01*
X454621Y285558D01*
X454916Y285659D01*
X455213Y285753D01*
X455513Y285840D01*
X455814Y285919D01*
X456117Y285991D01*
X456422Y286056D01*
X456729Y286113D01*
X457037Y286163D01*
X457345Y286204D01*
X457655Y286239D01*
X457966Y286266D01*
X458277Y286285D01*
X458588Y286296D01*
X458900Y286300D01*
X459212Y286296D01*
X459523Y286285D01*
X459834Y286266D01*
X460145Y286239D01*
X460455Y286204D01*
X460763Y286163D01*
X461071Y286113D01*
X461378Y286056D01*
X461683Y285991D01*
X461986Y285919D01*
X462287Y285840D01*
X462587Y285753D01*
X462884Y285659D01*
X463179Y285558D01*
X463471Y285449D01*
X463760Y285333D01*
X464047Y285210D01*
X464330Y285081D01*
X464610Y284944D01*
X464887Y284800D01*
X465160Y284650D01*
X465429Y284493D01*
X465694Y284330D01*
X465956Y284160D01*
X466213Y283983D01*
X466465Y283801D01*
X466713Y283612D01*
X466957Y283417D01*
X467195Y283217D01*
X467429Y283010D01*
X467657Y282798D01*
X467880Y282580D01*
X468098Y282357D01*
X468310Y282129D01*
X468517Y281895D01*
X468717Y281657D01*
X468912Y281413D01*
X469101Y281165D01*
X469283Y280913D01*
X469460Y280656D01*
X469630Y280394D01*
X469793Y280129D01*
X469950Y279860D01*
X470100Y279587D01*
X470244Y279310D01*
X470381Y279030D01*
X470510Y278747D01*
X470633Y278460D01*
X470749Y278171D01*
X470858Y277879D01*
X470959Y277584D01*
X471053Y277287D01*
X471140Y276987D01*
X471219Y276686D01*
X471291Y276383D01*
X471356Y276078D01*
X471413Y275771D01*
X471463Y275463D01*
X471504Y275155D01*
X471539Y274845D01*
X471566Y274534D01*
X471585Y274223D01*
X471596Y273912D01*
X471600Y273600D01*
X471596Y273288D01*
X471585Y272977D01*
X471566Y272666D01*
X471539Y272355D01*
X471504Y272045D01*
X471463Y271737D01*
X471413Y271429D01*
X471356Y271122D01*
X471291Y270817D01*
X471219Y270514D01*
X471140Y270213D01*
X471053Y269913D01*
X470959Y269616D01*
X470858Y269321D01*
X470749Y269029D01*
X470633Y268740D01*
X470510Y268453D01*
X470381Y268170D01*
X470244Y267890D01*
X470100Y267613D01*
X469950Y267340D01*
X469793Y267071D01*
X469630Y266806D01*
X469460Y266544D01*
X469283Y266287D01*
X469101Y266035D01*
X468912Y265787D01*
X468717Y265543D01*
X468517Y265305D01*
X468310Y265071D01*
X468098Y264843D01*
X467880Y264620D01*
X467657Y264402D01*
X467429Y264190D01*
X467195Y263983D01*
X466957Y263783D01*
X466713Y263588D01*
X466465Y263399D01*
X466213Y263217D01*
X465956Y263040D01*
X465694Y262870D01*
X465429Y262707D01*
X465160Y262550D01*
X464887Y262400D01*
X464610Y262256D01*
X464330Y262119D01*
X464047Y261990D01*
X463760Y261867D01*
X463471Y261751D01*
X463179Y261642D01*
X462884Y261541D01*
X462587Y261447D01*
X462287Y261360D01*
X461986Y261281D01*
X461683Y261209D01*
X461378Y261144D01*
X461071Y261087D01*
X460763Y261037D01*
X460455Y260996D01*
X460145Y260961D01*
X459834Y260934D01*
X459523Y260915D01*
X459212Y260904D01*
X458900Y260900D01*
X458588Y260904D01*
X458277Y260915D01*
X457966Y260934D01*
X457655Y260961D01*
X457345Y260996D01*
X457037Y261037D01*
X456729Y261087D01*
X456422Y261144D01*
X456117Y261209D01*
X455814Y261281D01*
X455513Y261360D01*
X455213Y261447D01*
X454916Y261541D01*
X454621Y261642D01*
X454329Y261751D01*
X454040Y261867D01*
X453753Y261990D01*
X453470Y262119D01*
X453190Y262256D01*
X452913Y262400D01*
X452640Y262550D01*
X452371Y262707D01*
X452106Y262870D01*
X451844Y263040D01*
X451587Y263217D01*
X451335Y263399D01*
X451087Y263588D01*
X450843Y263783D01*
X450605Y263983D01*
X450371Y264190D01*
X450143Y264402D01*
X449920Y264620D01*
X449702Y264843D01*
X449490Y265071D01*
X449283Y265305D01*
X449083Y265543D01*
X448888Y265787D01*
X448699Y266035D01*
X448517Y266287D01*
X448340Y266544D01*
X448170Y266806D01*
X448007Y267071D01*
X447850Y267340D01*
X447700Y267613D01*
X447556Y267890D01*
X447419Y268170D01*
X447290Y268453D01*
X447167Y268740D01*
X447051Y269029D01*
X446942Y269321D01*
X446841Y269616D01*
X446747Y269913D01*
X446660Y270213D01*
X446581Y270514D01*
X446509Y270817D01*
X446444Y271122D01*
X446387Y271429D01*
X446337Y271737D01*
X446296Y272045D01*
X446261Y272355D01*
X446234Y272666D01*
X446215Y272977D01*
X446204Y273288D01*
X446200Y273600D01*
D15*
X411595Y271216D02*
X411593Y271281D01*
X411587Y271345D01*
X411577Y271409D01*
X411564Y271473D01*
X411546Y271535D01*
X411525Y271596D01*
X411501Y271656D01*
X411472Y271714D01*
X411440Y271771D01*
X411405Y271825D01*
X411367Y271877D01*
X411325Y271927D01*
X411281Y271974D01*
X411234Y272018D01*
X411184Y272060D01*
X411132Y272098D01*
X411078Y272133D01*
X411021Y272165D01*
X410963Y272194D01*
X410903Y272218D01*
X410842Y272239D01*
X410780Y272257D01*
X410716Y272270D01*
X410652Y272280D01*
X410588Y272286D01*
X410523Y272288D01*
X411595Y271216D02*
X411593Y271122D01*
X411587Y271028D01*
X411577Y270934D01*
X411564Y270841D01*
X411546Y270749D01*
X411525Y270657D01*
X411500Y270566D01*
X411471Y270476D01*
X411438Y270388D01*
X411402Y270301D01*
X411362Y270216D01*
X411319Y270132D01*
X411272Y270051D01*
X411222Y269971D01*
X411169Y269893D01*
X411112Y269818D01*
X411053Y269745D01*
X410990Y269675D01*
X410925Y269607D01*
X407841Y269742D02*
X407776Y269744D01*
X407712Y269750D01*
X407648Y269760D01*
X407584Y269773D01*
X407522Y269791D01*
X407461Y269812D01*
X407401Y269836D01*
X407343Y269865D01*
X407286Y269897D01*
X407232Y269932D01*
X407180Y269970D01*
X407130Y270012D01*
X407083Y270056D01*
X407039Y270103D01*
X406997Y270153D01*
X406959Y270205D01*
X406924Y270259D01*
X406892Y270316D01*
X406863Y270374D01*
X406839Y270434D01*
X406818Y270495D01*
X406800Y270557D01*
X406787Y270621D01*
X406777Y270685D01*
X406771Y270749D01*
X406769Y270814D01*
X406771Y270900D01*
X406776Y270986D01*
X406786Y271072D01*
X406799Y271157D01*
X406815Y271242D01*
X406835Y271326D01*
X406859Y271409D01*
X406886Y271491D01*
X406917Y271571D01*
X406951Y271651D01*
X406989Y271728D01*
X407030Y271804D01*
X407074Y271878D01*
X407121Y271951D01*
X407171Y272021D01*
X408779Y270278D02*
X408746Y270225D01*
X408709Y270174D01*
X408670Y270125D01*
X408628Y270078D01*
X408583Y270034D01*
X408536Y269993D01*
X408487Y269954D01*
X408435Y269918D01*
X408381Y269885D01*
X408326Y269856D01*
X408269Y269830D01*
X408210Y269807D01*
X408151Y269787D01*
X408090Y269771D01*
X408029Y269758D01*
X407966Y269749D01*
X407904Y269744D01*
X407841Y269742D01*
X409585Y271753D02*
X409618Y271806D01*
X409655Y271857D01*
X409694Y271906D01*
X409736Y271953D01*
X409781Y271997D01*
X409828Y272038D01*
X409877Y272077D01*
X409929Y272113D01*
X409983Y272146D01*
X410038Y272175D01*
X410095Y272201D01*
X410154Y272224D01*
X410213Y272244D01*
X410274Y272260D01*
X410335Y272273D01*
X410398Y272282D01*
X410460Y272287D01*
X410523Y272289D01*
X409584Y271753D02*
X408780Y270278D01*
X407841Y274911D02*
X406769Y276252D01*
X411595Y276252D01*
X411595Y277592D02*
X411595Y274911D01*
D14*
X505300Y248300D02*
X530400Y248300D01*
X492600Y258300D02*
X492600Y289100D01*
X505600Y299100D02*
X530400Y299100D01*
X543400Y289100D02*
X543400Y258300D01*
X505300Y273700D02*
X505304Y274012D01*
X505315Y274323D01*
X505334Y274634D01*
X505361Y274945D01*
X505396Y275255D01*
X505437Y275563D01*
X505487Y275871D01*
X505544Y276178D01*
X505609Y276483D01*
X505681Y276786D01*
X505760Y277087D01*
X505847Y277387D01*
X505941Y277684D01*
X506042Y277979D01*
X506151Y278271D01*
X506267Y278560D01*
X506390Y278847D01*
X506519Y279130D01*
X506656Y279410D01*
X506800Y279687D01*
X506950Y279960D01*
X507107Y280229D01*
X507270Y280494D01*
X507440Y280756D01*
X507617Y281013D01*
X507799Y281265D01*
X507988Y281513D01*
X508183Y281757D01*
X508383Y281995D01*
X508590Y282229D01*
X508802Y282457D01*
X509020Y282680D01*
X509243Y282898D01*
X509471Y283110D01*
X509705Y283317D01*
X509943Y283517D01*
X510187Y283712D01*
X510435Y283901D01*
X510687Y284083D01*
X510944Y284260D01*
X511206Y284430D01*
X511471Y284593D01*
X511740Y284750D01*
X512013Y284900D01*
X512290Y285044D01*
X512570Y285181D01*
X512853Y285310D01*
X513140Y285433D01*
X513429Y285549D01*
X513721Y285658D01*
X514016Y285759D01*
X514313Y285853D01*
X514613Y285940D01*
X514914Y286019D01*
X515217Y286091D01*
X515522Y286156D01*
X515829Y286213D01*
X516137Y286263D01*
X516445Y286304D01*
X516755Y286339D01*
X517066Y286366D01*
X517377Y286385D01*
X517688Y286396D01*
X518000Y286400D01*
X518312Y286396D01*
X518623Y286385D01*
X518934Y286366D01*
X519245Y286339D01*
X519555Y286304D01*
X519863Y286263D01*
X520171Y286213D01*
X520478Y286156D01*
X520783Y286091D01*
X521086Y286019D01*
X521387Y285940D01*
X521687Y285853D01*
X521984Y285759D01*
X522279Y285658D01*
X522571Y285549D01*
X522860Y285433D01*
X523147Y285310D01*
X523430Y285181D01*
X523710Y285044D01*
X523987Y284900D01*
X524260Y284750D01*
X524529Y284593D01*
X524794Y284430D01*
X525056Y284260D01*
X525313Y284083D01*
X525565Y283901D01*
X525813Y283712D01*
X526057Y283517D01*
X526295Y283317D01*
X526529Y283110D01*
X526757Y282898D01*
X526980Y282680D01*
X527198Y282457D01*
X527410Y282229D01*
X527617Y281995D01*
X527817Y281757D01*
X528012Y281513D01*
X528201Y281265D01*
X528383Y281013D01*
X528560Y280756D01*
X528730Y280494D01*
X528893Y280229D01*
X529050Y279960D01*
X529200Y279687D01*
X529344Y279410D01*
X529481Y279130D01*
X529610Y278847D01*
X529733Y278560D01*
X529849Y278271D01*
X529958Y277979D01*
X530059Y277684D01*
X530153Y277387D01*
X530240Y277087D01*
X530319Y276786D01*
X530391Y276483D01*
X530456Y276178D01*
X530513Y275871D01*
X530563Y275563D01*
X530604Y275255D01*
X530639Y274945D01*
X530666Y274634D01*
X530685Y274323D01*
X530696Y274012D01*
X530700Y273700D01*
X530696Y273388D01*
X530685Y273077D01*
X530666Y272766D01*
X530639Y272455D01*
X530604Y272145D01*
X530563Y271837D01*
X530513Y271529D01*
X530456Y271222D01*
X530391Y270917D01*
X530319Y270614D01*
X530240Y270313D01*
X530153Y270013D01*
X530059Y269716D01*
X529958Y269421D01*
X529849Y269129D01*
X529733Y268840D01*
X529610Y268553D01*
X529481Y268270D01*
X529344Y267990D01*
X529200Y267713D01*
X529050Y267440D01*
X528893Y267171D01*
X528730Y266906D01*
X528560Y266644D01*
X528383Y266387D01*
X528201Y266135D01*
X528012Y265887D01*
X527817Y265643D01*
X527617Y265405D01*
X527410Y265171D01*
X527198Y264943D01*
X526980Y264720D01*
X526757Y264502D01*
X526529Y264290D01*
X526295Y264083D01*
X526057Y263883D01*
X525813Y263688D01*
X525565Y263499D01*
X525313Y263317D01*
X525056Y263140D01*
X524794Y262970D01*
X524529Y262807D01*
X524260Y262650D01*
X523987Y262500D01*
X523710Y262356D01*
X523430Y262219D01*
X523147Y262090D01*
X522860Y261967D01*
X522571Y261851D01*
X522279Y261742D01*
X521984Y261641D01*
X521687Y261547D01*
X521387Y261460D01*
X521086Y261381D01*
X520783Y261309D01*
X520478Y261244D01*
X520171Y261187D01*
X519863Y261137D01*
X519555Y261096D01*
X519245Y261061D01*
X518934Y261034D01*
X518623Y261015D01*
X518312Y261004D01*
X518000Y261000D01*
X517688Y261004D01*
X517377Y261015D01*
X517066Y261034D01*
X516755Y261061D01*
X516445Y261096D01*
X516137Y261137D01*
X515829Y261187D01*
X515522Y261244D01*
X515217Y261309D01*
X514914Y261381D01*
X514613Y261460D01*
X514313Y261547D01*
X514016Y261641D01*
X513721Y261742D01*
X513429Y261851D01*
X513140Y261967D01*
X512853Y262090D01*
X512570Y262219D01*
X512290Y262356D01*
X512013Y262500D01*
X511740Y262650D01*
X511471Y262807D01*
X511206Y262970D01*
X510944Y263140D01*
X510687Y263317D01*
X510435Y263499D01*
X510187Y263688D01*
X509943Y263883D01*
X509705Y264083D01*
X509471Y264290D01*
X509243Y264502D01*
X509020Y264720D01*
X508802Y264943D01*
X508590Y265171D01*
X508383Y265405D01*
X508183Y265643D01*
X507988Y265887D01*
X507799Y266135D01*
X507617Y266387D01*
X507440Y266644D01*
X507270Y266906D01*
X507107Y267171D01*
X506950Y267440D01*
X506800Y267713D01*
X506656Y267990D01*
X506519Y268270D01*
X506390Y268553D01*
X506267Y268840D01*
X506151Y269129D01*
X506042Y269421D01*
X505941Y269716D01*
X505847Y270013D01*
X505760Y270313D01*
X505681Y270614D01*
X505609Y270917D01*
X505544Y271222D01*
X505487Y271529D01*
X505437Y271837D01*
X505396Y272145D01*
X505361Y272455D01*
X505334Y272766D01*
X505315Y273077D01*
X505304Y273388D01*
X505300Y273700D01*
D15*
X490695Y271316D02*
X490693Y271381D01*
X490687Y271445D01*
X490677Y271509D01*
X490664Y271573D01*
X490646Y271635D01*
X490625Y271696D01*
X490601Y271756D01*
X490572Y271814D01*
X490540Y271871D01*
X490505Y271925D01*
X490467Y271977D01*
X490425Y272027D01*
X490381Y272074D01*
X490334Y272118D01*
X490284Y272160D01*
X490232Y272198D01*
X490178Y272233D01*
X490121Y272265D01*
X490063Y272294D01*
X490003Y272318D01*
X489942Y272339D01*
X489880Y272357D01*
X489816Y272370D01*
X489752Y272380D01*
X489688Y272386D01*
X489623Y272388D01*
X490695Y271316D02*
X490693Y271222D01*
X490687Y271128D01*
X490677Y271034D01*
X490664Y270941D01*
X490646Y270849D01*
X490625Y270757D01*
X490600Y270666D01*
X490571Y270576D01*
X490538Y270488D01*
X490502Y270401D01*
X490462Y270316D01*
X490419Y270232D01*
X490372Y270151D01*
X490322Y270071D01*
X490269Y269993D01*
X490212Y269918D01*
X490153Y269845D01*
X490090Y269775D01*
X490025Y269707D01*
X486941Y269842D02*
X486876Y269844D01*
X486812Y269850D01*
X486748Y269860D01*
X486684Y269873D01*
X486622Y269891D01*
X486561Y269912D01*
X486501Y269936D01*
X486443Y269965D01*
X486386Y269997D01*
X486332Y270032D01*
X486280Y270070D01*
X486230Y270112D01*
X486183Y270156D01*
X486139Y270203D01*
X486097Y270253D01*
X486059Y270305D01*
X486024Y270359D01*
X485992Y270416D01*
X485963Y270474D01*
X485939Y270534D01*
X485918Y270595D01*
X485900Y270657D01*
X485887Y270721D01*
X485877Y270785D01*
X485871Y270849D01*
X485869Y270914D01*
X485871Y271000D01*
X485876Y271086D01*
X485886Y271172D01*
X485899Y271257D01*
X485915Y271342D01*
X485935Y271426D01*
X485959Y271509D01*
X485986Y271591D01*
X486017Y271671D01*
X486051Y271751D01*
X486089Y271828D01*
X486130Y271904D01*
X486174Y271978D01*
X486221Y272051D01*
X486271Y272121D01*
X487879Y270378D02*
X487846Y270325D01*
X487809Y270274D01*
X487770Y270225D01*
X487728Y270178D01*
X487683Y270134D01*
X487636Y270093D01*
X487587Y270054D01*
X487535Y270018D01*
X487481Y269985D01*
X487426Y269956D01*
X487369Y269930D01*
X487310Y269907D01*
X487251Y269887D01*
X487190Y269871D01*
X487129Y269858D01*
X487066Y269849D01*
X487004Y269844D01*
X486941Y269842D01*
X488685Y271853D02*
X488718Y271906D01*
X488755Y271957D01*
X488794Y272006D01*
X488836Y272053D01*
X488881Y272097D01*
X488928Y272138D01*
X488977Y272177D01*
X489029Y272213D01*
X489083Y272246D01*
X489138Y272275D01*
X489195Y272301D01*
X489254Y272324D01*
X489313Y272344D01*
X489374Y272360D01*
X489435Y272373D01*
X489498Y272382D01*
X489560Y272387D01*
X489623Y272389D01*
X488684Y271853D02*
X487880Y270378D01*
X485869Y276486D02*
X485871Y276554D01*
X485877Y276621D01*
X485886Y276688D01*
X485899Y276755D01*
X485916Y276820D01*
X485937Y276885D01*
X485961Y276948D01*
X485989Y277010D01*
X486020Y277070D01*
X486054Y277128D01*
X486092Y277184D01*
X486132Y277239D01*
X486176Y277290D01*
X486223Y277339D01*
X486272Y277386D01*
X486323Y277430D01*
X486378Y277470D01*
X486434Y277508D01*
X486492Y277542D01*
X486552Y277573D01*
X486614Y277601D01*
X486677Y277625D01*
X486742Y277646D01*
X486807Y277663D01*
X486874Y277676D01*
X486941Y277685D01*
X487008Y277691D01*
X487076Y277693D01*
X485869Y276486D02*
X485871Y276408D01*
X485877Y276330D01*
X485887Y276253D01*
X485900Y276176D01*
X485918Y276100D01*
X485939Y276025D01*
X485964Y275951D01*
X485993Y275879D01*
X486025Y275808D01*
X486061Y275739D01*
X486100Y275671D01*
X486143Y275606D01*
X486189Y275543D01*
X486238Y275482D01*
X486290Y275424D01*
X486345Y275369D01*
X486402Y275316D01*
X486462Y275267D01*
X486525Y275220D01*
X486590Y275177D01*
X486656Y275137D01*
X486725Y275100D01*
X486796Y275067D01*
X486868Y275037D01*
X486942Y275011D01*
X488014Y277290D02*
X487965Y277339D01*
X487913Y277386D01*
X487858Y277429D01*
X487801Y277470D01*
X487742Y277508D01*
X487681Y277542D01*
X487618Y277573D01*
X487554Y277601D01*
X487488Y277625D01*
X487422Y277645D01*
X487354Y277662D01*
X487285Y277675D01*
X487216Y277684D01*
X487146Y277690D01*
X487076Y277692D01*
X488014Y277290D02*
X490695Y275011D01*
X490695Y277692D01*
D14*
X49350Y312750D02*
X5850Y312750D01*
X5850Y196450D01*
X49350Y196450D01*
X49350Y312750D01*
D15*
X16835Y297216D02*
X16833Y297281D01*
X16827Y297345D01*
X16817Y297409D01*
X16804Y297473D01*
X16786Y297535D01*
X16765Y297596D01*
X16741Y297656D01*
X16712Y297714D01*
X16680Y297771D01*
X16645Y297825D01*
X16607Y297877D01*
X16565Y297927D01*
X16521Y297974D01*
X16474Y298018D01*
X16424Y298060D01*
X16372Y298098D01*
X16318Y298133D01*
X16261Y298165D01*
X16203Y298194D01*
X16143Y298218D01*
X16082Y298239D01*
X16020Y298257D01*
X15956Y298270D01*
X15892Y298280D01*
X15828Y298286D01*
X15763Y298288D01*
X16835Y297216D02*
X16833Y297122D01*
X16827Y297028D01*
X16817Y296934D01*
X16804Y296841D01*
X16786Y296749D01*
X16765Y296657D01*
X16740Y296566D01*
X16711Y296476D01*
X16678Y296388D01*
X16642Y296301D01*
X16602Y296216D01*
X16559Y296132D01*
X16512Y296051D01*
X16462Y295971D01*
X16409Y295893D01*
X16352Y295818D01*
X16293Y295745D01*
X16230Y295675D01*
X16165Y295607D01*
X13081Y295742D02*
X13016Y295744D01*
X12952Y295750D01*
X12888Y295760D01*
X12824Y295773D01*
X12762Y295791D01*
X12701Y295812D01*
X12641Y295836D01*
X12583Y295865D01*
X12526Y295897D01*
X12472Y295932D01*
X12420Y295970D01*
X12370Y296012D01*
X12323Y296056D01*
X12279Y296103D01*
X12237Y296153D01*
X12199Y296205D01*
X12164Y296259D01*
X12132Y296316D01*
X12103Y296374D01*
X12079Y296434D01*
X12058Y296495D01*
X12040Y296557D01*
X12027Y296621D01*
X12017Y296685D01*
X12011Y296749D01*
X12009Y296814D01*
X12011Y296900D01*
X12016Y296986D01*
X12026Y297072D01*
X12039Y297157D01*
X12055Y297242D01*
X12075Y297326D01*
X12099Y297409D01*
X12126Y297491D01*
X12157Y297571D01*
X12191Y297651D01*
X12229Y297728D01*
X12270Y297804D01*
X12314Y297878D01*
X12361Y297951D01*
X12411Y298021D01*
X14019Y296278D02*
X13986Y296225D01*
X13949Y296174D01*
X13910Y296125D01*
X13868Y296078D01*
X13823Y296034D01*
X13776Y295993D01*
X13727Y295954D01*
X13675Y295918D01*
X13621Y295885D01*
X13566Y295856D01*
X13509Y295830D01*
X13450Y295807D01*
X13391Y295787D01*
X13330Y295771D01*
X13269Y295758D01*
X13206Y295749D01*
X13144Y295744D01*
X13081Y295742D01*
X14825Y297753D02*
X14858Y297806D01*
X14895Y297857D01*
X14934Y297906D01*
X14976Y297953D01*
X15021Y297997D01*
X15068Y298038D01*
X15117Y298077D01*
X15169Y298113D01*
X15223Y298146D01*
X15278Y298175D01*
X15335Y298201D01*
X15394Y298224D01*
X15453Y298244D01*
X15514Y298260D01*
X15575Y298273D01*
X15638Y298282D01*
X15700Y298287D01*
X15763Y298289D01*
X14824Y297753D02*
X14020Y296278D01*
X16835Y300911D02*
X16835Y302252D01*
X16833Y302323D01*
X16827Y302395D01*
X16818Y302465D01*
X16805Y302535D01*
X16788Y302605D01*
X16767Y302673D01*
X16743Y302740D01*
X16715Y302806D01*
X16684Y302870D01*
X16649Y302933D01*
X16611Y302993D01*
X16570Y303052D01*
X16526Y303108D01*
X16479Y303162D01*
X16430Y303213D01*
X16377Y303261D01*
X16322Y303307D01*
X16265Y303349D01*
X16205Y303389D01*
X16144Y303425D01*
X16080Y303458D01*
X16015Y303487D01*
X15949Y303513D01*
X15881Y303536D01*
X15812Y303555D01*
X15742Y303570D01*
X15672Y303581D01*
X15601Y303589D01*
X15530Y303593D01*
X15458Y303593D01*
X15387Y303589D01*
X15316Y303581D01*
X15246Y303570D01*
X15176Y303555D01*
X15107Y303536D01*
X15039Y303513D01*
X14973Y303487D01*
X14908Y303458D01*
X14844Y303425D01*
X14783Y303389D01*
X14723Y303349D01*
X14666Y303307D01*
X14611Y303261D01*
X14558Y303213D01*
X14509Y303162D01*
X14462Y303108D01*
X14418Y303052D01*
X14377Y302993D01*
X14339Y302933D01*
X14304Y302870D01*
X14273Y302806D01*
X14245Y302740D01*
X14221Y302673D01*
X14200Y302605D01*
X14183Y302535D01*
X14170Y302465D01*
X14161Y302395D01*
X14155Y302323D01*
X14153Y302252D01*
X12009Y302520D02*
X12009Y300911D01*
X12009Y302520D02*
X12011Y302585D01*
X12017Y302649D01*
X12027Y302713D01*
X12040Y302777D01*
X12058Y302839D01*
X12079Y302900D01*
X12103Y302960D01*
X12132Y303018D01*
X12164Y303075D01*
X12199Y303129D01*
X12237Y303181D01*
X12279Y303231D01*
X12323Y303278D01*
X12370Y303322D01*
X12420Y303364D01*
X12472Y303402D01*
X12526Y303437D01*
X12583Y303469D01*
X12641Y303498D01*
X12701Y303522D01*
X12762Y303543D01*
X12824Y303561D01*
X12888Y303574D01*
X12952Y303584D01*
X13016Y303590D01*
X13081Y303592D01*
X13146Y303590D01*
X13210Y303584D01*
X13274Y303574D01*
X13338Y303561D01*
X13400Y303543D01*
X13461Y303522D01*
X13521Y303498D01*
X13579Y303469D01*
X13636Y303437D01*
X13690Y303402D01*
X13742Y303364D01*
X13792Y303322D01*
X13839Y303278D01*
X13883Y303231D01*
X13925Y303181D01*
X13963Y303129D01*
X13998Y303075D01*
X14030Y303018D01*
X14059Y302960D01*
X14083Y302900D01*
X14104Y302839D01*
X14122Y302777D01*
X14135Y302713D01*
X14145Y302649D01*
X14151Y302585D01*
X14153Y302520D01*
X14154Y302520D02*
X14154Y301447D01*
D14*
X406730Y206270D02*
X406730Y178500D01*
X406730Y206270D02*
X417000Y206270D01*
X406730Y51500D02*
X406730Y23730D01*
X417000Y23730D01*
X594110Y206270D02*
X664270Y206270D01*
X664270Y23730D02*
X594110Y23730D01*
X664270Y23730D02*
X664270Y206270D01*
D13*
X435037Y109174D02*
X429717Y109174D01*
X435037Y109174D02*
X435126Y109176D01*
X435215Y109182D01*
X435304Y109192D01*
X435392Y109205D01*
X435480Y109222D01*
X435567Y109244D01*
X435652Y109269D01*
X435737Y109297D01*
X435820Y109330D01*
X435902Y109366D01*
X435982Y109405D01*
X436060Y109448D01*
X436136Y109494D01*
X436211Y109544D01*
X436283Y109597D01*
X436352Y109653D01*
X436419Y109712D01*
X436484Y109773D01*
X436545Y109838D01*
X436604Y109905D01*
X436660Y109974D01*
X436713Y110046D01*
X436763Y110121D01*
X436809Y110197D01*
X436852Y110275D01*
X436891Y110355D01*
X436927Y110437D01*
X436960Y110520D01*
X436988Y110605D01*
X437013Y110690D01*
X437035Y110777D01*
X437052Y110865D01*
X437065Y110953D01*
X437075Y111042D01*
X437081Y111131D01*
X437083Y111220D01*
X437081Y111309D01*
X437075Y111398D01*
X437065Y111487D01*
X437052Y111575D01*
X437035Y111663D01*
X437013Y111750D01*
X436988Y111835D01*
X436960Y111920D01*
X436927Y112003D01*
X436891Y112085D01*
X436852Y112165D01*
X436809Y112243D01*
X436763Y112319D01*
X436713Y112394D01*
X436660Y112466D01*
X436604Y112535D01*
X436545Y112602D01*
X436484Y112667D01*
X436419Y112728D01*
X436352Y112787D01*
X436283Y112843D01*
X436211Y112896D01*
X436136Y112946D01*
X436060Y112992D01*
X435982Y113035D01*
X435902Y113074D01*
X435820Y113110D01*
X435737Y113143D01*
X435652Y113171D01*
X435567Y113196D01*
X435480Y113218D01*
X435392Y113235D01*
X435304Y113248D01*
X435215Y113258D01*
X435126Y113264D01*
X435037Y113266D01*
X435037Y113267D02*
X429717Y113267D01*
X431354Y116733D02*
X429717Y118780D01*
X437083Y118780D01*
X437083Y120826D02*
X437083Y116733D01*
D15*
X254400Y239000D02*
X191040Y239000D01*
X184400Y232360D01*
X184400Y169000D01*
X254400Y169000D01*
X254400Y239000D01*
D16*
X173800Y239600D03*
D12*
X171116Y172284D02*
X169561Y171039D01*
X171116Y172284D02*
X171116Y166684D01*
X169561Y166684D02*
X172672Y166684D01*
X178169Y170884D02*
X178167Y170957D01*
X178161Y171030D01*
X178152Y171103D01*
X178138Y171175D01*
X178121Y171246D01*
X178100Y171317D01*
X178076Y171386D01*
X178048Y171453D01*
X178016Y171520D01*
X177981Y171584D01*
X177943Y171646D01*
X177902Y171707D01*
X177857Y171765D01*
X177809Y171821D01*
X177759Y171874D01*
X177706Y171924D01*
X177650Y171972D01*
X177592Y172017D01*
X177531Y172058D01*
X177469Y172096D01*
X177405Y172131D01*
X177338Y172163D01*
X177271Y172191D01*
X177202Y172215D01*
X177131Y172236D01*
X177060Y172253D01*
X176988Y172267D01*
X176915Y172276D01*
X176842Y172282D01*
X176769Y172284D01*
X176769Y172283D02*
X176685Y172281D01*
X176602Y172275D01*
X176519Y172265D01*
X176436Y172252D01*
X176354Y172234D01*
X176273Y172213D01*
X176193Y172188D01*
X176114Y172160D01*
X176037Y172127D01*
X175961Y172091D01*
X175888Y172052D01*
X175816Y172009D01*
X175746Y171963D01*
X175678Y171914D01*
X175613Y171862D01*
X175550Y171806D01*
X175489Y171748D01*
X175432Y171687D01*
X175378Y171624D01*
X175326Y171558D01*
X175278Y171489D01*
X175232Y171419D01*
X175191Y171346D01*
X175152Y171272D01*
X175117Y171196D01*
X175086Y171118D01*
X175058Y171039D01*
X177702Y169795D02*
X177756Y169849D01*
X177807Y169905D01*
X177855Y169964D01*
X177900Y170026D01*
X177942Y170089D01*
X177980Y170155D01*
X178016Y170222D01*
X178047Y170292D01*
X178076Y170362D01*
X178100Y170434D01*
X178121Y170507D01*
X178138Y170582D01*
X178152Y170657D01*
X178161Y170732D01*
X178167Y170808D01*
X178169Y170884D01*
X177702Y169795D02*
X175058Y166684D01*
X178168Y166684D01*
X181160Y159789D02*
X179606Y158545D01*
X181160Y159789D02*
X181160Y154194D01*
X179606Y154194D02*
X182714Y154194D01*
X185099Y154194D02*
X186653Y154194D01*
X186730Y154196D01*
X186808Y154202D01*
X186885Y154211D01*
X186961Y154225D01*
X187036Y154242D01*
X187111Y154263D01*
X187184Y154288D01*
X187257Y154316D01*
X187327Y154348D01*
X187396Y154383D01*
X187463Y154422D01*
X187528Y154464D01*
X187591Y154509D01*
X187652Y154558D01*
X187710Y154609D01*
X187765Y154663D01*
X187818Y154720D01*
X187868Y154779D01*
X187915Y154841D01*
X187958Y154905D01*
X187999Y154971D01*
X188036Y155039D01*
X188069Y155109D01*
X188100Y155180D01*
X188126Y155253D01*
X188149Y155327D01*
X188168Y155402D01*
X188183Y155478D01*
X188195Y155555D01*
X188203Y155632D01*
X188207Y155709D01*
X188207Y155787D01*
X188203Y155864D01*
X188195Y155941D01*
X188183Y156018D01*
X188168Y156094D01*
X188149Y156169D01*
X188126Y156243D01*
X188100Y156316D01*
X188069Y156387D01*
X188036Y156457D01*
X187999Y156525D01*
X187958Y156591D01*
X187915Y156655D01*
X187868Y156717D01*
X187818Y156776D01*
X187765Y156833D01*
X187710Y156887D01*
X187652Y156938D01*
X187591Y156987D01*
X187528Y157032D01*
X187463Y157074D01*
X187396Y157113D01*
X187327Y157148D01*
X187257Y157180D01*
X187184Y157208D01*
X187111Y157233D01*
X187036Y157254D01*
X186961Y157271D01*
X186885Y157285D01*
X186808Y157294D01*
X186730Y157300D01*
X186653Y157302D01*
X186964Y159789D02*
X185099Y159789D01*
X186964Y159788D02*
X187034Y159786D01*
X187103Y159780D01*
X187172Y159770D01*
X187241Y159757D01*
X187308Y159739D01*
X187375Y159718D01*
X187440Y159693D01*
X187503Y159665D01*
X187565Y159633D01*
X187625Y159597D01*
X187683Y159559D01*
X187739Y159517D01*
X187792Y159472D01*
X187843Y159424D01*
X187891Y159373D01*
X187936Y159320D01*
X187978Y159264D01*
X188016Y159206D01*
X188052Y159146D01*
X188084Y159084D01*
X188112Y159021D01*
X188137Y158956D01*
X188158Y158889D01*
X188176Y158822D01*
X188189Y158753D01*
X188199Y158684D01*
X188205Y158615D01*
X188207Y158545D01*
X188205Y158475D01*
X188199Y158406D01*
X188189Y158337D01*
X188176Y158268D01*
X188158Y158201D01*
X188137Y158134D01*
X188112Y158069D01*
X188084Y158006D01*
X188052Y157944D01*
X188016Y157884D01*
X187978Y157826D01*
X187936Y157770D01*
X187891Y157717D01*
X187843Y157666D01*
X187792Y157618D01*
X187739Y157573D01*
X187683Y157531D01*
X187625Y157493D01*
X187565Y157457D01*
X187503Y157425D01*
X187440Y157397D01*
X187375Y157372D01*
X187308Y157351D01*
X187241Y157333D01*
X187172Y157320D01*
X187103Y157310D01*
X187034Y157304D01*
X186964Y157302D01*
X185720Y157302D01*
X251389Y159804D02*
X251462Y159802D01*
X251535Y159796D01*
X251608Y159787D01*
X251680Y159773D01*
X251751Y159756D01*
X251821Y159736D01*
X251890Y159711D01*
X251958Y159683D01*
X252024Y159652D01*
X252088Y159617D01*
X252150Y159578D01*
X252211Y159537D01*
X252269Y159492D01*
X252324Y159445D01*
X252378Y159395D01*
X252428Y159341D01*
X252475Y159286D01*
X252520Y159228D01*
X252561Y159167D01*
X252600Y159105D01*
X252635Y159041D01*
X252666Y158975D01*
X252694Y158907D01*
X252719Y158838D01*
X252739Y158768D01*
X252756Y158697D01*
X252770Y158625D01*
X252779Y158552D01*
X252785Y158479D01*
X252787Y158406D01*
X251389Y159804D02*
X251305Y159802D01*
X251222Y159796D01*
X251139Y159786D01*
X251056Y159773D01*
X250975Y159756D01*
X250894Y159734D01*
X250814Y159709D01*
X250735Y159681D01*
X250658Y159648D01*
X250582Y159613D01*
X250509Y159573D01*
X250437Y159531D01*
X250367Y159485D01*
X250299Y159435D01*
X250234Y159383D01*
X250171Y159328D01*
X250111Y159270D01*
X250054Y159209D01*
X249999Y159145D01*
X249948Y159079D01*
X249899Y159011D01*
X249854Y158941D01*
X249812Y158868D01*
X249774Y158794D01*
X249739Y158718D01*
X249708Y158640D01*
X249680Y158561D01*
X252321Y157318D02*
X252375Y157372D01*
X252425Y157429D01*
X252473Y157487D01*
X252518Y157549D01*
X252560Y157612D01*
X252599Y157678D01*
X252634Y157745D01*
X252666Y157814D01*
X252694Y157885D01*
X252718Y157957D01*
X252739Y158030D01*
X252756Y158104D01*
X252770Y158179D01*
X252779Y158254D01*
X252785Y158330D01*
X252787Y158406D01*
X252321Y157319D02*
X249680Y154211D01*
X252787Y154211D01*
X255171Y155454D02*
X256414Y159805D01*
X255171Y155454D02*
X258278Y155454D01*
X257346Y156697D02*
X257346Y154211D01*
X262825Y170894D02*
X262823Y170967D01*
X262817Y171040D01*
X262808Y171113D01*
X262794Y171185D01*
X262777Y171256D01*
X262757Y171326D01*
X262732Y171395D01*
X262704Y171463D01*
X262673Y171529D01*
X262638Y171594D01*
X262599Y171656D01*
X262558Y171716D01*
X262513Y171774D01*
X262466Y171830D01*
X262415Y171883D01*
X262362Y171934D01*
X262306Y171981D01*
X262248Y172026D01*
X262188Y172067D01*
X262126Y172106D01*
X262061Y172141D01*
X261995Y172172D01*
X261927Y172200D01*
X261858Y172225D01*
X261788Y172245D01*
X261717Y172262D01*
X261645Y172276D01*
X261572Y172285D01*
X261499Y172291D01*
X261426Y172293D01*
X261426Y172294D02*
X261342Y172292D01*
X261259Y172286D01*
X261176Y172276D01*
X261093Y172263D01*
X261011Y172245D01*
X260930Y172224D01*
X260850Y172199D01*
X260771Y172171D01*
X260694Y172138D01*
X260618Y172102D01*
X260545Y172063D01*
X260473Y172020D01*
X260403Y171974D01*
X260335Y171925D01*
X260270Y171873D01*
X260207Y171817D01*
X260146Y171759D01*
X260089Y171698D01*
X260035Y171635D01*
X259983Y171569D01*
X259935Y171500D01*
X259889Y171430D01*
X259848Y171357D01*
X259809Y171283D01*
X259774Y171207D01*
X259743Y171129D01*
X259715Y171050D01*
X262360Y169806D02*
X262413Y169859D01*
X262464Y169916D01*
X262512Y169975D01*
X262557Y170036D01*
X262599Y170100D01*
X262638Y170165D01*
X262673Y170233D01*
X262704Y170302D01*
X262733Y170373D01*
X262757Y170445D01*
X262778Y170518D01*
X262795Y170592D01*
X262809Y170667D01*
X262818Y170742D01*
X262824Y170818D01*
X262826Y170894D01*
X262359Y169806D02*
X259716Y166696D01*
X262826Y166696D01*
X265211Y166696D02*
X267077Y166696D01*
X267147Y166698D01*
X267216Y166704D01*
X267285Y166714D01*
X267354Y166727D01*
X267421Y166745D01*
X267488Y166766D01*
X267553Y166791D01*
X267617Y166819D01*
X267679Y166851D01*
X267739Y166887D01*
X267797Y166925D01*
X267853Y166967D01*
X267906Y167012D01*
X267957Y167060D01*
X268005Y167111D01*
X268050Y167164D01*
X268092Y167220D01*
X268130Y167278D01*
X268166Y167338D01*
X268198Y167400D01*
X268226Y167464D01*
X268251Y167529D01*
X268272Y167596D01*
X268290Y167663D01*
X268303Y167732D01*
X268313Y167801D01*
X268319Y167870D01*
X268321Y167940D01*
X268320Y167940D02*
X268320Y168562D01*
X268321Y168562D02*
X268319Y168632D01*
X268313Y168701D01*
X268303Y168770D01*
X268290Y168839D01*
X268272Y168906D01*
X268251Y168973D01*
X268226Y169038D01*
X268198Y169102D01*
X268166Y169164D01*
X268130Y169224D01*
X268092Y169282D01*
X268050Y169338D01*
X268005Y169391D01*
X267957Y169442D01*
X267906Y169490D01*
X267853Y169535D01*
X267797Y169577D01*
X267739Y169615D01*
X267679Y169651D01*
X267617Y169683D01*
X267553Y169711D01*
X267488Y169736D01*
X267421Y169757D01*
X267354Y169775D01*
X267285Y169788D01*
X267216Y169798D01*
X267147Y169804D01*
X267077Y169806D01*
X265211Y169806D01*
X265211Y172293D01*
X268320Y172293D01*
X261253Y234288D02*
X259699Y234288D01*
X261253Y234288D02*
X261330Y234290D01*
X261408Y234296D01*
X261485Y234305D01*
X261561Y234319D01*
X261636Y234336D01*
X261711Y234357D01*
X261784Y234382D01*
X261857Y234410D01*
X261927Y234442D01*
X261996Y234477D01*
X262063Y234516D01*
X262128Y234558D01*
X262191Y234603D01*
X262252Y234652D01*
X262310Y234703D01*
X262365Y234757D01*
X262418Y234814D01*
X262468Y234873D01*
X262515Y234935D01*
X262558Y234999D01*
X262599Y235065D01*
X262636Y235133D01*
X262669Y235203D01*
X262700Y235274D01*
X262726Y235347D01*
X262749Y235421D01*
X262768Y235496D01*
X262783Y235572D01*
X262795Y235649D01*
X262803Y235726D01*
X262807Y235803D01*
X262807Y235881D01*
X262803Y235958D01*
X262795Y236035D01*
X262783Y236112D01*
X262768Y236188D01*
X262749Y236263D01*
X262726Y236337D01*
X262700Y236410D01*
X262669Y236481D01*
X262636Y236551D01*
X262599Y236619D01*
X262558Y236685D01*
X262515Y236749D01*
X262468Y236811D01*
X262418Y236870D01*
X262365Y236927D01*
X262310Y236981D01*
X262252Y237032D01*
X262191Y237081D01*
X262128Y237126D01*
X262063Y237168D01*
X261996Y237207D01*
X261927Y237242D01*
X261857Y237274D01*
X261784Y237302D01*
X261711Y237327D01*
X261636Y237348D01*
X261561Y237365D01*
X261485Y237379D01*
X261408Y237388D01*
X261330Y237394D01*
X261253Y237396D01*
X261564Y239883D02*
X259699Y239883D01*
X261564Y239882D02*
X261634Y239880D01*
X261703Y239874D01*
X261772Y239864D01*
X261841Y239851D01*
X261908Y239833D01*
X261975Y239812D01*
X262040Y239787D01*
X262103Y239759D01*
X262165Y239727D01*
X262225Y239691D01*
X262283Y239653D01*
X262339Y239611D01*
X262392Y239566D01*
X262443Y239518D01*
X262491Y239467D01*
X262536Y239414D01*
X262578Y239358D01*
X262616Y239300D01*
X262652Y239240D01*
X262684Y239178D01*
X262712Y239115D01*
X262737Y239050D01*
X262758Y238983D01*
X262776Y238916D01*
X262789Y238847D01*
X262799Y238778D01*
X262805Y238709D01*
X262807Y238639D01*
X262805Y238569D01*
X262799Y238500D01*
X262789Y238431D01*
X262776Y238362D01*
X262758Y238295D01*
X262737Y238228D01*
X262712Y238163D01*
X262684Y238100D01*
X262652Y238038D01*
X262616Y237978D01*
X262578Y237920D01*
X262536Y237864D01*
X262491Y237811D01*
X262443Y237760D01*
X262392Y237712D01*
X262339Y237667D01*
X262283Y237625D01*
X262225Y237587D01*
X262165Y237551D01*
X262103Y237519D01*
X262040Y237491D01*
X261975Y237466D01*
X261908Y237445D01*
X261841Y237427D01*
X261772Y237414D01*
X261703Y237404D01*
X261634Y237398D01*
X261564Y237396D01*
X260321Y237396D01*
X265191Y237396D02*
X267056Y237396D01*
X267126Y237394D01*
X267195Y237388D01*
X267264Y237378D01*
X267333Y237365D01*
X267400Y237347D01*
X267467Y237326D01*
X267532Y237301D01*
X267595Y237273D01*
X267657Y237241D01*
X267717Y237205D01*
X267775Y237167D01*
X267831Y237125D01*
X267884Y237080D01*
X267935Y237032D01*
X267983Y236981D01*
X268028Y236928D01*
X268070Y236872D01*
X268108Y236814D01*
X268144Y236754D01*
X268176Y236692D01*
X268204Y236629D01*
X268229Y236564D01*
X268250Y236497D01*
X268268Y236430D01*
X268281Y236361D01*
X268291Y236292D01*
X268297Y236223D01*
X268299Y236153D01*
X268300Y236153D02*
X268300Y235842D01*
X268298Y235765D01*
X268292Y235687D01*
X268283Y235610D01*
X268269Y235534D01*
X268252Y235459D01*
X268231Y235384D01*
X268206Y235311D01*
X268178Y235238D01*
X268146Y235168D01*
X268111Y235099D01*
X268072Y235032D01*
X268030Y234967D01*
X267985Y234904D01*
X267936Y234843D01*
X267885Y234785D01*
X267831Y234730D01*
X267774Y234677D01*
X267715Y234627D01*
X267653Y234580D01*
X267589Y234537D01*
X267523Y234496D01*
X267455Y234459D01*
X267385Y234426D01*
X267314Y234395D01*
X267241Y234369D01*
X267167Y234346D01*
X267092Y234327D01*
X267016Y234312D01*
X266939Y234300D01*
X266862Y234292D01*
X266785Y234288D01*
X266707Y234288D01*
X266630Y234292D01*
X266553Y234300D01*
X266476Y234312D01*
X266400Y234327D01*
X266325Y234346D01*
X266251Y234369D01*
X266178Y234395D01*
X266107Y234426D01*
X266037Y234459D01*
X265969Y234496D01*
X265903Y234537D01*
X265839Y234580D01*
X265777Y234627D01*
X265718Y234677D01*
X265661Y234730D01*
X265607Y234785D01*
X265556Y234843D01*
X265507Y234904D01*
X265462Y234967D01*
X265420Y235032D01*
X265381Y235099D01*
X265346Y235168D01*
X265314Y235238D01*
X265286Y235311D01*
X265261Y235384D01*
X265240Y235459D01*
X265223Y235534D01*
X265209Y235610D01*
X265200Y235687D01*
X265194Y235765D01*
X265192Y235842D01*
X265191Y235842D02*
X265191Y237396D01*
X265193Y237494D01*
X265199Y237591D01*
X265208Y237688D01*
X265222Y237785D01*
X265239Y237881D01*
X265260Y237977D01*
X265284Y238071D01*
X265313Y238165D01*
X265345Y238257D01*
X265380Y238348D01*
X265419Y238437D01*
X265462Y238525D01*
X265508Y238611D01*
X265557Y238695D01*
X265610Y238778D01*
X265666Y238858D01*
X265725Y238936D01*
X265787Y239011D01*
X265852Y239084D01*
X265919Y239155D01*
X265990Y239222D01*
X266063Y239287D01*
X266138Y239349D01*
X266216Y239408D01*
X266296Y239464D01*
X266379Y239517D01*
X266463Y239566D01*
X266549Y239612D01*
X266637Y239655D01*
X266726Y239694D01*
X266817Y239729D01*
X266909Y239761D01*
X267003Y239790D01*
X267097Y239814D01*
X267193Y239835D01*
X267289Y239852D01*
X267386Y239866D01*
X267483Y239875D01*
X267580Y239881D01*
X267678Y239883D01*
X251238Y244294D02*
X249684Y244294D01*
X251238Y244294D02*
X251315Y244296D01*
X251393Y244302D01*
X251470Y244311D01*
X251546Y244325D01*
X251621Y244342D01*
X251696Y244363D01*
X251769Y244388D01*
X251842Y244416D01*
X251912Y244448D01*
X251981Y244483D01*
X252048Y244522D01*
X252113Y244564D01*
X252176Y244609D01*
X252237Y244658D01*
X252295Y244709D01*
X252350Y244763D01*
X252403Y244820D01*
X252453Y244879D01*
X252500Y244941D01*
X252543Y245005D01*
X252584Y245071D01*
X252621Y245139D01*
X252654Y245209D01*
X252685Y245280D01*
X252711Y245353D01*
X252734Y245427D01*
X252753Y245502D01*
X252768Y245578D01*
X252780Y245655D01*
X252788Y245732D01*
X252792Y245809D01*
X252792Y245887D01*
X252788Y245964D01*
X252780Y246041D01*
X252768Y246118D01*
X252753Y246194D01*
X252734Y246269D01*
X252711Y246343D01*
X252685Y246416D01*
X252654Y246487D01*
X252621Y246557D01*
X252584Y246625D01*
X252543Y246691D01*
X252500Y246755D01*
X252453Y246817D01*
X252403Y246876D01*
X252350Y246933D01*
X252295Y246987D01*
X252237Y247038D01*
X252176Y247087D01*
X252113Y247132D01*
X252048Y247174D01*
X251981Y247213D01*
X251912Y247248D01*
X251842Y247280D01*
X251769Y247308D01*
X251696Y247333D01*
X251621Y247354D01*
X251546Y247371D01*
X251470Y247385D01*
X251393Y247394D01*
X251315Y247400D01*
X251238Y247402D01*
X251549Y249888D02*
X249684Y249888D01*
X251549Y249888D02*
X251619Y249886D01*
X251688Y249880D01*
X251757Y249870D01*
X251826Y249857D01*
X251893Y249839D01*
X251960Y249818D01*
X252025Y249793D01*
X252088Y249765D01*
X252150Y249733D01*
X252210Y249697D01*
X252268Y249659D01*
X252324Y249617D01*
X252377Y249572D01*
X252428Y249524D01*
X252476Y249473D01*
X252521Y249420D01*
X252563Y249364D01*
X252601Y249306D01*
X252637Y249246D01*
X252669Y249184D01*
X252697Y249121D01*
X252722Y249056D01*
X252743Y248989D01*
X252761Y248922D01*
X252774Y248853D01*
X252784Y248784D01*
X252790Y248715D01*
X252792Y248645D01*
X252790Y248575D01*
X252784Y248506D01*
X252774Y248437D01*
X252761Y248368D01*
X252743Y248301D01*
X252722Y248234D01*
X252697Y248169D01*
X252669Y248106D01*
X252637Y248044D01*
X252601Y247984D01*
X252563Y247926D01*
X252521Y247870D01*
X252476Y247817D01*
X252428Y247766D01*
X252377Y247718D01*
X252324Y247673D01*
X252268Y247631D01*
X252210Y247593D01*
X252150Y247557D01*
X252088Y247525D01*
X252025Y247497D01*
X251960Y247472D01*
X251893Y247451D01*
X251826Y247433D01*
X251757Y247420D01*
X251688Y247410D01*
X251619Y247404D01*
X251549Y247402D01*
X250306Y247402D01*
X255176Y249267D02*
X255176Y249888D01*
X258284Y249888D01*
X256730Y244294D01*
X180840Y249908D02*
X179596Y245555D01*
X182706Y245555D01*
X181773Y244312D02*
X181773Y246799D01*
X185090Y245866D02*
X185092Y245944D01*
X185098Y246021D01*
X185107Y246098D01*
X185121Y246174D01*
X185138Y246250D01*
X185159Y246324D01*
X185184Y246398D01*
X185212Y246470D01*
X185244Y246541D01*
X185279Y246610D01*
X185318Y246677D01*
X185360Y246742D01*
X185405Y246805D01*
X185454Y246866D01*
X185505Y246924D01*
X185559Y246979D01*
X185616Y247032D01*
X185675Y247082D01*
X185737Y247129D01*
X185801Y247172D01*
X185868Y247213D01*
X185936Y247250D01*
X186005Y247283D01*
X186077Y247314D01*
X186150Y247340D01*
X186224Y247363D01*
X186299Y247382D01*
X186375Y247397D01*
X186452Y247409D01*
X186529Y247417D01*
X186606Y247421D01*
X186684Y247421D01*
X186761Y247417D01*
X186838Y247409D01*
X186915Y247397D01*
X186991Y247382D01*
X187066Y247363D01*
X187140Y247340D01*
X187213Y247314D01*
X187285Y247283D01*
X187354Y247250D01*
X187423Y247213D01*
X187489Y247172D01*
X187553Y247129D01*
X187615Y247082D01*
X187674Y247032D01*
X187731Y246979D01*
X187785Y246924D01*
X187836Y246866D01*
X187885Y246805D01*
X187930Y246742D01*
X187972Y246677D01*
X188011Y246610D01*
X188046Y246541D01*
X188078Y246470D01*
X188106Y246398D01*
X188131Y246324D01*
X188152Y246250D01*
X188169Y246174D01*
X188183Y246098D01*
X188192Y246021D01*
X188198Y245944D01*
X188200Y245866D01*
X188198Y245788D01*
X188192Y245711D01*
X188183Y245634D01*
X188169Y245558D01*
X188152Y245482D01*
X188131Y245408D01*
X188106Y245334D01*
X188078Y245262D01*
X188046Y245191D01*
X188011Y245122D01*
X187972Y245055D01*
X187930Y244990D01*
X187885Y244927D01*
X187836Y244866D01*
X187785Y244808D01*
X187731Y244753D01*
X187674Y244700D01*
X187615Y244650D01*
X187553Y244603D01*
X187489Y244560D01*
X187423Y244519D01*
X187354Y244482D01*
X187285Y244449D01*
X187213Y244418D01*
X187140Y244392D01*
X187066Y244369D01*
X186991Y244350D01*
X186915Y244335D01*
X186838Y244323D01*
X186761Y244315D01*
X186684Y244311D01*
X186606Y244311D01*
X186529Y244315D01*
X186452Y244323D01*
X186375Y244335D01*
X186299Y244350D01*
X186224Y244369D01*
X186150Y244392D01*
X186077Y244418D01*
X186005Y244449D01*
X185936Y244482D01*
X185868Y244519D01*
X185801Y244560D01*
X185737Y244603D01*
X185675Y244650D01*
X185616Y244700D01*
X185559Y244753D01*
X185505Y244808D01*
X185454Y244866D01*
X185405Y244927D01*
X185360Y244990D01*
X185318Y245055D01*
X185279Y245122D01*
X185244Y245191D01*
X185212Y245262D01*
X185184Y245334D01*
X185159Y245408D01*
X185138Y245482D01*
X185121Y245558D01*
X185107Y245634D01*
X185098Y245711D01*
X185092Y245788D01*
X185090Y245866D01*
X185401Y248665D02*
X185403Y248735D01*
X185409Y248804D01*
X185419Y248873D01*
X185432Y248942D01*
X185450Y249009D01*
X185471Y249076D01*
X185496Y249141D01*
X185524Y249205D01*
X185556Y249267D01*
X185592Y249327D01*
X185630Y249385D01*
X185672Y249441D01*
X185717Y249494D01*
X185765Y249545D01*
X185816Y249593D01*
X185869Y249638D01*
X185925Y249680D01*
X185983Y249718D01*
X186043Y249754D01*
X186105Y249786D01*
X186169Y249814D01*
X186234Y249839D01*
X186301Y249860D01*
X186368Y249878D01*
X186437Y249891D01*
X186506Y249901D01*
X186575Y249907D01*
X186645Y249909D01*
X186715Y249907D01*
X186784Y249901D01*
X186853Y249891D01*
X186922Y249878D01*
X186989Y249860D01*
X187056Y249839D01*
X187121Y249814D01*
X187185Y249786D01*
X187247Y249754D01*
X187307Y249718D01*
X187365Y249680D01*
X187421Y249638D01*
X187474Y249593D01*
X187525Y249545D01*
X187573Y249494D01*
X187618Y249441D01*
X187660Y249385D01*
X187698Y249327D01*
X187734Y249267D01*
X187766Y249205D01*
X187794Y249141D01*
X187819Y249076D01*
X187840Y249009D01*
X187858Y248942D01*
X187871Y248873D01*
X187881Y248804D01*
X187887Y248735D01*
X187889Y248665D01*
X187887Y248595D01*
X187881Y248526D01*
X187871Y248457D01*
X187858Y248388D01*
X187840Y248321D01*
X187819Y248254D01*
X187794Y248189D01*
X187766Y248125D01*
X187734Y248063D01*
X187698Y248003D01*
X187660Y247945D01*
X187618Y247889D01*
X187573Y247836D01*
X187525Y247785D01*
X187474Y247737D01*
X187421Y247692D01*
X187365Y247650D01*
X187307Y247612D01*
X187247Y247576D01*
X187185Y247544D01*
X187121Y247516D01*
X187056Y247491D01*
X186989Y247470D01*
X186922Y247452D01*
X186853Y247439D01*
X186784Y247429D01*
X186715Y247423D01*
X186645Y247421D01*
X186575Y247423D01*
X186506Y247429D01*
X186437Y247439D01*
X186368Y247452D01*
X186301Y247470D01*
X186234Y247491D01*
X186169Y247516D01*
X186105Y247544D01*
X186043Y247576D01*
X185983Y247612D01*
X185925Y247650D01*
X185869Y247692D01*
X185816Y247737D01*
X185765Y247785D01*
X185717Y247836D01*
X185672Y247889D01*
X185630Y247945D01*
X185592Y248003D01*
X185556Y248063D01*
X185524Y248125D01*
X185496Y248189D01*
X185471Y248254D01*
X185450Y248321D01*
X185432Y248388D01*
X185419Y248457D01*
X185409Y248526D01*
X185403Y248595D01*
X185401Y248665D01*
D17*
X200853Y263862D02*
X200853Y269550D01*
X200853Y263862D02*
X200855Y263769D01*
X200861Y263676D01*
X200871Y263584D01*
X200884Y263492D01*
X200902Y263401D01*
X200924Y263311D01*
X200949Y263221D01*
X200978Y263133D01*
X201011Y263046D01*
X201047Y262961D01*
X201087Y262877D01*
X201131Y262795D01*
X201178Y262715D01*
X201228Y262637D01*
X201282Y262561D01*
X201339Y262487D01*
X201399Y262416D01*
X201461Y262348D01*
X201527Y262282D01*
X201595Y262220D01*
X201666Y262160D01*
X201740Y262103D01*
X201816Y262049D01*
X201894Y261999D01*
X201974Y261952D01*
X202056Y261908D01*
X202140Y261868D01*
X202225Y261832D01*
X202312Y261799D01*
X202400Y261770D01*
X202490Y261745D01*
X202580Y261723D01*
X202671Y261705D01*
X202763Y261692D01*
X202855Y261682D01*
X202948Y261676D01*
X203041Y261674D01*
X203134Y261676D01*
X203227Y261682D01*
X203319Y261692D01*
X203411Y261705D01*
X203502Y261723D01*
X203592Y261745D01*
X203682Y261770D01*
X203770Y261799D01*
X203857Y261832D01*
X203942Y261868D01*
X204026Y261908D01*
X204108Y261952D01*
X204188Y261999D01*
X204266Y262049D01*
X204342Y262103D01*
X204416Y262160D01*
X204487Y262220D01*
X204555Y262282D01*
X204621Y262348D01*
X204683Y262416D01*
X204743Y262487D01*
X204800Y262561D01*
X204854Y262637D01*
X204904Y262715D01*
X204951Y262795D01*
X204995Y262877D01*
X205035Y262961D01*
X205071Y263046D01*
X205104Y263133D01*
X205133Y263221D01*
X205158Y263311D01*
X205180Y263401D01*
X205198Y263492D01*
X205211Y263584D01*
X205221Y263676D01*
X205227Y263769D01*
X205229Y263862D01*
X205229Y269550D01*
X211529Y269550D02*
X211615Y269548D01*
X211701Y269543D01*
X211786Y269533D01*
X211871Y269520D01*
X211955Y269503D01*
X212039Y269483D01*
X212121Y269459D01*
X212202Y269431D01*
X212283Y269400D01*
X212361Y269366D01*
X212438Y269328D01*
X212514Y269286D01*
X212587Y269242D01*
X212658Y269194D01*
X212728Y269143D01*
X212795Y269089D01*
X212859Y269033D01*
X212921Y268973D01*
X212981Y268911D01*
X213037Y268847D01*
X213091Y268780D01*
X213142Y268710D01*
X213190Y268639D01*
X213234Y268566D01*
X213276Y268490D01*
X213314Y268413D01*
X213348Y268335D01*
X213379Y268254D01*
X213407Y268173D01*
X213431Y268091D01*
X213451Y268007D01*
X213468Y267923D01*
X213481Y267838D01*
X213491Y267753D01*
X213496Y267667D01*
X213498Y267581D01*
X211529Y269551D02*
X211430Y269549D01*
X211330Y269543D01*
X211231Y269533D01*
X211133Y269520D01*
X211035Y269502D01*
X210938Y269481D01*
X210842Y269456D01*
X210747Y269427D01*
X210653Y269394D01*
X210560Y269358D01*
X210469Y269318D01*
X210380Y269275D01*
X210292Y269228D01*
X210206Y269178D01*
X210122Y269124D01*
X210041Y269067D01*
X209962Y269007D01*
X209885Y268944D01*
X209811Y268878D01*
X209739Y268809D01*
X209670Y268737D01*
X209604Y268663D01*
X209541Y268586D01*
X209481Y268507D01*
X209424Y268425D01*
X209371Y268341D01*
X209321Y268255D01*
X209274Y268168D01*
X209230Y268078D01*
X209191Y267987D01*
X209155Y267894D01*
X209122Y267800D01*
X212843Y266049D02*
X212907Y266113D01*
X212968Y266179D01*
X213026Y266248D01*
X213081Y266319D01*
X213134Y266393D01*
X213183Y266468D01*
X213228Y266546D01*
X213271Y266625D01*
X213310Y266707D01*
X213345Y266789D01*
X213377Y266874D01*
X213406Y266959D01*
X213430Y267046D01*
X213451Y267134D01*
X213468Y267222D01*
X213482Y267311D01*
X213491Y267401D01*
X213497Y267491D01*
X213499Y267581D01*
X212842Y266050D02*
X209123Y261674D01*
X213499Y261674D01*
D18*
X198920Y103590D02*
X259880Y103590D01*
X259880Y60410D02*
X198920Y60410D01*
D11*
X198920Y98510D02*
X259880Y98510D01*
X259880Y65490D02*
X198920Y65490D01*
D18*
X259880Y60410D02*
X260406Y60416D01*
X260931Y60436D01*
X261456Y60468D01*
X261980Y60512D01*
X262502Y60570D01*
X263024Y60640D01*
X263543Y60723D01*
X264060Y60818D01*
X264574Y60927D01*
X265086Y61047D01*
X265595Y61180D01*
X266100Y61325D01*
X266602Y61483D01*
X267099Y61653D01*
X267593Y61835D01*
X268081Y62028D01*
X268565Y62234D01*
X269044Y62451D01*
X269517Y62680D01*
X269985Y62921D01*
X270447Y63172D01*
X270902Y63435D01*
X271351Y63709D01*
X271793Y63994D01*
X272228Y64289D01*
X272655Y64595D01*
X273075Y64912D01*
X273487Y65238D01*
X273892Y65574D01*
X274287Y65920D01*
X274675Y66276D01*
X275053Y66641D01*
X275423Y67015D01*
X275783Y67398D01*
X276134Y67789D01*
X276475Y68189D01*
X276806Y68598D01*
X277128Y69014D01*
X277439Y69438D01*
X277740Y69869D01*
X278030Y70307D01*
X278309Y70753D01*
X278577Y71205D01*
X278835Y71664D01*
X279081Y72128D01*
X279316Y72599D01*
X279539Y73075D01*
X279750Y73556D01*
X279950Y74042D01*
X280138Y74533D01*
X280314Y75029D01*
X280477Y75529D01*
X280629Y76032D01*
X280768Y76539D01*
X280895Y77049D01*
X281009Y77563D01*
X281111Y78078D01*
X281200Y78597D01*
X281277Y79117D01*
X281340Y79639D01*
X281392Y80162D01*
X281430Y80686D01*
X281456Y81211D01*
X281468Y81737D01*
X281468Y82263D01*
X281456Y82789D01*
X281430Y83314D01*
X281392Y83838D01*
X281340Y84361D01*
X281277Y84883D01*
X281200Y85403D01*
X281111Y85922D01*
X281009Y86437D01*
X280895Y86951D01*
X280768Y87461D01*
X280629Y87968D01*
X280477Y88471D01*
X280314Y88971D01*
X280138Y89467D01*
X279950Y89958D01*
X279750Y90444D01*
X279539Y90925D01*
X279316Y91401D01*
X279081Y91872D01*
X278835Y92336D01*
X278577Y92795D01*
X278309Y93247D01*
X278030Y93693D01*
X277740Y94131D01*
X277439Y94562D01*
X277128Y94986D01*
X276806Y95402D01*
X276475Y95811D01*
X276134Y96211D01*
X275783Y96602D01*
X275423Y96985D01*
X275053Y97359D01*
X274675Y97724D01*
X274287Y98080D01*
X273892Y98426D01*
X273487Y98762D01*
X273075Y99088D01*
X272655Y99405D01*
X272228Y99711D01*
X271793Y100006D01*
X271351Y100291D01*
X270902Y100565D01*
X270447Y100828D01*
X269985Y101079D01*
X269517Y101320D01*
X269044Y101549D01*
X268565Y101766D01*
X268081Y101972D01*
X267593Y102165D01*
X267099Y102347D01*
X266602Y102517D01*
X266100Y102675D01*
X265595Y102820D01*
X265086Y102953D01*
X264574Y103073D01*
X264060Y103182D01*
X263543Y103277D01*
X263024Y103360D01*
X262502Y103430D01*
X261980Y103488D01*
X261456Y103532D01*
X260931Y103564D01*
X260406Y103584D01*
X259880Y103590D01*
X198920Y103590D02*
X198394Y103584D01*
X197869Y103564D01*
X197344Y103532D01*
X196820Y103488D01*
X196298Y103430D01*
X195776Y103360D01*
X195257Y103277D01*
X194740Y103182D01*
X194226Y103073D01*
X193714Y102953D01*
X193205Y102820D01*
X192700Y102675D01*
X192198Y102517D01*
X191701Y102347D01*
X191207Y102165D01*
X190719Y101972D01*
X190235Y101766D01*
X189756Y101549D01*
X189283Y101320D01*
X188815Y101079D01*
X188353Y100828D01*
X187898Y100565D01*
X187449Y100291D01*
X187007Y100006D01*
X186572Y99711D01*
X186145Y99405D01*
X185725Y99088D01*
X185313Y98762D01*
X184908Y98426D01*
X184513Y98080D01*
X184125Y97724D01*
X183747Y97359D01*
X183377Y96985D01*
X183017Y96602D01*
X182666Y96211D01*
X182325Y95811D01*
X181994Y95402D01*
X181672Y94986D01*
X181361Y94562D01*
X181060Y94131D01*
X180770Y93693D01*
X180491Y93247D01*
X180223Y92795D01*
X179965Y92336D01*
X179719Y91872D01*
X179484Y91401D01*
X179261Y90925D01*
X179050Y90444D01*
X178850Y89958D01*
X178662Y89467D01*
X178486Y88971D01*
X178323Y88471D01*
X178171Y87968D01*
X178032Y87461D01*
X177905Y86951D01*
X177791Y86437D01*
X177689Y85922D01*
X177600Y85403D01*
X177523Y84883D01*
X177460Y84361D01*
X177408Y83838D01*
X177370Y83314D01*
X177344Y82789D01*
X177332Y82263D01*
X177332Y81737D01*
X177344Y81211D01*
X177370Y80686D01*
X177408Y80162D01*
X177460Y79639D01*
X177523Y79117D01*
X177600Y78597D01*
X177689Y78078D01*
X177791Y77563D01*
X177905Y77049D01*
X178032Y76539D01*
X178171Y76032D01*
X178323Y75529D01*
X178486Y75029D01*
X178662Y74533D01*
X178850Y74042D01*
X179050Y73556D01*
X179261Y73075D01*
X179484Y72599D01*
X179719Y72128D01*
X179965Y71664D01*
X180223Y71205D01*
X180491Y70753D01*
X180770Y70307D01*
X181060Y69869D01*
X181361Y69438D01*
X181672Y69014D01*
X181994Y68598D01*
X182325Y68189D01*
X182666Y67789D01*
X183017Y67398D01*
X183377Y67015D01*
X183747Y66641D01*
X184125Y66276D01*
X184513Y65920D01*
X184908Y65574D01*
X185313Y65238D01*
X185725Y64912D01*
X186145Y64595D01*
X186572Y64289D01*
X187007Y63994D01*
X187449Y63709D01*
X187898Y63435D01*
X188353Y63172D01*
X188815Y62921D01*
X189283Y62680D01*
X189756Y62451D01*
X190235Y62234D01*
X190719Y62028D01*
X191207Y61835D01*
X191701Y61653D01*
X192198Y61483D01*
X192700Y61325D01*
X193205Y61180D01*
X193714Y61047D01*
X194226Y60927D01*
X194740Y60818D01*
X195257Y60723D01*
X195776Y60640D01*
X196298Y60570D01*
X196820Y60512D01*
X197344Y60468D01*
X197869Y60436D01*
X198394Y60416D01*
X198920Y60410D01*
D11*
X259880Y65490D02*
X260282Y65495D01*
X260684Y65510D01*
X261085Y65534D01*
X261486Y65568D01*
X261885Y65612D01*
X262284Y65666D01*
X262681Y65729D01*
X263076Y65802D01*
X263470Y65885D01*
X263861Y65977D01*
X264250Y66079D01*
X264637Y66190D01*
X265020Y66311D01*
X265401Y66440D01*
X265778Y66579D01*
X266152Y66728D01*
X266522Y66885D01*
X266888Y67051D01*
X267250Y67226D01*
X267607Y67410D01*
X267960Y67602D01*
X268308Y67803D01*
X268652Y68013D01*
X268990Y68231D01*
X269322Y68457D01*
X269649Y68691D01*
X269970Y68932D01*
X270286Y69182D01*
X270595Y69439D01*
X270897Y69704D01*
X271194Y69976D01*
X271483Y70255D01*
X271766Y70541D01*
X272041Y70834D01*
X272309Y71133D01*
X272570Y71439D01*
X272824Y71751D01*
X273070Y72069D01*
X273307Y72394D01*
X273537Y72723D01*
X273759Y73059D01*
X273973Y73399D01*
X274178Y73745D01*
X274375Y74096D01*
X274563Y74451D01*
X274743Y74811D01*
X274913Y75175D01*
X275075Y75543D01*
X275228Y75915D01*
X275371Y76290D01*
X275506Y76669D01*
X275631Y77051D01*
X275747Y77436D01*
X275853Y77824D01*
X275950Y78214D01*
X276038Y78607D01*
X276115Y79001D01*
X276184Y79397D01*
X276242Y79795D01*
X276291Y80194D01*
X276330Y80594D01*
X276359Y80995D01*
X276379Y81397D01*
X276389Y81799D01*
X276389Y82201D01*
X276379Y82603D01*
X276359Y83005D01*
X276330Y83406D01*
X276291Y83806D01*
X276242Y84205D01*
X276184Y84603D01*
X276115Y84999D01*
X276038Y85393D01*
X275950Y85786D01*
X275853Y86176D01*
X275747Y86564D01*
X275631Y86949D01*
X275506Y87331D01*
X275371Y87710D01*
X275228Y88085D01*
X275075Y88457D01*
X274913Y88825D01*
X274743Y89189D01*
X274563Y89549D01*
X274375Y89904D01*
X274178Y90255D01*
X273973Y90601D01*
X273759Y90941D01*
X273537Y91277D01*
X273307Y91606D01*
X273070Y91931D01*
X272824Y92249D01*
X272570Y92561D01*
X272309Y92867D01*
X272041Y93166D01*
X271766Y93459D01*
X271483Y93745D01*
X271194Y94024D01*
X270897Y94296D01*
X270595Y94561D01*
X270286Y94818D01*
X269970Y95068D01*
X269649Y95309D01*
X269322Y95543D01*
X268990Y95769D01*
X268652Y95987D01*
X268308Y96197D01*
X267960Y96398D01*
X267607Y96590D01*
X267250Y96774D01*
X266888Y96949D01*
X266522Y97115D01*
X266152Y97272D01*
X265778Y97421D01*
X265401Y97560D01*
X265020Y97689D01*
X264637Y97810D01*
X264250Y97921D01*
X263861Y98023D01*
X263470Y98115D01*
X263076Y98198D01*
X262681Y98271D01*
X262284Y98334D01*
X261885Y98388D01*
X261486Y98432D01*
X261085Y98466D01*
X260684Y98490D01*
X260282Y98505D01*
X259880Y98510D01*
X198920Y98510D02*
X198518Y98505D01*
X198116Y98490D01*
X197715Y98466D01*
X197314Y98432D01*
X196915Y98388D01*
X196516Y98334D01*
X196119Y98271D01*
X195724Y98198D01*
X195330Y98115D01*
X194939Y98023D01*
X194550Y97921D01*
X194163Y97810D01*
X193780Y97689D01*
X193399Y97560D01*
X193022Y97421D01*
X192648Y97272D01*
X192278Y97115D01*
X191912Y96949D01*
X191550Y96774D01*
X191193Y96590D01*
X190840Y96398D01*
X190492Y96197D01*
X190148Y95987D01*
X189810Y95769D01*
X189478Y95543D01*
X189151Y95309D01*
X188830Y95068D01*
X188514Y94818D01*
X188205Y94561D01*
X187903Y94296D01*
X187606Y94024D01*
X187317Y93745D01*
X187034Y93459D01*
X186759Y93166D01*
X186491Y92867D01*
X186230Y92561D01*
X185976Y92249D01*
X185730Y91931D01*
X185493Y91606D01*
X185263Y91277D01*
X185041Y90941D01*
X184827Y90601D01*
X184622Y90255D01*
X184425Y89904D01*
X184237Y89549D01*
X184057Y89189D01*
X183887Y88825D01*
X183725Y88457D01*
X183572Y88085D01*
X183429Y87710D01*
X183294Y87331D01*
X183169Y86949D01*
X183053Y86564D01*
X182947Y86176D01*
X182850Y85786D01*
X182762Y85393D01*
X182685Y84999D01*
X182616Y84603D01*
X182558Y84205D01*
X182509Y83806D01*
X182470Y83406D01*
X182441Y83005D01*
X182421Y82603D01*
X182411Y82201D01*
X182411Y81799D01*
X182421Y81397D01*
X182441Y80995D01*
X182470Y80594D01*
X182509Y80194D01*
X182558Y79795D01*
X182616Y79397D01*
X182685Y79001D01*
X182762Y78607D01*
X182850Y78214D01*
X182947Y77824D01*
X183053Y77436D01*
X183169Y77051D01*
X183294Y76669D01*
X183429Y76290D01*
X183572Y75915D01*
X183725Y75543D01*
X183887Y75175D01*
X184057Y74811D01*
X184237Y74451D01*
X184425Y74096D01*
X184622Y73745D01*
X184827Y73399D01*
X185041Y73059D01*
X185263Y72723D01*
X185493Y72394D01*
X185730Y72069D01*
X185976Y71751D01*
X186230Y71439D01*
X186491Y71133D01*
X186759Y70834D01*
X187034Y70541D01*
X187317Y70255D01*
X187606Y69976D01*
X187903Y69704D01*
X188205Y69439D01*
X188514Y69182D01*
X188830Y68932D01*
X189151Y68691D01*
X189478Y68457D01*
X189810Y68231D01*
X190148Y68013D01*
X190492Y67803D01*
X190840Y67602D01*
X191193Y67410D01*
X191550Y67226D01*
X191912Y67051D01*
X192278Y66885D01*
X192648Y66728D01*
X193022Y66579D01*
X193399Y66440D01*
X193780Y66311D01*
X194163Y66190D01*
X194550Y66079D01*
X194939Y65977D01*
X195330Y65885D01*
X195724Y65802D01*
X196119Y65729D01*
X196516Y65666D01*
X196915Y65612D01*
X197314Y65568D01*
X197715Y65534D01*
X198116Y65510D01*
X198518Y65495D01*
X198920Y65490D01*
D12*
X284415Y57820D02*
X286786Y61376D01*
X284415Y61376D02*
X286786Y57820D01*
X288270Y60586D02*
X289258Y61376D01*
X289258Y57820D01*
X288270Y57820D02*
X290246Y57820D01*
D19*
X368000Y320000D02*
X368000Y340000D01*
X318000Y340000D01*
X318000Y320000D01*
X368000Y320000D01*
X374500Y280000D02*
X374500Y240000D01*
X360500Y200000D02*
X323000Y200000D01*
X311500Y223000D02*
X311500Y252000D01*
D20*
X282000Y300000D02*
X281956Y300002D01*
X281913Y300008D01*
X281871Y300017D01*
X281829Y300030D01*
X281789Y300047D01*
X281750Y300067D01*
X281713Y300090D01*
X281679Y300117D01*
X281646Y300146D01*
X281617Y300179D01*
X281590Y300213D01*
X281567Y300250D01*
X281547Y300289D01*
X281530Y300329D01*
X281517Y300371D01*
X281508Y300413D01*
X281502Y300456D01*
X281500Y300500D01*
X281502Y300544D01*
X281508Y300587D01*
X281517Y300629D01*
X281530Y300671D01*
X281547Y300711D01*
X281567Y300750D01*
X281590Y300787D01*
X281617Y300821D01*
X281646Y300854D01*
X281679Y300883D01*
X281713Y300910D01*
X281750Y300933D01*
X281789Y300953D01*
X281829Y300970D01*
X281871Y300983D01*
X281913Y300992D01*
X281956Y300998D01*
X282000Y301000D01*
X282044Y300998D01*
X282087Y300992D01*
X282129Y300983D01*
X282171Y300970D01*
X282211Y300953D01*
X282250Y300933D01*
X282287Y300910D01*
X282321Y300883D01*
X282354Y300854D01*
X282383Y300821D01*
X282410Y300787D01*
X282433Y300750D01*
X282453Y300711D01*
X282470Y300671D01*
X282483Y300629D01*
X282492Y300587D01*
X282498Y300544D01*
X282500Y300500D01*
X282498Y300456D01*
X282492Y300413D01*
X282483Y300371D01*
X282470Y300329D01*
X282453Y300289D01*
X282433Y300250D01*
X282410Y300213D01*
X282383Y300179D01*
X282354Y300146D01*
X282321Y300117D01*
X282287Y300090D01*
X282250Y300067D01*
X282211Y300047D01*
X282171Y300030D01*
X282129Y300017D01*
X282087Y300008D01*
X282044Y300002D01*
X282000Y300000D01*
X281956Y300002D01*
X281913Y300008D01*
X281871Y300017D01*
X281829Y300030D01*
X281789Y300047D01*
X281750Y300067D01*
X281713Y300090D01*
X281679Y300117D01*
X281646Y300146D01*
X281617Y300179D01*
X281590Y300213D01*
X281567Y300250D01*
X281547Y300289D01*
X281530Y300329D01*
X281517Y300371D01*
X281508Y300413D01*
X281502Y300456D01*
X281500Y300500D01*
X281502Y300544D01*
X281508Y300587D01*
X281517Y300629D01*
X281530Y300671D01*
X281547Y300711D01*
X281567Y300750D01*
X281590Y300787D01*
X281617Y300821D01*
X281646Y300854D01*
X281679Y300883D01*
X281713Y300910D01*
X281750Y300933D01*
X281789Y300953D01*
X281829Y300970D01*
X281871Y300983D01*
X281913Y300992D01*
X281956Y300998D01*
X282000Y301000D01*
D17*
X328908Y264815D02*
X337996Y264815D01*
X338095Y264813D01*
X338195Y264807D01*
X338294Y264798D01*
X338392Y264785D01*
X338490Y264768D01*
X338588Y264747D01*
X338684Y264722D01*
X338779Y264694D01*
X338873Y264662D01*
X338966Y264627D01*
X339058Y264588D01*
X339148Y264545D01*
X339236Y264500D01*
X339323Y264450D01*
X339407Y264398D01*
X339490Y264342D01*
X339570Y264284D01*
X339648Y264222D01*
X339723Y264157D01*
X339796Y264089D01*
X339866Y264019D01*
X339934Y263946D01*
X339999Y263871D01*
X340061Y263793D01*
X340119Y263713D01*
X340175Y263630D01*
X340227Y263546D01*
X340277Y263459D01*
X340322Y263371D01*
X340365Y263281D01*
X340404Y263189D01*
X340439Y263096D01*
X340471Y263002D01*
X340499Y262907D01*
X340524Y262811D01*
X340545Y262713D01*
X340562Y262615D01*
X340575Y262517D01*
X340584Y262418D01*
X340590Y262318D01*
X340592Y262219D01*
X340592Y260920D01*
X331504Y270088D02*
X328908Y273334D01*
X340592Y273334D01*
X340592Y270088D02*
X340592Y276580D01*
M02*
