G04 EAGLE Gerber RS-274X export*
G04 #@! %TF.Part,Single*
G04 #@! %TF.FileFunction,Soldermask,Top,1*
G04 #@! %TF.FilePolarity,Positive*
G04 #@! %TF.GenerationSoftware,Autodesk,EAGLE,9.5.2*
G04 #@! %TF.CreationDate,2020-03-16T13:55:46Z*
G75*
%MOMM*%
%FSLAX34Y34*%
%LPD*%
%INSoldermask Top*%
%IPPOS*%
%AMOC8*
5,1,8,0,0,1.08239X$1,22.5*%
G01*
%ADD10R,1.303200X1.203200*%
%ADD11R,1.203200X1.303200*%
%ADD12R,1.503200X1.703200*%
%ADD13R,1.703200X1.503200*%
%ADD14R,1.727200X1.727200*%
%ADD15C,1.727200*%
%ADD16C,0.350400*%
%ADD17R,0.600000X0.300000*%
%ADD18R,2.450000X1.700000*%
%ADD19R,0.350000X0.760000*%
%ADD20C,0.553200*%
%ADD21C,1.153200*%
%ADD22R,2.971800X4.191000*%
%ADD23R,0.965200X1.727200*%
%ADD24C,2.082800*%
%ADD25R,1.103200X1.703200*%
%ADD26R,1.703200X1.103200*%
%ADD27R,6.203200X6.203200*%
%ADD28R,1.703200X0.503200*%
%ADD29R,0.503200X1.703200*%
%ADD30C,2.003200*%
%ADD31R,2.203200X1.703200*%
%ADD32C,1.703200*%
%ADD33C,0.959600*%
%ADD34R,1.259600X1.259600*%


D10*
X67400Y21600D03*
X50400Y21600D03*
X246300Y38900D03*
X263300Y38900D03*
D11*
X270500Y280200D03*
X270500Y297200D03*
X211700Y281600D03*
X211700Y298600D03*
D12*
X111500Y222300D03*
X92500Y222300D03*
D11*
X171700Y141800D03*
X171700Y124800D03*
D10*
X288800Y157300D03*
X305800Y157300D03*
X288800Y135300D03*
X305800Y135300D03*
D11*
X574500Y303300D03*
X574500Y286300D03*
D13*
X650800Y247900D03*
X650800Y266900D03*
D11*
X586700Y245800D03*
X586700Y228800D03*
D13*
X625800Y248400D03*
X625800Y267400D03*
X19200Y69000D03*
X19200Y50000D03*
D10*
X212500Y38900D03*
X195500Y38900D03*
D14*
X346400Y38600D03*
D15*
X346400Y63600D03*
X346400Y88600D03*
D14*
X95400Y291700D03*
D15*
X95400Y266700D03*
D16*
X81600Y71350D03*
X76600Y71350D03*
X71600Y71350D03*
X66600Y71350D03*
X61600Y71350D03*
X61600Y48050D03*
X66600Y48050D03*
X71600Y48050D03*
X76600Y48050D03*
X81600Y48050D03*
D17*
X87850Y56950D03*
X87850Y62450D03*
D18*
X71600Y59700D03*
D19*
X81600Y75150D03*
X76600Y75150D03*
X71600Y75150D03*
X66600Y75150D03*
X61600Y75150D03*
X61600Y44250D03*
X66600Y44250D03*
X71600Y44250D03*
X76600Y44250D03*
X81600Y44250D03*
D17*
X55350Y62450D03*
X55350Y56950D03*
D20*
X71600Y59700D03*
D21*
X461100Y275500D03*
X529100Y275500D03*
D22*
X105638Y134200D03*
X56362Y134200D03*
D10*
X40500Y50200D03*
X40500Y67200D03*
D11*
X628200Y295300D03*
X645200Y295300D03*
D10*
X414700Y263000D03*
X414700Y246000D03*
D11*
X611800Y296500D03*
X594800Y296500D03*
D10*
X414500Y297700D03*
X414500Y280700D03*
D11*
X380300Y151500D03*
X363300Y151500D03*
D10*
X565500Y249200D03*
X565500Y266200D03*
D11*
X120900Y32300D03*
X103900Y32300D03*
D10*
X107400Y50200D03*
X107400Y67200D03*
X151600Y170600D03*
X151600Y187600D03*
X334600Y157500D03*
X334600Y174500D03*
D11*
X237900Y115100D03*
X220900Y115100D03*
X283200Y259700D03*
X266200Y259700D03*
D23*
X439850Y245660D03*
X439850Y301540D03*
X477950Y245660D03*
X477950Y301540D03*
X498950Y245760D03*
X498950Y301640D03*
X537050Y245760D03*
X537050Y301640D03*
D24*
X27600Y280000D03*
X27600Y254600D03*
X27600Y229200D03*
D25*
X588000Y205000D03*
X575300Y205000D03*
X562600Y205000D03*
X549900Y205000D03*
X537200Y205000D03*
X524500Y205000D03*
X511800Y205000D03*
X499100Y205000D03*
X486400Y205000D03*
X473700Y205000D03*
X461000Y205000D03*
X448300Y205000D03*
X435600Y205000D03*
X422900Y205000D03*
D26*
X408000Y172150D03*
X408000Y159450D03*
X408000Y146750D03*
X408000Y134050D03*
X408000Y121350D03*
X408000Y108650D03*
X408000Y95950D03*
X408000Y83250D03*
X408000Y70550D03*
X408000Y57850D03*
D25*
X422900Y25000D03*
X435600Y25000D03*
X448300Y25000D03*
X461000Y25000D03*
X473700Y25000D03*
X486400Y25000D03*
X499100Y25000D03*
X511800Y25000D03*
X524500Y25000D03*
X537200Y25000D03*
X549900Y25000D03*
X562600Y25000D03*
X575300Y25000D03*
X588000Y25000D03*
D27*
X511000Y115000D03*
D28*
X174900Y231500D03*
X174900Y226500D03*
X174900Y221500D03*
X174900Y216500D03*
X174900Y211500D03*
X174900Y206500D03*
X174900Y201500D03*
X174900Y196500D03*
X174900Y191500D03*
X174900Y186500D03*
X174900Y181500D03*
X174900Y176500D03*
D29*
X191900Y159500D03*
X196900Y159500D03*
X201900Y159500D03*
X206900Y159500D03*
X211900Y159500D03*
X216900Y159500D03*
X221900Y159500D03*
X226900Y159500D03*
X231900Y159500D03*
X236900Y159500D03*
X241900Y159500D03*
X246900Y159500D03*
D28*
X263900Y176500D03*
X263900Y181500D03*
X263900Y186500D03*
X263900Y191500D03*
X263900Y196500D03*
X263900Y201500D03*
X263900Y206500D03*
X263900Y211500D03*
X263900Y216500D03*
X263900Y221500D03*
X263900Y226500D03*
X263900Y231500D03*
D29*
X246900Y248500D03*
X241900Y248500D03*
X236900Y248500D03*
X231900Y248500D03*
X226900Y248500D03*
X221900Y248500D03*
X216900Y248500D03*
X211900Y248500D03*
X206900Y248500D03*
X201900Y248500D03*
X196900Y248500D03*
X191900Y248500D03*
D30*
X253530Y82000D03*
X205270Y82000D03*
D31*
X308000Y299000D03*
X378000Y299000D03*
X308000Y265000D03*
X378000Y227000D03*
X378000Y205000D03*
X308000Y210000D03*
D32*
X343000Y295000D03*
X343000Y225000D03*
D33*
X650000Y280000D03*
X100000Y20000D03*
X80000Y100000D03*
X30000Y20000D03*
X290000Y40000D03*
X570000Y80000D03*
X340000Y120000D03*
X330000Y130000D03*
X456500Y146500D03*
X472694Y99000D03*
X635000Y281000D03*
X509735Y301905D03*
X460000Y300000D03*
X170000Y160000D03*
X180000Y50000D03*
X194000Y123000D03*
X166000Y300000D03*
X199000Y295000D03*
X257000Y298000D03*
X283000Y225000D03*
X239000Y144694D03*
X610000Y236594D03*
X591000Y163000D03*
X560000Y160000D03*
X548306Y121000D03*
X422000Y163000D03*
X160000Y250000D03*
D34*
X520000Y100000D03*
X500000Y120000D03*
D33*
X120000Y290000D03*
D34*
X520000Y120000D03*
X500000Y100000D03*
D33*
X500000Y190000D03*
X150000Y220000D03*
X154000Y199000D03*
X260000Y140000D03*
X230000Y179853D03*
X130000Y60000D03*
X142300Y252300D03*
X201011Y270700D03*
X220000Y270000D03*
X240000Y279300D03*
X413000Y228000D03*
X550000Y250000D03*
X590000Y150000D03*
X360000Y271000D03*
X215000Y230000D03*
X297000Y237000D03*
X350000Y260000D03*
X302000Y246000D03*
X237000Y267000D03*
X199000Y221000D03*
X457677Y93677D03*
X290000Y210000D03*
X473000Y67694D03*
X289000Y198000D03*
X560000Y60000D03*
X300000Y190000D03*
X483000Y51000D03*
X450000Y60000D03*
X190000Y200000D03*
X436000Y61000D03*
X220000Y190000D03*
X432000Y50000D03*
X250000Y183000D03*
X450000Y190000D03*
X410000Y208000D03*
X470000Y180000D03*
X487476Y177476D03*
X474000Y144994D03*
X429806Y140000D03*
X438000Y180000D03*
X439000Y220899D03*
X391000Y60000D03*
X563000Y227000D03*
X610517Y284517D03*
X480000Y190000D03*
X550000Y40000D03*
X374000Y39000D03*
X537000Y42000D03*
X374000Y49000D03*
X265000Y116000D03*
M02*
