G04 EAGLE Gerber RS-274X export*
G04 #@! %TF.Part,Single*
G04 #@! %TF.FileFunction,Soldermask,Bot,1*
G04 #@! %TF.FilePolarity,Positive*
G04 #@! %TF.GenerationSoftware,Autodesk,EAGLE,9.5.2*
G04 #@! %TF.CreationDate,2020-03-16T13:55:46Z*
G75*
%MOMM*%
%FSLAX34Y34*%
%LPD*%
%INSoldermask Bottom*%
%IPPOS*%
%AMOC8*
5,1,8,0,0,1.08239X$1,22.5*%
G01*
%ADD10R,1.203200X1.303200*%
%ADD11R,1.503200X1.703200*%
%ADD12R,1.703200X1.503200*%
%ADD13R,1.303200X1.203200*%
%ADD14R,1.727200X1.727200*%
%ADD15C,1.727200*%
%ADD16R,1.473200X1.473200*%
%ADD17C,0.553200*%
%ADD18R,1.253200X0.803200*%
%ADD19R,0.823200X1.603200*%
%ADD20C,1.153200*%
%ADD21R,1.303200X2.603200*%
%ADD22C,2.082800*%
%ADD23C,2.003200*%
%ADD24C,1.703200*%
%ADD25C,0.959600*%
%ADD26R,1.259600X1.259600*%


D10*
X376500Y228200D03*
X376500Y211200D03*
X398500Y227700D03*
X398500Y210700D03*
X163300Y267700D03*
X163300Y284700D03*
X142300Y266700D03*
X142300Y283700D03*
D11*
X291700Y262000D03*
X310700Y262000D03*
D12*
X146000Y35800D03*
X146000Y16800D03*
D10*
X297700Y279800D03*
X297700Y296800D03*
X274700Y279300D03*
X274700Y296300D03*
D11*
X294600Y124800D03*
X313600Y124800D03*
D13*
X272700Y147700D03*
X289700Y147700D03*
D10*
X113300Y211200D03*
X113300Y228200D03*
X90300Y211700D03*
X90300Y228700D03*
D12*
X124000Y36300D03*
X124000Y17300D03*
D13*
X586000Y131300D03*
X569000Y131300D03*
X618800Y296700D03*
X635800Y296700D03*
D10*
X135500Y174300D03*
X135500Y191300D03*
D13*
X61300Y182500D03*
X44300Y182500D03*
D10*
X67300Y211600D03*
X67300Y228600D03*
D11*
X583300Y108000D03*
X564300Y108000D03*
D14*
X346400Y38600D03*
D15*
X346400Y63600D03*
X346400Y88600D03*
D14*
X95400Y291700D03*
D15*
X95400Y266700D03*
D16*
X71600Y59700D03*
D17*
X71600Y59700D03*
D18*
X115100Y192800D03*
X115100Y183300D03*
X115100Y173800D03*
X88100Y192800D03*
X88100Y173800D03*
D19*
X520900Y161300D03*
X509900Y161300D03*
X498900Y161300D03*
X487900Y161300D03*
X476900Y161300D03*
X465900Y161300D03*
X454900Y161300D03*
X443900Y161300D03*
X432900Y161300D03*
D20*
X461100Y275500D03*
X529100Y275500D03*
D21*
X419100Y271300D03*
X419100Y181300D03*
X580600Y181300D03*
X580600Y271300D03*
D10*
X471400Y117300D03*
X454400Y117300D03*
D13*
X374600Y89600D03*
X374600Y72600D03*
X62600Y284800D03*
X62600Y301800D03*
X62600Y254000D03*
X62600Y271000D03*
X392500Y195300D03*
X392500Y178300D03*
D10*
X372600Y248700D03*
X389600Y248700D03*
X371400Y270700D03*
X388400Y270700D03*
D22*
X27600Y280000D03*
X27600Y254600D03*
X27600Y229200D03*
D23*
X253530Y82000D03*
X205270Y82000D03*
D24*
X343000Y295000D03*
X343000Y225000D03*
D25*
X650000Y280000D03*
X100000Y20000D03*
X80000Y100000D03*
X30000Y20000D03*
X290000Y40000D03*
X570000Y80000D03*
X340000Y120000D03*
X330000Y130000D03*
X456500Y146500D03*
X472694Y99000D03*
X635000Y281000D03*
X509735Y301905D03*
X460000Y300000D03*
X170000Y160000D03*
X180000Y50000D03*
X194000Y123000D03*
X166000Y300000D03*
X199000Y295000D03*
X257000Y298000D03*
X283000Y225000D03*
X239000Y144694D03*
X610000Y236594D03*
X591000Y163000D03*
X560000Y160000D03*
X548306Y121000D03*
X422000Y163000D03*
X160000Y250000D03*
D26*
X520000Y100000D03*
X500000Y120000D03*
D25*
X120000Y290000D03*
D26*
X520000Y120000D03*
X500000Y100000D03*
D25*
X500000Y190000D03*
X150000Y220000D03*
X154000Y199000D03*
X260000Y140000D03*
X230000Y179853D03*
X130000Y60000D03*
X142300Y252300D03*
X201011Y270700D03*
X220000Y270000D03*
X240000Y279300D03*
X413000Y228000D03*
X550000Y250000D03*
X590000Y150000D03*
X360000Y271000D03*
X215000Y230000D03*
X297000Y237000D03*
X350000Y260000D03*
X302000Y246000D03*
X237000Y267000D03*
X199000Y221000D03*
X457677Y93677D03*
X290000Y210000D03*
X473000Y67694D03*
X289000Y198000D03*
X560000Y60000D03*
X300000Y190000D03*
X483000Y51000D03*
X450000Y60000D03*
X190000Y200000D03*
X436000Y61000D03*
X220000Y190000D03*
X432000Y50000D03*
X250000Y183000D03*
X450000Y190000D03*
X410000Y208000D03*
X470000Y180000D03*
X487476Y177476D03*
X474000Y144994D03*
X429806Y140000D03*
X438000Y180000D03*
X439000Y220899D03*
X391000Y60000D03*
X563000Y227000D03*
X610517Y284517D03*
X480000Y190000D03*
X550000Y40000D03*
X374000Y39000D03*
X537000Y42000D03*
X374000Y49000D03*
X265000Y116000D03*
M02*
