G04 EAGLE Gerber RS-274X export*
G04 #@! %TF.Part,Single*
G04 #@! %TF.FileFunction,Paste,Top*
G04 #@! %TF.FilePolarity,Positive*
G04 #@! %TF.GenerationSoftware,Autodesk,EAGLE,9.5.2*
G04 #@! %TF.CreationDate,2020-03-16T13:55:46Z*
G75*
%MOMM*%
%FSLAX34Y34*%
%LPD*%
%INSolderpaste Top*%
%IPPOS*%
%AMOC8*
5,1,8,0,0,1.08239X$1,22.5*%
G01*
%ADD10R,1.100000X1.000000*%
%ADD11R,1.000000X1.100000*%
%ADD12R,1.300000X1.500000*%
%ADD13R,1.500000X1.300000*%
%ADD14C,0.230000*%
%ADD15R,0.575000X0.250000*%
%ADD16R,1.025000X0.650000*%
%ADD17R,0.230000X0.685000*%
%ADD18R,2.768600X3.987800*%
%ADD19R,0.762000X1.524000*%
%ADD20R,0.900000X1.500000*%
%ADD21R,1.500000X0.900000*%
%ADD22R,6.000000X6.000000*%
%ADD23R,1.500000X0.300000*%
%ADD24R,0.300000X1.500000*%
%ADD25R,2.000000X1.500000*%


D10*
X67400Y21600D03*
X50400Y21600D03*
X246300Y38900D03*
X263300Y38900D03*
D11*
X270500Y280200D03*
X270500Y297200D03*
X211700Y281600D03*
X211700Y298600D03*
D12*
X111500Y222300D03*
X92500Y222300D03*
D11*
X171700Y141800D03*
X171700Y124800D03*
D10*
X288800Y157300D03*
X305800Y157300D03*
X288800Y135300D03*
X305800Y135300D03*
D11*
X574500Y303300D03*
X574500Y286300D03*
D13*
X650800Y247900D03*
X650800Y266900D03*
D11*
X586700Y245800D03*
X586700Y228800D03*
D13*
X625800Y248400D03*
X625800Y267400D03*
X19200Y69000D03*
X19200Y50000D03*
D10*
X212500Y38900D03*
X195500Y38900D03*
D14*
X81600Y71350D03*
X76600Y71350D03*
X71600Y71350D03*
X66600Y71350D03*
X61600Y71350D03*
X61600Y48050D03*
X66600Y48050D03*
X71600Y48050D03*
X76600Y48050D03*
X81600Y48050D03*
D15*
X87725Y56950D03*
X87725Y62450D03*
D16*
X78225Y54950D03*
X78225Y64450D03*
X64975Y64450D03*
X64975Y54950D03*
D17*
X81600Y74775D03*
X76600Y74775D03*
X71600Y74775D03*
X66600Y74775D03*
X61600Y74775D03*
X61600Y44625D03*
X66600Y44625D03*
X71600Y44625D03*
X76600Y44625D03*
X81600Y44625D03*
D15*
X55475Y62450D03*
X55475Y56950D03*
D18*
X105638Y134200D03*
X56362Y134200D03*
D10*
X40500Y50200D03*
X40500Y67200D03*
D11*
X628200Y295300D03*
X645200Y295300D03*
D10*
X414700Y263000D03*
X414700Y246000D03*
D11*
X611800Y296500D03*
X594800Y296500D03*
D10*
X414500Y297700D03*
X414500Y280700D03*
D11*
X380300Y151500D03*
X363300Y151500D03*
D10*
X565500Y249200D03*
X565500Y266200D03*
D11*
X120900Y32300D03*
X103900Y32300D03*
D10*
X107400Y50200D03*
X107400Y67200D03*
X151600Y170600D03*
X151600Y187600D03*
X334600Y157500D03*
X334600Y174500D03*
D11*
X237900Y115100D03*
X220900Y115100D03*
X283200Y259700D03*
X266200Y259700D03*
D19*
X439850Y245660D03*
X439850Y301540D03*
X477950Y245660D03*
X477950Y301540D03*
X498950Y245760D03*
X498950Y301640D03*
X537050Y245760D03*
X537050Y301640D03*
D20*
X588000Y205000D03*
X575300Y205000D03*
X562600Y205000D03*
X549900Y205000D03*
X537200Y205000D03*
X524500Y205000D03*
X511800Y205000D03*
X499100Y205000D03*
X486400Y205000D03*
X473700Y205000D03*
X461000Y205000D03*
X448300Y205000D03*
X435600Y205000D03*
X422900Y205000D03*
D21*
X408000Y172150D03*
X408000Y159450D03*
X408000Y146750D03*
X408000Y134050D03*
X408000Y121350D03*
X408000Y108650D03*
X408000Y95950D03*
X408000Y83250D03*
X408000Y70550D03*
X408000Y57850D03*
D20*
X422900Y25000D03*
X435600Y25000D03*
X448300Y25000D03*
X461000Y25000D03*
X473700Y25000D03*
X486400Y25000D03*
X499100Y25000D03*
X511800Y25000D03*
X524500Y25000D03*
X537200Y25000D03*
X549900Y25000D03*
X562600Y25000D03*
X575300Y25000D03*
X588000Y25000D03*
D22*
X511000Y115000D03*
D23*
X174900Y231500D03*
X174900Y226500D03*
X174900Y221500D03*
X174900Y216500D03*
X174900Y211500D03*
X174900Y206500D03*
X174900Y201500D03*
X174900Y196500D03*
X174900Y191500D03*
X174900Y186500D03*
X174900Y181500D03*
X174900Y176500D03*
D24*
X191900Y159500D03*
X196900Y159500D03*
X201900Y159500D03*
X206900Y159500D03*
X211900Y159500D03*
X216900Y159500D03*
X221900Y159500D03*
X226900Y159500D03*
X231900Y159500D03*
X236900Y159500D03*
X241900Y159500D03*
X246900Y159500D03*
D23*
X263900Y176500D03*
X263900Y181500D03*
X263900Y186500D03*
X263900Y191500D03*
X263900Y196500D03*
X263900Y201500D03*
X263900Y206500D03*
X263900Y211500D03*
X263900Y216500D03*
X263900Y221500D03*
X263900Y226500D03*
X263900Y231500D03*
D24*
X246900Y248500D03*
X241900Y248500D03*
X236900Y248500D03*
X231900Y248500D03*
X226900Y248500D03*
X221900Y248500D03*
X216900Y248500D03*
X211900Y248500D03*
X206900Y248500D03*
X201900Y248500D03*
X196900Y248500D03*
X191900Y248500D03*
D25*
X308000Y299000D03*
X378000Y299000D03*
X308000Y265000D03*
X378000Y227000D03*
X378000Y205000D03*
X308000Y210000D03*
M02*
